<svg width="297" height="450" viewBox="0 0 297 450" fill="none" xmlns="http://www.w3.org/2000/svg">
<path d="M94.5219 107.689C110.658 112.652 126.406 121.994 141.809 135.866C141.81 135.866 141.81 135.866 141.81 135.866C141.81 135.867 141.81 135.867 141.81 135.867C155.222 148.332 166.655 163.598 172.045 182.747C175.169 193.841 175.44 204.815 169.885 215.256C164.843 224.727 156.487 229.749 146.19 231.913C132.387 234.812 119.022 232.448 106.18 227.389C75.5614 215.318 52.0868 195.114 37.6462 165.22C32.8715 155.332 30.5097 144.828 31.8322 133.715C33.5833 119.013 43.7964 108.439 58.124 105.151L58.0121 104.664L58.1241 105.151C70.5066 102.308 82.5714 104.016 94.5219 107.689ZM94.5219 107.689L94.6689 107.211L94.522 107.689C94.5219 107.689 94.5219 107.689 94.5219 107.689ZM435.753 313.475L435.743 313.257L434.901 314.445C432.538 317.78 429.425 320.538 426.023 323.163C424.568 324.286 423.067 325.38 421.551 326.484C421.295 326.671 421.038 326.858 420.781 327.046C419.007 328.341 417.224 329.657 415.499 331.046L415.813 331.436L415.499 331.046C412.509 333.457 409.518 335.865 406.526 338.274C391.214 350.604 375.896 362.938 360.77 375.502C347.077 386.878 334.505 399.435 322.475 412.566C311.03 425.055 297.951 435.513 282.244 442.26C264.458 449.899 246.433 452.275 228.231 444.491L228.035 444.95L228.231 444.491C214.109 438.457 202.286 429.732 193.975 416.259C185.91 403.176 181.26 389.569 182.331 374.194L181.832 374.159L182.331 374.194C182.875 366.343 184.349 358.648 187.218 351.349C196.483 327.795 197.437 303.509 194.298 278.855C193.7 274.163 193.065 269.48 192.429 264.799C191.268 256.24 190.108 247.69 189.182 239.11C187.941 227.6 189.643 216.468 195.139 206.109L194.697 205.874L195.139 206.109C203.012 191.262 215.436 183.687 232.103 182.225L232.059 181.726L232.103 182.225C246.982 180.916 261.289 183.596 275.709 186.991C298.405 192.341 321.326 196.882 344.74 197.935C357.572 198.513 370.459 198.404 383.294 198.041C398.831 197.606 412.821 202.319 426.089 209.819C438.183 216.655 447.512 226.191 453.152 238.998C460.368 255.385 459.192 271.713 452.188 287.907C448.204 297.112 442.743 305.409 435.753 313.475ZM216.543 19.8302L216.715 19.9937C233.846 36.2172 245.266 55.8609 251.714 78.5067C255.766 92.7309 257.457 107.119 254.99 121.801C253.429 131.096 250.327 139.636 243.903 146.776C239.185 152.017 233.926 155.173 228.225 156.625C222.519 158.079 216.339 157.834 209.774 156.22L209.774 156.22C197.573 153.227 187.637 146.181 178.818 137.487C161.748 120.66 150.865 100.22 145.061 77.067L144.576 77.1885L145.061 77.0669C141.535 63.0125 140.36 48.748 143.641 34.4734L143.153 34.3614L143.641 34.4732C145.685 25.5641 149.124 17.3114 155.988 10.9998L155.988 10.9996C165.127 2.58775 175.85 0.497437 187.674 3.48121L187.797 2.9964L187.674 3.48122C198.744 6.2724 208.118 12.207 216.543 19.8302ZM91.1879 354.665L91.1147 355.159L91.1878 354.665C71.1006 351.697 52.7105 344.367 36.0463 332.695C23.0935 323.621 12.2273 312.751 5.55231 298.289C0.886808 288.18 -0.448167 277.733 4.18628 267.258C7.99218 258.659 14.9446 253.119 23.3617 249.263C35.6312 243.641 48.6795 243.102 61.9005 244.106C82.6182 245.681 101.434 253.041 118.958 263.877L118.958 263.877C122.801 266.252 126.401 268.994 130.022 271.753C131.658 272.999 133.298 274.249 134.967 275.469C143.961 284.249 151.617 293.708 155.607 305.708L156.081 305.55L155.607 305.708C158.929 315.695 158.669 324.858 155.186 332.534C151.702 340.21 144.969 346.458 135.232 350.569C121.018 356.566 106.193 356.884 91.1879 354.665ZM348.944 12.7059C350.362 13.7101 351.786 14.7177 353.235 15.701C365.858 28.232 374.518 43.0779 380.53 59.6099L381 59.439L380.53 59.61C387.615 79.08 390.218 99.0607 387.018 119.633C385.311 130.6 381.63 140.856 374.59 149.516C366.445 159.535 353.123 164.857 338.564 160.204C327.427 156.639 318.541 149.8 311.051 140.992L310.67 141.316L311.051 140.992C290.351 116.655 281.556 88.0628 281.846 56.4599C281.967 43.296 284.947 30.6758 291.813 19.1946C302.275 1.71196 321.988 -3.60181 339.657 6.55786C342.87 8.40627 345.896 10.548 348.944 12.7059Z" stroke="#A18E7D"/>
</svg>
