<svg width="84" height="68" viewBox="0 0 84 68" fill="none" xmlns="http://www.w3.org/2000/svg">
<path d="M48.3191 62.746C48.31 62.8254 48.3003 62.9038 48.2885 62.9805C48.2272 63.3989 48.1289 63.7873 47.9946 64.1446C48.0913 64.1231 48.1875 64.1011 48.2837 64.0791H48.2842C48.2842 64.0791 48.2847 64.0791 48.2853 64.0786C49.5805 63.5974 50.8011 62.9869 51.9147 62.2627C51.8868 62.2547 51.8583 62.2455 51.8304 62.2364C51.7289 62.2032 51.6268 62.1688 51.5253 62.1324C50.4105 61.7322 49.3119 61.1319 48.246 60.3396C48.3701 61.163 48.4056 61.9779 48.3191 62.746Z" fill="#EFD5A2"/>
<path d="M82.2017 16.0691C82.1254 15.6357 81.5887 14.6261 78.8521 12.7346C77.0433 11.4847 74.5183 10.0261 71.5496 8.51654C65.8647 5.62618 60.5145 3.51045 59.4707 3.37956C57.3643 3.11563 56.3844 3.94444 56.3161 4.00505C56.1184 4.19925 55.8149 4.203 55.6022 4.0249C51.7492 0.793372 41.8578 1.07876 41.7585 1.08252C41.7262 1.08305 41.694 1.08091 41.6634 1.07661C41.6322 1.08091 41.6005 1.08305 41.5683 1.08252C41.4684 1.0793 31.577 0.793372 27.724 4.0249C27.5118 4.203 27.2078 4.19871 27.0106 4.00505C26.9418 3.94444 25.9619 3.1151 23.8555 3.37956C22.8117 3.51045 17.462 5.62618 11.7765 8.51654C8.80785 10.0261 6.2829 11.4847 4.4746 12.7346C1.73745 14.6261 1.20076 15.6357 1.12448 16.0691C0.839213 17.6908 1.74175 22.4646 3.36954 27.9481C4.11198 30.4479 4.9205 32.7916 5.64629 34.5463C6.61329 36.8847 7.12634 37.4404 7.273 37.5617C7.50401 37.4716 8.2803 36.9539 9.73832 34.0013C10.5511 32.3555 11.2012 30.7065 11.3317 30.3707C11.429 29.4829 11.5412 28.4899 11.6691 27.3762C11.9243 25.1629 12.5915 22.8079 13.652 20.3778C14.496 18.4439 15.5898 16.457 16.9033 14.4721C19.1376 11.0958 21.2064 8.92262 21.2935 8.83143C21.4981 8.61739 21.8382 8.60988 22.0526 8.81426C22.1632 8.91994 22.2191 9.06103 22.2191 9.20265C22.2191 9.33568 22.1697 9.46926 22.0703 9.57279C22.0493 9.59478 19.9703 11.7803 17.7881 15.081C15.788 18.1071 13.2878 22.7178 12.7366 27.4986C12.606 28.6315 12.4927 29.6384 12.3938 30.5343C12.3933 30.5493 12.3917 30.5643 12.389 30.5793C12.2627 31.7354 12.1612 32.7042 12.0795 33.5158C12.7495 32.422 13.4049 31.98 13.465 31.9414C13.7138 31.7799 14.0469 31.8507 14.208 32.0996C14.3697 32.348 14.2988 32.6801 14.0501 32.8415C14.0469 32.8437 13.3533 33.32 12.7226 34.5699C12.1317 35.7394 11.4778 37.8396 11.7148 41.2052C12.1451 47.3201 14.8409 52.3487 19.6651 56.1816C19.569 53.2113 21.3649 50.0581 22.3464 48.5657C22.1992 48.665 22.0574 48.7921 21.9204 48.9471C21.7243 49.1692 21.3848 49.1907 21.1624 48.9943C20.94 48.7985 20.9185 48.4595 21.1151 48.2374C21.6851 47.5921 22.3625 47.2482 23.1286 47.216C24.6151 47.1533 25.8625 48.3286 25.9152 48.3785C25.9378 48.4 25.9576 48.423 25.9759 48.4472C26.0044 48.4858 26.0275 48.5276 26.0447 48.5711C26.1011 48.7159 26.0925 48.8806 26.0173 49.0201C25.9947 49.0619 25.9662 49.1011 25.9318 49.137C25.9055 49.1644 25.8765 49.1885 25.8464 49.2095C25.8008 49.2406 25.7519 49.2636 25.7003 49.2792C25.6493 49.2948 25.5966 49.3028 25.5434 49.3028C25.4102 49.3028 25.277 49.2534 25.1733 49.1547C25.1701 49.1521 25.1298 49.1145 25.0594 49.0566C24.8483 48.8833 24.3653 48.5266 23.7953 48.3667C23.7824 48.3839 23.7631 48.4102 23.7373 48.4456C23.7287 48.4574 23.719 48.4702 23.7094 48.4842C23.6298 48.5936 23.509 48.7653 23.3596 48.9884C23.3414 49.0163 23.322 49.0448 23.3027 49.0743C23.2447 49.1628 23.1823 49.2583 23.1173 49.3602C23.0308 49.4959 22.9395 49.6429 22.8444 49.8006C22.7966 49.8795 22.7483 49.961 22.6994 50.0447C22.5769 50.2539 22.4506 50.4787 22.3239 50.7153C22.2476 50.8574 22.1713 51.0044 22.0955 51.1546C22.0198 51.3053 21.9446 51.4598 21.871 51.6175C21.7974 51.7753 21.7249 51.9367 21.6545 52.1009C21.6308 52.1556 21.6077 52.2109 21.5846 52.2661C21.539 52.3766 21.4938 52.4887 21.4503 52.6014C21.4068 52.714 21.3644 52.8283 21.3235 52.9426C21.2618 53.1148 21.2037 53.2891 21.15 53.4645C21.078 53.6984 21.013 53.9344 20.9572 54.1721C20.818 54.7659 20.7347 55.3673 20.7353 55.9558C20.7353 56.3087 20.7659 56.6569 20.8325 56.9965C20.8374 57.0201 20.8422 57.0437 20.8476 57.0673C20.8658 57.1536 20.8862 57.2389 20.9088 57.3226C20.9878 57.616 21.0942 57.8929 21.2285 58.1536C21.3628 58.4143 21.5239 58.6589 21.7141 58.8885C22.074 59.3246 22.5361 59.706 23.1028 60.0381C24.3358 60.7601 25.5612 61.2413 26.7721 61.48C26.9574 61.5171 27.1422 61.5476 27.327 61.5734C27.5118 61.5986 27.6956 61.6185 27.8798 61.6324C28.0636 61.6463 28.2467 61.6544 28.4299 61.6571C28.6131 61.6598 28.7958 61.6565 28.9779 61.6474C29.0972 61.642 29.2159 61.634 29.3346 61.6238C29.3937 61.6185 29.4534 61.6125 29.5124 61.6061C29.5715 61.5997 29.6312 61.5922 29.6903 61.5847L29.9514 61.5471C30.0207 61.5358 30.0894 61.524 30.1587 61.5112C30.228 61.4983 30.2968 61.4843 30.3656 61.4699C30.4451 61.4532 30.5246 61.4355 30.6041 61.4167C30.8421 61.3604 31.0795 61.2934 31.3154 61.2172C31.8515 61.0434 32.3683 60.8224 32.8642 60.5649C33.1618 60.4109 33.4519 60.2435 33.7345 60.0654C34.0837 59.845 34.4211 59.6084 34.7461 59.3595C35.4611 58.8118 36.1171 58.2061 36.7075 57.5882C36.8402 57.4498 36.9691 57.3103 37.0948 57.1713C37.1604 57.0989 37.2243 57.027 37.2877 56.9552C37.3511 56.8827 37.4139 56.8108 37.4752 56.739C37.5278 56.6773 37.5799 56.6161 37.6315 56.5544C37.8367 56.3093 38.0317 56.0657 38.2155 55.8275C38.3535 55.6489 38.4852 55.4735 38.6103 55.3018C38.8413 54.9853 39.0578 54.6726 39.2604 54.369C39.5972 53.8631 39.8938 53.3808 40.1473 52.9452C40.2344 52.7961 40.3165 52.6523 40.3934 52.515C40.4321 52.4458 40.4691 52.3788 40.5051 52.3133C40.5411 52.2479 40.576 52.184 40.6093 52.1218C40.6523 52.0419 40.6931 51.9657 40.7318 51.8917C40.7705 51.8182 40.807 51.7479 40.842 51.6809C40.8677 51.6304 40.8919 51.5827 40.9156 51.5365C40.9311 51.506 40.9462 51.4759 40.9601 51.447C40.9822 51.4035 41.0031 51.3611 41.0225 51.322C41.0413 51.2839 41.059 51.2474 41.0756 51.2136C41.0837 51.1964 41.0918 51.1804 41.0993 51.1643C41.1374 51.0849 41.1686 51.0189 41.1922 50.9679C41.2164 50.9164 41.2325 50.8805 41.2411 50.8612C41.2422 50.8579 41.2433 50.8558 41.2443 50.8537C41.2443 50.8537 41.2443 50.8526 41.2449 50.8526C41.2202 50.793 41.2051 50.7281 41.2035 50.66L41.0558 44.2871C40.0775 44.0918 39.5134 43.3724 39.4881 43.3397C39.3076 43.1047 39.3517 42.7684 39.587 42.5876C39.8207 42.4079 40.1565 42.4508 40.3375 42.6831C40.3504 42.6987 40.756 43.1911 41.4034 43.256C41.9126 43.307 42.4649 43.087 43.0435 42.6021C43.173 42.4937 43.3379 42.4567 43.4915 42.4868C42.6841 41.8672 42.4789 40.3984 42.4423 40.0674C42.4101 39.7729 42.6228 39.5079 42.9178 39.4757C43.2111 39.443 43.4776 39.6554 43.5103 39.9499C43.5947 40.7009 43.9229 41.6022 44.2356 41.6837C44.2732 41.6934 44.5783 41.7416 45.2187 40.9938C45.2031 40.3233 44.9984 39.7734 44.6052 39.3561C43.6232 38.3116 41.7719 38.3824 41.7531 38.3835C41.7214 38.3846 41.6913 38.3792 41.6628 38.3706C41.6349 38.3792 41.6048 38.3846 41.5731 38.3835C41.5548 38.3824 39.7036 38.3116 38.721 39.3561C38.3267 39.775 38.1215 40.327 38.1075 41.0003C38.5604 41.5458 38.8048 41.6671 38.8827 41.6934C39.0363 41.5088 39.147 40.7583 39.1153 40.0889C39.1008 39.7927 39.3297 39.5412 39.6257 39.5272C39.9233 39.5133 40.1736 39.7402 40.1882 40.0363C40.1892 40.0578 40.2134 40.5663 40.1462 41.1129C40.035 42.019 39.7369 42.5442 39.2351 42.719C39.1239 42.7577 39.0132 42.7754 38.9036 42.7754C38.1424 42.7754 37.4172 41.9149 36.8515 41.1258C36.1144 40.0991 35.936 39.1141 36.3201 38.1979C36.5694 37.603 37.054 37.0617 37.7685 36.5795C36.3078 37.1293 34.5339 38.0456 32.5725 39.5664L26.3358 44.4024C26.2375 44.478 26.122 44.5151 26.0065 44.5151C25.8464 44.5151 25.688 44.4437 25.5821 44.3074C25.4 44.0736 25.4424 43.7367 25.6767 43.5548L31.9133 38.7188C37.4107 34.4562 41.608 34.5758 42.7727 34.7142C44.271 34.769 47.1602 35.4213 51.4129 38.7188L57.6495 43.5548C57.8843 43.7367 57.9267 44.0736 57.7446 44.3074C57.6388 44.4437 57.4803 44.5151 57.3197 44.5151C57.2047 44.5151 57.0887 44.478 56.9909 44.4024L50.7543 39.5664C48.9567 38.1727 47.4401 37.2919 46.2212 36.7361C46.6026 37.081 46.9142 37.4801 47.1006 37.9399C47.4987 38.921 47.2881 39.9928 46.4753 41.1258C45.5593 42.4025 44.7379 42.924 43.9632 42.7217C43.9052 42.7062 43.8504 42.6863 43.7967 42.6643C43.7978 42.6654 43.7994 42.6665 43.8004 42.6681C43.9912 42.895 43.9616 43.2335 43.7344 43.4239C43.202 43.8702 42.6653 44.153 42.1297 44.2715L42.278 50.6353C42.2796 50.712 42.2645 50.7855 42.2371 50.8526C42.2446 50.8692 42.2624 50.9084 42.2898 50.9674C42.2919 50.9717 42.2941 50.9765 42.2962 50.9813C42.358 51.1138 42.4644 51.337 42.6143 51.6299C42.7416 51.8804 42.9011 52.1803 43.0908 52.5193C43.5275 53.2988 44.1255 54.2788 44.8717 55.3018C45.23 55.7927 45.6404 56.3173 46.0998 56.8468C46.1003 56.8473 46.1008 56.8479 46.1008 56.8484C46.4081 57.2019 46.7364 57.557 47.0861 57.9063H47.0866C47.3397 58.1605 47.6045 58.4105 47.8801 58.6541C47.9505 58.7158 48.0214 58.7774 48.0929 58.8386C49.2742 59.8471 50.6414 60.7221 52.1666 61.2172C52.4599 61.3121 52.7549 61.3921 53.0514 61.4559H53.052C53.1771 61.4838 53.3023 61.5085 53.428 61.5294C53.543 61.5498 53.658 61.5675 53.7735 61.582C54.0211 61.6152 54.2693 61.6372 54.5186 61.6485C55.1514 61.678 55.7897 61.6388 56.4322 61.531C57.7333 61.3132 59.0517 60.8154 60.3792 60.0381C61.0287 59.6583 61.5396 59.213 61.9183 58.6948C62.2825 58.1981 62.5243 57.6338 62.6495 56.9965C62.6532 56.9771 62.657 56.9584 62.6602 56.9391C63.3484 53.1958 59.7071 48.393 59.67 48.3442C59.6679 48.3415 59.6657 48.3388 59.6641 48.3361C58.8561 48.6076 58.2458 49.3355 58.2383 49.3441C58.132 49.4723 57.9783 49.5388 57.823 49.5388C57.7032 49.5388 57.5824 49.4991 57.4824 49.4171C57.2541 49.2293 57.2197 48.893 57.4072 48.6639C57.4185 48.6499 57.4943 48.5588 57.6243 48.4273C58.0197 48.0288 58.9152 47.2606 60.031 47.171C60.7955 47.1098 61.5095 47.3684 62.1547 47.9397C62.3766 48.136 62.397 48.4756 62.1998 48.6972C62.0032 48.9187 61.6637 48.9391 61.4418 48.7422C61.3193 48.6339 61.1963 48.5432 61.0716 48.4697C62.0241 49.8993 63.863 53.0568 63.8201 56.055C68.545 52.2382 71.1854 47.2525 71.6114 41.2052C71.8489 37.8396 71.1945 35.7394 70.6041 34.5699C69.9729 33.32 69.2793 32.8437 69.2724 32.8388C69.0236 32.6774 68.9549 32.3464 69.1166 32.098C69.2777 31.8496 69.6124 31.7804 69.8612 31.9414C69.9213 31.98 70.5773 32.422 71.2467 33.5153C71.165 32.7015 71.0629 31.73 70.9361 30.5702C70.9345 30.5622 70.934 30.5541 70.9334 30.5461C70.8346 29.6475 70.7207 28.6363 70.5896 27.4986C70.039 22.7178 67.5387 18.1071 65.5381 15.081C63.3564 11.7803 61.2774 9.59478 61.2564 9.57279C61.0518 9.35875 61.0593 9.01918 61.2736 8.81426C61.4885 8.60988 61.828 8.61739 62.0333 8.83143C62.1203 8.92262 64.1891 11.0958 66.4229 14.4721C67.7364 16.457 68.8308 18.4439 69.6742 20.3778C70.7352 22.8079 71.4019 25.1629 71.6571 27.3762C71.7855 28.4899 71.8972 29.4829 71.995 30.3701C72.125 30.7065 72.7751 32.3555 73.5879 34.0013C75.0464 36.9539 75.8227 37.4716 76.0537 37.5617C76.1999 37.4404 76.7134 36.8847 77.6804 34.5463C78.4062 32.7916 79.2142 30.4479 79.9566 27.9481C81.585 22.4646 82.487 17.6908 82.2017 16.0691ZM36.2922 47.6768C36.4818 47.9048 36.4507 48.2433 36.2224 48.4327L35.3961 49.1183C35.2957 49.2014 35.1737 49.2416 35.0528 49.2416C34.8986 49.2416 34.7455 49.1757 34.6392 49.048C34.4495 48.82 34.4812 48.482 34.709 48.2927L35.5358 47.6071C35.7641 47.4177 36.1026 47.4494 36.2922 47.6768ZM33.9032 44.3766L34.73 43.6911C34.9583 43.5017 35.2967 43.5334 35.4864 43.7608C35.676 43.9888 35.6449 44.3273 35.4165 44.5167L34.5903 45.2022C34.4898 45.2854 34.3679 45.3256 34.247 45.3256C34.0928 45.3256 33.9397 45.2596 33.8333 45.132C33.6437 44.904 33.6754 44.566 33.9032 44.3766ZM33.8629 49.6923C33.8811 49.7143 33.8973 49.7373 33.9112 49.7615C34.0445 49.9841 33.9993 50.2764 33.793 50.4476L32.1905 51.7769C32.09 51.86 31.9681 51.9008 31.8472 51.9008C31.693 51.9008 31.5399 51.8348 31.4336 51.7071C31.2439 51.4791 31.2756 51.1412 31.5039 50.9518L33.1006 49.6273L33.1065 49.6225C33.3348 49.4332 33.6732 49.4643 33.8629 49.6923ZM30.6981 47.0358L32.3006 45.7065C32.529 45.5171 32.8674 45.5482 33.057 45.7762C33.2467 46.0042 33.2155 46.3422 32.9872 46.5315L31.3847 47.8608C31.2842 47.944 31.1623 47.9848 31.0414 47.9848C30.8872 47.9848 30.7341 47.9188 30.6277 47.7911C30.4381 47.5631 30.4698 47.2252 30.6981 47.0358ZM30.6573 52.3514C30.8469 52.5794 30.8157 52.9174 30.5874 53.1067L29.7612 53.7923C29.6607 53.8754 29.5388 53.9162 29.4179 53.9162C29.2637 53.9162 29.1106 53.8502 29.0042 53.7226C28.8151 53.4946 28.8463 53.1561 29.0746 52.9667L29.9009 52.2811C30.1292 52.0923 30.4676 52.1234 30.6573 52.3514ZM28.2688 49.0507L28.4933 48.864L29.095 48.3651C29.3233 48.1763 29.6618 48.2074 29.8514 48.4354C30.0115 48.628 30.0142 48.8989 29.8735 49.0925C29.8477 49.1279 29.8171 49.1612 29.7816 49.1907L28.9553 49.8763C28.8549 49.9594 28.7329 50.0002 28.6121 50.0002C28.4579 50.0002 28.3048 49.9342 28.1984 49.8065C28.0093 49.5785 28.0405 49.24 28.2688 49.0507ZM47.5261 48.3506C47.4197 48.4783 47.2671 48.5443 47.113 48.5443C46.9915 48.5443 46.8701 48.504 46.7697 48.4209L45.9434 47.7353C45.7151 47.546 45.6839 47.2075 45.8731 46.9795C46.0632 46.752 46.4017 46.7204 46.63 46.9097L47.4562 47.5953C47.6846 47.7847 47.7157 48.1226 47.5261 48.3506ZM47.9188 44.6282C47.7974 44.6282 47.676 44.588 47.5755 44.5049L46.7493 43.8193C46.5209 43.6299 46.4898 43.2914 46.6789 43.0634C46.8691 42.836 47.2075 42.8043 47.4358 42.9937L48.2621 43.6793C48.4904 43.8686 48.5216 44.2066 48.3319 44.4346C48.2256 44.5623 48.073 44.6282 47.9188 44.6282ZM50.7317 51.0098C50.6259 51.1374 50.4728 51.2034 50.3186 51.2034C50.1972 51.2034 50.0757 51.1626 49.9753 51.0795L48.5833 49.9251L48.3727 49.7502C48.1444 49.5608 48.1133 49.2229 48.3024 48.9949C48.492 48.7669 48.831 48.7358 49.0593 48.9251L49.985 49.6928L50.6619 50.2544C50.8902 50.4438 50.9213 50.7818 50.7317 51.0098ZM50.7811 47.1635L49.1786 45.8342C48.9503 45.6448 48.9191 45.3068 49.1082 45.0789C49.2978 44.8509 49.6368 44.8198 49.8652 45.0091L51.4677 46.3384C51.696 46.5278 51.7272 46.8657 51.5375 47.0937C51.4317 47.2214 51.2786 47.2874 51.1244 47.2874C51.003 47.2874 50.8816 47.2466 50.7811 47.1635ZM53.161 53.0252C53.0547 53.1529 52.9015 53.2188 52.7474 53.2188C52.6265 53.2188 52.5051 53.1781 52.4046 53.0949L51.5784 52.4093C51.35 52.22 51.3183 51.882 51.508 51.654C51.6976 51.426 52.0366 51.3944 52.2644 51.5838L53.0912 52.2693C53.3195 52.4587 53.3507 52.7972 53.161 53.0252ZM54.0243 49.0238C54.0088 49.0534 53.9894 49.0823 53.9669 49.1091C53.8605 49.2368 53.7074 49.3028 53.5532 49.3028C53.4323 49.3028 53.3109 49.262 53.2104 49.1789L53.19 49.1623L52.3842 48.4933C52.1559 48.3039 52.1242 47.966 52.3138 47.738C52.5035 47.51 52.8424 47.4784 53.0702 47.6677L53.897 48.3533C54.0985 48.5201 54.1463 48.8028 54.0243 49.0238ZM21.388 22.6566C21.7351 22.5214 29.9347 19.336 34.463 19.0094C36.1294 18.8892 37.0846 19.5576 37.5923 20.1391C38.3057 20.9566 38.6683 22.1583 38.67 23.7118C38.671 24.804 38.4868 25.6822 38.4792 25.7192C38.3987 26.0974 38.064 26.3565 37.6917 26.3565C37.6363 26.3565 37.5799 26.3511 37.5235 26.3388C37.0884 26.2465 36.8106 25.82 36.9025 25.3855C37.0712 24.5803 37.3065 22.258 36.376 21.1948C35.9828 20.7453 35.395 20.5554 34.5795 20.6144C30.2941 20.9239 22.0579 24.1233 21.9752 24.1554C21.5605 24.3175 21.0931 24.1131 20.9314 23.6989C20.7691 23.2853 20.9738 22.8186 21.388 22.6566ZM65.1637 32.5524C65.1637 34.6901 64.0489 36.7543 62.1821 38.0745C60.9647 38.9355 59.5851 39.3786 58.2055 39.3786C57.4851 39.3786 56.7647 39.2579 56.0674 39.0128C55.621 38.8561 55.2702 38.7349 54.9887 38.6378C54.8769 38.5992 54.7754 38.5643 54.6824 38.5316C58.566 42.0217 61.9672 44.9195 62.0204 44.9651C62.246 45.1572 62.2729 45.4957 62.0805 45.7215C61.9742 45.846 61.8232 45.9098 61.6717 45.9098C61.5482 45.9098 61.4246 45.868 61.3231 45.7816C61.2393 45.7102 52.8559 38.567 47.3279 33.15C45.4556 31.3153 43.6844 30.4603 41.7568 30.4603H41.7407C41.7144 30.4603 41.6886 30.4576 41.6634 30.4538C41.6381 30.4576 41.6123 30.4603 41.586 30.4603H41.5699C39.6418 30.4603 37.8711 31.3153 35.9989 33.15C30.4709 38.567 22.0875 45.7102 22.0031 45.7816C21.9021 45.8674 21.778 45.9098 21.655 45.9098C21.503 45.9098 21.352 45.846 21.2456 45.7215C21.0533 45.4957 21.0807 45.1572 21.3064 44.9651C21.3595 44.9195 24.7596 42.0222 28.6432 38.5321C28.5508 38.5643 28.4498 38.5992 28.3381 38.6378C28.056 38.7349 27.7052 38.8561 27.2588 39.0128C26.562 39.2579 25.8411 39.3786 25.1212 39.3786C23.7411 39.3786 22.3615 38.9361 21.1441 38.0745C19.2773 36.7543 18.1631 34.6901 18.1631 32.5524C18.1631 28.204 21.8742 24.6667 26.4363 24.6667C30.9984 24.6667 34.7095 28.204 34.7095 32.5524C34.7095 32.6774 34.7036 32.8008 34.6918 32.9236C34.8793 32.7423 35.0647 32.562 35.2462 32.3839C37.3323 30.3401 39.342 29.3874 41.5694 29.3874H41.5871C41.6129 29.3874 41.6381 29.3901 41.6634 29.3938C41.6881 29.3901 41.7133 29.3874 41.7397 29.3874H41.7568C43.9847 29.3874 45.9939 30.3396 48.08 32.3839C48.2621 32.562 48.4474 32.7423 48.6349 32.9241C48.6231 32.8013 48.6172 32.6774 48.6172 32.5524C48.6172 28.204 52.3283 24.6667 56.8904 24.6667C61.4525 24.6667 65.1637 28.204 65.1637 32.5524ZM61.9382 22.6566C62.3529 22.8186 62.5576 23.2853 62.3954 23.6989C62.2331 24.1131 61.7657 24.3169 61.3515 24.1554C61.2688 24.1233 53.0326 20.9239 48.7472 20.6144C47.9317 20.5559 47.344 20.7453 46.9507 21.1948C46.0202 22.258 46.255 24.5803 46.4242 25.3855C46.5156 25.82 46.2368 26.247 45.8016 26.3388C45.7457 26.3506 45.6899 26.3559 45.6345 26.3559C45.2622 26.3559 44.9281 26.0974 44.8475 25.7192C44.8394 25.6822 44.6557 24.804 44.6568 23.7118C44.6584 22.1583 45.021 20.9566 45.7339 20.1391C46.2421 19.5576 47.1978 18.8887 48.8632 19.0094C53.392 19.336 61.5917 22.5214 61.9382 22.6566Z" fill="#EFD5A2"/>
<path d="M35.8146 59.8873C34.5462 60.9248 33.2279 61.686 31.8859 62.157C31.8075 62.1844 31.7296 62.2112 31.6511 62.2364C31.5754 62.2611 31.4991 62.2847 31.4233 62.3072C31.8504 62.6141 32.2947 62.8989 32.7551 63.1602C32.8701 63.2256 32.9867 63.2895 33.1038 63.3522C33.4551 63.54 33.8156 63.7149 34.1836 63.8763C36.0601 64.7014 38.1478 65.1847 40.3574 65.2942C40.2354 65.16 40.1183 65.02 40.006 64.8747C39.7546 64.549 39.5284 64.1955 39.335 63.8222C39.1169 63.4032 38.9396 62.9585 38.8118 62.4993C38.569 61.6265 38.187 60.6625 37.7594 59.7216C37.5874 59.3412 37.4075 58.9647 37.2259 58.5999C36.8853 58.9443 36.5404 59.2678 36.1917 59.5703C36.0666 59.6787 35.9409 59.7849 35.8146 59.8873Z" fill="#EFD5A2"/>
<path d="M37.3103 38.6126C37.0911 39.1356 37.197 39.7117 37.6343 40.3705C37.7396 39.8314 37.9716 39.3679 38.331 38.9859C39.485 37.7618 41.5125 37.8428 41.5979 37.8471C41.6205 37.8481 41.642 37.853 41.6629 37.8589C41.6839 37.8524 41.7053 37.8481 41.7279 37.8471C41.8133 37.8428 43.8408 37.7623 44.9948 38.9859C45.3547 39.3673 45.5868 39.8314 45.6915 40.3705C46.2094 39.6007 46.3453 38.936 46.1047 38.3433C45.5938 37.0821 43.4615 36.3043 42.2023 35.9861C40.5423 36.3633 37.8878 37.2334 37.3103 38.6126Z" fill="#EFD5A2"/>
<path d="M35.4653 36.9238C35.4653 36.9238 21.2069 47.6339 20.5799 53.037C20.3656 54.8818 19.7972 56.8114 21.057 58.6235C23.9435 62.7745 31.4931 64.9937 39.711 54.7842L41.4581 50.602C41.4581 50.602 46.285 60.0467 50.0295 60.8105C51.9758 61.2075 55.442 62.6479 58.5552 61.6276C61.431 60.6856 64.1144 57.4894 62.4506 53.037C58.985 43.764 54.0022 41.8081 54.0022 41.8081C54.0022 41.8081 47.7033 35.6412 43.5129 35.3038C39.3226 34.9664 35.4653 36.9238 35.4653 36.9238Z" fill="#7C665B"/>
<path d="M46.2202 30.839C46.2202 30.839 46.888 25.1366 49.955 23.7751C53.022 22.4136 62.5851 22.3364 65.1638 26.291C67.7425 30.2457 66.1845 38.9897 66.1845 38.9897C65.1638 43.013 62.1892 46.9033 55.432 39.8265C48.7355 32.8131 46.2202 30.839 46.2202 30.839Z" fill="#7C665B"/>
<path d="M37.5333 30.839C37.5333 30.839 36.8655 25.1366 33.7985 23.7751C30.7315 22.4136 21.1684 22.3364 18.5897 26.291C16.011 30.2457 17.569 38.9897 17.569 38.9897C18.5897 43.013 21.5643 46.9033 28.3215 39.8265C35.018 32.8131 37.5333 30.839 37.5333 30.839Z" fill="#7C665B"/>
<path d="M56.0143 3.3951C56.0143 3.3951 57.6958 2.61886 58.5017 2.72615C59.3075 2.83344 69.5685 7.28591 73.3828 8.8416C77.1971 10.3973 81.6023 13.6696 82.4618 15.4398C83.3214 17.2101 80.6697 27.4009 80.6697 27.4009L77.6806 35.8783L76.1844 38.1153L74.6721 37.2731L71.9946 32.2976L71.452 27.9679L69.7296 21.448L65.4319 13.7232L61.4612 9.35283L55.2246 2.94073" fill="#7C665B"/>
<path d="M27.6917 3.3951C27.6917 3.3951 26.0102 2.61886 25.2044 2.72615C24.3986 2.83344 14.1376 7.28591 10.3233 8.8416C6.50901 10.3973 2.10378 13.6696 1.24422 15.4398C0.38466 17.2101 3.0364 27.4009 3.0364 27.4009L6.02551 35.8783L7.52167 38.1153L9.03396 37.2731L11.7115 32.2976L12.2541 27.9679L13.9764 21.448L18.2742 13.7232L22.2448 9.35283L28.4814 2.94073" fill="#7C665B"/>
<path d="M53.5535 62.1066C53.5535 62.1066 43.9029 67.1181 38.6784 65.5972C33.4539 64.0764 29.2812 61.9473 29.2812 61.9473L41.8539 49.1209L53.5535 62.1066Z" fill="#7C665B"/>
<path d="M69.1168 32.098C69.1168 32.098 72.4223 43.8971 60.5975 48.2701C59.147 48.8066 62.041 52.6239 60.3826 54.7611C56.6097 59.6245 48.9849 64.5474 48.9849 64.5474C48.9849 64.5474 66.6429 56.0335 68.1868 52.3396C69.7308 48.6456 73.7498 45.6501 71.9872 38.2923C70.2245 30.9345 69.1173 32.098 69.1173 32.098H69.1168Z" fill="#D2AD79"/>
<path d="M14.3113 32.3662C14.3113 32.3662 11.0057 44.1653 22.8306 48.5384C24.2811 49.0748 21.3871 52.8921 23.0455 55.0293C26.8184 59.8927 34.4432 64.8156 34.4432 64.8156C34.4432 64.8156 16.7852 56.3017 15.2412 52.6078C13.6972 48.9139 9.67827 45.9184 11.4409 38.5605C13.2041 31.2027 14.3107 32.3662 14.3107 32.3662H14.3113Z" fill="#D2AD79"/>
<path d="M36.7036 20.4159C36.7036 20.4159 36.9056 25.364 39.4306 27.1879C41.2518 28.5033 42.352 28.6251 44.4268 26.115C46.4215 23.7016 45.7494 21.6384 45.7494 21.6384L49.1543 19.6058C49.1543 19.6058 44.8377 18.468 42.2242 20.6433C42.2242 20.6433 37.9393 18.0856 34.7095 19.6058L36.7036 20.4153V20.4159Z" fill="#D2AD79"/>
<path d="M41.8539 49.1209C41.8539 49.1209 49.1537 57.2287 54.7408 56.4777C58.6583 55.9509 60.8909 51.0468 59.6693 48.3442C58.4477 45.6416 62.2082 51.4598 62.2082 51.4598C62.2082 51.4598 64.3378 57.3425 62.494 58.5999C60.6503 59.8573 55.7207 65.3891 46.5546 58.5999L41.6621 51.4598L41.8539 49.1209Z" fill="#5B473E"/>
<path d="M41.4042 49.1209C41.4042 49.1209 34.1044 57.2287 28.5173 56.4777C24.5999 55.9509 22.3672 51.0468 23.5888 48.3442C24.8105 45.6416 21.0499 51.4598 21.0499 51.4598C21.0499 51.4598 18.9203 57.3425 20.7641 58.5999C22.6078 59.8573 27.5374 65.3891 36.7035 58.5999L41.596 51.4598L41.4042 49.1209Z" fill="#5B473E"/>
<path d="M34.7095 59.9275C34.7095 59.9275 40.5158 64.5232 48.2465 60.3395C55.9771 56.1558 52.7807 62.1066 52.7807 62.1066C52.7807 62.1066 48.0923 65.4384 46.5553 65.5983C45.0183 65.7581 36.9702 65.8493 35.8903 65.2941C34.8105 64.7389 30.7588 62.4826 30.7588 62.4826L34.7095 59.9275Z" fill="#5B473E"/>
<path d="M37.6217 58.1884L39.3768 62.7627L38.0101 64.3479L36.7036 58.5999L37.6217 58.1884Z" fill="#5B473E"/>
<path d="M59.1468 46.6072C55.7891 44.4217 52.3745 42.1268 48.9331 40.1023C47.179 39.0911 43.2911 36.7994 41.363 36.9571C37.0878 37.2817 28.7549 43.8515 25.0852 46.5922L22.939 48.2358C24.1311 46.8776 25.4129 45.603 26.7264 44.3622C30.0497 41.2551 36.8493 35.513 41.4608 35.3489C45.9628 35.2292 55.8369 43.3574 59.1468 46.6072Z" fill="#A18A7A"/>
<path d="M45.4477 41.2427C45.4477 41.2427 45.8162 38.2601 41.5222 38.1153C37.2282 37.9704 38.0104 41.4707 38.0104 41.4707C38.0104 41.4707 39.9949 43.734 40.3575 43.749C40.7201 43.764 44.7257 43.1203 44.6569 42.4766C44.5881 41.8328 45.4477 41.2427 45.4477 41.2427Z" fill="#5B473E"/>
<path d="M60.8121 8.68066C60.8121 8.68066 61.1344 6.4276 67.6885 14.7961C69.86 17.569 73.2816 25.7932 75.2929 29.3873C77.3043 32.9815 80.3557 28.2909 80.3557 28.2909C80.3557 28.2909 78.2004 36.2479 76.7316 37.2967C75.2628 38.3454 75.2628 37.2779 71.2874 30.5697C71.2874 30.5697 71.4942 25.4348 68.4363 19.1231C65.3785 12.8113 60.8115 8.68013 60.8115 8.68013L60.8121 8.68066Z" fill="#5B473E"/>
<path d="M56.1382 4.06728C56.1382 4.06728 61.302 5.042 63.6357 6.27152C65.9694 7.50105 78.433 13.3477 79.6686 15.0644C80.9042 16.781 82.2537 19.6 82.2537 19.6L82.4622 15.4399C82.4622 15.4399 78.7553 11.8457 75.4245 10.0754C72.0938 8.30518 59.7913 2.33833 59.1467 2.53198C58.502 2.72564 55.7627 3.49329 55.7627 3.49329L56.2457 3.90581L56.1382 4.06674V4.06728Z" fill="#A18E7D"/>
<path d="M22.7771 8.84161C22.7771 8.84161 22.4547 6.58855 15.9006 14.9571C13.7291 17.7299 10.3076 25.9541 8.29619 29.5483C6.28429 33.1425 3.2334 28.4518 3.2334 28.4518C3.2334 28.4518 5.38874 36.4089 6.85751 37.4576C8.32628 38.5064 8.32628 37.4388 12.3017 30.7306C12.3017 30.7306 12.0949 25.5958 15.1528 19.284C18.2112 12.9717 22.7776 8.84108 22.7776 8.84108L22.7771 8.84161Z" fill="#5B473E"/>
<path d="M27.4514 4.2282C27.4514 4.2282 22.2876 5.20291 19.9539 6.43244C17.6202 7.66143 5.15662 13.5087 3.921 15.2253C2.68539 16.9419 1.33588 19.7609 1.33588 19.7609L1.12744 15.6008C1.12744 15.6008 4.83428 12.0066 8.16507 10.2364C11.4959 8.4661 23.7983 2.49924 24.4429 2.6929C25.0876 2.88656 27.8269 3.65421 27.8269 3.65421L27.344 4.06673L27.4514 4.22766V4.2282Z" fill="#A18E7D"/>
<path d="M27.3432 4.06728C27.3432 4.06728 33.2038 2.24928 37.9797 1.97516C42.6536 1.70693 49.4441 2.39626 50.8193 2.67253C52.1946 2.9488 55.7618 4.12093 55.7618 4.12093L51.4318 1.31319L41.9315 0.13623L33.705 1.07447L28.9318 2.52716L27.3115 3.83286" fill="#F9EBCE"/>
<path d="M38.0103 57.7614C38.3111 58.3536 38.6146 58.985 38.8945 59.6245C39.2776 60.4989 39.6176 61.3878 39.847 62.2123C40.1989 63.4756 41.0144 64.6273 41.9814 65.3076C42.2823 65.5189 42.5976 65.6847 42.9183 65.7941C42.9339 65.7995 42.9495 65.8048 42.9651 65.8097C43.866 66.1015 44.7615 65.9658 45.6335 65.4057C45.7651 65.3215 45.8956 65.2276 46.0262 65.1241C46.2029 64.9835 46.3614 64.8237 46.5016 64.645C46.5559 64.5758 46.6074 64.5034 46.6558 64.4283C46.8782 64.0871 47.0426 63.688 47.1484 63.2326C47.1936 63.0405 47.2279 62.8383 47.2516 62.6264C47.3687 61.5841 47.2242 60.4093 46.9249 59.2441C46.825 59.1529 46.7256 59.0596 46.6262 58.9641H46.6257C45.7108 58.087 44.826 57.064 43.9879 55.9128C42.9452 54.4805 42.1909 53.1502 41.7407 52.2843C41.2911 53.1502 40.5368 54.4805 39.4935 55.9128C39.0138 56.5727 38.5185 57.1896 38.0103 57.7614Z" fill="#EDA2A2"/>
<path d="M53.1304 62.7482C53.2523 62.7085 53.3737 62.6683 53.4946 62.628C53.4404 62.6205 53.3861 62.6119 53.3318 62.6028C53.2652 62.6522 53.1981 62.701 53.1304 62.7482Z" fill="#481B15"/>
<path d="M72.6837 41.2803C72.5655 42.9567 72.2061 48.0582 68.1629 53.155C66.9037 54.7423 65.3892 56.1972 63.6357 57.5071C63.661 57.4063 63.6841 57.3038 63.7045 57.2003C63.7781 56.8237 63.8146 56.4407 63.82 56.055C68.5449 52.2382 71.1853 47.2525 71.6114 41.2052C71.8488 37.8396 71.1945 35.7394 70.6041 34.5699C69.9728 33.32 69.2793 32.8437 69.2723 32.8388C69.0236 32.6774 68.9548 32.3464 69.1165 32.098C69.2777 31.8496 69.6124 31.7804 69.8611 31.9414C69.9213 31.98 70.5772 32.422 71.2466 33.5153C71.5963 36.9909 71.5764 37.5799 71.5748 37.6116C71.5759 37.5982 71.5764 37.5928 71.5764 37.5928L72.6095 37.7011C72.739 38.7231 72.7804 39.9097 72.6837 41.2803Z" fill="#481B15"/>
<path d="M19.884 57.6509C18.0483 56.3039 16.4689 54.8003 15.1634 53.155C11.1197 48.0583 10.7609 42.9567 10.6427 41.2803C10.546 39.9097 10.5868 38.7231 10.7168 37.7006L11.7494 37.5928C11.7494 37.5928 11.7504 37.5982 11.751 37.6116C11.7494 37.5799 11.73 36.9909 12.0792 33.5158C12.7491 32.422 13.4045 31.98 13.4647 31.9414C13.7134 31.7799 14.0465 31.8507 14.2077 32.0996C14.3694 32.348 14.2985 32.6801 14.0497 32.8415C14.0465 32.8437 13.353 33.32 12.7223 34.5699C12.1313 35.7394 11.4775 37.8396 11.7144 41.2052C12.1448 47.3201 14.8405 52.3487 19.6648 56.1816C19.675 56.5244 19.7115 56.865 19.7771 57.2003C19.8072 57.3537 19.8426 57.5039 19.884 57.6509Z" fill="#481B15"/>
<path d="M30.0594 62.6173C29.9992 62.627 29.9396 62.6355 29.8794 62.6436C29.9992 62.6838 30.1195 62.7235 30.2404 62.7627C30.1797 62.7149 30.1195 62.6661 30.0594 62.6173Z" fill="#481B15"/>
<path d="M47.978 64.1896C48.0806 64.1537 48.1827 64.1167 48.2842 64.0791C48.1881 64.1011 48.0919 64.1231 47.9952 64.1445C47.9898 64.1596 47.9845 64.1746 47.978 64.1896Z" fill="white"/>
<path d="M52.613 62.4574C52.3798 62.4011 52.1472 62.3367 51.9151 62.2627C50.8015 62.9869 49.5809 63.5974 48.2857 64.0786C48.2857 64.0786 48.2853 64.0787 48.2846 64.0791H48.284C48.1825 64.1166 48.0804 64.1537 47.9778 64.1896C47.8843 64.4321 47.7742 64.6601 47.6464 64.873C47.489 65.138 47.3052 65.38 47.0957 65.5983C48.5285 65.196 49.9054 64.6445 51.1834 63.9573C51.8657 63.5909 52.5157 63.1864 53.1298 62.7487H53.1303C53.198 62.7015 53.2652 62.6527 53.3318 62.6033C53.0917 62.5642 52.8521 62.5154 52.613 62.458V62.4574Z" fill="#481B15"/>
<path d="M40.3571 65.2941C38.1475 65.1847 36.0599 64.7014 34.1833 63.8763C33.8153 63.7148 33.4549 63.54 33.1035 63.3522C32.9864 63.2894 32.8704 63.2256 32.7549 63.1602C32.2945 62.8984 31.8496 62.6141 31.4231 62.3072C31.2023 62.3737 30.9804 62.4322 30.7585 62.4826C30.5259 62.5368 30.2928 62.5813 30.0591 62.6173C30.1193 62.6661 30.1794 62.7149 30.2401 62.7627C31.6224 63.8527 33.2018 64.7126 34.9623 65.3301C36.9565 66.0296 39.1478 66.389 41.3795 66.389C41.4767 66.389 41.5739 66.3885 41.6712 66.3869C41.4144 66.2318 41.1662 66.0516 40.9293 65.8488C40.7294 65.6793 40.5382 65.4932 40.3571 65.2941Z" fill="#481B15"/>
<path d="M47.9781 64.1896C47.9845 64.1746 47.9899 64.1596 47.9953 64.1445C48.1296 63.7873 48.2279 63.3989 48.2891 62.9805C48.3009 62.9038 48.3106 62.8254 48.3197 62.746C48.4062 61.9779 48.3708 61.163 48.2467 60.3396C48.0339 60.1813 47.8228 60.0161 47.6128 59.8423C47.5048 59.7538 47.3973 59.6631 47.2904 59.5703C47.2544 59.5392 47.2184 59.5075 47.1824 59.4759C47.1577 59.4544 47.1336 59.4324 47.1088 59.4104C47.0782 59.3831 47.0471 59.3552 47.0164 59.3273C46.9869 59.3005 46.9568 59.2736 46.9273 59.2458C46.9267 59.2458 46.9256 59.2452 46.9251 59.2441C47.2243 60.4093 47.3689 61.5841 47.2517 62.6264C47.2281 62.8383 47.1937 63.0405 47.1486 63.2326C47.0428 63.688 46.8784 64.0871 46.656 64.4283C46.6076 64.5034 46.556 64.5758 46.5018 64.645C46.3616 64.8237 46.2031 64.9835 46.0263 65.1241C45.8958 65.2276 45.7652 65.3215 45.6336 65.4057C44.7617 65.9658 43.8662 66.1015 42.9652 65.8097C42.9497 65.8048 42.9341 65.7995 42.9185 65.7941C42.5978 65.6847 42.2824 65.5189 41.9816 65.3076C41.0146 64.6273 40.1991 63.4756 39.8472 62.2123C39.6178 61.3878 39.2777 60.4989 38.8947 59.6245C38.6148 58.985 38.3113 58.3536 38.0104 57.7614C37.882 57.9068 37.752 58.0495 37.622 58.1884C37.4904 58.3284 37.3588 58.4658 37.2261 58.5999C37.4077 58.9647 37.5876 59.3412 37.7595 59.7216C38.1872 60.6625 38.5691 61.6265 38.812 62.4993C38.9398 62.9585 39.1171 63.4032 39.3352 63.8221C39.5286 64.1955 39.7548 64.549 40.0062 64.8746C40.1185 65.02 40.2356 65.16 40.3575 65.2941C40.5386 65.4932 40.7298 65.6793 40.9297 65.8488C41.1666 66.0516 41.4148 66.2318 41.6716 66.3869C41.9821 66.5741 42.3044 66.7238 42.6338 66.8305C42.9873 66.9448 43.4117 67.0311 43.8866 67.0311C44.7058 67.0311 45.6755 66.7747 46.6957 65.9631C46.8381 65.8499 46.9718 65.7281 47.0959 65.5983C47.3055 65.38 47.4892 65.138 47.6466 64.873C47.7745 64.6601 47.8846 64.4321 47.9781 64.1896Z" fill="#481B15"/>
<path d="M62.3953 23.6989C62.2331 24.1131 61.7657 24.3169 61.3515 24.1554C61.2688 24.1233 53.0326 20.9239 48.7472 20.6144C47.9317 20.5559 47.3439 20.7453 46.9507 21.1948C46.0202 22.258 46.255 24.5803 46.4242 25.3855C46.5155 25.82 46.2367 26.247 45.8016 26.3388C45.7457 26.3506 45.6898 26.3559 45.6345 26.3559C45.2622 26.3559 44.928 26.0974 44.8475 25.7192C44.8394 25.6822 44.6557 24.804 44.6567 23.7118C44.6584 22.1583 45.021 20.9566 45.7339 20.1391C46.2421 19.5576 47.1978 18.8886 48.8632 19.0093C53.392 19.336 61.5916 22.5214 61.9382 22.6566C62.3529 22.8186 62.5576 23.2853 62.3953 23.6989Z" fill="#481B15"/>
<path d="M62.746 31.6592C62.746 34.9943 60.0841 37.7382 56.6689 38.0793C57.1718 38.2301 57.6859 38.3046 58.2022 38.3046C59.3637 38.3046 60.5294 37.9291 61.5614 37.199C63.1441 36.08 64.0891 34.3425 64.0891 32.5524C64.0891 29.7484 62.2899 27.3349 59.7268 26.291H59.7263C61.5469 27.4492 62.746 29.4212 62.746 31.6592Z" fill="white"/>
<path d="M65.1632 32.5524C65.1632 34.6901 64.0484 36.7543 62.1816 38.0745C60.9642 38.9355 59.5847 39.3786 58.2051 39.3786C57.4846 39.3786 56.7642 39.2579 56.0669 39.0127C55.6205 38.8561 55.2697 38.7349 54.9882 38.6378C54.8764 38.5991 54.7749 38.5643 54.682 38.5316C54.4171 38.2939 54.1506 38.053 53.882 37.8106C54.5342 38.0085 55.2288 38.1153 55.9498 38.1153C56.1926 38.1153 56.4322 38.1029 56.6686 38.0793C57.1709 38.2301 57.685 38.3046 58.2018 38.3046C59.3633 38.3046 60.5291 37.9291 61.5611 37.199C63.1438 36.08 64.0887 34.3425 64.0887 32.5524C64.0887 29.7484 62.2896 27.3349 59.7265 26.291H59.7259C58.6461 25.6038 57.3471 25.2031 55.9498 25.2031C52.1968 25.2031 49.1539 28.0935 49.1539 31.6592C49.1539 32.4038 49.2872 33.1188 49.5311 33.7846C49.227 33.4949 48.9272 33.2074 48.6344 32.9241C48.6226 32.8013 48.6167 32.6774 48.6167 32.5524C48.6167 28.204 52.3278 24.6667 56.8899 24.6667C61.452 24.6667 65.1632 28.204 65.1632 32.5524Z" fill="#481B15"/>
<path d="M56.4185 28.2909C58.1698 28.5103 59.522 29.9329 59.522 31.6565C59.522 33.5319 57.9216 35.0527 55.9473 35.0527C53.973 35.0527 52.3726 33.5324 52.3726 31.6565C52.3726 29.9726 53.6631 28.5752 55.3559 28.3075C55.2119 28.2758 55.0717 28.2549 54.9357 28.2458C53.3472 28.6873 52.1841 30.0777 52.1841 31.7198C52.1841 33.7164 53.9027 35.3408 56.0145 35.3408C58.1263 35.3408 59.8449 33.7164 59.8449 31.7198C59.8449 29.9055 58.4255 28.3981 56.5802 28.139H56.5796C56.5796 28.139 56.5796 28.139 56.5791 28.139C56.5324 28.197 56.4786 28.2479 56.419 28.2909H56.4185Z" fill="#481B15"/>
<path d="M55.9502 38.1153C56.193 38.1153 56.4326 38.1029 56.669 38.0793C60.0846 37.7381 62.7461 34.9942 62.7461 31.6592C62.7461 29.4211 61.547 27.4492 59.7263 26.291C58.6465 25.6038 57.3475 25.2031 55.9502 25.2031C52.1971 25.2031 49.1543 28.0934 49.1543 31.6592C49.1543 32.4038 49.2875 33.1188 49.5314 33.7846C50.9239 35.1101 52.4228 36.4904 53.8824 37.8106C54.5346 38.008 55.2292 38.1153 55.9502 38.1153ZM61.439 30.596C61.389 31.0036 61.0414 31.303 60.6401 31.303C60.6187 31.303 60.5972 31.3019 60.5757 31.3003C60.5902 31.4387 60.5972 31.5787 60.5972 31.7203C60.5972 34.1311 58.5417 36.0923 56.0146 36.0923C53.4875 36.0923 51.4321 34.1311 51.4321 31.7203C51.4321 31.0702 51.5815 30.4527 51.8501 29.8975C51.8501 29.8975 51.8501 29.897 51.8501 29.8964C51.798 29.8825 51.7464 29.8642 51.6959 29.8396C51.2973 29.6416 51.135 29.1588 51.3333 28.7608C51.372 28.683 51.7346 27.9824 52.4969 27.4036C53.2297 26.8473 54.4674 26.3033 56.2016 26.873C56.4595 26.9578 56.6448 27.16 56.7195 27.4004H56.72C57.8267 27.564 58.8028 28.1063 59.4985 28.8842L59.7483 27.9674C60.422 28.1503 61.6415 28.9351 61.4379 30.5954L61.439 30.596Z" fill="#481B15"/>
<path d="M52.373 31.6571C52.373 33.5325 53.9734 35.0533 55.9477 35.0533C57.922 35.0533 59.5224 33.533 59.5224 31.6571C59.5224 29.9335 58.1702 28.5103 56.4189 28.2914C56.2169 28.4357 55.952 28.4856 55.6985 28.4025C55.5819 28.3644 55.468 28.3333 55.3563 28.3086C53.6635 28.5768 52.373 29.9737 52.373 31.6576V31.6571Z" fill="#351411"/>
<path d="M59.8386 30.4007C59.887 30.0075 59.7521 29.8251 59.6468 29.7221C59.4969 29.5757 59.3148 29.5177 59.3127 29.5172L59.3256 29.5209L59.4985 28.8853C58.8028 28.1074 57.8267 27.5651 56.72 27.4015H56.7195C56.7673 27.5554 56.77 27.7249 56.7152 27.8896C56.684 27.9835 56.6373 28.0672 56.5787 28.1401C56.5787 28.1401 56.5787 28.1401 56.5793 28.1401H56.5798C58.4252 28.3992 59.8445 29.9066 59.8445 31.7209C59.8445 33.7175 58.1265 35.3419 56.0141 35.3419C53.9017 35.3419 52.1837 33.7175 52.1837 31.7209C52.1837 30.0788 53.3468 28.6878 54.9354 28.2469C54.3901 28.2104 53.9071 28.3553 53.4725 28.6852C53.0089 29.0371 52.7784 29.4737 52.7763 29.478C52.6355 29.7607 52.3502 29.9243 52.0542 29.9243C51.986 29.9243 51.9178 29.9147 51.8501 29.897C51.8501 29.897 51.8501 29.8975 51.8501 29.8981C51.5815 30.4533 51.4321 31.0707 51.4321 31.7209C51.4321 34.1317 53.4881 36.0929 56.0146 36.0929C58.5412 36.0929 60.5972 34.1317 60.5972 31.7209C60.5972 31.5793 60.5902 31.4393 60.5757 31.3009C60.5639 31.2998 60.5526 31.2993 60.5408 31.2976C60.0992 31.2435 59.7849 30.8422 59.8386 30.4012V30.4007Z" fill="#351411"/>
<path d="M59.3259 29.5209L59.313 29.5172C59.313 29.5172 59.4967 29.5756 59.6471 29.7221C59.7524 29.8251 59.8873 30.0075 59.8389 30.4007C59.7847 30.8417 60.099 31.2434 60.5411 31.2971C60.5529 31.2987 60.5642 31.2992 60.576 31.3003C60.5975 31.3019 60.619 31.303 60.6405 31.303C61.0418 31.303 61.3894 31.0037 61.4393 30.596C61.6429 28.9351 60.4229 28.1503 59.7498 27.9679L59.4999 28.8847L59.327 29.5204L59.3259 29.5209Z" fill="white"/>
<path d="M52.7771 29.4775C52.7792 29.4732 53.0097 29.0371 53.4733 28.6846C53.9079 28.3547 54.3909 28.2094 54.9362 28.2464C55.0721 28.2555 55.2123 28.2764 55.3563 28.3081C55.468 28.3327 55.5819 28.3639 55.6985 28.4019C55.9521 28.4851 56.2175 28.4352 56.4189 28.2909C56.4786 28.2485 56.5323 28.1976 56.579 28.1391C56.6376 28.0661 56.6848 27.9824 56.7155 27.8886C56.7697 27.7239 56.767 27.5544 56.7198 27.4004C56.6451 27.1601 56.4598 26.9573 56.2019 26.8731C54.4683 26.3034 53.2305 26.8468 52.4972 27.4036C51.7349 27.9824 51.3722 28.683 51.3336 28.7608C51.1353 29.1589 51.2976 29.6417 51.6962 29.8396C51.7467 29.8648 51.7983 29.8825 51.8504 29.8965C51.9181 29.9142 51.9863 29.9238 52.0545 29.9238C52.3505 29.9238 52.6358 29.7602 52.7765 29.4775H52.7771Z" fill="white"/>
<path d="M62.0803 45.7215C61.9739 45.846 61.8229 45.9098 61.6714 45.9098C61.5479 45.9098 61.4243 45.8679 61.3228 45.7816C61.239 45.7102 52.8556 38.567 47.3276 33.15C45.4553 31.3153 43.6841 30.4602 41.7566 30.4602H41.7404C41.7141 30.4602 41.6883 30.4576 41.6631 30.4538C41.9226 30.4168 42.1219 30.1947 42.1229 29.9249C42.1235 29.6545 41.9231 29.4313 41.6631 29.3938C41.6878 29.39 41.713 29.3874 41.7394 29.3874H41.7566C43.9844 29.3874 45.9936 30.3395 48.0797 32.3839C48.2618 32.562 48.4471 32.7423 48.6346 32.9241C48.9274 33.2074 49.2272 33.4949 49.5313 33.7846C50.9243 35.1101 52.4231 36.4904 53.8822 37.8106C54.1508 38.0531 54.4173 38.2939 54.6822 38.5316C58.5657 42.0217 61.9669 44.9195 62.0201 44.9651C62.2457 45.1572 62.2726 45.4957 62.0803 45.7215Z" fill="#481B15"/>
<path d="M57.7445 44.3074C57.6387 44.4437 57.4802 44.515 57.3196 44.515C57.2046 44.515 57.0886 44.478 56.9908 44.4024L50.7542 39.5664C48.9566 38.1727 47.44 37.2918 46.2211 36.7361C46.6025 37.081 46.9141 37.4801 47.1005 37.9399C47.4986 38.921 47.288 39.9928 46.4752 41.1258C45.5592 42.4025 44.7378 42.924 43.9631 42.7217C43.9051 42.7062 43.8503 42.6863 43.7966 42.6643C43.7149 42.5688 43.6064 42.5087 43.4914 42.4868C42.684 41.8672 42.4788 40.3984 42.4422 40.0674C42.41 39.7729 42.6227 39.5079 42.9177 39.4757C43.211 39.443 43.4775 39.6554 43.5102 39.9499C43.5946 40.7009 43.9228 41.6022 44.2355 41.6837C44.2731 41.6933 44.5782 41.7416 45.2186 40.9938C45.2224 41.1591 45.2149 41.3313 45.1955 41.5115C45.1794 41.6585 45.2863 41.791 45.4335 41.8065C45.4432 41.8082 45.4528 41.8081 45.4625 41.8081C45.5979 41.8081 45.7145 41.7062 45.7295 41.5689C45.7762 41.1355 45.7628 40.7358 45.6919 40.371C46.2098 39.6012 46.3452 38.9366 46.105 38.3438C45.5941 37.0826 43.4619 36.3048 42.2026 35.9861C42.5373 35.9105 42.8312 35.8542 43.06 35.8182C43.3152 35.778 43.5054 35.5618 43.5135 35.3038C43.521 35.0463 43.3432 34.8194 43.0912 34.7641C43.0649 34.7582 42.9558 34.7362 42.7726 34.7142C44.2709 34.769 47.1601 35.4213 51.4128 38.7188L57.6494 43.5548C57.8842 43.7367 57.9266 44.0735 57.7445 44.3074Z" fill="#481B15"/>
<path d="M45.7294 41.5689C45.7143 41.7062 45.5978 41.8081 45.4624 41.8081C45.4527 41.8081 45.443 41.8082 45.4334 41.8065C45.2862 41.791 45.1793 41.6585 45.1954 41.5115C45.2147 41.3313 45.2222 41.1591 45.2185 40.9938C45.2029 40.3233 44.9982 39.7734 44.605 39.3561C43.6229 38.3116 41.7717 38.3824 41.7529 38.3835C41.7212 38.3846 41.6911 38.3792 41.6626 38.3706C41.769 38.3384 41.8485 38.2446 41.8538 38.1282C41.8598 38.0026 41.7781 37.8943 41.6631 37.8594C41.6835 37.853 41.705 37.8487 41.7276 37.8476C41.8136 37.8433 43.8405 37.7623 44.9945 38.9865C45.3544 39.3679 45.5865 39.8319 45.6918 40.371C45.7627 40.7358 45.7761 41.1355 45.7294 41.5689Z" fill="#481B15"/>
<path d="M70.9331 30.5461C70.8343 29.6475 70.7204 28.6363 70.5893 27.4985C70.0386 22.7178 67.5384 18.107 65.5378 15.081C63.3561 11.7802 61.2771 9.59476 61.2561 9.57276C61.0514 9.35872 61.0589 9.01916 61.2733 8.81423C61.4882 8.60985 61.8277 8.61736 62.0329 8.8314C62.12 8.9226 64.1888 11.0957 66.4226 14.4721C67.7361 16.4569 68.8304 18.4439 69.6739 20.3778C70.7349 22.8079 71.4016 25.1629 71.6567 27.3762C71.7851 28.4899 71.8969 29.4828 71.9947 30.3701C71.9796 30.3315 71.971 30.3095 71.97 30.3073C71.8647 30.0305 71.5541 29.8916 71.2769 29.9973C71.047 30.0847 70.9122 30.3127 70.9331 30.5461Z" fill="#481B15"/>
<path d="M72.6449 37.7044L72.6095 37.7012L71.5764 37.5928C71.5764 37.5928 71.5759 37.5982 71.5748 37.6116C71.5764 37.5799 71.5963 36.9909 71.2465 33.5158C71.1649 32.7015 71.0628 31.73 70.936 30.5702C70.9414 30.6105 70.9516 30.6502 70.9661 30.6893C70.993 30.7591 71.5694 32.2665 72.3693 33.9498C72.6799 37.1207 72.6519 37.6411 72.6449 37.7044Z" fill="#481B15"/>
<path d="M81.1796 27.5946C80.0063 31.6522 78.1857 36.8697 76.9173 38.2183C76.6465 38.5064 76.3688 38.6517 76.0905 38.6517C76.061 38.6517 76.0309 38.6501 76.0013 38.6469C75.4023 38.5798 74.4004 38.074 72.6211 34.4696C72.5352 34.2953 72.4508 34.1215 72.3692 33.9498C71.5692 32.2664 70.9928 30.759 70.9659 30.6893C70.9514 30.6502 70.9412 30.6105 70.9359 30.5702C70.9342 30.5622 70.9337 30.5541 70.9332 30.5461C70.9122 30.3127 71.0471 30.0847 71.277 29.9973C71.5542 29.8916 71.8647 30.0306 71.97 30.3074C71.9711 30.3095 71.9797 30.3315 71.9947 30.3701C72.1247 30.7065 72.7748 32.3555 73.5876 34.0013C75.0462 36.9539 75.8224 37.4716 76.0535 37.5617C76.1996 37.4404 76.7132 36.8847 77.6802 34.5463C78.4059 32.7916 79.2139 30.4479 79.9564 27.9481C81.5847 22.4646 82.4867 17.6908 82.2014 16.0691C82.1251 15.6357 81.5885 14.6261 78.8518 12.7346C77.043 11.4847 74.5181 10.0261 71.5494 8.51653C65.8645 5.62618 60.5143 3.51045 59.4704 3.37956C57.364 3.11563 56.3841 3.94443 56.3159 4.00505C56.1182 4.19924 55.8146 4.20299 55.6019 4.0249C51.7489 0.793366 41.8576 1.07875 41.7582 1.08251C41.7259 1.08304 41.6937 1.0809 41.6631 1.07661C41.9156 1.03959 42.1138 0.827698 42.1224 0.563769C42.1315 0.288037 41.9301 0.054148 41.6631 0.0155242C41.6824 0.012842 41.7023 0.0106962 41.7227 0.0101597C41.828 0.00640465 44.3342 -0.0713795 47.3824 0.270871C51.2821 0.708071 54.1653 1.60661 55.9634 2.94343C56.5313 2.59581 57.7282 2.07976 59.6047 2.31472C60.9301 2.48101 66.5285 4.75982 72.0372 7.56059C75.0478 9.0916 77.6157 10.5754 79.4632 11.8527C81.8281 13.4872 83.0701 14.8058 83.2598 15.8835C83.624 17.9542 82.4238 23.2907 81.1796 27.5946Z" fill="#481B15"/>
<path d="M38.6702 23.7118C38.6713 24.804 38.487 25.6822 38.4795 25.7192C38.3989 26.0974 38.0642 26.3565 37.6919 26.3565C37.6366 26.3565 37.5802 26.3511 37.5238 26.3388C37.0886 26.2465 36.8109 25.82 36.9027 25.3855C37.0714 24.5803 37.3067 22.2581 36.3763 21.1948C35.983 20.7453 35.3953 20.5554 34.5798 20.6144C30.2943 20.9239 22.0582 24.1233 21.9754 24.1554C21.5607 24.3175 21.0933 24.1131 20.9316 23.6989C20.7694 23.2853 20.9741 22.8186 21.3883 22.6566C21.7353 22.5214 29.9349 19.336 34.4632 19.0094C36.1297 18.8892 37.0849 19.5576 37.5925 20.1391C38.306 20.9566 38.6686 22.1583 38.6702 23.7118Z" fill="#481B15"/>
<path d="M20.5799 31.6592C20.5799 29.4217 21.7784 27.4497 23.5985 26.2916C23.5975 26.2916 23.5969 26.2916 23.5964 26.2926C21.0349 27.3366 19.2368 29.7489 19.2368 32.5524C19.2368 34.3425 20.1818 36.08 21.7645 37.1991C23.2552 38.2532 25.0249 38.5686 26.6591 38.0799H26.6602C23.2429 37.7403 20.5793 34.9953 20.5793 31.6592H20.5799Z" fill="white"/>
<path d="M34.7096 32.5524C34.7096 32.6774 34.7037 32.8007 34.6918 32.9236C34.3991 33.2074 34.0993 33.4949 33.7947 33.7846C34.0391 33.1188 34.1723 32.4038 34.1723 31.6592C34.1723 28.0935 31.1295 25.2031 27.3765 25.2031C25.9786 25.2031 24.6791 25.6044 23.5993 26.2915C23.5987 26.2921 23.5976 26.2926 23.5971 26.2926C21.0356 27.3365 19.2375 29.7489 19.2375 32.5524C19.2375 34.3425 20.1825 36.08 21.7652 37.199C23.256 38.2531 25.0256 38.5686 26.6598 38.0799H26.6609C26.8962 38.1029 27.1347 38.1153 27.3765 38.1153C28.0974 38.1153 28.7915 38.0085 29.4437 37.8106C29.1756 38.0536 28.9086 38.2939 28.6438 38.5321H28.6432C28.5508 38.5643 28.4498 38.5991 28.3381 38.6378C28.0561 38.7349 27.7053 38.8561 27.2588 39.0127C26.562 39.2579 25.8411 39.3786 25.1212 39.3786C23.7411 39.3786 22.3615 38.936 21.1441 38.0745C19.2773 36.7543 18.1631 34.6901 18.1631 32.5524C18.1631 28.204 21.8742 24.6667 26.4363 24.6667C30.9984 24.6667 34.7096 28.204 34.7096 32.5524Z" fill="#481B15"/>
<path d="M30.9531 31.657C30.9531 33.5324 29.3527 35.0533 27.3784 35.0533C25.4041 35.0533 23.8037 33.533 23.8037 31.657C23.8037 29.9335 25.1559 28.5103 26.9073 28.2914C26.8476 28.249 26.7939 28.1981 26.7472 28.1396H26.7466C24.9018 28.3982 23.4819 29.9056 23.4819 31.7203C23.4819 33.717 25.2 35.3413 27.3118 35.3413C29.4236 35.3413 31.1422 33.717 31.1422 31.7203C31.1422 30.0826 29.985 28.6964 28.4045 28.2496C28.2681 28.2571 28.1241 28.2758 27.9731 28.3086C29.6648 28.5773 30.9542 29.9737 30.9542 31.657H30.9531Z" fill="#481B15"/>
<path d="M34.1718 31.6592C34.1718 28.0934 31.129 25.2031 27.376 25.2031C25.9781 25.2031 24.6791 25.6044 23.5987 26.2915C21.7786 27.4497 20.5801 29.4217 20.5801 31.6592C20.5801 34.9953 23.2436 37.7403 26.6609 38.0799C26.8962 38.1035 27.1347 38.1153 27.376 38.1153C28.0969 38.1153 28.7915 38.008 29.4437 37.8106C30.9034 36.4904 32.4022 35.1101 33.7947 33.7846C34.0391 33.1188 34.1718 32.4038 34.1718 31.6592ZM22.729 31.7203C22.729 31.5787 22.736 31.4387 22.7505 31.3003C22.729 31.3019 22.7075 31.303 22.686 31.303C22.2847 31.303 21.9371 31.0036 21.8871 30.596C21.6835 28.9351 22.9036 28.1503 23.5767 27.9679L23.8265 28.8852C24.5228 28.1069 25.4994 27.564 26.6061 27.4004C26.6808 27.16 26.8661 26.9578 27.1235 26.873C28.8576 26.3033 30.0948 26.8468 30.8276 27.4036C31.5899 27.9824 31.9526 28.683 31.9912 28.7608L31.0667 29.22C31.5873 29.9286 31.8929 30.7912 31.8929 31.7203C31.8929 34.1311 29.8375 36.0923 27.3104 36.0923C24.7833 36.0923 22.7284 34.1311 22.7284 31.7203H22.729Z" fill="#481B15"/>
<path d="M23.8033 31.6571C23.8033 33.5325 25.4037 35.0533 27.378 35.0533C29.3523 35.0533 30.9526 33.533 30.9526 31.6571C30.9526 29.9737 29.6633 28.5773 27.9716 28.3086C27.8609 28.3322 27.746 28.3633 27.6272 28.4025C27.3737 28.4861 27.1083 28.4357 26.9063 28.2914C25.1549 28.5108 23.8027 29.9335 23.8027 31.6571H23.8033Z" fill="#351411"/>
<path d="M31.8941 31.7204C31.8941 30.7912 31.5884 29.9286 31.0678 29.22L30.5494 29.4775L30.5521 29.4828C30.4726 29.33 29.8236 28.1712 28.4037 28.249C29.9848 28.6959 31.1414 30.0821 31.1414 31.7198C31.1414 33.7165 29.4234 35.3408 27.311 35.3408C25.1987 35.3408 23.4812 33.7165 23.4812 31.7198C23.4812 29.905 24.901 28.3976 26.7459 28.1391H26.7464C26.6879 28.0661 26.6406 27.9824 26.61 27.8885C26.5557 27.7233 26.5584 27.5538 26.6062 27.3998C25.4995 27.5635 24.5228 28.1063 23.8266 28.8847L23.9996 29.5204L24.0125 29.5166C24.0125 29.5166 23.8282 29.5751 23.6783 29.7216C23.573 29.8246 23.4382 30.007 23.4865 30.4002C23.5408 30.8411 23.2265 31.2429 22.7844 31.2966C22.7731 31.2982 22.7613 31.2987 22.75 31.2998C22.7355 31.4382 22.7285 31.5782 22.7285 31.7198C22.7285 34.1306 24.7839 36.0918 27.3105 36.0918C29.8371 36.0918 31.893 34.1306 31.893 31.7198L31.8941 31.7204Z" fill="#351411"/>
<path d="M23.4867 30.4007C23.4383 30.0075 23.5732 29.8251 23.6785 29.7221C23.8284 29.5756 24.011 29.5177 24.0126 29.5172L23.9997 29.5209L23.8268 28.8852L23.5769 27.9679C22.9033 28.1509 21.6838 28.9357 21.8874 30.596C21.9373 31.0037 22.2849 31.303 22.6862 31.303C22.7077 31.303 22.7292 31.3019 22.7507 31.3003C22.762 31.2992 22.7738 31.2987 22.7851 31.2971C23.2267 31.2429 23.5409 30.8417 23.4872 30.4007H23.4867Z" fill="white"/>
<path d="M26.6104 27.8891C26.6416 27.983 26.6889 28.0666 26.7469 28.1396C26.7936 28.1975 26.8473 28.2485 26.907 28.2914C27.109 28.4357 27.3738 28.4856 27.6279 28.4024C27.7467 28.3633 27.8616 28.3327 27.9723 28.3086C28.1232 28.2764 28.2672 28.2571 28.4037 28.2496C29.8236 28.1718 30.4725 29.33 30.552 29.4834L30.5493 29.478L31.0678 29.2205L31.9923 28.7613C31.9536 28.6835 31.591 27.983 30.8287 27.4041C30.0959 26.8478 28.8582 26.3039 27.1245 26.8736C26.8672 26.9583 26.6819 27.1606 26.6072 27.4009C26.5594 27.5549 26.5567 27.7249 26.611 27.8896L26.6104 27.8891Z" fill="white"/>
<path d="M42.1229 29.9249C42.1218 30.1947 41.9225 30.4168 41.663 30.4538C41.6378 30.4576 41.612 30.4602 41.5857 30.4602H41.5695C39.6415 30.4602 37.8708 31.3153 35.9985 33.15C30.4705 38.567 22.0871 45.7102 22.0028 45.7816C21.9018 45.8674 21.7777 45.9098 21.6547 45.9098C21.5026 45.9098 21.3517 45.846 21.2453 45.7215C21.053 45.4957 21.0804 45.1572 21.306 44.9651C21.3592 44.9195 24.7593 42.0222 28.6429 38.5321H28.6434C28.9083 38.2939 29.1753 38.0536 29.4433 37.8106C30.903 36.4904 32.4018 35.1101 33.7943 33.7846C34.0989 33.4949 34.3987 33.2074 34.6915 32.9241C34.879 32.7423 35.0643 32.562 35.2459 32.3839C37.3319 30.3401 39.3417 29.3874 41.569 29.3874H41.5867C41.6125 29.3874 41.6378 29.39 41.663 29.3938C41.923 29.4313 42.1234 29.6545 42.1229 29.9249Z" fill="#481B15"/>
<path d="M43.5133 35.3038C43.5052 35.5618 43.315 35.778 43.0598 35.8182C42.831 35.8542 42.5371 35.9105 42.2024 35.9861C40.5424 36.3633 37.888 37.2334 37.3105 38.6126C37.0913 39.1356 37.1971 39.7123 37.6344 40.3705C37.563 40.7358 37.5495 41.1355 37.5968 41.5689C37.6113 41.7062 37.7279 41.8082 37.8633 41.8082C37.8729 41.8082 37.8826 41.8082 37.8923 41.8066C38.04 41.791 38.1464 41.6585 38.1308 41.5115C38.1115 41.3339 38.104 41.1639 38.1072 41.0003C38.5601 41.5458 38.8045 41.6671 38.8824 41.6934C39.036 41.5088 39.1467 40.7583 39.115 40.0889C39.1005 39.7927 39.3294 39.5412 39.6254 39.5272C39.923 39.5133 40.1733 39.7402 40.1878 40.0363C40.1889 40.0577 40.2131 40.5663 40.1459 41.1129C40.0347 42.019 39.7366 42.5442 39.2348 42.719C39.1236 42.7577 39.0129 42.7754 38.9033 42.7754C38.1421 42.7754 37.4168 41.9149 36.8512 41.1258C36.1141 40.0991 35.9357 39.1141 36.3198 38.1979C36.5691 37.603 37.0537 37.0617 37.7682 36.5795C36.3075 37.1293 34.5336 38.0455 32.5722 39.5664L26.3355 44.4024C26.2372 44.478 26.1217 44.515 26.0062 44.515C25.8461 44.515 25.6876 44.4437 25.5818 44.3074C25.3997 44.0736 25.4421 43.7367 25.6764 43.5548L31.913 38.7188C37.4104 34.4562 41.6077 34.5758 42.7724 34.7142C42.9556 34.7362 43.0647 34.7582 43.091 34.7641C43.343 34.8194 43.5208 35.0463 43.5133 35.3038Z" fill="#481B15"/>
<path d="M41.8541 38.1282C41.8487 38.2446 41.7692 38.3384 41.6628 38.3706C41.6349 38.3792 41.6048 38.3846 41.5731 38.3835C41.5548 38.3824 39.7036 38.3116 38.721 39.3561C38.3267 39.775 38.1214 40.327 38.1075 41.0003C38.1042 41.1639 38.1118 41.3339 38.1311 41.5115C38.1467 41.6585 38.0403 41.791 37.8926 41.8065C37.8829 41.8082 37.8732 41.8081 37.8636 41.8081C37.7282 41.8081 37.6116 41.7062 37.5971 41.5689C37.5498 41.1355 37.5633 40.7358 37.6347 40.3705C37.7395 39.8314 37.9716 39.3679 38.3315 38.9865C39.4854 37.7623 41.5129 37.8433 41.5984 37.8476C41.6209 37.8487 41.6424 37.853 41.6634 37.8594C41.7783 37.8943 41.86 38.0026 41.8541 38.1282Z" fill="#481B15"/>
<path d="M12.3596 30.6893C12.3736 30.6533 12.3833 30.6163 12.3887 30.5793C12.2624 31.7353 12.1609 32.7042 12.0792 33.5158C11.73 36.9909 11.7494 37.5799 11.751 37.6115C11.7504 37.5981 11.7494 37.5928 11.7494 37.5928L10.7168 37.7006L10.6808 37.7043C10.6744 37.641 10.6464 37.1207 10.9564 33.9498C11.7563 32.2664 12.3333 30.759 12.3596 30.6893Z" fill="#481B15"/>
<path d="M22.2189 9.20262C22.2189 9.33566 22.1695 9.46923 22.0701 9.57276C22.0492 9.59476 19.9701 11.7802 17.7879 15.081C15.7878 18.107 13.2876 22.7178 12.7364 27.4985C12.6058 28.6315 12.4925 29.6384 12.3936 30.5343C12.4098 30.3052 12.2754 30.0831 12.0493 29.9973C11.7715 29.8921 11.4616 30.0305 11.3557 30.3073C11.3557 30.3095 11.3466 30.332 11.3315 30.3706C11.4288 29.4828 11.5411 28.4899 11.6689 27.3762C11.9241 25.1629 12.5913 22.8079 13.6518 20.3778C14.4958 18.4439 15.5896 16.4569 16.9031 14.4721C19.1374 11.0957 21.2062 8.9226 21.2933 8.8314C21.498 8.61736 21.838 8.60985 22.0524 8.81423C22.163 8.91991 22.2189 9.061 22.2189 9.20262Z" fill="#481B15"/>
<path d="M42.1224 0.563769C42.1138 0.827698 41.9156 1.03959 41.6631 1.07661C41.6319 1.0809 41.6002 1.08304 41.568 1.08251C41.4681 1.07929 31.5767 0.793366 27.7237 4.0249C27.5115 4.20299 27.2075 4.1987 27.0103 4.00505C26.9415 3.94443 25.9617 3.11509 23.8552 3.37956C22.8114 3.51045 17.4617 5.62618 11.7763 8.51653C8.80757 10.0261 6.28262 11.4847 4.47433 12.7346C1.73717 14.6261 1.20049 15.6357 1.1242 16.0691C0.838935 17.6908 1.74147 22.4646 3.36926 27.9481C4.1117 30.4479 4.92022 32.7916 5.64601 34.5463C6.61301 36.8847 7.12606 37.4404 7.27272 37.5617C7.50373 37.4716 8.28002 36.9539 9.73804 34.0013C10.5509 32.3555 11.2009 30.7065 11.3314 30.3707C11.3465 30.332 11.3551 30.3095 11.3556 30.3074C11.4615 30.0306 11.7714 29.8922 12.0492 29.9973C12.2753 30.0831 12.4097 30.3052 12.3935 30.5343C12.3925 30.5493 12.3909 30.5643 12.3887 30.5793C12.3833 30.6164 12.3737 30.6534 12.3597 30.6893C12.3334 30.759 11.7564 32.2664 10.9565 33.9498C10.8748 34.1215 10.791 34.2953 10.705 34.4696C8.92576 38.074 7.9233 38.5798 7.3243 38.6469C7.29475 38.6501 7.2652 38.6517 7.23565 38.6517C6.95737 38.6517 6.67963 38.5064 6.40887 38.2183C5.13995 36.8697 3.31983 31.6522 2.14654 27.5946C0.90179 23.2907 -0.298367 17.9542 0.0664077 15.8835C0.256048 14.8058 1.49757 13.4872 3.86297 11.8527C5.70994 10.5754 8.27787 9.0916 11.289 7.56059C16.7972 4.75982 22.3961 2.48101 23.7214 2.31472C25.5974 2.07922 26.7949 2.59581 27.3622 2.94343C29.1603 1.60661 32.0441 0.708071 35.9438 0.270871C38.992 -0.0713795 41.4982 0.00640465 41.6035 0.0101597C41.6233 0.0106962 41.6432 0.012842 41.6631 0.0155242C41.9301 0.054148 42.1315 0.288037 42.1224 0.563769Z" fill="#481B15"/>
<path d="M42.2778 50.6353C42.2795 50.712 42.2644 50.7855 42.237 50.8526C42.23 50.8354 42.222 50.8188 42.2128 50.8027C42.208 50.7936 42.2032 50.785 42.1973 50.7764C42.1897 50.7635 42.1817 50.7512 42.1726 50.7394C42.165 50.7287 42.157 50.7185 42.1484 50.7088C42.1398 50.6986 42.1306 50.689 42.1215 50.6799C42.1124 50.6707 42.1027 50.6622 42.093 50.6536C42.0834 50.645 42.0732 50.6369 42.063 50.6294C42.0425 50.6139 42.0211 50.5999 41.9985 50.5881C41.9883 50.5828 41.9786 50.5774 41.9684 50.5731C41.9646 50.571 41.9603 50.5688 41.9561 50.5672C41.9351 50.5581 41.9136 50.55 41.8921 50.5441C41.8814 50.5409 41.8706 50.5382 41.8594 50.5356C41.847 50.5329 41.8346 50.5302 41.8223 50.5286C41.8185 50.5275 41.8153 50.5275 41.8115 50.527C41.8105 50.5264 41.8094 50.5264 41.8083 50.5264C41.7986 50.5254 41.7884 50.5243 41.7788 50.5238C41.7664 50.5227 41.7535 50.5221 41.7412 50.5221H41.7401C41.7277 50.5221 41.7148 50.5227 41.7025 50.5238C41.696 50.5243 41.6896 50.5243 41.6831 50.5254C41.6767 50.5259 41.6708 50.5264 41.6643 50.5275C41.6514 50.5297 41.6391 50.5318 41.6267 50.5345C41.6138 50.5372 41.6015 50.5404 41.5891 50.5441C41.5741 50.549 41.559 50.5538 41.544 50.5597C41.5376 50.5613 41.5316 50.564 41.5257 50.5667C41.5247 50.5672 41.5231 50.5677 41.522 50.5688C41.515 50.572 41.5075 50.5752 41.5005 50.579C41.4865 50.586 41.4725 50.594 41.4586 50.6021C41.4452 50.6107 41.4317 50.6198 41.4188 50.6294C41.3984 50.6445 41.3785 50.6616 41.3603 50.6799C41.3511 50.689 41.342 50.6986 41.3339 50.7083C41.3254 50.7185 41.3173 50.7287 41.3092 50.7394C41.3033 50.7474 41.2974 50.7555 41.292 50.7641C41.2867 50.7721 41.2813 50.7807 41.2765 50.7893C41.2711 50.7984 41.2663 50.807 41.262 50.8161C41.2571 50.8252 41.2528 50.8344 41.2485 50.844C41.2485 50.8445 41.248 50.8451 41.2475 50.8467C41.2469 50.8483 41.2458 50.8504 41.2448 50.8526C41.2201 50.793 41.205 50.7281 41.2034 50.66L41.0557 44.2871C41.1266 44.3016 41.1996 44.3134 41.2749 44.3214C41.3673 44.3316 41.4602 44.3364 41.5537 44.3364C41.7449 44.3364 41.9373 44.3144 42.1296 44.2715L42.2778 50.6353Z" fill="#481B15"/>
<path d="M43.7343 43.4239C43.2019 43.8702 42.6652 44.1529 42.1296 44.2715C41.9372 44.3144 41.7449 44.3364 41.5537 44.3364C41.4602 44.3364 41.3672 44.3316 41.2748 44.3214C41.1996 44.3133 41.1266 44.3015 41.0557 44.287C40.0774 44.0918 39.5133 43.3724 39.488 43.3397C39.3075 43.1047 39.3516 42.7684 39.5869 42.5876C39.8206 42.4079 40.1563 42.4508 40.3374 42.6831C40.3503 42.6986 40.7559 43.1911 41.4032 43.256C41.9125 43.307 42.4648 43.087 43.0434 42.6021C43.1729 42.4937 43.3378 42.4567 43.4914 42.4867C43.6064 42.5087 43.7149 42.5688 43.7966 42.6643C43.7976 42.6654 43.7993 42.6665 43.8003 42.6681C43.991 42.895 43.9615 43.2335 43.7343 43.4239Z" fill="#481B15"/>
<path d="M63.8201 56.055C63.8147 56.4407 63.7782 56.8237 63.7046 57.2003C63.6842 57.3038 63.6611 57.4063 63.6358 57.5071C63.2673 58.963 62.3556 60.125 60.9228 60.964C58.9082 62.1431 56.9028 62.7342 54.9312 62.7342C54.4498 62.7342 53.9712 62.6993 53.4946 62.628C53.4404 62.6205 53.3861 62.6119 53.3319 62.6028C53.0917 62.5636 52.8521 62.5148 52.6131 62.4574C52.3799 62.4011 52.1473 62.3367 51.9152 62.2627C51.8873 62.2546 51.8588 62.2455 51.8309 62.2364C51.7293 62.2031 51.6272 62.1688 51.5257 62.1323C50.411 61.7321 49.3124 61.1319 48.2465 60.3395C48.0338 60.1813 47.8226 60.0161 47.6126 59.8423C47.5046 59.7537 47.3972 59.6631 47.2902 59.5703C47.2543 59.5392 47.2183 59.5075 47.1823 59.4759C47.1575 59.4544 47.1334 59.4324 47.1087 59.4104C47.078 59.3831 47.0469 59.3552 47.0163 59.3273C46.9867 59.3004 46.9566 59.2736 46.9271 59.2457C46.9265 59.2457 46.9255 59.2452 46.9249 59.2441C46.825 59.1529 46.7256 59.0596 46.6262 58.9641H46.6257C45.7108 58.087 44.826 57.064 43.9879 55.9128C42.9452 54.4805 42.1909 53.1501 41.7407 52.2843C41.7697 52.2291 41.7966 52.176 41.8229 52.125C41.9089 51.9566 41.9814 51.8096 42.0405 51.6873C42.0754 51.6148 42.106 51.551 42.1313 51.4968C42.1925 51.3665 42.2264 51.2887 42.2334 51.2731C42.2758 51.1766 42.2871 51.0741 42.272 50.977C42.272 50.9749 42.2715 50.9727 42.271 50.9706C42.2645 50.9298 42.2527 50.8901 42.2371 50.8526C42.2446 50.8692 42.2624 50.9083 42.2898 50.9674C42.2919 50.9716 42.2941 50.9765 42.2962 50.9813C42.358 51.1138 42.4644 51.337 42.6142 51.6299C42.7416 51.8804 42.9011 52.1803 43.0908 52.5193C43.5275 53.2987 44.1255 54.2788 44.8717 55.3018C45.23 55.7927 45.6404 56.3173 46.0998 56.8468C46.1003 56.8473 46.1008 56.8478 46.1008 56.8484C46.4081 57.2019 46.7364 57.557 47.0861 57.9062H47.0866C47.3397 58.1605 47.6045 58.4105 47.8801 58.654C47.9505 58.7157 48.0214 58.7774 48.0929 58.8386C49.2742 59.8471 50.6414 60.722 52.1666 61.2172C52.4599 61.3121 52.7549 61.392 53.0514 61.4559H53.052C53.1771 61.4838 53.3023 61.5084 53.428 61.5294C53.543 61.5498 53.658 61.5675 53.7735 61.5819C54.0211 61.6152 54.2693 61.6372 54.5186 61.6485C55.1514 61.678 55.7897 61.6388 56.4322 61.531C57.7333 61.3132 59.0517 60.8154 60.3792 60.0381C61.0287 59.6583 61.5396 59.213 61.9183 58.6948C62.2825 58.1981 62.5243 57.6337 62.6495 56.9964C62.6532 56.9771 62.657 56.9583 62.6602 56.939C63.3484 53.1957 59.7071 48.393 59.67 48.3441C59.6679 48.3415 59.6657 48.3388 59.6641 48.3361C59.8108 48.2867 59.9639 48.2524 60.1213 48.2401C60.1664 48.2363 60.2115 48.2352 60.2561 48.2358C60.5382 48.2369 60.8079 48.3146 61.0716 48.4697C62.0241 49.8993 63.863 53.0568 63.8201 56.055Z" fill="#481B15"/>
<path d="M41.522 50.5691C41.5297 50.5658 41.5375 50.5624 41.5447 50.5597C41.5381 50.5613 41.532 50.5641 41.5259 50.5669C41.5247 50.5674 41.5231 50.568 41.522 50.5691Z" fill="#481B15"/>
<path d="M42.2336 51.2731C42.2266 51.2887 42.1927 51.3665 42.1315 51.4968C42.1062 51.551 42.0756 51.6149 42.0407 51.6873C41.9816 51.8096 41.9091 51.9566 41.8231 52.125C41.7968 52.176 41.7699 52.2291 41.7409 52.2843C41.2913 53.1501 40.537 54.4805 39.4937 55.9128C39.014 56.5727 38.5187 57.1896 38.0104 57.7614C37.882 57.9068 37.752 58.0495 37.622 58.1884C37.4904 58.3284 37.3588 58.4658 37.2261 58.5999C36.8855 58.9443 36.5406 59.2677 36.1919 59.5703C36.0668 59.6787 35.9411 59.7849 35.8148 59.8873C34.5464 60.9248 33.2281 61.686 31.8861 62.157C31.8077 62.1844 31.7298 62.2112 31.6513 62.2364C31.5756 62.2611 31.4993 62.2847 31.4235 62.3072C31.2027 62.3737 30.9809 62.4322 30.759 62.4826C30.5264 62.5368 30.2932 62.5813 30.0595 62.6173C29.9994 62.6269 29.9397 62.6355 29.8796 62.6436C29.4385 62.7042 28.9958 62.7342 28.551 62.7342C26.5789 62.7342 24.5739 62.1431 22.5594 60.964C21.1739 60.1529 20.2756 59.0397 19.8845 57.6509C19.8432 57.5039 19.8077 57.3537 19.7776 57.2003C19.7121 56.865 19.6755 56.5244 19.6653 56.1816C19.5692 53.2113 21.3651 50.0581 22.3466 48.5657C22.6013 48.393 22.8742 48.3018 23.1696 48.2884C23.1761 48.2884 23.182 48.2878 23.1884 48.2878C23.3964 48.2809 23.601 48.312 23.7955 48.3667C23.7826 48.3839 23.7633 48.4101 23.7375 48.4455C23.7289 48.4574 23.7192 48.4702 23.7096 48.4842C23.63 48.5936 23.5092 48.7653 23.3598 48.9884C23.3416 49.0163 23.3222 49.0448 23.3029 49.0743C23.2449 49.1628 23.1825 49.2583 23.1175 49.3602C23.031 49.4959 22.9397 49.6429 22.8446 49.8006C22.7968 49.8795 22.7485 49.961 22.6996 50.0447C22.5771 50.2539 22.4508 50.4787 22.3241 50.7152C22.2478 50.8574 22.1715 51.0044 22.0957 51.1546C22.02 51.3053 21.9448 51.4598 21.8712 51.6175C21.7976 51.7752 21.725 51.9367 21.6547 52.1009C21.631 52.1556 21.6079 52.2108 21.5848 52.2661C21.5392 52.3766 21.494 52.4887 21.4505 52.6014C21.407 52.714 21.3646 52.8283 21.3237 52.9425C21.262 53.1147 21.2039 53.2891 21.1502 53.4645C21.0782 53.6984 21.0132 53.9344 20.9574 54.1721C20.8182 54.7659 20.7349 55.3673 20.7355 55.9557C20.7355 56.3087 20.7661 56.6569 20.8327 56.9964C20.8376 57.02 20.8424 57.0437 20.8478 57.0673C20.866 57.1536 20.8864 57.2389 20.909 57.3226C20.988 57.616 21.0943 57.8928 21.2287 58.1536C21.363 58.4143 21.5241 58.6589 21.7143 58.8885C22.0742 59.3246 22.5363 59.706 23.103 60.0381C24.336 60.7601 25.5614 61.2413 26.7723 61.48C26.9576 61.517 27.1424 61.5476 27.3272 61.5734C27.512 61.5986 27.6958 61.6184 27.88 61.6324C28.0637 61.6463 28.2469 61.6544 28.4301 61.6571C28.6133 61.6597 28.796 61.6565 28.9781 61.6474C29.0974 61.642 29.2161 61.634 29.3348 61.6238C29.3939 61.6184 29.4535 61.6125 29.5126 61.6061C29.5717 61.5997 29.6314 61.5921 29.6905 61.5846L29.9516 61.5471C30.0209 61.5358 30.0896 61.524 30.1589 61.5111C30.2282 61.4983 30.297 61.4843 30.3657 61.4698C30.4453 61.4532 30.5248 61.4355 30.6043 61.4167C30.8423 61.3604 31.0797 61.2933 31.3156 61.2172C31.8517 61.0434 32.3685 60.8224 32.8644 60.5649C33.162 60.4109 33.4521 60.2435 33.7347 60.0654C34.0839 59.8449 34.4213 59.6084 34.7463 59.3595C35.4613 58.8118 36.1173 58.2061 36.7077 57.5881C36.8404 57.4497 36.9693 57.3103 37.095 57.1713C37.1606 57.0989 37.2245 57.027 37.2879 56.9551C37.3513 56.8827 37.4141 56.8108 37.4754 56.7389C37.528 56.6773 37.5801 56.6161 37.6317 56.5544C37.8369 56.3093 38.0319 56.0657 38.2157 55.8275C38.3537 55.6489 38.4853 55.4735 38.6105 55.3018C38.8415 54.9853 39.058 54.6726 39.2606 54.3689C39.5974 53.8631 39.8939 53.3808 40.1475 52.9452C40.2345 52.7961 40.3167 52.6523 40.3936 52.515C40.4322 52.4458 40.4693 52.3787 40.5053 52.3133C40.5413 52.2479 40.5762 52.184 40.6095 52.1218C40.6525 52.0419 40.6933 51.9657 40.732 51.8917C40.7707 51.8182 40.8072 51.7479 40.8421 51.6808C40.8679 51.6304 40.8921 51.5827 40.9157 51.5365C40.9313 51.506 40.9464 51.4759 40.9603 51.4469C40.9824 51.4035 41.0033 51.3611 41.0227 51.322C41.0415 51.2839 41.0592 51.2474 41.0758 51.2136C41.0839 51.1964 41.092 51.1803 41.0995 51.1642C41.1376 51.0848 41.1688 51.0189 41.1924 50.9679C41.2166 50.9164 41.2327 50.8805 41.2413 50.8611C41.2424 50.8579 41.2435 50.8558 41.2445 50.8536C41.2445 50.8536 41.2445 50.8526 41.2451 50.8526C41.2461 50.8504 41.2472 50.8483 41.2477 50.8467C41.2483 50.8451 41.2488 50.8445 41.2488 50.844C41.2531 50.8343 41.2574 50.8252 41.2623 50.8161C41.2666 50.807 41.2714 50.7984 41.2768 50.7893C41.2816 50.7807 41.287 50.7721 41.2923 50.7641C41.2977 50.7555 41.3036 50.7474 41.3095 50.7394C41.3176 50.7286 41.3256 50.7185 41.3342 50.7083C41.3423 50.6986 41.3514 50.6889 41.3606 50.6798C41.3788 50.6616 41.3987 50.6444 41.4191 50.6294C41.432 50.6197 41.4454 50.6106 41.4589 50.602C41.4728 50.594 41.4868 50.586 41.5008 50.579C41.5078 50.5752 41.5153 50.572 41.5223 50.5688C41.5298 50.5656 41.5373 50.5623 41.5443 50.5597C41.5593 50.5538 41.5744 50.5489 41.5894 50.5441C41.6018 50.5404 41.6141 50.5371 41.627 50.5345C41.6394 50.5318 41.6517 50.5296 41.6646 50.5275C41.6711 50.5264 41.677 50.5259 41.6834 50.5253C41.6899 50.5243 41.6963 50.5243 41.7028 50.5237C41.7151 50.5227 41.728 50.5221 41.7404 50.5221H41.7415C41.7538 50.5221 41.7667 50.5227 41.7791 50.5237C41.7887 50.5243 41.7989 50.5253 41.8086 50.5264C41.8097 50.5264 41.8108 50.5264 41.8118 50.5269C41.8156 50.5269 41.8188 50.5269 41.8226 50.5286C41.8349 50.5302 41.8473 50.5328 41.8596 50.5355C41.8709 50.5382 41.8817 50.5409 41.8924 50.5441C41.9139 50.55 41.9354 50.5581 41.9563 50.5672C41.9606 50.5688 41.9649 50.5709 41.9687 50.5731C41.9789 50.5774 41.9886 50.5827 41.9988 50.5881C42.0214 50.5999 42.0428 50.6138 42.0633 50.6294C42.0735 50.6369 42.0837 50.645 42.0933 50.6535C42.103 50.6621 42.1127 50.6707 42.1218 50.6798C42.1309 50.6889 42.1401 50.6986 42.1487 50.7088C42.1573 50.7185 42.1653 50.7286 42.1728 50.7394C42.182 50.7512 42.19 50.7635 42.1976 50.7764C42.2035 50.785 42.2083 50.7936 42.2131 50.8027C42.2223 50.8188 42.2303 50.8354 42.2373 50.8526C42.2529 50.8901 42.2647 50.9298 42.2712 50.9706C42.2717 50.9727 42.2722 50.9749 42.2722 50.977C42.2873 51.0741 42.276 51.1766 42.2336 51.2731Z" fill="#481B15"/>
<path d="M26.0167 49.0201C25.9941 49.0619 25.9657 49.1011 25.9313 49.137C25.905 49.1644 25.8759 49.1885 25.8459 49.2094C25.8002 49.2406 25.7513 49.2636 25.6997 49.2792C25.6487 49.2947 25.5961 49.3028 25.5429 49.3028C25.4096 49.3028 25.2764 49.2534 25.1727 49.1547C25.1695 49.152 25.1292 49.1145 25.0588 49.0566C24.8477 48.8833 24.3647 48.5265 23.7947 48.3667C23.6003 48.312 23.3956 48.2809 23.1877 48.2878C23.1812 48.2878 23.1753 48.2884 23.1689 48.2884C22.8734 48.3018 22.6005 48.393 22.3459 48.5657C22.1987 48.665 22.0568 48.7921 21.9198 48.9471C21.7237 49.1692 21.3842 49.1907 21.1618 48.9943C20.9394 48.7985 20.9179 48.4595 21.1145 48.2374C21.6845 47.5921 22.362 47.2482 23.128 47.216C24.6145 47.1533 25.862 48.3286 25.9146 48.3785C25.9372 48.3999 25.9571 48.423 25.9753 48.4472C26.0038 48.4858 26.0269 48.5276 26.0441 48.5711C26.1005 48.7159 26.0919 48.8806 26.0167 49.0201Z" fill="#481B15"/>
<path d="M62.1997 48.6972C62.0031 48.9187 61.6636 48.9391 61.4417 48.7422C61.3192 48.6339 61.1962 48.5432 61.0716 48.4697C60.8078 48.3147 60.5381 48.2369 60.2561 48.2358C60.2115 48.2353 60.1663 48.2364 60.1212 48.2401C59.9638 48.2524 59.8107 48.2868 59.664 48.3361C58.856 48.6076 58.2458 49.3355 58.2382 49.3441C58.1319 49.4723 57.9782 49.5388 57.823 49.5388C57.7032 49.5388 57.5823 49.4991 57.4824 49.4171C57.254 49.2293 57.2197 48.893 57.4072 48.6639C57.4184 48.65 57.4942 48.5588 57.6242 48.4273C58.0196 48.0288 58.9151 47.2606 60.031 47.171C60.7954 47.1098 61.5094 47.3684 62.1546 47.9397C62.3765 48.136 62.3969 48.4756 62.1997 48.6972Z" fill="#481B15"/>
<path d="M48.3319 44.4346C48.2255 44.5622 48.0729 44.6282 47.9187 44.6282C47.7973 44.6282 47.6759 44.588 47.5755 44.5048L46.7492 43.8193C46.5209 43.6299 46.4897 43.2914 46.6788 43.0634C46.869 42.836 47.2075 42.8043 47.4358 42.9937L48.262 43.6792C48.4903 43.8686 48.5215 44.2066 48.3319 44.4346Z" fill="#481B15"/>
<path d="M51.5378 47.0937C51.432 47.2214 51.2789 47.2874 51.1247 47.2874C51.0033 47.2874 50.8819 47.2466 50.7814 47.1635L49.1789 45.8342C48.9506 45.6448 48.9194 45.3068 49.1085 45.0788C49.2982 44.8509 49.6371 44.8197 49.8655 45.0091L51.468 46.3384C51.6963 46.5278 51.7275 46.8657 51.5378 47.0937Z" fill="#481B15"/>
<path d="M54.0238 49.0238C54.0083 49.0533 53.9889 49.0823 53.9664 49.1091C53.86 49.2368 53.7069 49.3028 53.5527 49.3028C53.4318 49.3028 53.3104 49.262 53.21 49.1789L53.1895 49.1622L52.3837 48.4933C52.1554 48.3039 52.1237 47.966 52.3133 47.738C52.503 47.51 52.842 47.4783 53.0697 47.6677L53.8965 48.3533C54.098 48.5201 54.1458 48.8028 54.0238 49.0238Z" fill="#481B15"/>
<path d="M47.5262 48.3506C47.4198 48.4783 47.2673 48.5443 47.1131 48.5443C46.9917 48.5443 46.8703 48.504 46.7698 48.4209L45.9435 47.7353C45.7152 47.5459 45.6841 47.2074 45.8732 46.9795C46.0633 46.752 46.4018 46.7204 46.6301 46.9097L47.4564 47.5953C47.6847 47.7847 47.7158 48.1226 47.5262 48.3506Z" fill="#481B15"/>
<path d="M50.7317 51.0097C50.6259 51.1374 50.4728 51.2034 50.3186 51.2034C50.1972 51.2034 50.0757 51.1626 49.9753 51.0795L48.5833 49.9251L48.3727 49.7502C48.1444 49.5608 48.1133 49.2229 48.3024 48.9949C48.492 48.7669 48.831 48.7358 49.0593 48.9251L49.985 49.6928L50.6619 50.2544C50.8902 50.4438 50.9213 50.7818 50.7317 51.0097Z" fill="#481B15"/>
<path d="M53.1607 53.0252C53.0543 53.1528 52.9012 53.2188 52.747 53.2188C52.6262 53.2188 52.5048 53.1781 52.4043 53.0949L51.578 52.4093C51.3497 52.22 51.318 51.882 51.5077 51.654C51.6973 51.426 52.0363 51.3944 52.2641 51.5838L53.0909 52.2693C53.3192 52.4587 53.3503 52.7972 53.1607 53.0252Z" fill="#481B15"/>
<path d="M35.4161 44.5166L34.5899 45.2022C34.4894 45.2854 34.3674 45.3256 34.2466 45.3256C34.0924 45.3256 33.9393 45.2596 33.8329 45.1319C33.6433 44.904 33.675 44.566 33.9027 44.3766L34.7295 43.6911C34.9579 43.5017 35.2963 43.5334 35.4859 43.7608C35.6756 43.9888 35.6444 44.3273 35.4161 44.5166Z" fill="#481B15"/>
<path d="M32.9873 46.5315L31.3847 47.8609C31.2843 47.944 31.1623 47.9848 31.0414 47.9848C30.8873 47.9848 30.7342 47.9188 30.6278 47.7911C30.4381 47.5631 30.4698 47.2252 30.6982 47.0358L32.3007 45.7065C32.529 45.5171 32.8675 45.5482 33.0571 45.7762C33.2468 46.0042 33.2156 46.3422 32.9873 46.5315Z" fill="#481B15"/>
<path d="M29.8734 49.0925C29.8476 49.1279 29.817 49.1612 29.7816 49.1907L28.9553 49.8762C28.8548 49.9594 28.7329 50.0002 28.612 50.0002C28.4578 50.0002 28.3047 49.9342 28.1984 49.8065C28.0093 49.5785 28.0404 49.24 28.2687 49.0507L28.4933 48.864L29.095 48.3651C29.3233 48.1763 29.6618 48.2074 29.8514 48.4354C30.0115 48.6279 30.0142 48.8988 29.8734 49.0925Z" fill="#481B15"/>
<path d="M36.2223 48.4327L35.396 49.1183C35.2955 49.2014 35.1736 49.2417 35.0527 49.2417C34.8985 49.2417 34.7454 49.1757 34.6391 49.048C34.4494 48.82 34.4811 48.482 34.7089 48.2927L35.5357 47.6071C35.764 47.4177 36.1025 47.4494 36.2921 47.6768C36.4817 47.9048 36.4506 48.2433 36.2223 48.4327Z" fill="#481B15"/>
<path d="M33.7929 50.4476L32.1904 51.7769C32.0899 51.86 31.968 51.9008 31.8471 51.9008C31.6929 51.9008 31.5398 51.8348 31.4334 51.7071C31.2438 51.4791 31.2755 51.1412 31.5038 50.9518L33.1005 49.6273L33.1064 49.6225C33.3347 49.4332 33.6731 49.4643 33.8628 49.6923C33.881 49.7142 33.8972 49.7373 33.9111 49.7615C34.0444 49.9841 33.9992 50.2764 33.7929 50.4476Z" fill="#481B15"/>
<path d="M30.5872 53.1067L29.761 53.7923C29.6605 53.8754 29.5386 53.9162 29.4177 53.9162C29.2635 53.9162 29.1104 53.8502 29.004 53.7226C28.8149 53.4946 28.8461 53.1561 29.0744 52.9667L29.9007 52.2811C30.129 52.0923 30.4674 52.1234 30.6571 52.3514C30.8467 52.5794 30.8155 52.9173 30.5872 53.1067Z" fill="#481B15"/>
<path d="M41.7532 52.1111C42.7949 55.2793 43.7576 58.4851 44.239 61.7896C44.304 62.2606 44.3625 62.7326 44.3878 63.2063C44.2417 62.2708 44.0026 61.3535 43.7447 60.4436C43.2258 58.6256 42.5666 56.857 41.8569 55.1066C41.5018 54.2327 41.1333 53.3594 40.7529 52.5027L41.7532 52.1111Z" fill="#481B15"/>
</svg>
