<svg width="348" height="348" viewBox="0 0 348 348" fill="none" xmlns="http://www.w3.org/2000/svg">
<mask id="mask0_52_867" style="mask-type:alpha" maskUnits="userSpaceOnUse" x="37" y="32" width="293" height="264">
<path fill-rule="evenodd" clip-rule="evenodd" d="M282.215 143.917C282.383 133.519 281.068 122.921 278.117 112.395C261.716 53.8992 201 19.7746 142.505 36.1754C94.3098 49.6881 62.6584 93.2827 62.1785 140.933C41.511 160.575 32.1267 190.714 40.3599 220.079C52.2132 262.356 96.094 287.019 138.37 275.165C153.322 270.973 166.071 262.775 175.78 252.058C176.684 252.028 177.589 251.987 178.495 251.934C195.157 285.433 233.76 303.464 271.112 292.992C313.388 281.138 338.051 237.257 326.197 194.981C319.576 171.366 302.961 153.246 282.215 143.917Z" fill="#EEE9DF"/>
</mask>
<g mask="url(#mask0_52_867)">
<path fill-rule="evenodd" clip-rule="evenodd" d="M282.215 143.917C282.383 133.519 281.068 122.921 278.117 112.395C261.716 53.8992 201 19.7746 142.505 36.1754C94.3098 49.6881 62.6584 93.2827 62.1785 140.933C41.511 160.575 32.1267 190.714 40.3599 220.079C52.2132 262.356 96.094 287.019 138.37 275.165C153.322 270.973 166.071 262.775 175.78 252.058C176.684 252.028 177.589 251.987 178.495 251.934C195.157 285.433 233.76 303.464 271.112 292.992C313.388 281.138 338.051 237.257 326.197 194.981C319.576 171.366 302.961 153.246 282.215 143.917Z" fill="#EEE9DF"/>
<path d="M241.401 197.919L247.38 209.503C248.926 212.495 251.24 215.013 254.064 216.851C256.009 218.115 257.841 220.041 263.582 228.48C274.08 243.916 294.943 259.019 299.765 280.986C304.587 302.953 98.6002 300.215 98.6002 300.215C98.6002 300.215 77.7344 274.021 84.6754 238.124C84.6754 238.124 81.0589 215.359 88.8035 207.183C96.5482 199.007 100.007 185.479 100.007 185.479L241.403 197.919H241.401Z" fill="#EFD5A2"/>
<path d="M95.3074 222.455C94.5118 225.536 94.8092 228.783 95.1119 231.952C96.3522 244.91 97.5952 257.87 98.8355 270.828C99.1409 274.024 99.6633 277.616 102.262 279.505C105.881 282.135 111.292 279.518 113.476 275.612C115.659 271.706 115.718 267.021 116.446 262.606C118.282 251.486 126.211 240.409 137.406 239.102C141.679 238.603 146 239.552 150.066 240.953C155.783 242.919 161.647 246.292 163.675 251.99C164.787 255.108 164.602 258.564 165.66 261.701C166.984 265.628 170.134 268.677 173.533 271.045C182.776 277.477 194.731 279.864 205.736 277.474C216.789 275.074 226.299 268.28 235.458 261.647C241.92 268.519 250.875 272.992 260.252 274.034C262.087 274.238 264.039 274.294 265.674 273.434C269.582 271.382 269.4 265.735 268.117 261.513C262.164 241.909 243.578 226.803 223.173 224.981C227.191 213.915 231.21 202.846 235.225 191.779C243.067 196.368 246.088 205.967 251.218 213.465C253.64 217.006 256.598 220.138 259.496 223.302C271.575 236.49 282.808 250.452 293.103 265.079C297.148 270.828 301.212 278.045 298.423 284.501C295.498 291.27 286.888 293.049 279.553 293.823C251.706 296.765 223.73 298.289 195.771 299.813C164.455 301.52 133.029 303.229 101.758 300.826C99.9982 300.689 98.1658 300.52 96.6576 299.599C94.9056 298.527 93.8716 296.62 92.9179 294.801C87.3913 284.246 81.7523 273.316 80.8522 261.438C80.37 255.065 81.2781 248.684 81.7175 242.308C82.2881 234.02 82.0684 225.643 83.6007 217.475C85.133 209.307 88.6826 201.139 95.286 196.098C95.0154 199.816 95.2458 203.572 95.9638 207.231C96.9951 206.165 98.0238 205.101 99.0552 204.035C98.6373 205.91 98.2167 207.783 97.7988 209.658C99.2963 208.967 100.796 208.276 102.294 207.585C101.587 208.833 102.546 210.467 103.824 211.118C105.101 211.769 106.599 211.783 108.008 212.064C112.294 212.921 116.366 216.921 116.57 221.378C109.203 219.498 98.6801 209.388 95.2994 222.455H95.3074Z" fill="#D2AD79"/>
<path d="M115.997 269.542C117.221 278.615 123.985 286.735 132.719 289.489C141.452 292.243 151.701 289.438 157.745 282.558C165.031 274.265 165.355 260.873 158.945 251.883C157.857 250.356 156.526 248.893 154.763 248.245C152.066 247.253 149.068 248.4 146.571 249.822C142.322 252.244 138.505 255.539 133.868 257.098C129.231 258.657 123.217 257.822 120.816 253.557" fill="#99774F"/>
<path d="M104.892 211.93C104.892 211.93 112.471 230.593 128.909 241.258C145.346 251.923 163.6 251.312 175.77 249.876C187.94 248.44 201.761 246.12 220.607 229.152C232.399 218.533 239.627 200.488 239.627 200.488L235.608 182.272C235.608 182.272 194.734 251.43 145.598 226.741C95.3262 201.482 104.611 193.499 104.611 193.499L104.895 211.93H104.892Z" fill="#351411"/>
<path d="M164.68 247.189C163.796 247.181 162.896 247.162 161.998 247.13L162.009 246.862C162.904 246.894 163.804 246.913 164.683 246.921V247.189H164.68ZM167.362 247.17L167.356 246.902C168.243 246.884 169.14 246.852 170.03 246.806L170.043 247.074C169.154 247.119 168.251 247.154 167.362 247.173V247.17ZM159.32 246.999C158.441 246.943 157.541 246.876 156.646 246.795L156.67 246.527C157.565 246.608 158.462 246.675 159.338 246.731L159.322 246.999H159.32ZM172.717 246.892L172.695 246.624C173.579 246.549 174.474 246.46 175.355 246.359L175.388 246.624C174.506 246.726 173.609 246.814 172.719 246.889L172.717 246.892ZM153.975 246.522C153.249 246.439 152.51 246.345 151.779 246.246C151.655 246.23 151.497 246.227 151.334 246.233L151.326 245.965C151.505 245.959 151.677 245.965 151.816 245.981C152.545 246.08 153.281 246.171 154.007 246.254L153.978 246.519L153.975 246.522ZM178.042 246.276L178.002 246.01C178.886 245.879 179.773 245.729 180.638 245.571L180.686 245.834C179.818 245.994 178.929 246.142 178.042 246.273V246.276ZM148.636 246.002C147.688 245.804 146.831 245.488 146.094 245.065L146.228 244.832C146.941 245.242 147.771 245.547 148.692 245.74L148.636 246.002ZM183.314 245.303L183.258 245.041C184.129 244.848 185.002 244.639 185.857 244.419L185.924 244.679C185.066 244.899 184.188 245.11 183.314 245.303ZM188.506 243.964L188.431 243.707C189.286 243.452 190.143 243.181 190.979 242.9L191.064 243.155C190.226 243.439 189.366 243.709 188.509 243.964H188.506ZM144.074 243.248C143.887 242.981 143.718 242.691 143.57 242.391C143.313 241.858 143.136 241.301 143.045 240.733L143.311 240.69C143.399 241.231 143.568 241.764 143.812 242.273C143.951 242.563 144.112 242.836 144.291 243.093L144.071 243.248H144.074ZM193.588 242.252L193.494 242C194.327 241.684 195.163 241.349 195.975 241.006L196.079 241.253C195.262 241.598 194.426 241.933 193.588 242.249V242.252ZM198.53 240.168L198.418 239.924C199.222 239.549 200.031 239.152 200.818 238.748L200.941 238.986C200.148 239.394 199.339 239.79 198.533 240.168H198.53ZM143.503 238.108L143.249 238.027C143.52 237.167 143.991 236.353 144.61 235.678L144.808 235.86C144.216 236.508 143.763 237.285 143.503 238.11V238.108ZM203.301 237.719L203.17 237.486C203.942 237.052 204.719 236.597 205.477 236.133L205.616 236.361C204.855 236.827 204.076 237.283 203.301 237.719ZM207.877 234.92L207.73 234.697C208.466 234.207 209.208 233.696 209.929 233.179L210.084 233.396C209.361 233.915 208.616 234.43 207.877 234.92ZM162.88 234.454V234.186C163.775 234.18 164.675 234.167 165.556 234.146L165.561 234.413C164.677 234.435 163.775 234.448 162.877 234.454H162.88ZM160.198 234.448C159.306 234.438 158.406 234.422 157.517 234.395L157.525 234.127C158.411 234.154 159.312 234.172 160.201 234.18V234.448H160.198ZM146.932 234.365L146.831 234.119C147.675 233.768 148.572 233.61 149.507 233.658L149.493 233.926C148.599 233.883 147.741 234.03 146.932 234.368V234.365ZM168.246 234.325L168.235 234.057C169.122 234.02 170.022 233.974 170.908 233.918L170.925 234.186C170.035 234.239 169.135 234.288 168.246 234.325ZM154.838 234.29C153.935 234.247 153.035 234.194 152.162 234.135L152.18 233.867C153.054 233.926 153.951 233.98 154.851 234.022L154.838 234.29ZM173.601 233.996L173.579 233.728C174.469 233.655 175.366 233.575 176.245 233.487L176.272 233.752C175.39 233.84 174.49 233.923 173.598 233.996H173.601ZM178.94 233.454L178.908 233.189C179.8 233.079 180.692 232.962 181.562 232.833L181.6 233.098C180.729 233.224 179.834 233.345 178.94 233.454ZM184.247 232.683L184.201 232.418C185.077 232.268 185.961 232.107 186.832 231.938L186.883 232.201C186.012 232.372 185.123 232.533 184.247 232.683ZM212.236 231.791L212.072 231.579C212.769 231.041 213.468 230.478 214.156 229.905L214.328 230.111C213.637 230.687 212.932 231.252 212.236 231.791ZM189.511 231.649L189.452 231.386C190.325 231.191 191.201 230.982 192.056 230.762L192.123 231.022C191.265 231.242 190.387 231.451 189.513 231.649H189.511ZM194.713 230.317L194.638 230.06C195.501 229.811 196.363 229.546 197.196 229.27L197.279 229.525C196.441 229.798 195.578 230.066 194.71 230.317H194.713ZM199.819 228.641L199.725 228.389C200.569 228.075 201.408 227.748 202.214 227.411L202.316 227.657C201.507 227.995 200.665 228.327 199.816 228.641H199.819ZM216.361 228.357L216.182 228.156C216.841 227.566 217.502 226.953 218.145 226.339L218.33 226.532C217.684 227.148 217.023 227.762 216.361 228.357ZM204.772 226.57L204.657 226.329C205.474 225.943 206.278 225.541 207.047 225.131L207.172 225.367C206.401 225.779 205.592 226.184 204.772 226.57ZM220.237 224.644L220.047 224.456C220.666 223.821 221.285 223.168 221.885 222.511L222.083 222.691C221.48 223.35 220.862 224.006 220.24 224.644H220.237ZM209.508 224.041L209.369 223.81C210.138 223.344 210.893 222.859 211.614 222.364L211.767 222.584C211.043 223.082 210.283 223.572 209.508 224.038V224.041ZM213.929 220.992L213.763 220.781C214.467 220.226 215.153 219.645 215.801 219.058L215.981 219.256C215.327 219.848 214.636 220.432 213.926 220.992H213.929ZM223.857 220.679L223.653 220.505C224.226 219.835 224.802 219.141 225.362 218.445L225.571 218.613C225.008 219.313 224.433 220.009 223.857 220.682V220.679ZM217.904 217.376L217.709 217.191C217.974 216.91 218.236 216.623 218.491 216.336C218.831 215.951 219.166 215.573 219.493 215.201L219.694 215.377C219.367 215.75 219.032 216.13 218.689 216.516C218.434 216.805 218.169 217.095 217.901 217.376H217.904ZM227.219 216.492L227.004 216.331C227.537 215.624 228.068 214.895 228.582 214.169L228.802 214.325C228.287 215.056 227.754 215.785 227.219 216.494V216.492ZM221.454 213.36L221.25 213.186C221.855 212.484 222.437 211.806 222.991 211.153L223.195 211.327C222.64 211.981 222.059 212.658 221.454 213.363V213.36ZM230.318 212.106L230.096 211.959C230.586 211.222 231.071 210.464 231.542 209.703L231.77 209.845C231.298 210.606 230.811 211.367 230.318 212.106ZM224.917 209.272L224.711 209.101C225.292 208.399 225.86 207.702 226.404 207.03L226.613 207.199C226.069 207.874 225.499 208.57 224.917 209.272ZM233.155 207.542L232.922 207.408C233.369 206.639 233.811 205.854 234.237 205.072L234.473 205.2C234.047 205.985 233.602 206.773 233.155 207.544V207.542ZM228.277 205.096L228.065 204.932C228.638 204.193 229.182 203.475 229.68 202.803L229.895 202.961C229.396 203.636 228.85 204.356 228.274 205.096H228.277ZM235.727 202.821L235.488 202.698C235.85 201.988 236.155 201.375 236.404 200.871L236.691 200.295L236.929 200.416L236.646 200.989C236.396 201.495 236.091 202.109 235.729 202.819L235.727 202.821ZM231.454 200.777L231.234 200.625C231.786 199.821 232.274 199.068 232.686 198.385L232.917 198.525C232.501 199.21 232.011 199.968 231.457 200.777H231.454ZM234.176 196.148L233.929 196.041C234.259 195.286 234.425 194.68 234.425 194.241C234.425 193.97 234.363 193.775 234.237 193.654L234.425 193.461C234.602 193.633 234.693 193.895 234.693 194.241C234.693 194.715 234.519 195.358 234.176 196.148Z" fill="#C69C6D"/>
<path d="M116.261 223.527C114.118 223.527 112.377 221.786 112.377 219.642C112.377 217.499 114.118 215.758 116.261 215.758C118.404 215.758 120.146 217.499 120.146 219.642C120.146 221.786 118.404 223.527 116.261 223.527ZM116.261 217.097C114.858 217.097 113.716 218.239 113.716 219.642C113.716 221.046 114.858 222.187 116.261 222.187C117.665 222.187 118.806 221.046 118.806 219.642C118.806 218.239 117.665 217.097 116.261 217.097Z" fill="#C69C6D"/>
<path d="M127.513 235.582C125.37 235.582 123.628 233.84 123.628 231.697C123.628 229.554 125.37 227.813 127.513 227.813C129.656 227.813 131.397 229.554 131.397 231.697C131.397 233.84 129.656 235.582 127.513 235.582ZM127.513 229.152C126.109 229.152 124.968 230.293 124.968 231.697C124.968 233.101 126.109 234.242 127.513 234.242C128.917 234.242 130.058 233.101 130.058 231.697C130.058 230.293 128.917 229.152 127.513 229.152Z" fill="#C69C6D"/>
<path d="M157.249 245.226C155.106 245.226 153.364 243.485 153.364 241.341C153.364 239.198 155.106 237.457 157.249 237.457C159.392 237.457 161.133 239.198 161.133 241.341C161.133 243.485 159.392 245.226 157.249 245.226ZM157.249 238.796C155.845 238.796 154.704 239.938 154.704 241.341C154.704 242.745 155.845 243.886 157.249 243.886C158.652 243.886 159.794 242.745 159.794 241.341C159.794 239.938 158.652 238.796 157.249 238.796Z" fill="#C69C6D"/>
<path d="M182.162 243.886C180.019 243.886 178.278 242.145 178.278 240.002C178.278 237.858 180.019 236.117 182.162 236.117C184.305 236.117 186.047 237.858 186.047 240.002C186.047 242.145 184.305 243.886 182.162 243.886ZM182.162 237.457C180.758 237.457 179.617 238.598 179.617 240.002C179.617 241.405 180.758 242.547 182.162 242.547C183.566 242.547 184.707 241.405 184.707 240.002C184.707 238.598 183.566 237.457 182.162 237.457Z" fill="#C69C6D"/>
<path d="M203.995 235.582C202.074 235.582 200.513 234.02 200.513 232.099C200.513 230.178 202.074 228.617 203.995 228.617C205.916 228.617 207.478 230.178 207.478 232.099C207.478 234.02 205.916 235.582 203.995 235.582ZM203.995 229.956C202.814 229.956 201.852 230.918 201.852 232.099C201.852 233.281 202.814 234.242 203.995 234.242C205.177 234.242 206.138 233.281 206.138 232.099C206.138 230.918 205.177 229.956 203.995 229.956Z" fill="#C69C6D"/>
<path d="M144.098 246.171L144.071 245.903C145.121 245.802 145.823 245.392 146.156 244.682L146.399 244.794C146.024 245.595 145.25 246.059 144.098 246.169V246.171ZM141.398 245.957C140.621 245.799 139.748 245.561 138.799 245.25L138.882 244.995C139.82 245.303 140.685 245.539 141.451 245.695L141.398 245.957ZM136.278 244.318C135.472 243.98 134.652 243.6 133.843 243.182L133.967 242.943C134.77 243.359 135.582 243.736 136.383 244.071L136.281 244.318H136.278ZM146.231 242.14C146.067 241.406 145.778 240.562 145.371 239.63L145.617 239.522C146.032 240.468 146.327 241.331 146.493 242.081L146.231 242.14ZM131.499 241.861C130.755 241.406 129.999 240.91 129.252 240.385L129.404 240.165C130.147 240.685 130.897 241.178 131.636 241.631L131.497 241.858L131.499 241.861ZM127.095 238.775C126.409 238.234 125.713 237.655 125.027 237.055L125.204 236.854C125.887 237.452 126.578 238.028 127.261 238.566L127.095 238.778V238.775ZM144.173 237.243C143.766 236.506 143.303 235.734 142.799 234.947L143.024 234.802C143.53 235.595 143.994 236.372 144.406 237.111L144.173 237.243ZM123.042 235.244C122.407 234.639 121.767 234.004 121.137 233.353L121.33 233.165C121.957 233.814 122.595 234.446 123.227 235.049L123.042 235.242V235.244ZM141.301 232.726C141.111 232.458 140.98 232.281 140.926 232.212C140.768 232.153 140.131 231.909 139.107 231.432L139.22 231.188C140.391 231.732 141.05 231.968 141.055 231.971L141.092 231.984L141.117 232.016C141.117 232.016 141.267 232.214 141.518 232.565L141.301 232.721V232.726ZM119.305 231.389C118.716 230.736 118.121 230.055 117.54 229.364L117.743 229.193C118.325 229.881 118.917 230.559 119.503 231.21L119.305 231.389ZM136.704 230.232C135.938 229.825 135.151 229.38 134.363 228.917L134.5 228.686C135.285 229.15 136.07 229.589 136.83 229.996L136.704 230.232ZM132.078 227.51C131.339 227.036 130.586 226.535 129.844 226.023L129.997 225.804C130.736 226.313 131.486 226.811 132.223 227.285L132.078 227.51ZM115.836 227.288C115.289 226.599 114.738 225.884 114.194 225.161L114.408 225C114.949 225.721 115.498 226.433 116.045 227.122L115.836 227.288ZM127.658 224.467C126.945 223.942 126.225 223.396 125.52 222.844L125.686 222.632C126.388 223.181 127.106 223.725 127.816 224.25L127.658 224.464V224.467ZM112.611 222.991C112.099 222.268 111.585 221.526 111.084 220.781L111.306 220.631C111.804 221.373 112.319 222.115 112.83 222.836L112.611 222.991ZM123.431 221.164C122.75 220.601 122.064 220.017 121.387 219.425L121.563 219.224C122.238 219.814 122.924 220.395 123.602 220.958L123.431 221.164ZM109.61 218.536C109.128 217.781 108.651 217.012 108.193 216.254L108.423 216.114C108.882 216.872 109.356 217.639 109.838 218.391L109.613 218.536H109.61ZM119.388 217.639C118.737 217.041 118.081 216.422 117.435 215.801L117.62 215.608C118.263 216.23 118.919 216.846 119.568 217.443L119.385 217.641L119.388 217.639ZM106.832 213.934C105.999 212.463 105.546 211.571 105.541 211.56L105.779 211.44C105.779 211.44 106.235 212.337 107.065 213.8L106.832 213.931V213.934ZM115.528 213.915C114.904 213.285 114.277 212.637 113.663 211.986L113.859 211.801C114.472 212.45 115.097 213.095 115.718 213.725L115.528 213.912V213.915ZM111.844 210.017C111.247 209.358 110.65 208.68 110.066 208.011L110.269 207.834C110.851 208.504 111.448 209.179 112.043 209.838L111.844 210.017ZM108.332 205.967C107.995 205.56 107.655 205.147 107.317 204.729L107.526 204.56C107.864 204.978 108.201 205.388 108.539 205.795L108.332 205.967Z" fill="#C69C6D"/>
<path d="M140.372 286.212C152.578 286.212 162.473 276.317 162.473 264.112C162.473 251.906 152.578 242.011 140.372 242.011C128.166 242.011 118.271 251.906 118.271 264.112C118.271 276.317 128.166 286.212 140.372 286.212Z" fill="#EFD5A2"/>
<path d="M139.836 283.533C150.563 283.533 159.258 274.838 159.258 264.112C159.258 253.385 150.563 244.69 139.836 244.69C129.11 244.69 120.415 253.385 120.415 264.112C120.415 274.838 129.11 283.533 139.836 283.533Z" fill="#D2AD79"/>
<path d="M123.953 270.56L125.673 255.406L127.896 255.834L127.578 258.644L126.911 261.16L126.972 263.817L126.158 270.986L123.953 270.56ZM128.981 267.19C128.392 267.077 127.88 266.815 127.441 266.408C127.002 265.998 126.672 265.494 126.453 264.894C126.233 264.294 126.15 263.638 126.209 262.925L126.637 259.143C126.739 258.438 126.967 257.838 127.318 257.342C127.669 256.844 128.097 256.48 128.604 256.247C129.11 256.014 129.656 255.952 130.246 256.067C131.004 256.215 131.655 256.587 132.199 257.19C132.743 257.792 133.139 258.548 133.388 259.453C133.637 260.361 133.702 261.345 133.581 262.405C133.463 263.453 133.182 264.364 132.743 265.138C132.303 265.912 131.754 266.485 131.1 266.855C130.447 267.225 129.74 267.337 128.981 267.193V267.19ZM128.896 264.439C129.303 264.516 129.678 264.465 130.023 264.283C130.366 264.101 130.653 263.809 130.878 263.407C131.103 263.006 131.248 262.518 131.312 261.942C131.376 261.382 131.344 260.868 131.218 260.399C131.092 259.93 130.883 259.544 130.597 259.239C130.307 258.934 129.959 258.743 129.552 258.663C129.156 258.585 128.786 258.639 128.443 258.821C128.097 259.003 127.813 259.295 127.588 259.697C127.363 260.099 127.219 260.578 127.157 261.141C127.093 261.717 127.122 262.239 127.248 262.708C127.374 263.177 127.578 263.563 127.862 263.865C128.146 264.168 128.491 264.361 128.898 264.439H128.896Z" fill="#351411"/>
<path d="M137.902 268.91C137.179 268.77 136.56 268.446 136.046 267.94C135.531 267.433 135.156 266.796 134.92 266.027C134.685 265.258 134.618 264.409 134.725 263.479L135.427 257.286L137.666 257.717L136.97 263.846C136.919 264.288 136.932 264.68 137.01 265.02C137.088 265.36 137.23 265.631 137.436 265.837C137.645 266.043 137.899 266.174 138.205 266.233C138.668 266.322 139.051 266.209 139.354 265.89C139.657 265.572 139.844 265.081 139.919 264.417L140.616 258.288L142.837 258.716L142.135 264.91C142.028 265.853 141.778 266.651 141.387 267.297C140.996 267.945 140.498 268.411 139.895 268.693C139.29 268.977 138.628 269.046 137.902 268.907V268.91Z" fill="#351411"/>
<path d="M146.279 275.141C145.408 274.972 144.661 274.621 144.042 274.088C143.421 273.552 142.955 272.88 142.641 272.065L144.256 270.501C144.519 271.047 144.83 271.489 145.189 271.822C145.55 272.154 146.006 272.376 146.56 272.483C147.249 272.617 147.822 272.494 148.275 272.114C148.728 271.733 149.001 271.139 149.092 270.327L149.395 267.651L150.035 265.376L149.944 262.963L150.263 260.152L152.467 260.578L151.318 270.713C151.197 271.773 150.903 272.663 150.434 273.381C149.965 274.096 149.373 274.61 148.655 274.926C147.937 275.24 147.144 275.312 146.274 275.146L146.279 275.141ZM146.748 270.099C146.014 269.957 145.376 269.598 144.843 269.02C144.307 268.441 143.919 267.715 143.678 266.839C143.437 265.963 143.372 265.025 143.485 264.021C143.597 263.019 143.868 262.151 144.291 261.417C144.715 260.686 145.248 260.144 145.888 259.793C146.528 259.443 147.217 259.338 147.951 259.48C148.561 259.598 149.084 259.858 149.518 260.257C149.952 260.656 150.273 261.154 150.485 261.744C150.697 262.336 150.772 262.995 150.71 263.721L150.33 267.083C150.228 267.787 150.005 268.387 149.665 268.888C149.325 269.389 148.904 269.743 148.401 269.954C147.897 270.166 147.345 270.214 146.745 270.099H146.748ZM147.487 267.552C147.894 267.629 148.261 267.584 148.586 267.412C148.91 267.241 149.183 266.97 149.397 266.598C149.614 266.225 149.751 265.781 149.81 265.264C149.869 264.733 149.837 264.251 149.713 263.82C149.59 263.389 149.389 263.03 149.116 262.743C148.843 262.456 148.503 262.274 148.095 262.196C147.688 262.119 147.318 262.164 146.989 262.333C146.657 262.502 146.384 262.775 146.169 263.147C145.952 263.52 145.816 263.964 145.757 264.482C145.7 264.982 145.733 265.454 145.856 265.891C145.979 266.33 146.18 266.697 146.459 266.992C146.737 267.286 147.08 267.474 147.487 267.552Z" fill="#351411"/>
<path d="M147.141 229.798C148.173 230.527 149.384 231.521 150.332 232.356C150.841 232.817 151.428 233.35 151.902 233.827C151.963 233.905 151.982 233.972 151.95 234.033C151.886 234.143 151.738 234.245 151.738 234.387L151.704 234.577C150.72 239.879 149.443 246.769 148.459 252.07C146.624 252.844 144.556 253.608 142.627 254.136C141.015 252.952 139.359 251.5 137.923 250.117C138.906 244.816 140.184 237.926 141.167 232.624L141.202 232.434C141.256 232.303 141.151 232.153 141.13 232.027C141.122 231.96 141.165 231.901 141.251 231.853C141.668 231.668 142.113 231.488 142.55 231.306L143.244 231.041C143.72 230.848 144.961 230.449 145.464 230.272C145.936 230.136 146.667 229.911 147.141 229.795V229.798Z" fill="#C69C6D"/>
<path d="M154.323 226.905C154.227 227.071 154.13 227.234 154.031 227.392C153.495 228.257 152.906 229.021 152.266 229.683C152.499 229.728 152.732 229.771 152.965 229.814C152.965 229.814 152.965 229.814 152.967 229.814C156.287 229.993 159.563 229.814 162.713 229.281C162.66 229.235 162.606 229.19 162.553 229.141C162.36 228.97 162.169 228.796 161.979 228.619C159.906 226.666 158.057 224.29 156.469 221.517C155.952 223.454 155.25 225.289 154.32 226.902L154.323 226.905Z" fill="#EFD5A2"/>
<path d="M273.833 156.279C274.08 155.247 273.865 152.504 269.646 145.705C266.858 141.213 262.687 135.571 257.589 129.393C247.824 117.563 238.054 107.764 235.879 106.475C231.486 103.874 228.531 104.766 228.322 104.833C227.7 105.072 227.025 104.79 226.728 104.193C221.333 93.365 199.243 84.5167 199.02 84.4309C198.948 84.4015 198.881 84.3666 198.817 84.3265C198.744 84.305 198.672 84.2809 198.602 84.2488C198.385 84.147 176.844 74.0369 165.248 77.4819C164.61 77.6721 163.943 77.3721 163.694 76.7533C163.6 76.5523 162.234 73.7824 157.337 72.3492C154.91 71.6393 141.081 71.1865 125.769 72.1215C117.772 72.6117 110.805 73.4127 105.618 74.4414C97.7666 75.9951 95.6154 77.7123 95.0314 78.5963C92.8455 81.9048 90.255 93.3114 88.586 106.982C87.8252 113.213 87.3591 119.165 87.2761 123.735C87.1662 129.827 87.7636 131.544 87.9699 131.954C88.5646 131.976 90.7747 131.577 96.8236 126.452C100.196 123.596 103.21 120.577 103.821 119.961C104.887 118.094 106.087 116.007 107.437 113.671C110.124 109.026 113.856 104.466 118.525 100.113C122.241 96.6493 126.562 93.3114 131.362 90.1852C139.53 84.8676 146.177 82.0521 146.458 81.9342C147.114 81.6583 147.872 81.9664 148.148 82.6227C148.29 82.9629 148.28 83.3272 148.143 83.6407C148.014 83.9353 147.779 84.1818 147.46 84.3157C147.393 84.3452 140.712 87.1795 132.731 92.3792C125.418 97.1449 115.479 104.935 109.677 114.965C108.303 117.341 107.086 119.457 106.009 121.341C105.993 121.373 105.975 121.405 105.956 121.434C104.568 123.867 103.414 125.908 102.455 127.623C104.981 125.849 106.851 125.501 107.022 125.471C107.727 125.354 108.391 125.828 108.509 126.532C108.627 127.237 108.153 127.901 107.448 128.019C107.44 128.019 105.452 128.407 102.862 130.564C100.437 132.581 96.979 136.591 94.2733 144.253C89.3549 158.17 90.4746 171.859 97.4371 184.948C100.076 178.296 107.062 173.051 110.657 170.696C110.237 170.774 109.803 170.919 109.353 171.13C108.707 171.433 107.938 171.154 107.636 170.509C107.333 169.863 107.611 169.094 108.257 168.792C110.132 167.913 111.957 167.803 113.676 168.465C117.014 169.751 118.638 173.541 118.707 173.702C118.737 173.772 118.758 173.841 118.774 173.911C118.801 174.023 118.812 174.139 118.806 174.251C118.793 174.626 118.614 174.98 118.316 175.216C118.225 175.285 118.126 175.347 118.016 175.392C117.933 175.427 117.845 175.454 117.759 175.47C117.628 175.494 117.499 175.5 117.371 175.483C117.242 175.47 117.119 175.435 117.001 175.384C116.706 175.256 116.46 175.02 116.326 174.704C116.32 174.696 116.27 174.573 116.168 174.377C115.868 173.793 115.144 172.542 114.041 171.642C113.995 171.669 113.928 171.706 113.837 171.76C113.808 171.779 113.773 171.797 113.738 171.819C113.457 171.985 113.025 172.247 112.482 172.598C112.415 172.641 112.345 172.687 112.273 172.732C112.061 172.872 111.831 173.024 111.59 173.185C111.268 173.402 110.925 173.638 110.566 173.895C110.384 174.023 110.199 174.157 110.012 174.294C109.54 174.64 109.047 175.015 108.541 175.416C108.236 175.658 107.928 175.909 107.617 176.169C107.306 176.429 106.99 176.7 106.677 176.976C106.363 177.254 106.047 177.541 105.736 177.836C105.632 177.935 105.527 178.034 105.423 178.133C105.217 178.334 105.01 178.537 104.804 178.744C104.598 178.95 104.397 179.162 104.196 179.376C103.893 179.697 103.598 180.027 103.312 180.362C102.929 180.809 102.559 181.267 102.208 181.739C101.332 182.917 100.571 184.166 100.006 185.465C99.6686 186.245 99.4007 187.043 99.2212 187.857C99.2105 187.913 99.1971 187.97 99.1864 188.029C99.1435 188.238 99.106 188.444 99.0765 188.65C98.9694 189.373 98.9372 190.086 98.9854 190.791C99.031 191.495 99.1515 192.189 99.3525 192.88C99.7275 194.187 100.381 195.473 101.313 196.748C103.339 199.524 105.581 201.761 108.021 203.448C108.394 203.708 108.774 203.952 109.154 204.185C109.538 204.418 109.923 204.638 110.317 204.844C110.708 205.05 111.105 205.243 111.507 205.425C111.908 205.607 112.313 205.774 112.725 205.929C112.993 206.031 113.264 206.127 113.534 206.218C113.671 206.264 113.808 206.307 113.944 206.35C114.081 206.392 114.22 206.433 114.357 206.473L114.968 206.639C115.131 206.682 115.294 206.719 115.461 206.759C115.627 206.797 115.79 206.832 115.956 206.867C116.146 206.907 116.339 206.944 116.532 206.979C117.111 207.084 117.7 207.161 118.292 207.22C119.642 207.349 120.992 207.357 122.335 207.263C123.138 207.209 123.939 207.116 124.732 206.995C125.713 206.842 126.685 206.644 127.641 206.406C129.744 205.881 131.772 205.171 133.666 204.372C134.092 204.193 134.51 204.008 134.92 203.823C135.134 203.727 135.343 203.628 135.552 203.531C135.761 203.432 135.97 203.333 136.174 203.234C136.348 203.148 136.522 203.063 136.696 202.977C137.385 202.631 138.049 202.28 138.681 201.932C139.158 201.67 139.616 201.41 140.055 201.15C140.87 200.673 141.647 200.188 142.383 199.711C143.61 198.916 144.727 198.136 145.705 197.415C146.04 197.169 146.359 196.931 146.661 196.7C146.814 196.585 146.959 196.472 147.101 196.363C147.243 196.253 147.382 196.146 147.513 196.039C147.685 195.902 147.848 195.773 148.004 195.647C148.159 195.521 148.306 195.401 148.448 195.288C148.553 195.203 148.652 195.12 148.748 195.039C148.813 194.986 148.874 194.935 148.933 194.884C149.024 194.809 149.11 194.737 149.19 194.667C149.268 194.6 149.343 194.538 149.413 194.479C149.448 194.45 149.48 194.42 149.512 194.394C149.673 194.254 149.804 194.139 149.906 194.048C150.007 193.957 150.077 193.893 150.115 193.858C150.12 193.853 150.125 193.847 150.128 193.844C150.128 193.689 150.16 193.531 150.222 193.378L156.011 179.162C154.042 177.793 153.487 175.663 153.463 175.566C153.292 174.875 153.71 174.173 154.403 173.999C155.092 173.825 155.791 174.243 155.968 174.929C155.981 174.974 156.405 176.453 157.768 177.217C158.842 177.817 160.27 177.86 162.011 177.343C162.4 177.227 162.799 177.302 163.11 177.517C161.923 175.374 162.879 171.934 163.118 171.168C163.329 170.487 164.053 170.104 164.733 170.316C165.411 170.525 165.794 171.248 165.585 171.931C165.049 173.67 164.91 175.976 165.521 176.456C165.596 176.512 166.22 176.911 168.35 175.875C168.958 174.38 169.036 172.968 168.569 171.669C167.407 168.422 163.254 166.804 163.212 166.788C163.142 166.761 163.08 166.718 163.024 166.673C162.954 166.665 162.882 166.648 162.815 166.616C162.775 166.598 158.762 164.666 155.593 166.032C154.32 166.579 153.34 167.602 152.662 169.076C153.136 170.715 153.56 171.216 153.707 171.35C154.224 171.09 155.186 169.539 155.759 168.028C156.011 167.361 156.758 167.024 157.423 167.275C158.092 167.53 158.427 168.272 158.175 168.939C158.157 168.987 157.723 170.134 157.05 171.278C155.936 173.172 154.773 174.048 153.501 173.951C153.219 173.93 152.957 173.863 152.716 173.758C151.036 173.03 150.262 170.434 149.772 168.149C149.131 165.175 149.683 162.828 151.408 161.173C152.528 160.099 154.117 159.367 156.155 158.987C152.408 158.802 147.615 159.126 141.831 160.605L123.438 165.309C123.149 165.381 122.86 165.352 122.605 165.242C122.252 165.089 121.97 164.779 121.868 164.377C121.692 163.686 122.107 162.981 122.798 162.804L141.191 158.1C157.404 153.953 166.547 158.239 168.982 159.659C172.234 161.216 177.98 165.424 184.195 176.783L193.309 193.44C193.652 194.067 193.421 194.852 192.797 195.195C192.433 195.393 192.015 195.401 191.661 195.246C191.407 195.136 191.187 194.943 191.045 194.683L181.932 178.026C179.304 173.225 176.804 169.826 174.65 167.431C175.159 168.559 175.465 169.737 175.435 170.932C175.371 173.48 173.879 175.647 170.999 177.369C167.755 179.312 165.443 179.676 163.927 178.486C163.814 178.395 163.713 178.299 163.613 178.2C163.613 178.202 163.616 178.208 163.619 178.211C163.822 178.894 163.431 179.614 162.748 179.818C161.146 180.295 159.692 180.405 158.395 180.153L152.617 194.351C152.547 194.522 152.443 194.67 152.319 194.793C152.319 194.836 152.319 194.94 152.325 195.096C152.325 195.106 152.325 195.12 152.325 195.133C152.333 195.484 152.354 196.079 152.405 196.869C152.445 197.544 152.509 198.358 152.603 199.291C152.818 201.431 153.198 204.169 153.86 207.142C154.178 208.57 154.58 210.121 155.087 211.731C155.087 211.731 155.087 211.734 155.087 211.737C155.424 212.811 155.807 213.912 156.244 215.018C156.557 215.822 156.903 216.628 157.278 217.432C157.374 217.636 157.471 217.839 157.57 218.043C159.207 221.402 161.385 224.644 164.272 227.199C164.827 227.689 165.403 228.15 165.995 228.574C166.244 228.756 166.496 228.93 166.753 229.096C166.986 229.251 167.225 229.401 167.466 229.543C167.98 229.854 168.505 230.141 169.046 230.403C170.412 231.076 171.859 231.601 173.378 231.978C176.456 232.745 179.842 232.908 183.515 232.463C185.312 232.246 186.866 231.753 188.198 230.971C189.478 230.224 190.552 229.208 191.439 227.92C191.466 227.88 191.493 227.842 191.517 227.805C196.625 220.197 193.204 206.1 193.17 205.958C193.17 205.95 193.164 205.942 193.164 205.934C191.123 205.76 189.076 206.783 189.052 206.794C188.696 206.976 188.291 206.976 187.948 206.826C187.683 206.711 187.455 206.508 187.314 206.232C186.989 205.599 187.236 204.823 187.871 204.496C187.908 204.477 188.163 204.346 188.575 204.182C189.829 203.681 192.543 202.843 195.088 203.714C196.832 204.311 198.158 205.567 199.034 207.445C199.334 208.091 199.055 208.86 198.407 209.162C197.761 209.462 196.992 209.184 196.692 208.535C196.526 208.179 196.341 207.86 196.138 207.579C196.866 211.648 197.892 220.384 194.922 226.966C209.004 223.063 219.61 214.582 226.353 201.635C230.106 194.428 230.679 189.164 230.497 186.014C230.304 182.649 229.233 180.932 229.222 180.916C228.828 180.322 228.994 179.523 229.589 179.132C230.184 178.738 230.987 178.907 231.381 179.499C231.478 179.641 232.498 181.246 232.927 184.302C233.527 182.427 234.234 180.182 235.067 177.501C235.073 177.482 235.078 177.463 235.083 177.444C235.726 175.366 236.447 173.022 237.248 170.386C240.621 159.3 239.53 146.72 238.022 138.121C236.377 128.74 233.889 121.922 233.864 121.852C233.618 121.183 233.961 120.44 234.631 120.194C235.3 119.948 236.042 120.29 236.289 120.96C236.393 121.244 238.871 128.027 240.556 137.623C241.547 143.265 242.056 148.703 242.059 153.782C242.067 160.166 241.277 166.006 239.718 171.138C238.933 173.721 238.226 176.022 237.591 178.074C237.556 178.942 237.406 183.207 237.62 187.619C238.003 195.538 239.22 197.423 239.643 197.844C240.082 197.715 241.748 196.981 246.123 192.743C249.407 189.564 253.439 185.162 257.473 180.351C266.327 169.802 272.896 160.12 273.823 156.265L273.833 156.279ZM142.257 182.1C142.456 182.786 142.065 183.504 141.379 183.702L138.898 184.426C138.598 184.514 138.29 184.484 138.022 184.369C137.682 184.222 137.409 183.93 137.296 183.544C137.098 182.858 137.492 182.143 138.175 181.942L140.655 181.219C141.341 181.021 142.056 181.414 142.257 182.098V182.1ZM140.154 172.523L142.635 171.8C143.321 171.602 144.036 171.996 144.237 172.679C144.435 173.364 144.044 174.082 143.358 174.281L140.878 175.004C140.578 175.092 140.27 175.063 140.002 174.948C139.662 174.8 139.388 174.508 139.276 174.123C139.078 173.437 139.471 172.722 140.154 172.521V172.523ZM134.965 184.225C134.984 184.292 134.998 184.356 135.006 184.423C135.086 185.042 134.706 185.644 134.087 185.824L129.278 187.225C128.978 187.313 128.67 187.287 128.402 187.169C128.062 187.021 127.789 186.729 127.676 186.344C127.478 185.658 127.872 184.943 128.555 184.742L133.347 183.346L133.366 183.341C134.052 183.142 134.767 183.533 134.968 184.219L134.965 184.225ZM130.535 175.325L135.343 173.924C136.029 173.726 136.744 174.117 136.945 174.803C137.143 175.489 136.752 176.204 136.067 176.405L131.258 177.806C130.958 177.894 130.65 177.868 130.382 177.75C130.042 177.602 129.768 177.31 129.656 176.925C129.458 176.239 129.852 175.524 130.535 175.323V175.325ZM125.343 187.027C125.541 187.713 125.15 188.428 124.464 188.629L121.984 189.352C121.684 189.44 121.376 189.414 121.108 189.296C120.767 189.148 120.494 188.856 120.382 188.471C120.183 187.785 120.577 187.067 121.263 186.869L123.744 186.145C124.429 185.947 125.145 186.341 125.346 187.024L125.343 187.027ZM123.243 177.45L123.918 177.252L125.723 176.726C126.409 176.528 127.124 176.922 127.325 177.605C127.494 178.184 127.24 178.784 126.744 179.079C126.653 179.132 126.554 179.175 126.447 179.207L123.966 179.93C123.666 180.019 123.358 179.992 123.09 179.874C122.75 179.727 122.477 179.435 122.364 179.049C122.166 178.363 122.56 177.645 123.245 177.447L123.243 177.45ZM166.383 194.353C166.027 194.533 165.625 194.533 165.288 194.386C165.02 194.27 164.792 194.064 164.65 193.786L163.485 191.479C163.163 190.841 163.418 190.065 164.055 189.743C164.693 189.422 165.47 189.676 165.791 190.314L166.957 192.62C167.278 193.258 167.024 194.035 166.386 194.356L166.383 194.353ZM170.822 186.51C170.554 186.395 170.327 186.188 170.185 185.91L169.019 183.603C168.698 182.966 168.952 182.189 169.59 181.867C170.228 181.546 171.004 181.8 171.326 182.438L172.491 184.744C172.813 185.382 172.558 186.159 171.921 186.48C171.564 186.66 171.163 186.66 170.825 186.512L170.822 186.51ZM170.903 203.298C170.546 203.478 170.145 203.478 169.807 203.33C169.539 203.215 169.311 203.009 169.169 202.728L167.209 198.843L166.911 198.257C166.59 197.619 166.844 196.842 167.482 196.521C168.119 196.199 168.896 196.454 169.218 197.091L170.522 199.674L171.476 201.562C171.797 202.2 171.543 202.977 170.905 203.298H170.903ZM174.701 194.852L172.443 190.381C172.122 189.743 172.376 188.966 173.014 188.645C173.651 188.323 174.428 188.578 174.75 189.215L177.008 193.686C177.329 194.324 177.075 195.101 176.437 195.422C176.081 195.602 175.679 195.602 175.342 195.454C175.074 195.339 174.846 195.133 174.704 194.852H174.701ZM174.326 210.079C173.97 210.258 173.568 210.258 173.228 210.111C172.96 209.995 172.732 209.789 172.59 209.508L171.425 207.201C171.104 206.564 171.358 205.787 171.996 205.465C172.633 205.144 173.41 205.399 173.732 206.036L174.897 208.343C175.218 208.98 174.964 209.757 174.326 210.079ZM180.07 202.069C180.008 202.12 179.936 202.165 179.861 202.203C179.505 202.382 179.103 202.382 178.763 202.235C178.495 202.12 178.267 201.913 178.125 201.632L178.095 201.576L176.96 199.325C176.638 198.688 176.893 197.911 177.53 197.59C178.168 197.268 178.945 197.523 179.266 198.16L180.431 200.467C180.715 201.029 180.549 201.699 180.07 202.069ZM133.396 112.559C134.29 112.594 155.429 113.414 165.73 117.03C169.52 118.362 170.986 120.754 171.548 122.525C172.339 125.013 171.985 128.016 170.498 131.448C169.453 133.862 168.202 135.624 168.151 135.699C167.61 136.458 166.625 136.709 165.802 136.353C165.679 136.299 165.561 136.235 165.448 136.152C164.578 135.531 164.374 134.322 164.993 133.452C166.137 131.834 168.885 126.931 167.854 123.693C167.417 122.324 166.303 121.341 164.449 120.69C154.701 117.266 133.468 116.441 133.254 116.433C132.185 116.393 131.349 115.495 131.389 114.424C131.429 113.355 132.327 112.519 133.396 112.559ZM220.443 176.357C218.391 181.077 213.952 184.57 208.57 185.695C205.058 186.429 201.592 186.086 198.549 184.766C196.96 184.075 195.487 183.118 194.185 181.91C193.352 181.136 192.693 180.533 192.165 180.048C191.956 179.855 191.766 179.681 191.592 179.521C196.807 190.949 201.528 200.609 201.603 200.759C201.916 201.399 201.651 202.173 201.011 202.487C200.657 202.661 200.263 202.655 199.928 202.511C199.655 202.393 199.425 202.181 199.283 201.895C199.168 201.656 187.533 177.849 180.539 160.589C178.171 154.744 175.084 151.157 170.833 149.311L170.798 149.295C170.739 149.271 170.686 149.238 170.635 149.206C170.576 149.19 170.517 149.171 170.458 149.147L170.423 149.131C166.172 147.283 161.446 147.476 155.555 149.734C138.167 156.402 112.825 164.146 112.57 164.221C112.265 164.315 111.951 164.288 111.678 164.171C111.343 164.026 111.07 163.739 110.955 163.362C110.748 162.678 111.131 161.958 111.815 161.749C111.975 161.698 122.254 158.558 134.167 154.569C133.931 154.551 133.677 154.532 133.393 154.51C132.678 154.454 131.788 154.387 130.653 154.304C128.882 154.178 127.175 153.755 125.587 153.064C122.544 151.741 119.926 149.442 118.067 146.372C115.217 141.668 114.74 136.042 116.792 131.319C120.963 121.716 132.544 117.459 142.603 121.831C152.662 126.2 157.455 137.569 153.281 147.173C153.16 147.449 153.029 147.717 152.885 147.977C153.471 147.757 154.055 147.535 154.626 147.315C161.186 144.8 166.533 144.62 171.447 146.755L171.487 146.771C171.543 146.795 171.597 146.825 171.647 146.86C171.706 146.876 171.763 146.894 171.822 146.919L171.859 146.935C176.772 149.07 180.289 153.096 182.928 159.611C183.159 160.179 183.394 160.755 183.633 161.336C183.724 161.052 183.831 160.774 183.952 160.498C188.123 150.894 199.703 146.637 209.763 151.009C219.824 155.381 224.614 166.748 220.441 176.351L220.443 176.357ZM222.825 151.411C223.583 152.166 223.588 153.393 222.833 154.152C222.077 154.91 220.85 154.912 220.092 154.16C219.94 154.01 204.847 139.053 195.693 134.263C193.952 133.353 192.473 133.208 191.174 133.824C188.101 135.281 186.392 140.634 185.993 142.576C185.779 143.624 184.753 144.299 183.705 144.084C183.571 144.057 183.443 144.015 183.319 143.961C182.5 143.605 182.009 142.713 182.194 141.802C182.213 141.713 182.65 139.597 183.7 137.186C185.195 133.757 187.147 131.451 189.502 130.328C191.182 129.53 193.93 128.97 197.488 130.832C207.161 135.892 222.19 150.784 222.822 151.414L222.825 151.411Z" fill="#EFD5A2"/>
<path d="M129.487 208.611C125.694 209.687 122.056 210.105 118.646 209.859C118.448 209.846 118.249 209.829 118.051 209.808C117.861 209.789 117.671 209.768 117.48 209.746C118.126 210.834 118.836 211.887 119.599 212.907C119.79 213.162 119.985 213.414 120.183 213.666C120.778 214.416 121.405 215.147 122.061 215.857C125.407 219.476 129.549 222.543 134.317 224.904C134.178 224.491 134.052 224.07 133.945 223.639C133.704 222.68 133.543 221.681 133.476 220.671C133.396 219.538 133.433 218.386 133.591 217.247C133.894 215.088 133.977 212.591 133.934 210.105C133.921 209.101 133.883 208.096 133.835 207.116C132.753 207.55 131.681 207.933 130.623 208.268C130.243 208.388 129.865 208.501 129.487 208.608V208.611Z" fill="#EFD5A2"/>
<path d="M153.201 163.056C152.215 164.002 151.896 165.376 152.228 167.249C152.979 166.158 153.935 165.357 155.095 164.859C158.813 163.262 163.206 165.381 163.391 165.473C163.44 165.497 163.482 165.526 163.523 165.561C163.573 165.566 163.627 165.577 163.678 165.596C163.871 165.668 168.42 167.433 169.788 171.24C170.217 172.427 170.284 173.675 169.997 174.966C171.878 173.764 172.816 172.424 172.853 170.884C172.936 167.608 168.979 163.849 166.51 161.939C162.486 161.181 155.797 160.559 153.201 163.053V163.056Z" fill="#EFD5A2"/>
<path d="M150.752 157.559C150.752 157.559 109.031 167.551 102.463 178.883C100.22 182.751 97.1156 186.47 98.155 191.677C100.536 203.609 115.059 215.745 142.978 201.07L150.843 193.507C150.843 193.507 152.426 218.991 159.951 224.266C163.863 227.007 170.126 233.511 177.97 234.24C185.216 234.915 194.201 230.427 194.804 218.999C196.057 195.2 186.946 186.105 186.946 186.105C186.946 186.105 178.971 166.45 170.056 161.69C161.138 156.93 150.752 157.557 150.752 157.557V157.559Z" fill="#7C665B"/>
<path d="M180.308 154.425C180.308 154.425 187.252 142.472 195.323 142.402C203.395 142.332 224.558 151.325 226.449 162.528C228.34 173.734 216.516 191.551 216.516 191.551C210.405 199.46 200.11 205.203 191.999 183.097C183.959 161.192 180.308 154.422 180.308 154.422V154.425Z" fill="#7C665B"/>
<path d="M161.151 146.101C161.151 146.101 165.151 132.868 159.691 126.921C154.234 120.974 133.218 111.643 123.738 117.906C114.257 124.169 109.301 144.974 109.301 144.974C107.691 154.837 110.518 166.279 132.211 157.125C153.709 148.052 161.151 146.101 161.151 146.101Z" fill="#7C665B"/>
<path d="M228.242 103.197C228.242 103.197 232.694 103.095 234.368 104.102C236.043 105.112 254.398 124.775 261.318 131.866C268.237 138.957 274.811 150.404 275.01 155.137C275.208 159.871 259.579 179.837 259.579 179.837L244.853 195.696L239.407 199.202L236.881 195.894L235.751 182.341L238.708 172.258L241.165 156.209L239.099 135.03L234.534 121.574L226.934 101.437" fill="#7C665B"/>
<path d="M165.778 76.0594C165.778 76.0594 162.815 72.7349 160.935 72.1992C159.054 71.6634 132.153 71.6661 122.249 71.4491C112.345 71.2294 99.4892 74.2378 95.8942 77.3239C92.2991 80.4099 88.3692 105.457 88.3692 105.457L86.8262 127.044L87.9808 133.417L92.125 133.004L102.803 124.582L108.153 115.538L118.207 102.789L135.097 89.8476L148.047 83.9996L167.953 75.813" fill="#7C665B"/>
<path d="M166.48 230.508C166.48 230.508 140.388 232.329 130.326 223.966C120.264 215.602 113.104 206.901 113.104 206.901L153.137 190.619L166.478 230.508H166.48Z" fill="#7C665B"/>
<path d="M229.595 179.14C229.595 179.14 225.563 208.367 195.289 206.695C191.576 206.489 194.295 217.692 188.586 220.826C175.599 227.952 154.061 231.52 154.061 231.52C154.061 231.52 201.172 229.634 208.121 222.956C215.07 216.277 226.809 213.513 229.981 195.572C233.152 177.632 229.595 179.143 229.595 179.143V179.14Z" fill="#D2AD79"/>
<path d="M108.471 127.224C108.471 127.224 89.8612 150.115 111.742 171.104C114.427 173.678 104.383 179.336 105.988 185.645C109.642 200.001 121.735 218.18 121.735 218.18C121.735 218.18 90.9623 182.457 91.1016 172.821C91.2409 163.185 85.2509 152.719 96.1995 138.156C107.148 123.594 108.471 127.226 108.471 127.226V127.224Z" fill="#D2AD79"/>
<path d="M169.322 122.286C169.322 122.286 165.02 133.409 168.837 139.857C171.591 144.508 173.9 145.831 180.884 142.273C187.6 138.855 188.096 133.653 188.096 133.653L197.555 132.426C197.555 132.426 189.127 125.777 181.275 128.078C181.275 128.078 174.281 118.324 165.698 118.587L169.32 122.286H169.322Z" fill="#D2AD79"/>
<path d="M153.139 190.617C153.139 190.617 161.46 215.517 174.501 219.211C183.644 221.802 193.274 213.109 193.175 205.969C193.073 198.83 195.784 215.284 195.784 215.284C195.784 215.284 194.836 230.315 189.564 231.328C184.292 232.338 168.111 239.833 154.412 216.055L150.474 195.599L153.142 190.617H153.139Z" fill="#5B473E"/>
<path d="M152.148 190.188C152.148 190.188 128.269 201.101 116.669 194.088C108.536 189.172 108.316 176.201 113.604 171.403C118.892 166.605 105.016 175.853 105.016 175.853C105.016 175.853 94.6754 186.804 97.5337 191.348C100.395 195.891 105.959 212.832 132.686 206.62L150.326 195.537L152.148 190.188Z" fill="#5B473E"/>
<path d="M127.012 207.641C127.012 207.641 135.408 223.353 156.472 221.52C177.536 219.688 164.776 229.766 164.776 229.766C164.776 229.766 151.24 232.632 147.696 231.512C144.152 230.393 126.316 222.884 124.467 220.623C122.619 218.362 115.847 209.497 115.847 209.497L127.01 207.641H127.012Z" fill="#5B473E"/>
<path d="M193.687 201.635C185.457 191.541 178.398 180.868 169.997 171.197C168.299 169.314 166.724 167.637 164.827 166.228C161.666 163.755 154.382 164.369 150.364 164.653C137.583 165.845 125.182 168.663 112.27 170.541C114.156 169.386 116.101 168.363 118.067 167.388C123.985 164.46 130.109 162.059 136.434 160.107C145.057 157.548 159.467 154.071 167.825 158.657C178.771 165.341 190.043 189.397 193.681 201.637L193.687 201.635Z" fill="#A18A7A"/>
<path d="M168.623 176.659C168.623 176.659 172.299 170.426 162.968 165.992C153.638 161.559 152.003 170.04 152.003 170.04C152.003 170.04 154.208 176.941 154.993 177.321C155.778 177.701 165.229 180.118 165.695 178.631C166.161 177.144 168.623 176.665 168.623 176.665V176.659Z" fill="#5B473E"/>
<path d="M233.75 119.466C233.75 119.466 236.621 114.799 243.048 139.56C245.178 147.765 244.829 169.207 245.818 179.071C246.806 188.937 258.036 181.501 258.036 181.501C258.036 181.501 245.646 197.009 241.403 197.919C237.157 198.828 238.183 196.47 235.852 177.847C235.852 177.847 241.234 166.705 240.549 149.833C239.86 132.962 233.752 119.466 233.752 119.466H233.75Z" fill="#5B473E"/>
<path d="M227.869 104.798C227.869 104.798 238.322 111.897 242.29 116.851C246.257 121.804 268.133 146.656 269.21 151.633C270.287 156.608 270.56 164.128 270.56 164.128L275.012 155.14C275.012 155.14 270.287 143.65 264.64 136.549C258.993 129.447 237.586 104.482 235.978 104.292C234.371 104.102 227.594 103.172 227.594 103.172L228.263 104.547L227.872 104.798H227.869Z" fill="#A18E7D"/>
<path d="M149.715 83.381C149.715 83.381 151.167 78.0956 128.684 90.2979C121.234 94.3403 105.798 109.227 97.9112 115.238C90.0273 121.25 87.7984 107.965 87.7984 107.965C87.7984 107.965 84.916 127.604 87.1501 131.328C89.3817 135.051 90.4077 132.694 105.61 121.686C105.61 121.686 110.081 110.148 122.881 99.1382C135.681 88.128 149.715 83.381 149.715 83.381Z" fill="#5B473E"/>
<path d="M164.449 77.6694C164.449 77.6694 152.126 74.8753 145.799 75.3548C139.474 75.8344 106.376 76.8068 102.005 79.4133C97.6326 82.0199 91.9507 86.9544 91.9507 86.9544L95.4841 77.5676C95.4841 77.5676 107.108 73.1823 116.152 72.4616C125.196 71.7437 158.052 70.3507 159.287 71.3981C160.522 72.4456 165.826 76.7639 165.826 76.7639L164.366 77.214L164.449 77.6721V77.6694Z" fill="#A18E7D"/>
<path d="M164.367 77.2114C164.367 77.2114 179.036 78.8107 189.832 82.7808C200.398 86.6652 214.711 94.6938 217.478 96.6226C220.245 98.5514 226.988 104.557 226.988 104.557L220.133 94.2089L200.309 82.5075L181.265 76.697L169.344 75.3335L164.517 76.6649" fill="#F9EBCE"/>
<path d="M164.932 231.518C165.24 231.547 165.545 231.574 165.85 231.601C165.738 231.531 165.625 231.461 165.516 231.389C165.32 231.435 165.127 231.478 164.932 231.518Z" fill="#481B15"/>
<path d="M228.652 202.838C226.782 206.427 221.094 217.349 207.288 224.732C202.988 227.031 198.252 228.793 193.127 230.007C193.28 229.809 193.43 229.605 193.574 229.396C194.097 228.635 194.547 227.823 194.927 226.977C209.01 223.074 219.616 214.592 226.358 201.645C230.112 194.439 230.685 189.175 230.503 186.025C230.31 182.66 229.238 180.943 229.228 180.927C228.834 180.332 229 179.534 229.595 179.143C230.189 178.749 230.993 178.918 231.387 179.51C231.483 179.652 232.504 181.256 232.932 184.313C230.369 192.326 229.761 193.606 229.726 193.676C229.742 193.646 229.747 193.636 229.747 193.636L231.923 194.865C231.229 197.247 230.181 199.907 228.652 202.84V202.838Z" fill="#481B15"/>
<path d="M96.5024 188.407C93.7458 183.673 91.7072 178.838 90.4052 173.954C86.3789 158.824 90.4802 147.213 91.8304 143.396C92.9314 140.275 94.161 137.695 95.4281 135.56L97.8097 136.31C97.8097 136.31 97.807 136.324 97.7963 136.353C97.8231 136.281 98.3454 134.963 102.449 127.623C104.976 125.849 106.846 125.501 107.017 125.472C107.722 125.354 108.386 125.828 108.504 126.532C108.622 127.237 108.147 127.901 107.443 128.019C107.435 128.019 105.447 128.408 102.857 130.564C100.432 132.581 96.9739 136.592 94.2682 144.253C89.3498 158.17 90.4695 171.859 97.4319 184.948C97.1266 185.714 96.8801 186.502 96.7033 187.306C96.6229 187.673 96.556 188.04 96.5077 188.404L96.5024 188.407Z" fill="#481B15"/>
<path d="M114.178 209.125C114.036 209.087 113.896 209.05 113.754 209.01C113.979 209.213 114.207 209.417 114.438 209.618C114.349 209.454 114.263 209.288 114.178 209.122V209.125Z" fill="#481B15"/>
<path d="M117.483 209.746C117.671 209.77 117.864 209.789 118.054 209.808C117.864 209.789 117.674 209.768 117.483 209.746Z" fill="#481B15"/>
<path d="M152.186 229.765C152.445 229.784 152.708 229.8 152.968 229.814C152.735 229.771 152.502 229.725 152.269 229.682C152.242 229.709 152.215 229.739 152.188 229.765H152.186Z" fill="white"/>
<path d="M222.83 154.151C222.075 154.91 220.848 154.912 220.09 154.159C219.937 154.009 204.844 139.053 195.691 134.263C193.949 133.353 192.471 133.208 191.171 133.824C188.099 135.281 186.39 140.634 185.99 142.576C185.776 143.623 184.75 144.298 183.703 144.084C183.569 144.057 183.44 144.015 183.317 143.961C182.497 143.605 182.007 142.713 182.192 141.802C182.21 141.713 182.647 139.597 183.697 137.186C185.192 133.757 187.145 131.451 189.5 130.328C191.179 129.53 193.928 128.97 197.485 130.832C207.159 135.892 222.187 150.784 222.82 151.414C223.578 152.169 223.583 153.396 222.828 154.154L222.83 154.151Z" fill="#481B15"/>
<path d="M215.967 172.068C212.765 179.435 204.263 182.944 196.403 180.426C197.367 181.241 198.428 181.897 199.569 182.392C202.13 183.504 205.061 183.794 208.037 183.169C212.602 182.213 216.352 179.282 218.07 175.328C220.759 169.135 219.109 162.081 214.456 157.321C217.36 161.623 218.112 167.128 215.964 172.071L215.967 172.068Z" fill="white"/>
<path d="M220.441 176.357C218.389 181.077 213.95 184.57 208.568 185.695C205.056 186.429 201.589 186.087 198.546 184.766C196.958 184.075 195.484 183.118 194.182 181.91C193.349 181.136 192.69 180.533 192.162 180.048C191.953 179.855 191.763 179.681 191.589 179.521C191.233 178.741 190.877 177.953 190.518 177.163C191.766 178.224 193.196 179.127 194.785 179.818C195.321 180.051 195.862 180.252 196.406 180.426C197.37 181.24 198.431 181.897 199.572 182.392C202.133 183.504 205.064 183.793 208.04 183.169C212.605 182.213 216.355 179.282 218.073 175.328C220.762 169.135 219.112 162.081 214.459 157.321C212.736 154.768 210.256 152.638 207.175 151.299C198.897 147.704 189.414 151.17 185.993 159.046C185.278 160.691 184.887 162.397 184.785 164.101C184.391 163.169 184.008 162.247 183.633 161.342C183.724 161.058 183.831 160.779 183.952 160.503C188.123 150.899 199.703 146.643 209.763 151.015C219.825 155.387 224.614 166.753 220.441 176.357Z" fill="#481B15"/>
<path d="M205.246 158.569C208.897 160.731 210.515 165.17 208.863 168.976C207.062 173.118 202.074 174.942 197.721 173.051C193.368 171.16 191.297 166.268 193.095 162.127C194.71 158.408 198.897 156.557 202.886 157.589C202.599 157.38 202.31 157.2 202.018 157.05C198.091 156.504 194.193 158.459 192.615 162.086C190.7 166.496 192.931 171.73 197.587 173.753C202.246 175.775 207.593 173.836 209.508 169.427C211.249 165.419 209.564 160.731 205.744 158.39C205.586 158.473 205.418 158.534 205.246 158.572V158.569Z" fill="#481B15"/>
<path d="M194.785 179.815C195.321 180.048 195.862 180.249 196.403 180.423C204.263 182.941 212.766 179.432 215.967 172.065C218.116 167.122 217.363 161.617 214.459 157.315C212.737 154.762 210.256 152.632 207.175 151.296C198.898 147.701 189.414 151.167 185.993 159.043C185.278 160.688 184.887 162.394 184.785 164.098C186.585 168.36 188.565 172.845 190.518 177.158C191.766 178.218 193.194 179.121 194.785 179.812V179.815ZM214.106 168.467C213.605 169.319 212.552 169.649 211.665 169.263C211.617 169.241 211.571 169.22 211.526 169.196C211.424 169.515 211.306 169.831 211.169 170.144C208.858 175.47 202.442 177.83 196.87 175.411C191.298 172.989 188.645 166.688 190.957 161.366C191.581 159.93 192.503 158.708 193.628 157.741C193.526 157.661 193.43 157.572 193.342 157.468C192.653 156.648 192.758 155.426 193.577 154.738C193.738 154.604 195.209 153.404 197.446 152.855C199.597 152.327 202.846 152.314 206.125 155.234C206.613 155.668 206.827 156.292 206.76 156.895C209.042 158.317 210.677 160.449 211.464 162.834L212.895 161.047C214.205 162.097 216.141 164.998 214.1 168.47L214.106 168.467Z" fill="#481B15"/>
<path d="M193.092 162.127C191.292 166.268 193.362 171.16 197.718 173.051C202.071 174.942 207.062 173.118 208.86 168.976C210.513 165.17 208.897 160.731 205.243 158.569C204.659 158.695 204.027 158.55 203.547 158.124C203.328 157.929 203.105 157.749 202.883 157.589C198.894 156.56 194.707 158.408 193.092 162.127Z" fill="#351411"/>
<path d="M210.765 166.504C211.247 165.681 211.126 165.151 210.992 164.821C210.802 164.355 210.457 164.053 210.451 164.05L210.475 164.071L211.467 162.834C210.679 160.449 209.047 158.317 206.762 156.895C206.72 157.28 206.561 157.658 206.286 157.969C206.127 158.146 205.943 158.285 205.744 158.392C209.565 160.733 211.25 165.421 209.508 169.429C207.593 173.838 202.246 175.781 197.587 173.755C192.929 171.733 190.697 166.498 192.615 162.089C194.19 158.462 198.091 156.506 202.018 157.053C200.85 156.45 199.647 156.308 198.372 156.619C197.011 156.951 196.084 157.696 196.076 157.704C195.495 158.194 194.707 158.282 194.056 157.998C193.906 157.934 193.764 157.846 193.633 157.741C192.508 158.711 191.587 159.93 190.962 161.366C188.65 166.691 191.303 172.992 196.875 175.411C202.447 177.833 208.863 175.47 211.175 170.144C211.311 169.831 211.429 169.515 211.531 169.196C211.507 169.183 211.483 169.169 211.458 169.156C210.537 168.612 210.229 167.425 210.77 166.504H210.765Z" fill="#351411"/>
<path d="M210.478 164.069L210.454 164.047C210.454 164.047 210.805 164.353 210.995 164.819C211.129 165.148 211.249 165.679 210.767 166.501C210.223 167.423 210.531 168.612 211.456 169.153C211.48 169.167 211.504 169.18 211.528 169.193C211.573 169.217 211.619 169.242 211.667 169.26C212.551 169.643 213.607 169.317 214.108 168.465C216.152 164.993 214.212 162.089 212.902 161.042L211.472 162.828L210.48 164.066L210.478 164.069Z" fill="white"/>
<path d="M196.074 157.698C196.074 157.698 197.009 156.948 198.37 156.613C199.645 156.3 200.851 156.442 202.016 157.047C202.308 157.197 202.597 157.377 202.884 157.586C203.106 157.747 203.328 157.926 203.548 158.122C204.028 158.548 204.66 158.692 205.244 158.566C205.415 158.529 205.584 158.47 205.742 158.384C205.94 158.28 206.125 158.14 206.283 157.961C206.562 157.65 206.717 157.272 206.76 156.887C206.827 156.284 206.613 155.66 206.125 155.226C202.849 152.306 199.597 152.322 197.446 152.847C195.209 153.396 193.738 154.594 193.577 154.73C192.758 155.419 192.653 156.64 193.342 157.46C193.427 157.565 193.524 157.653 193.628 157.733C193.76 157.838 193.901 157.923 194.052 157.99C194.705 158.274 195.49 158.186 196.071 157.696L196.074 157.698Z" fill="white"/>
<path d="M201.005 202.489C200.652 202.663 200.258 202.658 199.923 202.513C199.65 202.396 199.419 202.184 199.277 201.897C199.162 201.659 187.528 177.852 180.533 160.592C178.165 154.746 175.079 151.159 170.828 149.313L170.793 149.297C170.734 149.273 170.68 149.241 170.629 149.209C171.238 149.375 171.888 149.075 172.151 148.48C172.411 147.883 172.183 147.2 171.647 146.868C171.706 146.884 171.763 146.903 171.821 146.927L171.859 146.943C176.772 149.078 180.289 153.104 182.928 159.619C183.159 160.187 183.394 160.763 183.633 161.344C184.008 162.25 184.391 163.174 184.785 164.104C186.585 168.366 188.567 172.85 190.517 177.163C190.876 177.956 191.233 178.744 191.589 179.521C196.805 190.949 201.525 200.609 201.6 200.759C201.913 201.399 201.648 202.173 201.008 202.487L201.005 202.489Z" fill="#481B15"/>
<path d="M192.8 195.211C192.435 195.409 192.017 195.417 191.664 195.262C191.409 195.152 191.19 194.959 191.048 194.699L181.934 178.042C179.306 173.241 176.807 169.842 174.653 167.447C175.162 168.575 175.467 169.753 175.438 170.948C175.374 173.496 173.881 175.663 171.002 177.385C167.758 179.328 165.446 179.692 163.929 178.502C163.817 178.411 163.715 178.315 163.616 178.216C163.528 177.927 163.345 177.691 163.112 177.53C161.926 175.387 162.882 171.947 163.12 171.181C163.332 170.501 164.055 170.118 164.736 170.329C165.414 170.538 165.797 171.261 165.588 171.945C165.052 173.683 164.913 175.99 165.523 176.469C165.598 176.525 166.223 176.925 168.352 175.888C168.202 176.258 168.02 176.63 167.806 177.01C167.629 177.318 167.739 177.715 168.047 177.889C168.066 177.902 168.087 177.91 168.108 177.921C168.406 178.05 168.762 177.937 168.926 177.648C169.445 176.734 169.799 175.84 169.992 174.966C171.872 173.764 172.81 172.424 172.847 170.884C172.93 167.61 168.974 163.849 166.504 161.939C167.316 162.092 168.017 162.25 168.556 162.389C169.156 162.544 169.783 162.25 170.051 161.687C170.313 161.125 170.139 160.455 169.638 160.091C169.585 160.053 169.368 159.9 168.984 159.675C172.237 161.232 177.983 165.44 184.198 176.799L193.311 193.456C193.654 194.083 193.424 194.868 192.8 195.211Z" fill="#481B15"/>
<path d="M168.931 177.651C168.765 177.94 168.411 178.053 168.114 177.924C168.093 177.916 168.071 177.905 168.052 177.892C167.742 177.718 167.635 177.321 167.811 177.013C168.026 176.633 168.208 176.26 168.358 175.891C168.966 174.396 169.044 172.984 168.578 171.685C167.415 168.438 163.263 166.82 163.22 166.804C163.15 166.777 163.088 166.734 163.032 166.689C163.297 166.721 163.563 166.59 163.686 166.335C163.82 166.065 163.742 165.746 163.522 165.558C163.573 165.564 163.624 165.574 163.675 165.593C163.868 165.665 168.417 167.428 169.788 171.238C170.217 172.424 170.284 173.673 169.997 174.964C169.804 175.837 169.451 176.732 168.931 177.645V177.651Z" fill="#481B15"/>
<path d="M235.091 177.455C235.734 175.376 236.455 173.032 237.256 170.396C240.629 159.311 239.538 146.731 238.03 138.132C236.385 128.751 233.896 121.933 233.872 121.863C233.626 121.193 233.969 120.451 234.639 120.205C235.308 119.958 236.05 120.301 236.297 120.971C236.401 121.255 238.879 128.038 240.564 137.634C241.555 143.275 242.064 148.714 242.067 153.793C242.075 160.176 241.285 166.016 239.726 171.149C238.941 173.732 238.234 176.033 237.599 178.085C237.601 177.986 237.604 177.929 237.604 177.921C237.636 177.209 237.087 176.606 236.374 176.574C235.782 176.547 235.268 176.922 235.089 177.455H235.091Z" fill="#481B15"/>
<path d="M231.997 194.905L231.922 194.865L229.747 193.636C229.747 193.636 229.742 193.646 229.726 193.676C229.76 193.606 230.369 192.326 232.932 184.316C233.532 182.438 234.24 180.196 235.073 177.511C235.046 177.605 235.03 177.702 235.024 177.803C235.016 177.983 234.842 181.865 234.99 186.349C232.632 193.649 232.072 194.772 231.995 194.905H231.997Z" fill="#481B15"/>
<path d="M260.519 180.753C254.039 188.591 245.017 198.369 240.926 200.132C240.053 200.51 239.3 200.563 238.686 200.298C238.622 200.268 238.555 200.236 238.494 200.201C237.237 199.478 235.512 197.402 235.046 187.737C235.024 187.27 235.003 186.804 234.99 186.346C234.84 181.862 235.016 177.98 235.024 177.801C235.03 177.702 235.046 177.602 235.073 177.509C235.078 177.49 235.083 177.471 235.089 177.452C235.266 176.917 235.783 176.542 236.375 176.571C237.087 176.603 237.639 177.209 237.604 177.919C237.604 177.924 237.604 177.98 237.599 178.082C237.564 178.95 237.414 183.215 237.628 187.627C238.011 195.546 239.228 197.431 239.651 197.852C240.09 197.723 241.756 196.989 246.131 192.751C249.415 189.572 253.447 185.17 257.481 180.359C266.335 169.81 272.904 160.128 273.831 156.273C274.077 155.242 273.863 152.499 269.644 145.7C266.855 141.207 262.684 135.565 257.586 129.388C247.821 117.558 238.052 107.759 235.876 106.47C231.483 103.869 228.528 104.761 228.319 104.828C227.698 105.066 227.023 104.785 226.725 104.188C221.33 93.3596 199.24 84.5113 199.018 84.4255C198.945 84.3961 198.878 84.3613 198.814 84.3211C199.406 84.4818 200.046 84.2032 200.319 83.6272C200.603 83.0272 200.384 82.3173 199.832 81.9771C199.877 81.9904 199.923 82.0038 199.969 82.0226C200.204 82.1164 205.806 84.3452 212.2 88.0206C220.382 92.722 225.879 97.469 228.56 102.144C230.146 101.921 233.28 101.927 237.194 104.244C239.956 105.881 250.117 116.277 259.579 127.74C264.749 134.006 268.99 139.744 271.838 144.333C275.484 150.208 276.96 154.312 276.343 156.873C275.159 161.794 267.393 172.432 260.519 180.745V180.753Z" fill="#481B15"/>
<path d="M170.496 131.448C169.451 133.862 168.2 135.624 168.149 135.699C167.608 136.458 166.622 136.709 165.8 136.353C165.676 136.299 165.558 136.235 165.446 136.152C164.575 135.531 164.372 134.322 164.991 133.452C166.134 131.834 168.883 126.931 167.852 123.693C167.415 122.324 166.301 121.341 164.447 120.69C154.698 117.266 133.465 116.441 133.251 116.433C132.182 116.393 131.346 115.495 131.387 114.424C131.427 113.355 132.324 112.519 133.393 112.559C134.288 112.594 155.427 113.414 165.727 117.03C169.518 118.362 170.983 120.754 171.546 122.525C172.336 125.013 171.982 128.016 170.496 131.448Z" fill="#481B15"/>
<path d="M122.975 131.671C125.121 126.728 129.656 123.521 134.783 122.707C134.783 122.707 134.781 122.707 134.778 122.707C128.126 122.56 121.847 126.163 119.157 132.356C117.44 136.31 117.856 141.052 120.275 145.041C122.552 148.797 126.152 151.189 130.224 151.676C123.015 147.653 119.774 139.037 122.975 131.671Z" fill="white"/>
<path d="M153.279 147.179C153.158 147.455 153.027 147.722 152.882 147.982C151.966 148.328 151.029 148.676 150.078 149.024C151.256 147.789 152.234 146.337 152.949 144.693C156.37 136.817 152.432 127.518 144.157 123.923C141.074 122.584 137.824 122.225 134.784 122.707H134.779C128.127 122.56 121.848 126.163 119.158 132.356C117.441 136.31 117.856 141.052 120.275 145.041C122.552 148.797 126.153 151.189 130.225 151.676C130.72 151.955 131.234 152.21 131.768 152.44C133.359 153.131 134.99 153.56 136.619 153.747C135.794 154.026 134.974 154.302 134.162 154.575C133.927 154.556 133.672 154.538 133.388 154.516C132.673 154.46 131.784 154.393 130.648 154.31C128.877 154.184 127.171 153.761 125.582 153.069C122.539 151.746 119.922 149.448 118.062 146.378C115.212 141.674 114.735 136.048 116.787 131.325C120.958 121.721 132.539 117.464 142.598 121.836C152.657 126.206 157.45 137.575 153.276 147.179H153.279Z" fill="#481B15"/>
<path d="M145.855 141.603C144.055 145.745 139.067 147.569 134.714 145.678C130.361 143.787 128.29 138.895 130.087 134.754C131.74 130.947 136.088 129.098 140.163 130.293C140.072 130.143 140.002 129.977 139.954 129.806C135.638 128.608 131.06 130.577 129.319 134.585C127.403 138.994 129.632 144.229 134.291 146.251C138.949 148.274 144.296 146.334 146.212 141.925C147.784 138.308 146.563 134.137 143.503 131.635C143.195 131.52 142.86 131.426 142.496 131.351C145.968 133.567 147.473 137.885 145.858 141.603H145.855Z" fill="#481B15"/>
<path d="M152.952 144.692C156.373 136.816 152.437 127.518 144.16 123.923C141.076 122.584 137.827 122.225 134.786 122.709C129.661 123.524 125.126 126.73 122.978 131.673C119.776 139.04 123.018 147.655 130.227 151.679C130.722 151.955 131.237 152.212 131.77 152.442C133.361 153.134 134.995 153.562 136.621 153.75C141.106 152.233 145.737 150.621 150.08 149.027C151.256 147.792 152.236 146.34 152.952 144.695V144.692ZM127.658 133.864C127.794 133.551 127.944 133.248 128.108 132.956C128.059 132.94 128.009 132.921 127.963 132.9C127.079 132.514 126.599 131.523 126.881 130.572C128.025 126.709 131.467 126.144 133.128 126.385L132.798 128.649C135.081 127.596 137.754 127.333 140.353 128.032C140.747 127.574 141.349 127.304 142 127.365C146.372 127.767 148.58 130.154 149.662 132.086C150.787 134.095 150.916 135.989 150.926 136.198L148.446 136.326C148.915 138.389 148.759 140.588 147.87 142.64C145.558 147.966 139.142 150.326 133.57 147.907C127.998 145.485 125.346 139.185 127.66 133.862L127.658 133.864Z" fill="#481B15"/>
<path d="M130.087 134.754C128.287 138.895 130.358 143.787 134.714 145.678C139.067 147.569 144.058 145.745 145.855 141.604C147.471 137.885 145.968 133.567 142.493 131.351C142.225 131.298 141.944 131.255 141.644 131.228C141.004 131.169 140.468 130.805 140.16 130.293C136.088 129.099 131.74 130.947 130.085 134.754H130.087Z" fill="#351411"/>
<path d="M147.867 142.643C148.759 140.591 148.912 138.394 148.443 136.329L147.053 136.401V136.417C147.026 136.002 146.705 132.822 143.498 131.635C146.555 134.137 147.776 138.306 146.206 141.925C144.291 146.334 138.944 148.277 134.285 146.251C129.627 144.226 127.398 138.994 129.313 134.585C131.055 130.577 135.633 128.608 139.949 129.806C139.89 129.589 139.865 129.358 139.887 129.123C139.924 128.707 140.093 128.335 140.348 128.04C137.749 127.341 135.076 127.604 132.793 128.656L132.566 130.226L132.598 130.232C132.598 130.232 132.137 130.183 131.665 130.366C131.333 130.491 130.862 130.765 130.591 131.681C130.288 132.707 129.209 133.294 128.183 132.988C128.156 132.98 128.129 132.972 128.105 132.961C127.939 133.253 127.792 133.556 127.655 133.87C125.343 139.195 127.993 145.496 133.565 147.915C139.137 150.337 145.553 147.974 147.865 142.648L147.867 142.643Z" fill="#351411"/>
<path d="M130.593 131.676C130.864 130.762 131.335 130.489 131.668 130.36C132.139 130.181 132.597 130.226 132.6 130.226L132.568 130.221L132.795 128.651L133.125 126.387C131.464 126.146 128.022 126.709 126.878 130.575C126.596 131.523 127.076 132.517 127.96 132.903C128.008 132.924 128.056 132.94 128.105 132.959C128.131 132.967 128.156 132.978 128.182 132.986C129.208 133.288 130.285 132.704 130.591 131.678L130.593 131.676Z" fill="white"/>
<path d="M139.892 129.12C139.871 129.356 139.892 129.586 139.954 129.803C140.002 129.977 140.072 130.141 140.163 130.291C140.471 130.802 141.007 131.167 141.647 131.226C141.947 131.252 142.228 131.295 142.496 131.349C142.861 131.421 143.195 131.518 143.503 131.633C146.71 132.822 147.029 136.002 147.058 136.415V136.398L148.449 136.326L150.929 136.198C150.919 135.989 150.79 134.095 149.665 132.085C148.583 130.154 146.375 127.767 142.003 127.365C141.355 127.306 140.752 127.574 140.356 128.032C140.101 128.327 139.933 128.699 139.895 129.115L139.892 129.12Z" fill="white"/>
<path d="M172.152 148.481C171.889 149.075 171.238 149.375 170.63 149.209C170.571 149.193 170.512 149.174 170.453 149.15L170.418 149.134C166.167 147.286 161.441 147.479 155.551 149.737C138.162 156.405 112.82 164.149 112.565 164.224C112.26 164.318 111.946 164.291 111.673 164.173C111.338 164.029 111.065 163.742 110.95 163.364C110.744 162.681 111.127 161.961 111.81 161.752C111.971 161.701 122.249 158.561 134.162 154.572C134.974 154.302 135.794 154.026 136.619 153.745C141.103 152.228 145.735 150.616 150.078 149.022C151.029 148.673 151.964 148.325 152.882 147.98C153.469 147.757 154.053 147.538 154.624 147.318C161.184 144.802 166.531 144.623 171.444 146.758L171.485 146.774C171.541 146.798 171.594 146.828 171.645 146.862C172.184 147.195 172.411 147.88 172.149 148.475L172.152 148.481Z" fill="#481B15"/>
<path d="M170.056 161.69C169.791 162.252 169.164 162.547 168.561 162.392C168.023 162.252 167.321 162.094 166.509 161.942C162.486 161.184 155.796 160.562 153.201 163.056C152.215 164.002 151.896 165.376 152.228 167.249C151.719 167.988 151.307 168.856 150.996 169.86C150.897 170.177 151.055 170.514 151.355 170.645C151.376 170.653 151.398 170.664 151.419 170.669C151.759 170.777 152.121 170.586 152.228 170.246C152.357 169.836 152.501 169.453 152.667 169.094C153.142 170.734 153.565 171.235 153.712 171.369C154.229 171.109 155.191 169.558 155.764 168.047C156.016 167.38 156.763 167.042 157.428 167.294C158.098 167.549 158.432 168.291 158.181 168.958C158.162 169.006 157.728 170.152 157.055 171.296C155.941 173.19 154.778 174.066 153.506 173.97C153.225 173.948 152.962 173.881 152.721 173.777C151.041 173.048 150.267 170.452 149.777 168.167C149.137 165.194 149.689 162.847 151.414 161.192C152.534 160.117 154.122 159.386 156.161 159.006C152.413 158.821 147.62 159.145 141.837 160.624L123.444 165.328C123.154 165.4 122.865 165.371 122.61 165.261C122.257 165.108 121.976 164.797 121.874 164.396C121.697 163.704 122.112 163 122.803 162.823L141.197 158.119C157.409 153.972 166.552 158.258 168.987 159.678C169.37 159.903 169.59 160.056 169.641 160.093C170.144 160.458 170.319 161.127 170.053 161.69H170.056Z" fill="#481B15"/>
<path d="M163.686 166.338C163.563 166.59 163.298 166.721 163.033 166.692C162.963 166.684 162.891 166.668 162.824 166.635C162.783 166.617 158.77 164.685 155.601 166.051C154.329 166.598 153.348 167.621 152.671 169.095C152.507 169.454 152.36 169.837 152.231 170.247C152.124 170.587 151.762 170.777 151.422 170.67C151.398 170.664 151.379 170.654 151.358 170.646C151.061 170.517 150.9 170.18 150.999 169.861C151.31 168.859 151.725 167.988 152.231 167.249C152.979 166.159 153.935 165.358 155.095 164.859C158.813 163.26 163.209 165.382 163.392 165.473C163.44 165.497 163.483 165.526 163.523 165.561C163.742 165.749 163.82 166.065 163.686 166.338Z" fill="#481B15"/>
<path d="M105.776 121.652C105.841 121.585 105.9 121.512 105.945 121.437C104.557 123.87 103.403 125.911 102.444 127.625C98.3397 134.966 97.8173 136.286 97.7905 136.356C97.8012 136.326 97.8039 136.313 97.8039 136.313L95.4224 135.563L95.3394 135.536C95.3849 135.392 95.8242 134.216 99.5506 127.508C102.929 124.555 105.648 121.78 105.774 121.652H105.776Z" fill="#481B15"/>
<path d="M148.138 83.6435C148.009 83.9382 147.773 84.1847 147.455 84.3186C147.388 84.3481 140.707 87.1823 132.726 92.382C125.413 97.1478 115.474 104.938 109.672 114.968C108.297 117.344 107.081 119.46 106.004 121.343C106.259 120.853 106.176 120.234 105.761 119.827C105.249 119.329 104.432 119.337 103.934 119.849C103.931 119.854 103.891 119.894 103.818 119.966C104.885 118.099 106.085 116.012 107.435 113.676C110.122 109.031 113.853 104.472 118.523 100.119C122.238 96.6548 126.559 93.317 131.36 90.1907C139.528 84.8731 146.174 82.0576 146.455 81.9398C147.112 81.6638 147.87 81.9719 148.146 82.6282C148.288 82.9684 148.277 83.3328 148.14 83.6462L148.138 83.6435Z" fill="#481B15"/>
<path d="M200.32 83.6327C200.047 84.2087 199.406 84.4846 198.814 84.3266C198.742 84.3051 198.67 84.281 198.6 84.2489C198.383 84.1471 176.842 74.037 165.245 77.482C164.608 77.6722 163.941 77.3722 163.692 76.7534C163.598 76.5525 162.232 73.7825 157.335 72.3493C154.907 71.6394 141.079 71.1867 125.767 72.1216C117.77 72.6118 110.802 73.4128 105.616 74.4415C97.7643 75.9953 95.6131 77.7124 95.0291 78.5964C92.8432 81.9049 90.2527 93.3115 88.5837 106.982C87.8229 113.213 87.3568 119.165 87.2738 123.736C87.1639 129.827 87.7613 131.545 87.9676 131.954C88.5623 131.976 90.7724 131.577 96.8213 126.452C100.194 123.596 103.208 120.577 103.819 119.961C103.888 119.891 103.928 119.849 103.934 119.843C104.432 119.334 105.249 119.323 105.761 119.822C106.176 120.229 106.259 120.848 106.005 121.338C105.988 121.37 105.97 121.402 105.951 121.432C105.903 121.509 105.846 121.582 105.782 121.646C105.656 121.775 102.937 124.55 99.5591 127.502C99.2135 127.802 98.8626 128.108 98.5063 128.41C91.1233 134.665 88.4284 134.824 87.0434 134.398C86.9764 134.376 86.9094 134.352 86.8425 134.323C86.229 134.055 85.7548 133.468 85.4361 132.573C83.9305 128.378 84.9244 115.112 86.229 105.026C87.614 94.3295 90.0866 81.3932 92.878 77.1686C94.3299 74.9692 98.3322 73.2467 105.118 71.9046C110.417 70.8545 117.502 70.0374 125.614 69.5392C140.45 68.631 154.982 68.9632 158.066 69.866C162.43 71.1438 164.576 73.4316 165.492 74.7415C170.74 73.5119 177.962 74.2915 186.982 77.0615C194.033 79.226 199.484 81.7977 199.714 81.9075C199.757 81.929 199.8 81.9504 199.84 81.9772C200.392 82.3174 200.612 83.0273 200.328 83.6274L200.32 83.6327Z" fill="#481B15"/>
<path d="M152.62 194.367C152.55 194.538 152.445 194.686 152.322 194.809C152.322 194.763 152.322 194.72 152.317 194.675C152.317 194.651 152.311 194.627 152.309 194.602C152.303 194.568 152.298 194.533 152.29 194.498C152.285 194.466 152.277 194.436 152.266 194.407C152.258 194.377 152.247 194.345 152.234 194.319C152.223 194.289 152.21 194.262 152.196 194.233C152.183 194.203 152.17 194.177 152.153 194.15C152.124 194.096 152.089 194.045 152.052 193.997C152.036 193.976 152.017 193.954 152.001 193.935C151.995 193.927 151.987 193.919 151.979 193.911C151.942 193.871 151.902 193.834 151.861 193.799C151.84 193.78 151.819 193.764 151.797 193.748C151.773 193.729 151.749 193.713 151.722 193.697C151.714 193.692 151.709 193.689 151.701 193.684C151.701 193.684 151.695 193.681 151.695 193.678C151.674 193.668 151.652 193.654 151.634 193.643C151.607 193.63 151.58 193.617 151.553 193.603C151.527 193.59 151.497 193.579 151.468 193.568C151.452 193.563 151.438 193.558 151.422 193.552C151.409 193.547 151.393 193.542 151.379 193.539C151.35 193.531 151.32 193.526 151.291 193.518C151.259 193.512 151.229 193.507 151.2 193.504C151.162 193.501 151.125 193.496 151.085 193.496C151.068 193.496 151.052 193.496 151.036 193.496C151.034 193.496 151.028 193.496 151.026 193.496C151.007 193.496 150.988 193.496 150.969 193.496C150.932 193.496 150.894 193.501 150.854 193.507C150.817 193.512 150.779 193.52 150.739 193.528C150.68 193.542 150.618 193.56 150.562 193.585C150.533 193.595 150.503 193.609 150.476 193.622C150.447 193.635 150.42 193.651 150.393 193.668C150.372 193.681 150.353 193.692 150.332 193.705C150.313 193.718 150.292 193.732 150.273 193.745C150.251 193.761 150.233 193.775 150.214 193.791C150.195 193.807 150.176 193.823 150.158 193.839C150.158 193.839 150.158 193.839 150.152 193.844C150.147 193.85 150.144 193.852 150.142 193.855C150.142 193.7 150.174 193.542 150.235 193.389L156.024 179.172C156.166 179.271 156.316 179.368 156.474 179.459C156.667 179.569 156.868 179.67 157.075 179.759C157.495 179.941 157.943 180.078 158.406 180.166L152.628 194.364L152.62 194.367Z" fill="#481B15"/>
<path d="M162.751 179.837C161.149 180.313 159.695 180.423 158.398 180.171C157.932 180.083 157.487 179.946 157.067 179.764C156.861 179.676 156.66 179.574 156.467 179.464C156.309 179.373 156.159 179.279 156.017 179.178C154.048 177.809 153.493 175.679 153.469 175.582C153.298 174.891 153.716 174.189 154.409 174.015C155.098 173.841 155.797 174.259 155.974 174.945C155.987 174.99 156.411 176.469 157.774 177.233C158.848 177.833 160.276 177.876 162.017 177.359C162.406 177.243 162.805 177.318 163.116 177.533C163.349 177.691 163.531 177.929 163.619 178.219C163.619 178.221 163.622 178.227 163.625 178.229C163.828 178.912 163.437 179.633 162.754 179.837H162.751Z" fill="#481B15"/>
<path d="M194.927 226.977C194.544 227.823 194.096 228.635 193.574 229.396C193.429 229.605 193.279 229.808 193.126 230.007C190.916 232.868 187.79 234.561 183.825 235.043C178.251 235.718 173.26 235.102 168.912 233.213C167.851 232.753 166.828 232.217 165.845 231.603C165.732 231.534 165.62 231.464 165.51 231.392C165.017 231.076 164.537 230.738 164.063 230.382C163.602 230.033 163.152 229.669 162.71 229.283C162.657 229.238 162.603 229.192 162.55 229.144C162.357 228.973 162.167 228.798 161.976 228.622C159.903 226.669 158.055 224.293 156.466 221.52C156.15 220.965 155.842 220.4 155.544 219.814C155.392 219.513 155.242 219.211 155.094 218.903C155.046 218.798 154.995 218.696 154.947 218.592C154.912 218.52 154.88 218.45 154.848 218.378C154.808 218.287 154.765 218.195 154.725 218.104C154.684 218.016 154.644 217.928 154.607 217.839C154.607 217.839 154.604 217.837 154.604 217.834C154.47 217.536 154.342 217.236 154.213 216.928C153.037 214.113 152.067 211.008 151.323 207.662C150.398 203.499 150.01 199.84 149.849 197.496C149.967 197.402 150.077 197.311 150.184 197.223C150.535 196.933 150.835 196.679 151.084 196.464C151.231 196.338 151.36 196.226 151.467 196.13C151.727 195.899 151.877 195.76 151.906 195.733C152.094 195.562 152.217 195.345 152.276 195.117C152.276 195.112 152.279 195.106 152.279 195.101C152.303 195.004 152.316 194.905 152.316 194.809C152.316 194.852 152.316 194.956 152.322 195.112C152.322 195.122 152.322 195.136 152.322 195.149C152.33 195.5 152.351 196.095 152.402 196.885C152.442 197.56 152.507 198.374 152.6 199.307C152.815 201.447 153.195 204.185 153.857 207.158C154.176 208.586 154.577 210.137 155.084 211.747C155.084 211.747 155.084 211.75 155.084 211.753C155.421 212.827 155.804 213.928 156.241 215.034C156.554 215.838 156.9 216.644 157.275 217.448C157.371 217.652 157.468 217.855 157.567 218.059C159.204 221.418 161.382 224.66 164.27 227.215C164.824 227.706 165.4 228.166 165.992 228.59C166.241 228.772 166.493 228.946 166.75 229.112C166.983 229.267 167.222 229.417 167.463 229.559C167.977 229.87 168.502 230.157 169.043 230.419C170.41 231.092 171.856 231.617 173.375 231.994C176.453 232.761 179.839 232.924 183.512 232.479C185.309 232.262 186.863 231.769 188.195 230.987C189.475 230.24 190.549 229.224 191.436 227.936C191.463 227.896 191.49 227.858 191.514 227.821C196.622 220.213 193.201 206.116 193.167 205.974C193.167 205.966 193.161 205.958 193.161 205.95C193.531 205.982 193.903 206.052 194.262 206.175C194.364 206.21 194.466 206.25 194.565 206.296C195.187 206.569 195.706 206.998 196.14 207.592C196.869 211.662 197.895 220.398 194.924 226.98L194.927 226.977Z" fill="#481B15"/>
<path d="M151.91 195.733C151.88 195.76 151.73 195.899 151.471 196.13C151.363 196.226 151.235 196.336 151.087 196.465C150.841 196.679 150.538 196.933 150.187 197.223C150.08 197.311 149.97 197.402 149.852 197.496C148.031 198.977 145.089 201.193 141.414 203.357C139.724 204.354 138.039 205.243 136.37 206.02C135.946 206.218 135.523 206.409 135.103 206.591C134.677 206.773 134.256 206.952 133.835 207.121C132.753 207.555 131.682 207.938 130.623 208.273C130.243 208.394 129.865 208.506 129.488 208.613C125.694 209.69 122.056 210.108 118.646 209.862C118.448 209.848 118.25 209.832 118.051 209.811C117.861 209.792 117.671 209.771 117.481 209.749C116.929 209.685 116.385 209.602 115.847 209.5C115.282 209.395 114.724 209.272 114.175 209.128C114.033 209.09 113.894 209.053 113.752 209.012C112.721 208.723 111.716 208.367 110.735 207.941C106.385 206.052 102.533 202.824 99.2189 198.292C96.9419 195.173 96.0284 191.854 96.4999 188.412C96.5508 188.047 96.6151 187.683 96.6954 187.313C96.8722 186.51 97.1187 185.722 97.4241 184.956C100.063 178.304 107.049 173.059 110.644 170.704C111.373 170.568 112.061 170.627 112.726 170.881C112.739 170.887 112.753 170.892 112.769 170.897C113.235 171.082 113.655 171.345 114.033 171.653C113.988 171.68 113.921 171.717 113.83 171.771C113.8 171.789 113.765 171.808 113.73 171.83C113.449 171.996 113.018 172.258 112.474 172.609C112.407 172.652 112.337 172.697 112.265 172.743C112.053 172.882 111.823 173.035 111.582 173.196C111.261 173.413 110.918 173.648 110.559 173.906C110.376 174.034 110.192 174.168 110.004 174.305C109.533 174.65 109.04 175.025 108.533 175.427C108.228 175.668 107.92 175.92 107.609 176.18C107.298 176.44 106.982 176.71 106.669 176.986C106.355 177.265 106.039 177.552 105.729 177.846C105.624 177.945 105.52 178.045 105.415 178.144C105.209 178.345 105.003 178.548 104.796 178.754C104.59 178.961 104.389 179.172 104.188 179.387C103.886 179.708 103.591 180.038 103.304 180.372C102.921 180.82 102.551 181.278 102.201 181.749C101.325 182.928 100.564 184.176 99.9985 185.476C99.661 186.255 99.3931 187.054 99.2136 187.868C99.2029 187.924 99.1895 187.981 99.1788 188.039C99.1359 188.248 99.0984 188.455 99.0689 188.661C98.9618 189.384 98.9296 190.097 98.9778 190.801C99.0234 191.506 99.1439 192.2 99.3449 192.891C99.7199 194.198 100.374 195.484 101.306 196.759C103.331 199.535 105.573 201.771 108.014 203.459C108.386 203.719 108.766 203.963 109.147 204.196C109.53 204.429 109.916 204.648 110.31 204.855C110.701 205.061 111.097 205.254 111.499 205.436C111.901 205.618 112.305 205.784 112.718 205.94C112.986 206.042 113.256 206.138 113.527 206.229C113.663 206.275 113.8 206.317 113.937 206.36C114.073 206.403 114.213 206.443 114.349 206.484L114.96 206.65C115.123 206.692 115.287 206.73 115.453 206.77C115.619 206.808 115.782 206.842 115.949 206.877C116.139 206.918 116.332 206.955 116.525 206.99C117.103 207.094 117.693 207.172 118.285 207.231C119.635 207.36 120.985 207.368 122.327 207.274C123.131 207.22 123.932 207.126 124.725 207.006C125.705 206.853 126.677 206.655 127.634 206.417C129.737 205.892 131.765 205.182 133.659 204.383C134.085 204.204 134.502 204.019 134.912 203.834C135.127 203.738 135.336 203.639 135.545 203.542C135.754 203.443 135.962 203.344 136.166 203.245C136.34 203.159 136.514 203.073 136.688 202.988C137.377 202.642 138.041 202.291 138.674 201.943C139.15 201.68 139.608 201.42 140.048 201.161C140.862 200.684 141.639 200.199 142.376 199.722C143.603 198.926 144.72 198.147 145.698 197.426C146.032 197.18 146.351 196.941 146.654 196.711C146.807 196.596 146.951 196.483 147.093 196.373C147.235 196.264 147.375 196.156 147.506 196.049C147.677 195.913 147.841 195.784 147.996 195.658C148.151 195.532 148.299 195.412 148.441 195.299C148.545 195.213 148.644 195.13 148.741 195.05C148.805 194.996 148.867 194.946 148.926 194.895C149.017 194.82 149.102 194.747 149.183 194.678C149.26 194.611 149.335 194.549 149.405 194.49C149.44 194.461 149.472 194.431 149.504 194.404C149.665 194.265 149.796 194.15 149.898 194.059C150 193.968 150.069 193.904 150.107 193.869C150.112 193.863 150.118 193.858 150.12 193.855C150.126 193.853 150.128 193.847 150.131 193.845C150.134 193.842 150.136 193.842 150.136 193.839C150.155 193.823 150.174 193.807 150.193 193.791C150.211 193.775 150.23 193.762 150.252 193.745C150.27 193.732 150.292 193.719 150.311 193.705C150.329 193.692 150.351 193.678 150.372 193.668C150.399 193.652 150.428 193.638 150.455 193.622C150.482 193.609 150.511 193.595 150.541 193.585C150.6 193.561 150.659 193.542 150.718 193.528C150.755 193.52 150.793 193.512 150.833 193.507C150.87 193.502 150.911 193.499 150.948 193.496C150.967 193.496 150.986 193.496 151.004 193.496C151.023 193.496 151.045 193.496 151.061 193.496C151.098 193.496 151.138 193.502 151.176 193.504C151.208 193.507 151.237 193.512 151.267 193.518C151.296 193.523 151.326 193.531 151.355 193.539C151.371 193.542 151.385 193.547 151.398 193.553C151.414 193.555 151.428 193.563 151.444 193.569C151.473 193.579 151.5 193.59 151.529 193.601C151.556 193.614 151.586 193.628 151.61 193.641C151.631 193.652 151.653 193.662 151.671 193.676C151.671 193.676 151.677 193.676 151.677 193.681C151.685 193.687 151.693 193.689 151.698 193.695C151.725 193.711 151.749 193.727 151.773 193.745C151.795 193.762 151.816 193.778 151.838 193.796C151.88 193.831 151.918 193.869 151.955 193.909C151.963 193.917 151.971 193.925 151.977 193.933C151.996 193.952 152.012 193.973 152.028 193.995C152.065 194.043 152.1 194.094 152.13 194.147C152.146 194.174 152.159 194.201 152.172 194.23C152.186 194.26 152.199 194.287 152.21 194.316C152.221 194.346 152.231 194.375 152.242 194.404C152.253 194.434 152.261 194.463 152.266 194.496C152.274 194.53 152.282 194.565 152.285 194.6C152.29 194.624 152.293 194.648 152.293 194.672C152.298 194.718 152.298 194.761 152.298 194.806C152.298 194.905 152.285 195.002 152.261 195.098C152.261 195.104 152.261 195.109 152.258 195.114C152.199 195.342 152.076 195.559 151.888 195.731L151.91 195.733Z" fill="#481B15"/>
<path d="M118.309 175.221C118.218 175.291 118.119 175.352 118.009 175.398C117.926 175.433 117.837 175.459 117.752 175.476C117.62 175.5 117.492 175.505 117.363 175.489C117.235 175.476 117.111 175.441 116.994 175.39C116.699 175.261 116.452 175.025 116.318 174.709C116.313 174.701 116.262 174.578 116.16 174.383C115.86 173.799 115.137 172.548 114.033 171.647C113.656 171.339 113.235 171.074 112.769 170.892C112.756 170.887 112.742 170.881 112.726 170.876C112.062 170.621 111.373 170.562 110.645 170.699C110.224 170.777 109.79 170.921 109.34 171.133C108.694 171.436 107.926 171.157 107.623 170.512C107.32 169.866 107.599 169.097 108.244 168.794C110.12 167.916 111.944 167.806 113.664 168.468C117.002 169.753 118.625 173.544 118.695 173.705C118.724 173.774 118.746 173.844 118.762 173.914C118.788 174.026 118.799 174.141 118.794 174.254C118.78 174.629 118.601 174.983 118.304 175.218L118.309 175.221Z" fill="#481B15"/>
<path d="M198.415 209.176C197.769 209.476 197.001 209.197 196.701 208.549C196.534 208.193 196.35 207.874 196.146 207.593C195.712 206.998 195.192 206.567 194.571 206.296C194.472 206.253 194.373 206.21 194.268 206.176C193.909 206.052 193.539 205.98 193.167 205.951C191.126 205.776 189.079 206.8 189.055 206.81C188.699 206.993 188.294 206.993 187.951 206.843C187.686 206.727 187.458 206.524 187.316 206.248C186.992 205.616 187.239 204.839 187.874 204.512C187.911 204.493 188.166 204.362 188.578 204.199C189.832 203.698 192.546 202.859 195.091 203.73C196.834 204.327 198.161 205.584 199.037 207.461C199.337 208.107 199.058 208.876 198.41 209.179L198.415 209.176Z" fill="#481B15"/>
<path d="M171.921 186.475C171.565 186.655 171.163 186.655 170.825 186.507C170.557 186.392 170.33 186.186 170.188 185.907L169.022 183.601C168.701 182.963 168.955 182.186 169.593 181.865C170.231 181.543 171.007 181.798 171.329 182.435L172.494 184.742C172.816 185.379 172.561 186.156 171.924 186.478L171.921 186.475Z" fill="#481B15"/>
<path d="M176.437 195.417C176.081 195.597 175.679 195.597 175.342 195.45C175.074 195.334 174.846 195.128 174.704 194.847L172.446 190.376C172.124 189.738 172.379 188.961 173.016 188.64C173.654 188.318 174.431 188.573 174.752 189.21L177.011 193.681C177.332 194.319 177.078 195.096 176.44 195.417H176.437Z" fill="#481B15"/>
<path d="M180.07 202.063C180.008 202.114 179.936 202.16 179.861 202.197C179.504 202.377 179.103 202.377 178.762 202.23C178.494 202.114 178.267 201.908 178.125 201.627L178.095 201.571L176.959 199.32C176.638 198.683 176.892 197.906 177.53 197.584C178.168 197.263 178.944 197.517 179.266 198.155L180.431 200.462C180.715 201.024 180.549 201.694 180.07 202.063Z" fill="#481B15"/>
<path d="M166.386 194.351C166.029 194.53 165.628 194.53 165.29 194.383C165.022 194.268 164.795 194.061 164.653 193.783L163.487 191.476C163.166 190.839 163.42 190.062 164.058 189.74C164.695 189.419 165.472 189.673 165.794 190.311L166.959 192.618C167.281 193.255 167.026 194.032 166.388 194.353L166.386 194.351Z" fill="#481B15"/>
<path d="M170.903 203.296C170.547 203.475 170.145 203.475 169.807 203.328C169.54 203.213 169.312 203.006 169.17 202.725L167.209 198.841L166.912 198.254C166.59 197.616 166.845 196.839 167.482 196.518C168.12 196.197 168.897 196.451 169.218 197.089L170.523 199.671L171.476 201.56C171.798 202.197 171.543 202.974 170.906 203.296H170.903Z" fill="#481B15"/>
<path d="M174.329 210.073C173.973 210.253 173.571 210.253 173.231 210.106C172.963 209.99 172.735 209.784 172.593 209.503L171.428 207.196C171.107 206.559 171.361 205.782 171.999 205.46C172.636 205.139 173.413 205.393 173.735 206.031L174.9 208.337C175.221 208.975 174.967 209.752 174.329 210.073Z" fill="#481B15"/>
<path d="M143.359 174.281L140.878 175.004C140.578 175.092 140.27 175.063 140.002 174.948C139.662 174.8 139.388 174.508 139.276 174.123C139.078 173.437 139.471 172.722 140.155 172.521L142.635 171.797C143.321 171.599 144.036 171.993 144.237 172.676C144.435 173.362 144.044 174.08 143.359 174.278V174.281Z" fill="#481B15"/>
<path d="M136.066 176.403L131.258 177.804C130.958 177.892 130.65 177.865 130.382 177.747C130.042 177.6 129.768 177.308 129.656 176.922C129.458 176.236 129.851 175.521 130.534 175.32L135.343 173.919C136.029 173.721 136.744 174.112 136.945 174.798C137.143 175.484 136.752 176.199 136.066 176.4V176.403Z" fill="#481B15"/>
<path d="M126.744 179.076C126.653 179.13 126.554 179.172 126.446 179.205L123.966 179.928C123.666 180.016 123.358 179.989 123.09 179.872C122.75 179.724 122.476 179.432 122.364 179.046C122.166 178.361 122.559 177.643 123.245 177.445L123.92 177.246L125.726 176.721C126.412 176.523 127.127 176.917 127.328 177.6C127.497 178.179 127.242 178.779 126.746 179.073L126.744 179.076Z" fill="#481B15"/>
<path d="M141.379 183.702L138.898 184.425C138.598 184.514 138.29 184.484 138.022 184.369C137.682 184.222 137.409 183.93 137.296 183.544C137.098 182.858 137.492 182.143 138.175 181.942L140.656 181.219C141.342 181.021 142.057 181.414 142.258 182.097C142.456 182.783 142.065 183.501 141.379 183.699V183.702Z" fill="#481B15"/>
<path d="M134.087 185.824L129.278 187.225C128.978 187.313 128.67 187.287 128.402 187.169C128.062 187.021 127.789 186.729 127.676 186.344C127.478 185.658 127.872 184.943 128.555 184.742L133.347 183.346L133.366 183.341C134.052 183.142 134.767 183.533 134.968 184.219C134.987 184.286 135 184.351 135.008 184.417C135.089 185.036 134.708 185.639 134.09 185.819L134.087 185.824Z" fill="#481B15"/>
<path d="M124.467 188.626L121.987 189.349C121.687 189.438 121.379 189.411 121.111 189.293C120.771 189.146 120.497 188.854 120.385 188.468C120.187 187.782 120.58 187.064 121.266 186.866L123.747 186.143C124.433 185.945 125.148 186.338 125.349 187.022C125.547 187.707 125.156 188.423 124.47 188.623L124.467 188.626Z" fill="#481B15"/>
<path d="M137.822 229.04C129.688 225.506 120.537 219.235 112.404 208.166L115.482 207.689C124.62 220.125 135.804 226.251 149.26 229.035C159.325 231.116 165.958 229.667 166.033 229.651L168.538 232.64C168.211 232.715 159.486 234.679 148.725 232.488C145.486 231.829 141.773 230.757 137.819 229.04H137.822Z" fill="#481B15"/>
<path d="M194.595 207.882C184.522 203.382 176.807 195.23 172.866 184.927C168.926 174.624 169.234 163.402 173.732 153.329C178.229 143.257 186.384 135.542 196.687 131.601C206.99 127.66 218.212 127.969 228.284 132.466C238.357 136.967 246.072 145.119 250.013 155.422C253.953 165.725 253.645 176.947 249.147 187.019C244.647 197.092 236.495 204.807 226.192 208.748C215.889 212.688 204.667 212.38 194.595 207.882ZM224.263 141.465C208.431 134.392 189.799 141.518 182.727 157.35C175.655 173.183 182.781 191.814 198.613 198.887C214.445 205.959 233.077 198.833 240.149 183.001C247.221 167.169 240.095 148.537 224.263 141.465Z" fill="#351411"/>
<path d="M111.314 169.711C101.107 165.151 93.2852 156.89 89.2936 146.447C85.2994 136.005 85.6128 124.633 90.1723 114.427C94.7318 104.22 102.993 96.3977 113.436 92.4062C123.878 88.412 135.25 88.7254 145.456 93.2848C155.663 97.8443 163.485 106.106 167.477 116.548C171.471 126.991 171.158 138.362 166.598 148.569C162.039 158.775 153.777 166.598 143.335 170.589C132.892 174.584 121.521 174.27 111.314 169.711ZM141.382 102.398C125.338 95.2324 106.455 102.452 99.2859 118.498C92.1198 134.542 99.3394 153.426 115.386 160.594C131.43 167.76 150.313 160.541 157.482 144.494C164.648 128.451 157.428 109.567 141.382 102.398Z" fill="#351411"/>
<path d="M179.521 156.469C178.688 156.097 178.047 155.282 177.774 154.077C176.737 149.528 174.892 146.817 172.29 146.019C168.007 144.703 162.703 148.706 162.652 148.746L162.679 148.724L160.174 139.41C160.404 139.23 162.512 137.607 165.454 136.268C169.496 134.427 173.303 133.948 176.459 134.883C181.219 136.292 184.474 140.699 186.132 147.977C186.735 150.616 185.35 154.122 183.043 155.805C181.787 156.721 180.517 156.908 179.523 156.464L179.521 156.469Z" fill="#351411"/>
<path d="M243.554 186.754C240.519 185.398 238.941 181.94 239.999 178.712C241.13 175.264 244.843 173.389 248.288 174.519L264.082 179.703C267.525 180.833 269.405 184.546 268.275 187.991C267.144 191.439 263.431 193.314 259.986 192.184L244.192 187C243.972 186.928 243.76 186.845 243.554 186.754Z" fill="#351411"/>
<path d="M84.6699 127.54C81.9079 126.305 80.2551 123.291 80.8551 120.194C81.557 116.586 85.0503 114.229 88.6587 114.928L93.8584 115.938C97.4669 116.637 99.8243 120.133 99.1251 123.741C98.4232 127.35 94.93 129.707 91.3215 129.008L86.1218 127.998C85.6102 127.899 85.1253 127.744 84.6699 127.54Z" fill="#351411"/>
<g opacity="0.47">
<path d="M211.44 193.738C224.454 193.738 235.003 183.188 235.003 170.174C235.003 157.161 224.454 146.611 211.44 146.611C198.426 146.611 187.876 157.161 187.876 170.174C187.876 183.188 198.426 193.738 211.44 193.738Z" fill="#E6E6E6"/>
<path d="M201.158 193.188C188.468 187.52 182.757 172.582 188.425 159.893C194.094 147.203 209.028 141.491 221.721 147.16C234.411 152.828 240.122 167.766 234.454 180.456C228.785 193.146 213.85 198.857 201.158 193.188ZM220.379 150.16C209.342 145.231 196.352 150.198 191.423 161.235C186.494 172.272 191.46 185.262 202.497 190.191C213.534 195.12 226.524 190.153 231.453 179.116C236.382 168.079 231.416 155.089 220.379 150.16Z" fill="#351411"/>
</g>
<g opacity="0.47">
<path d="M128.383 155.376C141.572 155.376 152.263 144.685 152.263 131.497C152.263 118.308 141.572 107.617 128.383 107.617C115.195 107.617 104.504 118.308 104.504 131.497C104.504 144.685 115.195 155.376 128.383 155.376Z" fill="#E6E6E6"/>
<path d="M117.966 154.819C105.104 149.072 99.3154 133.937 105.062 121.075C110.808 108.214 125.944 102.425 138.805 108.171C151.666 113.917 157.455 129.053 151.709 141.914C145.963 154.776 130.827 160.565 117.966 154.819ZM137.447 111.212C126.262 106.216 113.098 111.249 108.099 122.436C103.101 133.623 108.137 146.785 119.324 151.783C130.511 156.782 143.672 151.746 148.671 140.559C153.667 129.375 148.634 116.211 137.447 111.212Z" fill="#351411"/>
</g>
</g>
</svg>
