<svg width="322" height="332" viewBox="0 0 322 332" fill="none" xmlns="http://www.w3.org/2000/svg">
<mask id="mask0_59_1286" style="mask-type:alpha" maskUnits="userSpaceOnUse" x="37" y="25" width="246" height="269">
<path fill-rule="evenodd" clip-rule="evenodd" d="M271.446 183.055C282.555 159.838 285.611 132.645 278.117 105.916C261.716 47.42 201 13.2954 142.505 29.6962C94.3098 43.2089 62.6584 86.8035 62.1785 134.454C41.511 154.096 32.1267 184.235 40.3599 213.6C52.2132 255.877 96.094 280.539 138.37 268.686C138.989 268.512 139.605 268.332 140.216 268.145C159.856 288.893 190.053 298.328 219.473 290.079C261.749 278.226 286.412 234.345 274.559 192.069C273.689 188.967 272.647 185.96 271.446 183.055Z" fill="#EEE9DF"/>
</mask>
<g mask="url(#mask0_59_1286)">
<path fill-rule="evenodd" clip-rule="evenodd" d="M271.446 183.055C282.555 159.838 285.611 132.645 278.117 105.916C261.716 47.42 201 13.2954 142.505 29.6962C94.3098 43.2089 62.6584 86.8035 62.1785 134.454C41.511 154.096 32.1267 184.235 40.3599 213.6C52.2132 255.877 96.094 280.539 138.37 268.686C138.989 268.512 139.605 268.332 140.216 268.145C159.856 288.893 190.053 298.328 219.473 290.079C261.749 278.226 286.412 234.345 274.559 192.069C273.689 188.967 272.647 185.96 271.446 183.055Z" fill="#EEE9DF"/>
</g>
<g clip-path="url(#clip0_59_1286)">
<path d="M126.568 228.589C126.568 228.589 143.083 241.665 171.727 242.036C198.271 242.381 220.334 223.07 220.334 223.07L223.781 216.174L125.881 214.106L126.571 228.589H126.568Z" fill="#481B15"/>
<path d="M167.574 238.143C165.935 238.143 164.6 236.808 164.6 235.168C164.6 233.529 165.935 232.194 167.574 232.194C169.213 232.194 170.547 233.529 170.547 235.168C170.547 236.808 169.213 238.143 167.574 238.143ZM167.574 233.145C166.458 233.145 165.552 234.052 165.552 235.168C165.552 236.284 166.458 237.191 167.574 237.191C168.689 237.191 169.596 236.284 169.596 235.168C169.596 234.052 168.689 233.145 167.574 233.145Z" fill="#D2AD79"/>
<path d="M174.451 277.518C185.29 277.518 194.077 268.729 194.077 257.887C194.077 247.044 185.29 238.255 174.451 238.255C163.612 238.255 154.825 247.044 154.825 257.887C154.825 268.729 163.612 277.518 174.451 277.518Z" fill="#EFD5A2"/>
<path d="M173.985 275.241C183.51 275.241 191.232 267.517 191.232 257.989C191.232 248.461 183.51 240.737 173.985 240.737C164.46 240.737 156.738 248.461 156.738 257.989C156.738 267.517 164.46 275.241 173.985 275.241Z" fill="#D2AD79"/>
<path d="M161.443 266.618L160.037 253.142L162.048 253.089L162.307 255.588L162.209 257.899L162.771 260.193L163.434 266.565L161.441 266.618H161.443ZM165.159 262.732C164.626 262.746 164.131 262.617 163.675 262.346C163.216 262.075 162.833 261.701 162.528 261.223C162.221 260.745 162.026 260.19 161.94 259.562L161.591 256.197C161.546 255.567 161.629 255.003 161.838 254.505C162.048 254.006 162.35 253.608 162.745 253.308C163.139 253.008 163.601 252.851 164.134 252.837C164.819 252.82 165.454 253.02 166.042 253.437C166.629 253.856 167.117 254.434 167.507 255.174C167.897 255.914 168.14 256.754 168.24 257.699C168.337 258.629 168.268 259.474 168.035 260.228C167.802 260.985 167.436 261.585 166.939 262.032C166.441 262.479 165.851 262.713 165.166 262.729L165.159 262.732ZM164.557 260.362C164.926 260.352 165.24 260.235 165.504 260.012C165.768 259.788 165.958 259.481 166.077 259.088C166.196 258.698 166.227 258.246 166.175 257.734C166.123 257.237 165.997 256.794 165.799 256.414C165.599 256.031 165.347 255.736 165.038 255.526C164.729 255.317 164.391 255.217 164.022 255.226C163.663 255.236 163.354 255.352 163.09 255.576C162.825 255.8 162.635 256.107 162.516 256.499C162.397 256.89 162.364 257.335 162.416 257.834C162.469 258.346 162.595 258.793 162.795 259.176C162.994 259.56 163.244 259.855 163.549 260.064C163.853 260.273 164.189 260.373 164.557 260.364V260.362Z" fill="#351411"/>
<path d="M173.226 262.522C172.572 262.539 171.972 262.377 171.43 262.037C170.888 261.696 170.44 261.216 170.088 260.592C169.736 259.969 169.517 259.245 169.432 258.42L168.858 252.911L170.883 252.858L171.451 258.308C171.492 258.7 171.58 259.038 171.711 259.317C171.842 259.595 172.018 259.805 172.236 259.945C172.455 260.083 172.703 260.15 172.979 260.142C173.397 260.131 173.709 259.959 173.909 259.626C174.109 259.293 174.18 258.829 174.118 258.239L173.55 252.789L175.557 252.737L176.131 258.246C176.219 259.086 176.155 259.824 175.938 260.461C175.722 261.099 175.379 261.596 174.91 261.958C174.439 262.32 173.878 262.508 173.224 262.524L173.226 262.522Z" fill="#351411"/>
<path d="M181.681 266.325C180.893 266.346 180.18 266.184 179.54 265.839C178.9 265.494 178.365 264.999 177.939 264.352L179.043 262.686C179.373 263.112 179.728 263.434 180.104 263.655C180.479 263.874 180.92 263.979 181.419 263.967C182.042 263.95 182.516 263.733 182.835 263.317C183.156 262.901 183.277 262.332 183.203 261.611L182.956 259.231L183.075 257.137L182.535 255.06L182.276 252.561L184.269 252.509L185.209 261.518C185.306 262.463 185.221 263.291 184.952 264C184.683 264.709 184.267 265.271 183.705 265.68C183.144 266.089 182.468 266.303 181.681 266.325ZM181.124 261.861C180.46 261.877 179.84 261.687 179.266 261.287C178.69 260.887 178.215 260.331 177.839 259.619C177.463 258.905 177.227 258.103 177.135 257.211C177.042 256.318 177.109 255.514 177.337 254.798C177.565 254.082 177.922 253.511 178.412 253.082C178.9 252.656 179.478 252.433 180.142 252.416C180.694 252.402 181.195 252.525 181.65 252.79C182.102 253.054 182.478 253.422 182.773 253.894C183.068 254.367 183.26 254.924 183.346 255.564L183.658 258.555C183.703 259.186 183.627 259.75 183.427 260.247C183.227 260.745 182.93 261.135 182.535 261.416C182.138 261.696 181.669 261.844 181.127 261.858L181.124 261.861ZM181.279 259.51C181.647 259.5 181.957 259.391 182.207 259.179C182.456 258.969 182.64 258.681 182.754 258.317C182.87 257.953 182.904 257.542 182.856 257.082C182.806 256.611 182.687 256.2 182.497 255.85C182.306 255.5 182.066 255.226 181.774 255.031C181.481 254.836 181.15 254.741 180.784 254.75C180.418 254.76 180.104 254.869 179.849 255.081C179.594 255.29 179.409 255.578 179.292 255.945C179.176 256.309 179.142 256.721 179.19 257.18C179.238 257.625 179.354 258.027 179.547 258.384C179.737 258.741 179.982 259.019 180.28 259.224C180.577 259.426 180.91 259.524 181.279 259.514V259.51Z" fill="#351411"/>
<path d="M173.764 226.825C174.796 227.261 176.038 227.891 177.021 228.434C177.551 228.736 178.16 229.088 178.662 229.409C178.731 229.464 178.76 229.521 178.743 229.578C178.707 229.688 178.598 229.802 178.626 229.926L178.631 230.097C178.791 234.885 179 241.105 179.159 245.893C177.715 246.916 176.069 247.973 174.497 248.799C172.872 248.08 171.157 247.135 169.648 246.212C169.489 241.424 169.28 235.204 169.12 230.416L169.115 230.245C169.135 230.119 169.018 230.012 168.975 229.907C168.956 229.85 168.98 229.793 169.044 229.733C169.372 229.493 169.722 229.252 170.067 229.012L170.617 228.65C170.995 228.391 171.994 227.808 172.394 227.561C172.777 227.353 173.369 227.018 173.757 226.828L173.764 226.825Z" fill="#C69C6D"/>
<path d="M159.397 211.029L163.568 221.918L160.318 225.693L157.214 212.01L159.397 211.029Z" fill="#5B473E"/>
<path d="M265.326 110.771C265.145 109.738 263.87 107.337 257.366 102.833C253.068 99.858 247.068 96.3861 240.014 92.7929C226.507 85.9134 213.794 80.8757 211.313 80.564C206.308 79.9357 203.979 81.9085 203.817 82.0536C203.348 82.5153 202.625 82.5248 202.121 82.1012C192.964 74.4079 169.46 75.0884 169.225 75.098C169.149 75.098 169.073 75.0932 168.999 75.0837C168.925 75.0932 168.849 75.098 168.773 75.098C168.535 75.0908 145.031 74.4103 135.877 82.1012C135.373 82.5248 134.65 82.5153 134.181 82.0536C134.017 81.9085 131.69 79.9357 126.683 80.564C124.201 80.8757 111.491 85.911 97.981 92.7929C90.9275 96.3861 84.9278 99.858 80.6291 102.833C74.1251 107.335 72.85 109.738 72.6692 110.771C71.9912 114.631 74.137 125.993 78.0028 139.048C79.7679 144.999 81.6877 150.577 83.4124 154.754C85.7105 160.32 86.9285 161.643 87.2782 161.931C87.8277 161.716 89.6714 160.484 93.1351 153.457C95.0668 149.54 96.6107 145.613 96.9223 144.814C97.1531 142.701 97.4195 140.338 97.724 137.687C98.3307 132.418 99.915 126.812 102.437 121.027C104.442 116.425 107.042 111.694 110.163 106.968C115.473 98.9323 120.388 93.759 120.595 93.5424C121.08 93.0332 121.889 93.0142 122.398 93.502C122.662 93.7542 122.793 94.0898 122.793 94.4277C122.793 94.7442 122.677 95.063 122.439 95.3081C122.389 95.3605 117.448 100.562 112.264 108.42C107.511 115.623 101.571 126.598 100.26 137.977C99.9507 140.673 99.6795 143.072 99.4464 145.204C99.4464 145.24 99.4416 145.276 99.4345 145.311C99.1347 148.062 98.8921 150.37 98.6994 152.3C100.291 149.697 101.849 148.645 101.992 148.552C102.582 148.167 103.374 148.336 103.757 148.928C104.142 149.518 103.973 150.311 103.381 150.694C103.374 150.699 101.725 151.834 100.227 154.808C98.8231 157.592 97.2697 162.592 97.8311 170.602C98.854 185.158 105.26 197.128 116.722 206.251C116.494 199.181 120.762 191.676 123.093 188.123C122.743 188.359 122.405 188.661 122.079 189.032C121.613 189.56 120.807 189.613 120.279 189.144C119.75 188.678 119.698 187.871 120.167 187.343C121.52 185.805 123.131 184.987 124.951 184.911C128.483 184.761 131.448 187.559 131.571 187.678C131.626 187.728 131.671 187.785 131.716 187.842C131.783 187.935 131.84 188.033 131.881 188.137C132.014 188.482 131.995 188.875 131.816 189.206C131.762 189.306 131.695 189.399 131.614 189.484C131.552 189.548 131.483 189.608 131.412 189.656C131.303 189.729 131.188 189.784 131.065 189.822C130.943 189.86 130.817 189.879 130.691 189.879C130.375 189.879 130.058 189.763 129.811 189.527C129.804 189.52 129.709 189.432 129.54 189.294C129.038 188.882 127.891 188.033 126.535 187.652C126.504 187.692 126.459 187.754 126.397 187.84C126.376 187.868 126.354 187.899 126.331 187.933C126.143 188.192 125.855 188.601 125.5 189.132C125.458 189.199 125.41 189.265 125.365 189.337C125.227 189.548 125.079 189.775 124.925 190.017C124.72 190.341 124.501 190.691 124.275 191.067C124.161 191.255 124.047 191.447 123.93 191.647C123.64 192.145 123.34 192.68 123.038 193.244C122.857 193.582 122.677 193.932 122.496 194.289C122.315 194.648 122.137 195.014 121.963 195.39C121.787 195.766 121.616 196.15 121.449 196.54C121.392 196.671 121.337 196.802 121.282 196.932C121.173 197.197 121.066 197.463 120.964 197.73C120.861 197.996 120.759 198.27 120.662 198.541C120.514 198.95 120.376 199.367 120.25 199.783C120.079 200.34 119.924 200.902 119.791 201.468C119.46 202.882 119.263 204.314 119.263 205.713C119.263 206.553 119.337 207.381 119.494 208.19C119.505 208.248 119.517 208.302 119.529 208.359C119.572 208.564 119.622 208.769 119.674 208.966C119.862 209.666 120.114 210.323 120.433 210.944C120.752 211.565 121.135 212.145 121.587 212.693C122.443 213.73 123.54 214.639 124.887 215.429C127.817 217.147 130.729 218.294 133.605 218.861C134.045 218.949 134.486 219.023 134.923 219.082C135.363 219.141 135.799 219.189 136.236 219.222C136.674 219.256 137.109 219.275 137.542 219.282C137.978 219.289 138.411 219.282 138.844 219.258C139.127 219.246 139.41 219.227 139.691 219.201C139.831 219.189 139.974 219.175 140.114 219.158C140.254 219.141 140.397 219.125 140.537 219.108L141.158 219.018C141.323 218.992 141.487 218.963 141.651 218.932C141.815 218.901 141.979 218.868 142.143 218.835C142.331 218.794 142.522 218.754 142.709 218.708C143.276 218.575 143.839 218.416 144.398 218.232C145.674 217.818 146.901 217.293 148.079 216.679C148.785 216.312 149.475 215.915 150.146 215.489C150.976 214.963 151.778 214.401 152.549 213.809C154.247 212.505 155.805 211.063 157.209 209.592C157.525 209.264 157.83 208.93 158.13 208.6C158.284 208.428 158.436 208.257 158.589 208.086C158.739 207.914 158.888 207.743 159.034 207.572C159.16 207.424 159.283 207.279 159.405 207.132C159.892 206.548 160.356 205.968 160.792 205.402C161.12 204.976 161.432 204.559 161.729 204.15C162.278 203.396 162.792 202.653 163.273 201.93C164.072 200.726 164.779 199.579 165.381 198.541C165.588 198.187 165.783 197.844 165.966 197.518C166.059 197.354 166.147 197.194 166.232 197.037C166.318 196.882 166.401 196.73 166.48 196.58C166.582 196.39 166.679 196.209 166.77 196.033C166.863 195.857 166.948 195.69 167.032 195.531C167.093 195.412 167.15 195.298 167.208 195.188C167.246 195.114 167.281 195.043 167.315 194.974C167.367 194.872 167.417 194.769 167.462 194.677C167.507 194.586 167.548 194.498 167.588 194.42C167.607 194.379 167.626 194.341 167.645 194.303C167.736 194.115 167.809 193.958 167.867 193.837C167.924 193.713 167.962 193.63 167.983 193.582C167.985 193.575 167.988 193.57 167.99 193.563V193.561C167.931 193.418 167.895 193.265 167.893 193.101L167.541 177.931C165.216 177.467 163.875 175.754 163.815 175.675C163.387 175.116 163.492 174.316 164.051 173.886C164.605 173.457 165.404 173.56 165.835 174.114C165.866 174.152 166.829 175.323 168.368 175.478C169.579 175.599 170.89 175.076 172.265 173.921C172.572 173.664 172.965 173.576 173.331 173.648C171.411 172.172 170.923 168.677 170.838 167.889C170.762 167.187 171.266 166.557 171.968 166.48C172.665 166.402 173.298 166.909 173.376 167.608C173.576 169.395 174.356 171.542 175.098 171.735C175.189 171.758 175.912 171.873 177.435 170.093C177.396 168.496 176.911 167.187 175.976 166.195C173.643 163.708 169.244 163.877 169.199 163.879C169.123 163.882 169.051 163.87 168.985 163.848C168.918 163.87 168.847 163.882 168.771 163.879C168.728 163.877 164.329 163.708 161.993 166.195C161.056 167.192 160.568 168.505 160.535 170.109C161.61 171.409 162.193 171.697 162.376 171.758C162.74 171.318 163.004 169.533 162.928 167.939C162.895 167.235 163.437 166.635 164.141 166.602C164.848 166.568 165.442 167.109 165.478 167.813C165.48 167.863 165.538 169.074 165.378 170.376C165.114 172.532 164.405 173.783 163.213 174.2C162.949 174.293 162.685 174.333 162.426 174.333C160.618 174.333 158.893 172.284 157.549 170.407C155.798 167.963 155.375 165.619 156.286 163.437C156.878 162.021 158.03 160.731 159.728 159.584C156.257 160.893 152.042 163.075 147.382 166.695L132.563 178.207C132.33 178.388 132.054 178.476 131.781 178.476C131.4 178.476 131.024 178.307 130.772 177.981C130.339 177.424 130.439 176.622 130.996 176.189L145.814 164.677C158.877 154.53 168.851 154.815 171.618 155.144C175.179 155.275 182.043 156.826 192.148 164.677L206.966 176.189C207.523 176.622 207.625 177.424 207.192 177.981C206.94 178.305 206.564 178.476 206.184 178.476C205.91 178.476 205.634 178.388 205.404 178.207L190.585 166.695C186.315 163.377 182.711 161.281 179.813 159.958C180.72 160.779 181.46 161.728 181.902 162.823C182.849 165.157 182.347 167.711 180.415 170.407C178.239 173.446 176.288 174.688 174.447 174.205C174.309 174.167 174.178 174.121 174.052 174.069C174.054 174.071 174.059 174.074 174.061 174.079C174.513 174.619 174.444 175.425 173.904 175.878C172.639 176.939 171.364 177.612 170.091 177.895L170.443 193.044C170.448 193.227 170.412 193.401 170.345 193.561C170.364 193.601 170.405 193.694 170.471 193.834C170.476 193.844 170.481 193.856 170.486 193.867C170.633 194.184 170.885 194.715 171.242 195.412C171.544 196.009 171.925 196.723 172.375 197.53C173.412 199.386 174.834 201.718 176.607 204.152C177.458 205.321 178.434 206.57 179.526 207.829C179.526 207.829 179.528 207.831 179.528 207.833C180.258 208.676 181.039 209.521 181.869 210.351C182.471 210.956 183.099 211.55 183.755 212.131C183.922 212.279 184.091 212.424 184.26 212.571C187.067 214.972 190.316 217.055 193.939 218.232C194.637 218.459 195.338 218.649 196.042 218.801C196.34 218.868 196.637 218.927 196.937 218.977C197.211 219.025 197.484 219.068 197.758 219.103C198.345 219.182 198.935 219.234 199.528 219.263C201.031 219.334 202.549 219.239 204.074 218.982C207.166 218.463 210.299 217.278 213.451 215.429C214.995 214.525 216.209 213.466 217.108 212.231C217.974 211.048 218.547 209.706 218.844 208.188C218.854 208.143 218.863 208.098 218.871 208.052C220.505 199.143 211.853 187.709 211.765 187.592C211.76 187.585 211.755 187.58 211.75 187.573C209.831 188.221 208.38 189.953 208.363 189.972C208.111 190.277 207.744 190.436 207.376 190.436C207.09 190.436 206.805 190.341 206.567 190.146C206.024 189.698 205.944 188.899 206.388 188.354C206.415 188.321 206.595 188.104 206.905 187.79C207.844 186.84 209.971 185.013 212.624 184.799C214.441 184.654 216.137 185.268 217.669 186.629C218.197 187.095 218.245 187.904 217.776 188.432C217.31 188.961 216.501 189.008 215.975 188.539C215.685 188.282 215.393 188.066 215.095 187.89C217.358 191.293 221.728 198.81 221.625 205.946C232.852 196.861 239.127 184.994 240.138 170.599C240.702 162.587 239.149 157.588 237.745 154.806C236.244 151.831 234.598 150.696 234.581 150.684C233.991 150.299 233.827 149.511 234.21 148.921C234.593 148.331 235.387 148.164 235.98 148.548C236.123 148.64 237.681 149.692 239.272 152.293C239.077 150.356 238.835 148.043 238.535 145.283C238.53 145.264 238.53 145.245 238.528 145.226C238.292 143.086 238.021 140.68 237.712 137.972C236.403 126.593 230.463 115.618 225.708 108.415C220.524 100.558 215.583 95.3557 215.533 95.3034C215.048 94.7941 215.064 93.9851 215.573 93.4972C216.085 93.0118 216.891 93.0284 217.379 93.5377C217.586 93.7542 222.501 98.9275 227.811 106.964C230.932 111.687 233.532 116.418 235.537 121.022C238.059 126.807 239.643 132.414 240.25 137.682C240.554 140.333 240.821 142.696 241.054 144.809C241.363 145.609 242.907 149.535 244.839 153.452C248.305 160.479 250.149 161.712 250.698 161.926C251.046 161.638 252.266 160.315 254.564 154.749C256.289 150.573 258.208 144.992 259.974 139.043C263.842 125.991 265.985 114.628 265.307 110.766L265.326 110.771ZM156.236 186.01C156.686 186.553 156.612 187.359 156.069 187.809L154.107 189.441C153.869 189.639 153.579 189.734 153.291 189.734C152.925 189.734 152.561 189.577 152.308 189.272C151.859 188.73 151.933 187.926 152.475 187.473L154.44 185.841C154.982 185.391 155.786 185.465 156.238 186.008L156.236 186.01ZM150.56 178.155L152.525 176.522C153.067 176.073 153.871 176.146 154.323 176.689C154.773 177.232 154.699 178.038 154.157 178.488L152.194 180.12C151.956 180.318 151.666 180.413 151.378 180.413C151.012 180.413 150.648 180.256 150.396 179.951C149.946 179.409 150.02 178.605 150.562 178.152L150.56 178.155ZM150.465 190.807C150.508 190.86 150.546 190.914 150.579 190.971C150.895 191.502 150.788 192.197 150.298 192.604L146.49 195.769C146.252 195.966 145.961 196.064 145.674 196.064C145.307 196.064 144.943 195.907 144.691 195.602C144.241 195.06 144.315 194.255 144.858 193.803L148.652 190.65L148.666 190.638C149.209 190.189 150.013 190.262 150.465 190.805V190.807ZM142.945 184.485L146.754 181.32C147.296 180.87 148.1 180.944 148.552 181.486C149.002 182.029 148.928 182.833 148.386 183.285L144.577 186.45C144.339 186.648 144.049 186.745 143.761 186.745C143.395 186.745 143.031 186.588 142.778 186.284C142.329 185.741 142.403 184.937 142.945 184.485ZM142.847 197.137C143.297 197.68 143.223 198.484 142.681 198.936L140.718 200.568C140.48 200.766 140.19 200.864 139.902 200.864C139.536 200.864 139.172 200.707 138.92 200.402C138.47 199.859 138.544 199.053 139.086 198.603L141.049 196.971C141.591 196.521 142.395 196.595 142.847 197.137ZM137.171 189.28L137.704 188.835L139.134 187.647C139.676 187.197 140.48 187.271 140.932 187.814C141.313 188.273 141.32 188.918 140.985 189.377C140.923 189.46 140.852 189.541 140.766 189.61L138.803 191.243C138.565 191.44 138.275 191.538 137.987 191.538C137.621 191.538 137.257 191.381 137.005 191.076C136.555 190.534 136.629 189.727 137.171 189.277V189.28ZM182.93 187.614C182.678 187.918 182.314 188.075 181.947 188.075C181.66 188.075 181.369 187.98 181.131 187.783L179.169 186.15C178.626 185.701 178.553 184.894 179.002 184.351C179.454 183.809 180.258 183.735 180.801 184.185L182.763 185.817C183.306 186.267 183.379 187.071 182.93 187.616V187.614ZM183.862 178.752C183.575 178.752 183.284 178.657 183.046 178.459L181.084 176.827C180.541 176.377 180.468 175.571 180.917 175.028C181.369 174.485 182.173 174.412 182.716 174.861L184.678 176.494C185.221 176.944 185.295 177.748 184.845 178.293C184.593 178.597 184.229 178.754 183.862 178.754V178.752ZM190.547 193.944C190.295 194.248 189.931 194.405 189.565 194.405C189.277 194.405 188.987 194.308 188.749 194.11L185.442 191.362L184.942 190.945C184.4 190.496 184.326 189.691 184.776 189.146C185.226 188.604 186.032 188.53 186.574 188.98L188.775 190.807L190.383 192.145C190.925 192.594 190.999 193.399 190.55 193.944H190.547ZM190.664 184.789L186.855 181.624C186.313 181.175 186.239 180.37 186.689 179.825C187.138 179.283 187.945 179.209 188.487 179.659L192.296 182.824C192.838 183.273 192.912 184.078 192.462 184.623C192.21 184.927 191.846 185.084 191.48 185.084C191.192 185.084 190.902 184.987 190.664 184.789ZM196.318 198.743C196.066 199.048 195.702 199.205 195.336 199.205C195.048 199.205 194.76 199.107 194.522 198.91L192.56 197.277C192.017 196.828 191.941 196.023 192.393 195.478C192.845 194.934 193.649 194.86 194.192 195.312L196.157 196.944C196.699 197.394 196.773 198.201 196.323 198.743H196.318ZM198.369 189.218C198.331 189.289 198.286 189.356 198.233 189.42C197.981 189.725 197.617 189.882 197.251 189.882C196.963 189.882 196.675 189.784 196.437 189.587L196.39 189.546L194.475 187.954C193.932 187.504 193.856 186.7 194.308 186.155C194.76 185.61 195.564 185.536 196.107 185.989L198.072 187.621C198.55 188.018 198.664 188.692 198.374 189.218H198.369ZM120.821 126.453C121.646 126.131 141.13 118.548 151.89 117.772C155.851 117.486 158.12 119.076 159.326 120.461C161.022 122.407 161.884 125.268 161.886 128.966C161.888 131.566 161.451 133.656 161.434 133.744C161.244 134.643 160.447 135.26 159.562 135.26C159.431 135.26 159.295 135.248 159.162 135.217C158.127 134.998 157.468 133.982 157.687 132.947C158.087 131.031 158.648 125.503 156.436 122.971C155.501 121.9 154.104 121.448 152.168 121.589C141.984 122.326 122.415 129.941 122.217 130.017C121.233 130.403 120.122 129.917 119.736 128.93C119.351 127.945 119.836 126.833 120.821 126.448V126.453ZM224.842 150.009C224.842 155.096 222.194 160.01 217.757 163.154C214.864 165.202 211.586 166.257 208.308 166.257C206.595 166.257 204.885 165.969 203.227 165.386C202.166 165.012 201.333 164.724 200.662 164.493C200.396 164.401 200.156 164.317 199.934 164.241C209.162 172.548 217.243 179.447 217.372 179.556C217.907 180.013 217.971 180.82 217.515 181.358C217.262 181.653 216.903 181.805 216.544 181.805C216.251 181.805 215.956 181.705 215.716 181.501C215.516 181.332 195.598 164.327 182.461 151.432C178.013 147.065 173.804 145.028 169.223 145.028H169.184C169.123 145.028 169.061 145.021 169.001 145.014C168.942 145.023 168.88 145.028 168.818 145.028H168.78C164.198 145.028 159.99 147.063 155.541 151.432C142.405 164.327 122.486 181.329 122.284 181.501C122.044 181.705 121.749 181.805 121.456 181.805C121.095 181.805 120.735 181.653 120.483 181.358C120.026 180.82 120.091 180.013 120.628 179.556C120.754 179.447 128.833 172.551 138.061 164.244C137.842 164.32 137.602 164.403 137.335 164.496C136.665 164.727 135.832 165.015 134.771 165.388C133.115 165.971 131.402 166.259 129.692 166.259C126.411 166.259 123.133 165.205 120.241 163.156C115.804 160.013 113.156 155.101 113.156 150.011C113.156 139.66 121.975 131.24 132.815 131.24C143.656 131.24 152.475 139.66 152.475 150.011C152.475 150.308 152.461 150.601 152.432 150.894C152.877 150.463 153.317 150.032 153.75 149.609C158.708 144.745 163.482 142.477 168.775 142.477H168.818C168.88 142.477 168.939 142.484 168.999 142.491C169.058 142.482 169.118 142.477 169.18 142.477H169.22C174.513 142.477 179.288 144.742 184.245 149.609C184.678 150.032 185.118 150.461 185.563 150.894C185.535 150.601 185.521 150.306 185.521 150.009C185.521 139.657 194.339 131.238 205.18 131.238C216.021 131.238 224.839 139.657 224.839 150.009H224.842ZM217.177 126.453C218.162 126.838 218.649 127.949 218.264 128.935C217.879 129.92 216.768 130.405 215.783 130.022C215.585 129.946 196.016 122.329 185.832 121.593C183.893 121.455 182.497 121.905 181.564 122.976C179.354 125.508 179.911 131.036 180.313 132.951C180.53 133.987 179.868 135.003 178.833 135.222C178.7 135.25 178.567 135.262 178.436 135.262C177.551 135.262 176.757 134.646 176.566 133.746C176.547 133.658 176.109 131.569 176.114 128.968C176.119 125.27 176.98 122.41 178.674 120.463C179.882 119.078 182.152 117.486 186.11 117.774C196.873 118.552 216.356 126.134 217.179 126.455L217.177 126.453Z" fill="#EFD5A2"/>
<path d="M104.007 149.564C104.007 149.564 96.1514 177.65 124.251 188.059C127.698 189.337 120.821 198.422 124.763 203.51C133.726 215.087 151.847 226.804 151.847 226.804C151.847 226.804 109.887 206.536 106.219 197.744C102.551 188.951 92.9994 181.822 97.1886 164.308C101.378 146.794 104.009 149.564 104.009 149.564H104.007Z" fill="#D2AD79"/>
<path d="M117.248 209.751C112.885 206.546 109.133 202.965 106.031 199.05C96.4226 186.919 95.5686 174.776 95.2879 170.785C95.0571 167.523 95.1547 164.698 95.4639 162.264L97.9166 162.007C97.9166 162.007 97.919 162.018 97.9214 162.052C97.9166 161.976 97.8714 160.574 98.7016 152.302C100.293 149.699 101.851 148.647 101.994 148.555C102.584 148.169 103.376 148.338 103.759 148.931C104.145 149.521 103.976 150.313 103.383 150.696C103.376 150.701 101.728 151.836 100.229 154.811C98.8254 157.595 97.2719 162.594 97.8333 170.604C98.8563 185.16 105.263 197.13 116.724 206.253C116.748 207.07 116.836 207.881 116.991 208.678C117.062 209.042 117.145 209.402 117.245 209.751H117.248Z" fill="#481B15"/>
<path d="M234.234 148.926C234.234 148.926 242.089 177.013 213.989 187.421C210.542 188.699 217.419 197.784 213.478 202.872C204.514 214.449 186.394 226.166 186.394 226.166C186.394 226.166 228.353 205.899 232.021 197.106C235.69 188.313 245.241 181.184 241.052 163.67C236.862 146.156 234.231 148.926 234.231 148.926H234.234Z" fill="#D2AD79"/>
<path d="M242.71 170.783C242.429 174.773 241.575 186.916 231.966 199.048C228.974 202.827 225.374 206.289 221.209 209.409C221.268 209.168 221.323 208.926 221.373 208.678C221.549 207.781 221.635 206.87 221.647 205.951C232.873 196.866 239.148 184.998 240.159 170.604C240.723 162.592 239.17 157.592 237.766 154.811C236.265 151.836 234.619 150.701 234.602 150.689C234.012 150.304 233.848 149.516 234.231 148.926C234.614 148.336 235.409 148.169 236.001 148.552C236.144 148.645 237.702 149.697 239.294 152.298C240.124 160.572 240.076 161.973 240.074 162.049C240.076 162.018 240.079 162.004 240.079 162.004L242.534 162.261C242.841 164.693 242.94 167.518 242.71 170.78V170.783Z" fill="#481B15"/>
<path d="M242.619 162.271L242.536 162.264L240.081 162.007C240.081 162.007 240.081 162.019 240.076 162.052C240.081 161.976 240.126 160.574 239.296 152.303C239.101 150.363 238.858 148.053 238.559 145.29C238.57 145.385 238.597 145.48 238.63 145.573C238.694 145.74 240.064 149.328 241.965 153.335C242.703 160.883 242.636 162.121 242.619 162.273V162.271Z" fill="#481B15"/>
<path d="M184.816 221.878C184.795 222.066 184.771 222.254 184.743 222.435C184.597 223.432 184.364 224.355 184.043 225.205C184.274 225.155 184.502 225.102 184.731 225.05C184.731 225.05 184.731 225.05 184.733 225.05C187.811 223.905 190.711 222.451 193.357 220.729C193.29 220.71 193.223 220.688 193.157 220.667C192.917 220.588 192.674 220.505 192.431 220.419C189.784 219.467 187.171 218.037 184.64 216.153C184.935 218.113 185.019 220.053 184.814 221.88L184.816 221.878Z" fill="#EFD5A2"/>
<path d="M155.101 215.075C152.087 217.545 148.954 219.356 145.766 220.476C145.581 220.541 145.395 220.605 145.21 220.664C145.029 220.724 144.848 220.779 144.667 220.833C145.681 221.564 146.737 222.242 147.831 222.863C148.105 223.018 148.381 223.17 148.659 223.32C149.494 223.767 150.35 224.184 151.226 224.567C155.684 226.53 160.646 227.682 165.897 227.941C165.607 227.622 165.328 227.289 165.062 226.942C164.465 226.166 163.927 225.326 163.468 224.436C162.949 223.439 162.528 222.38 162.224 221.288C161.646 219.21 160.739 216.916 159.723 214.675C159.314 213.771 158.888 212.873 158.455 212.005C157.647 212.823 156.826 213.594 155.998 214.316C155.701 214.573 155.401 214.827 155.101 215.07V215.075Z" fill="#EFD5A2"/>
<path d="M197.253 220.357C197.253 220.357 174.32 232.287 161.907 228.667C149.492 225.048 139.579 219.979 139.579 219.979L169.453 189.448L197.253 220.36V220.357Z" fill="#7C665B"/>
<path d="M152.477 215.515C152.477 215.515 166.275 226.454 184.643 216.495C203.013 206.537 195.417 220.7 195.417 220.7C195.417 220.7 184.276 228.631 180.625 229.012C176.971 229.393 157.849 229.609 155.282 228.289C152.715 226.968 143.088 221.597 143.088 221.597L152.475 215.515H152.477Z" fill="#5B473E"/>
<path d="M160.318 210.013C161.032 211.422 161.755 212.926 162.419 214.449C163.33 216.531 164.136 218.646 164.681 220.61C165.516 223.618 167.455 226.359 169.753 227.977C170.469 228.479 171.216 228.874 171.98 229.136C172.018 229.148 172.053 229.162 172.091 229.174C174.232 229.869 176.359 229.545 178.431 228.213C178.743 228.013 179.054 227.789 179.364 227.542C179.785 227.206 180.161 226.828 180.494 226.402C180.622 226.237 180.746 226.064 180.86 225.885C181.388 225.074 181.778 224.122 182.03 223.039C182.138 222.582 182.218 222.102 182.275 221.597C182.554 219.115 182.211 216.319 181.5 213.547C181.262 213.33 181.027 213.107 180.791 212.881C178.617 210.794 176.514 208.357 174.523 205.618C172.044 202.208 170.252 199.041 169.182 196.98C168.114 199.041 166.32 202.208 163.841 205.618C162.702 207.189 161.524 208.657 160.316 210.018L160.318 210.013Z" fill="#EDA2A2"/>
<path d="M195.019 221.193C194.465 221.059 193.913 220.905 193.361 220.729C190.716 222.451 187.814 223.905 184.738 225.05C184.738 225.05 184.737 225.05 184.735 225.05C184.495 225.14 184.252 225.228 184.007 225.314C183.786 225.892 183.525 226.435 183.22 226.942C182.847 227.572 182.409 228.148 181.912 228.667C185.316 227.71 188.587 226.397 191.625 224.762C193.245 223.889 194.791 222.927 196.249 221.885C196.411 221.773 196.571 221.657 196.728 221.54C196.157 221.447 195.588 221.331 195.019 221.195V221.193Z" fill="#481B15"/>
<path d="M165.897 227.944C160.646 227.684 155.686 226.533 151.226 224.569C150.351 224.184 149.494 223.77 148.659 223.322C148.381 223.172 148.105 223.02 147.831 222.866C146.737 222.242 145.681 221.566 144.667 220.836C144.142 220.995 143.616 221.133 143.088 221.252C142.536 221.381 141.981 221.488 141.425 221.573C141.568 221.69 141.71 221.807 141.855 221.918C145.141 224.512 148.892 226.561 153.077 228.029C157.816 229.695 163.023 230.549 168.326 230.549C168.556 230.549 168.787 230.549 169.018 230.545C168.407 230.176 167.819 229.747 167.255 229.264C166.779 228.86 166.325 228.417 165.897 227.944Z" fill="#481B15"/>
<path d="M184.005 225.317C184.019 225.281 184.034 225.245 184.046 225.21C184.364 224.36 184.597 223.434 184.745 222.44C184.773 222.256 184.795 222.071 184.819 221.883C185.023 220.055 184.94 218.113 184.645 216.155C184.141 215.779 183.639 215.384 183.139 214.972C182.882 214.761 182.628 214.546 182.373 214.325C182.287 214.251 182.202 214.175 182.116 214.101C182.057 214.051 182 213.999 181.94 213.947C181.866 213.883 181.793 213.816 181.721 213.749C181.65 213.685 181.579 213.621 181.51 213.554C181.51 213.554 181.505 213.554 181.505 213.549C182.216 216.324 182.559 219.12 182.28 221.6C182.223 222.104 182.142 222.585 182.035 223.042C181.783 224.127 181.393 225.076 180.865 225.888C180.751 226.066 180.627 226.24 180.499 226.404C180.165 226.83 179.79 227.211 179.369 227.544C179.059 227.791 178.748 228.013 178.436 228.215C176.364 229.548 174.237 229.871 172.096 229.176C172.058 229.164 172.022 229.153 171.984 229.138C171.223 228.879 170.474 228.484 169.758 227.979C167.46 226.361 165.523 223.618 164.686 220.612C164.141 218.649 163.332 216.533 162.423 214.451C161.757 212.928 161.037 211.427 160.323 210.016C160.018 210.361 159.709 210.701 159.4 211.032C159.088 211.365 158.774 211.691 158.46 212.012C158.891 212.881 159.319 213.778 159.728 214.682C160.744 216.921 161.653 219.215 162.228 221.295C162.533 222.387 162.954 223.446 163.473 224.443C163.932 225.331 164.469 226.173 165.066 226.949C165.333 227.294 165.611 227.627 165.901 227.948C166.332 228.422 166.786 228.865 167.26 229.269C167.824 229.752 168.414 230.181 169.023 230.549C169.76 230.994 170.526 231.351 171.309 231.606C172.149 231.877 173.157 232.084 174.285 232.084C176.231 232.084 178.536 231.473 180.96 229.543C181.298 229.274 181.617 228.984 181.912 228.674C182.409 228.156 182.847 227.58 183.22 226.949C183.525 226.442 183.786 225.9 184.007 225.321L184.005 225.317Z" fill="#481B15"/>
<path d="M158.658 164.434C158.137 165.678 158.389 167.051 159.426 168.62C159.676 167.337 160.228 166.233 161.082 165.324C163.825 162.411 168.642 162.602 168.844 162.613C168.899 162.616 168.949 162.628 168.999 162.642C169.049 162.628 169.099 162.616 169.153 162.613C169.356 162.604 174.173 162.411 176.916 165.324C177.77 166.233 178.322 167.337 178.572 168.62C179.801 166.787 180.125 165.205 179.554 163.794C178.341 160.791 173.274 158.939 170.281 158.183C166.337 159.08 160.028 161.152 158.655 164.434H158.658Z" fill="#EFD5A2"/>
<path d="M179.828 145.93C179.828 145.93 181.414 132.356 188.703 129.115C195.992 125.874 218.713 125.691 224.842 135.105C230.97 144.519 227.268 165.333 227.268 165.333C224.842 174.911 217.774 184.17 201.718 167.325C185.806 150.632 179.83 145.932 179.83 145.932L179.828 145.93Z" fill="#7C665B"/>
<path d="M159.186 145.93C159.186 145.93 157.599 132.356 150.31 129.115C143.021 125.874 120.3 125.691 114.172 135.105C108.044 144.519 111.745 165.333 111.745 165.333C114.172 174.911 121.24 184.17 137.295 167.325C153.207 150.632 159.183 145.932 159.183 145.932L159.186 145.93Z" fill="#7C665B"/>
<path d="M203.101 80.6019C203.101 80.6019 207.097 78.7553 209.01 79.0099C210.923 79.2646 235.306 89.8634 244.37 93.5661C253.434 97.2688 263.901 105.057 265.945 109.272C267.988 113.486 261.686 137.744 261.686 137.744L254.583 157.923L251.026 163.249L247.434 161.243L241.073 149.399L239.784 139.093L235.689 123.573L225.477 105.186L216.042 94.7821L201.224 79.5192" fill="#7C665B"/>
<path d="M135.801 80.6019C135.801 80.6019 131.804 78.7553 129.892 79.0099C127.979 79.2646 103.595 89.8634 94.5315 93.5661C85.4678 97.2688 75.0006 105.057 72.9571 109.272C70.9136 113.486 77.2153 137.744 77.2153 137.744L84.3188 157.923L87.8753 163.249L91.4675 161.243L97.8287 149.399L99.1181 139.093L103.212 123.573L113.425 105.186L122.86 94.7821L137.678 79.5192" fill="#7C665B"/>
<path d="M157.214 121.117C157.214 121.117 157.694 132.896 163.694 137.237C168.021 140.369 170.636 140.656 175.565 134.684C180.306 128.939 178.707 124.028 178.707 124.028L186.798 119.19C186.798 119.19 176.542 116.482 170.331 121.66C170.331 121.66 160.149 115.573 152.475 119.19L157.214 121.117Z" fill="#D2AD79"/>
<path d="M168.385 189.446C168.385 189.446 151.038 208.745 137.764 206.958C128.455 205.704 123.15 194.029 126.052 187.597C128.955 181.165 120.019 195.014 120.019 195.014C120.019 195.014 114.959 209.016 119.339 212.01C123.721 215.003 135.435 228.17 157.214 212.01L168.84 195.014L168.385 189.446Z" fill="#5B473E"/>
<path d="M214.5 93.183C214.5 93.183 215.267 87.8194 230.841 107.739C236.001 114.338 244.13 133.915 248.912 142.472C253.691 151.027 260.942 139.862 260.942 139.862C260.942 139.862 255.82 158.804 252.33 161.3C248.84 163.796 248.84 161.255 239.394 145.287C239.394 145.287 239.886 133.066 232.618 118.041C225.351 103.016 214.5 93.183 214.5 93.183Z" fill="#5B473E"/>
<path d="M203.396 82.2035C203.396 82.2035 215.666 84.5237 221.211 87.4506C226.757 90.3775 256.372 104.296 259.31 108.382C262.245 112.468 265.452 119.178 265.452 119.178L265.947 109.277C265.947 109.277 257.138 100.722 249.223 96.5074C241.308 92.2931 212.076 78.0891 210.544 78.5508C209.012 79.0124 202.503 80.84 202.503 80.84L203.65 81.8228L203.396 82.2059V82.2035Z" fill="#A18E7D"/>
<path d="M124.123 93.5661C124.123 93.5661 123.357 88.2024 107.782 108.122C102.622 114.721 94.4935 134.298 89.7118 142.855C84.9326 151.41 77.6816 140.245 77.6816 140.245C77.6816 140.245 82.8035 159.187 86.2933 161.683C89.7832 164.179 89.7832 161.638 99.2299 145.67C99.2299 145.67 98.7375 133.449 106.005 118.424C113.273 103.399 124.123 93.5661 124.123 93.5661Z" fill="#5B473E"/>
<path d="M135.228 82.5865C135.228 82.5865 122.957 84.9066 117.412 87.8336C111.867 90.7605 82.2514 104.679 79.3135 108.765C76.3755 112.851 73.1711 119.561 73.1711 119.561L72.6763 109.66C72.6763 109.66 81.4854 101.105 89.4001 96.8904C97.3148 92.6737 126.547 78.4698 128.079 78.9314C129.611 79.3931 136.12 81.2206 136.12 81.2206L134.973 82.2034L135.228 82.5865Z" fill="#A18E7D"/>
<path d="M134.973 82.2034C134.973 82.2034 148.899 77.8748 160.247 77.2228C171.352 76.5851 187.488 78.2246 190.756 78.8838C194.023 79.5429 202.501 82.3319 202.501 82.3319L192.212 75.6475L169.639 72.8467L150.091 75.0788L138.749 78.5364L134.899 81.6442" fill="#F9EBCE"/>
<path d="M170.241 196.161C172.432 203.852 174.423 211.615 175.258 219.577C175.367 220.707 175.462 221.842 175.477 222.975C174.561 218.57 173.005 214.313 171.349 210.146C169.663 206.011 167.778 201.896 165.813 197.899L170.243 196.161H170.241Z" fill="#481B15"/>
<path d="M242.431 210.342C241.925 210.939 241.875 211.025 242.486 211.508C243.585 212.383 244.701 213.249 245.867 214.042C248.336 215.71 250.187 217.916 251.581 220.505C252.801 222.766 252.889 225.176 252.223 227.637C251.566 230.076 250.306 232.203 248.793 234.2C246.214 237.595 243.098 240.375 239.244 242.267C236.634 243.547 233.853 244.213 230.955 244.382C230.258 244.423 229.557 244.387 228.86 244.387C226.581 244.423 224.354 244.068 222.199 243.352C218.545 242.136 215.393 240.149 212.721 237.367C210.33 234.883 208.679 232.003 207.659 228.736C207.449 228.075 207.211 227.415 206.981 226.759C206.936 226.635 206.876 226.509 206.798 226.404C206.055 225.452 205.27 224.55 204.205 223.934C201.859 222.58 199.275 221.897 196.651 221.364C194.874 221 193.083 220.707 191.28 220.462C186.734 219.851 182.154 219.625 177.57 219.724C174.796 219.779 172.03 219.974 169.256 220.117C167.588 220.208 165.916 220.277 164.253 220.422C162.152 220.61 160.042 220.786 157.961 221.119C155.044 221.592 152.147 222.164 149.254 222.768C146.815 223.275 144.401 223.875 141.981 224.45C140.04 224.914 138.223 225.731 136.61 226.87C135.554 227.622 134.659 228.62 133.758 229.569C131.279 232.168 128.845 234.814 126.369 237.417C124.297 239.599 121.827 241.262 119.175 242.662C118.413 243.066 117.607 243.404 116.791 243.692C115.383 244.194 113.967 244.682 112.53 245.096C111.136 245.493 109.692 245.643 108.229 245.574C107.204 245.52 106.164 245.615 105.144 245.501C103.755 245.346 102.387 245.041 101.007 244.822C99.1395 244.53 97.4718 243.692 95.759 242.954C94.2413 242.307 92.733 241.641 91.4532 240.599C90.3374 239.697 89.2883 238.712 88.2916 237.686C87.4851 236.848 86.9879 235.794 86.7144 234.654C86.4955 233.729 86.2219 232.808 86.1077 231.865C85.8936 230.142 86.2861 228.489 86.869 226.87C88.0894 223.494 90.0401 220.572 92.3952 217.883C93.6251 216.479 94.7694 215.015 95.7067 213.39C95.8661 213.116 95.8351 212.962 95.602 212.788C94.7718 212.181 93.9701 211.529 93.1137 210.96C91.8552 210.13 90.5349 209.371 89.4834 208.276C88.0537 206.777 86.6953 205.209 85.7937 203.312C84.9682 201.589 84.7636 199.762 84.9064 197.875C85.1252 195.045 86.2457 192.542 87.5946 190.105C89.5072 186.664 92.0003 183.747 95.1667 181.405C97.1126 179.97 99.3131 179.045 101.668 178.493C106.433 177.372 111.077 177.85 115.523 179.823C120.671 182.11 124.799 185.534 127.158 190.783C127.408 191.336 127.556 191.938 127.701 192.532C128.029 193.872 128.657 195.057 129.628 196.028C130.698 197.099 132.042 197.692 133.52 197.975C135.492 198.353 137.469 198.731 139.455 199.046C140.402 199.195 141.361 199.205 142.317 199.26C144.403 199.379 146.485 199.538 148.569 199.593C150.241 199.638 151.909 199.583 153.581 199.529C156.314 199.438 159.053 199.3 161.791 199.21C165.017 199.095 168.247 199.05 171.478 198.9C173.55 198.8 175.615 198.601 177.682 198.377C180.401 198.084 183.123 197.77 185.832 197.38C190.302 196.742 194.717 195.816 199.054 194.541C200.358 194.158 201.45 193.43 202.475 192.573C205.149 190.341 207.806 188.092 210.494 185.874C212.371 184.32 214.422 183.016 216.632 181.986C218.19 181.253 219.877 180.896 221.552 180.518C225.151 179.711 228.791 179.492 232.464 179.656C234.381 179.747 236.222 180.22 238.045 180.768C240.773 181.584 243.476 182.5 245.909 183.999C248.343 185.503 250.494 187.362 252.287 189.606C253.876 191.597 254.119 193.817 253.436 196.195C252.839 198.277 251.709 200.074 250.489 201.832C249.335 203.495 247.901 204.904 246.421 206.275C245.027 207.565 243.659 208.878 242.434 210.339L242.431 210.342Z" fill="#F2E8D6"/>
<mask id="mask1_59_1286" style="mask-type:luminance" maskUnits="userSpaceOnUse" x="84" y="177" width="170" height="69">
<path d="M242.431 210.342C241.925 210.939 241.875 211.025 242.486 211.508C243.585 212.383 244.701 213.249 245.867 214.042C248.336 215.71 250.187 217.916 251.581 220.505C252.801 222.766 252.889 225.176 252.223 227.637C251.566 230.076 250.306 232.203 248.793 234.2C246.214 237.595 243.098 240.375 239.244 242.267C236.634 243.547 233.853 244.213 230.955 244.382C230.258 244.423 229.557 244.387 228.86 244.387C226.581 244.423 224.354 244.068 222.199 243.352C218.545 242.136 215.393 240.149 212.721 237.367C210.33 234.883 208.679 232.003 207.659 228.736C207.449 228.075 207.211 227.415 206.981 226.759C206.936 226.635 206.876 226.509 206.798 226.404C206.055 225.452 205.27 224.55 204.205 223.934C201.859 222.58 199.275 221.897 196.651 221.364C194.874 221 193.083 220.707 191.28 220.462C186.734 219.851 182.154 219.625 177.57 219.724C174.796 219.779 172.03 219.974 169.256 220.117C167.588 220.208 165.916 220.277 164.253 220.422C162.152 220.61 160.042 220.786 157.961 221.119C155.044 221.592 152.147 222.164 149.254 222.768C146.815 223.275 144.401 223.875 141.981 224.45C140.04 224.914 138.223 225.731 136.61 226.87C135.554 227.622 134.659 228.62 133.758 229.569C131.279 232.168 128.845 234.814 126.369 237.417C124.297 239.599 121.827 241.262 119.175 242.662C118.413 243.066 117.607 243.404 116.791 243.692C115.383 244.194 113.967 244.682 112.53 245.096C111.136 245.493 109.692 245.643 108.229 245.574C107.204 245.52 106.164 245.615 105.144 245.501C103.755 245.346 102.387 245.041 101.007 244.822C99.1395 244.53 97.4718 243.692 95.759 242.954C94.2413 242.307 92.733 241.641 91.4532 240.599C90.3374 239.697 89.2883 238.712 88.2916 237.686C87.4851 236.848 86.9879 235.794 86.7144 234.654C86.4955 233.729 86.2219 232.808 86.1077 231.865C85.8936 230.142 86.2861 228.489 86.869 226.87C88.0894 223.494 90.0401 220.572 92.3952 217.883C93.6251 216.479 94.7694 215.015 95.7067 213.39C95.8661 213.116 95.8351 212.962 95.602 212.788C94.7718 212.181 93.9701 211.529 93.1137 210.96C91.8552 210.13 90.5349 209.371 89.4834 208.276C88.0537 206.777 86.6953 205.209 85.7937 203.312C84.9682 201.589 84.7636 199.762 84.9064 197.875C85.1252 195.045 86.2457 192.542 87.5946 190.105C89.5072 186.664 92.0003 183.747 95.1667 181.405C97.1126 179.97 99.3131 179.045 101.668 178.493C106.433 177.372 111.077 177.85 115.523 179.823C120.671 182.11 124.799 185.534 127.158 190.783C127.408 191.336 127.556 191.938 127.701 192.532C128.029 193.872 128.657 195.057 129.628 196.028C130.698 197.099 132.042 197.692 133.52 197.975C135.492 198.353 137.469 198.731 139.455 199.046C140.402 199.195 141.361 199.205 142.317 199.26C144.403 199.379 146.485 199.538 148.569 199.593C150.241 199.638 151.909 199.583 153.581 199.529C156.314 199.438 159.053 199.3 161.791 199.21C165.017 199.095 168.247 199.05 171.478 198.9C173.55 198.8 175.615 198.601 177.682 198.377C180.401 198.084 183.123 197.77 185.832 197.38C190.302 196.742 194.717 195.816 199.054 194.541C200.358 194.158 201.45 193.43 202.475 192.573C205.149 190.341 207.806 188.092 210.494 185.874C212.371 184.32 214.422 183.016 216.632 181.986C218.19 181.253 219.877 180.896 221.552 180.518C225.151 179.711 228.791 179.492 232.464 179.656C234.381 179.747 236.222 180.22 238.045 180.768C240.773 181.584 243.476 182.5 245.909 183.999C248.343 185.503 250.494 187.362 252.287 189.606C253.876 191.597 254.119 193.817 253.436 196.195C252.839 198.277 251.709 200.074 250.489 201.832C249.335 203.495 247.901 204.904 246.421 206.275C245.027 207.565 243.659 208.878 242.434 210.339L242.431 210.342Z" fill="white"/>
</mask>
<g mask="url(#mask1_59_1286)">
<path d="M96.3536 194.81C98.9252 190.472 105.094 188.566 109.48 191.05C113.199 193.158 114.931 197.475 116.743 201.347C118.556 205.218 121.232 209.33 125.443 210.065C127.639 210.449 129.868 209.823 132.026 209.256C138.922 207.45 145.976 206.239 153.079 205.639C166.96 204.466 180.977 205.627 194.829 204.15C205.698 202.991 216.608 200.211 227.425 201.787C228.324 201.918 229.323 202.146 229.804 202.917C230.27 203.664 230.066 204.623 229.923 205.489C229.052 210.756 231.222 216.414 235.387 219.748C233.384 215.029 236.827 209.785 240.649 206.372C244.472 202.96 249.128 199.838 250.539 194.907C251.995 189.817 249.235 184.156 244.865 181.17C240.495 178.183 234.881 177.522 229.628 178.155C224.373 178.785 219.346 180.596 214.303 182.198C202.373 185.991 190.009 188.701 177.494 188.97C164.978 189.237 152.268 186.981 141.123 181.282C134.778 178.038 128.964 173.705 122.284 171.223C111.043 167.047 97.7976 168.743 87.9703 175.62C84.4281 178.1 81.2522 181.305 79.6155 185.305C76.0923 193.917 80.617 204.012 87.4493 210.327C89.2906 212.029 91.5054 213.628 94.0104 213.606C95.7279 213.592 97.7405 212.381 98.2448 210.665C98.8491 208.619 97.4527 207.769 96.5201 206.132C94.5766 202.72 94.322 198.241 96.356 194.81H96.3536Z" fill="#D3BF9F"/>
</g>
<path d="M246.419 206.277C247.898 204.909 249.33 203.498 250.486 201.834C251.707 200.076 252.837 198.279 253.434 196.197C254.117 193.822 253.872 191.6 252.285 189.608C250.494 187.362 248.343 185.506 245.907 184.002C243.473 182.502 240.769 181.586 238.042 180.77C236.22 180.223 234.379 179.749 232.461 179.659C228.788 179.495 225.149 179.713 221.549 180.52C219.877 180.899 218.188 181.258 216.63 181.988C214.42 183.019 212.369 184.323 210.492 185.877C207.804 188.092 205.144 190.343 202.473 192.575C201.447 193.432 200.358 194.158 199.052 194.543C194.715 195.819 190.3 196.744 185.83 197.382C183.123 197.77 180.399 198.084 177.68 198.379C175.615 198.603 173.547 198.803 171.475 198.903C168.245 199.053 165.014 199.098 161.788 199.212C159.05 199.303 156.312 199.441 153.579 199.531C151.906 199.586 150.239 199.64 148.566 199.595C146.48 199.541 144.399 199.381 142.315 199.262C141.358 199.207 140.397 199.198 139.453 199.048C137.466 198.734 135.489 198.355 133.517 197.977C132.038 197.694 130.694 197.101 129.625 196.031C128.655 195.06 128.027 193.875 127.698 192.535C127.553 191.942 127.406 191.34 127.156 190.786C124.796 185.536 120.669 182.112 115.521 179.825C111.075 177.853 106.431 177.374 101.666 178.495C99.3108 179.047 97.1103 179.975 95.1643 181.408C91.998 183.749 89.5049 186.667 87.5922 190.108C86.2434 192.542 85.1229 195.048 84.9041 197.877C84.7589 199.764 84.9635 201.592 85.7914 203.315C86.693 205.211 88.0514 206.782 89.4811 208.279C90.5326 209.373 91.8505 210.132 93.1113 210.963C93.9678 211.531 94.7694 212.184 95.5997 212.79C95.8328 212.964 95.8638 213.119 95.7044 213.392C94.7694 215.015 93.6228 216.479 92.3929 217.885C90.0378 220.574 88.0871 223.496 86.8667 226.873C86.2838 228.491 85.8913 230.145 86.1054 231.868C86.2196 232.808 86.4932 233.731 86.712 234.657C86.9856 235.797 87.4828 236.853 88.2893 237.688C89.286 238.714 90.3351 239.699 91.4509 240.601C92.7307 241.641 94.2389 242.31 95.7567 242.957C97.4695 243.695 99.1371 244.53 101.005 244.825C102.384 245.044 103.752 245.348 105.142 245.503C106.162 245.617 107.202 245.522 108.227 245.577C109.69 245.646 111.134 245.496 112.528 245.098C113.967 244.684 115.38 244.197 116.789 243.695C117.605 243.407 118.411 243.066 119.172 242.664C121.825 241.265 124.294 239.602 126.366 237.419C128.84 234.816 131.274 232.17 133.755 229.571C134.657 228.62 135.551 227.625 136.608 226.873C138.22 225.733 140.038 224.917 141.979 224.453C144.399 223.875 146.813 223.277 149.252 222.77C152.144 222.168 155.042 221.595 157.958 221.121C160.04 220.788 162.15 220.615 164.251 220.424C165.913 220.279 167.586 220.21 169.253 220.12C172.027 219.974 174.794 219.782 177.568 219.727C182.152 219.627 186.734 219.851 191.278 220.465C193.081 220.71 194.872 221.002 196.649 221.366C199.273 221.9 201.857 222.582 204.202 223.936C205.268 224.553 206.055 225.455 206.795 226.407C206.874 226.511 206.936 226.635 206.978 226.761C207.207 227.418 207.447 228.075 207.656 228.739C208.677 232.006 210.33 234.883 212.719 237.369C215.393 240.154 218.542 242.141 222.196 243.354C224.352 244.07 226.578 244.425 228.857 244.389C229.554 244.389 230.256 244.425 230.953 244.385C233.851 244.216 236.634 243.547 239.241 242.269C243.095 240.377 246.212 237.598 248.79 234.202C250.303 232.206 251.564 230.078 252.221 227.639C252.887 225.179 252.799 222.768 251.578 220.507C250.184 217.918 248.334 215.712 245.864 214.044C244.699 213.252 243.585 212.386 242.484 211.51C241.872 211.027 241.92 210.941 242.429 210.344C243.654 208.885 245.022 207.569 246.416 206.28L246.419 206.277ZM237.662 218.751C238.026 219.258 238.418 219.748 238.796 220.241C238.851 220.31 238.937 220.365 239.034 220.45C238.651 218.459 238.851 216.586 239.658 214.777C239.95 214.104 240.336 213.802 240.911 213.842C241.125 213.856 241.359 213.921 241.535 214.042C243.735 215.551 245.807 217.205 247.365 219.425C249.621 222.637 249.754 225.964 248.086 229.45C247.189 231.328 245.921 232.941 244.551 234.481C243.226 235.97 241.832 237.374 240.219 238.559C237.531 240.542 234.529 241.731 231.229 242.141C228.103 242.524 225.032 242.291 222.08 241.079C220.267 240.337 218.768 239.178 217.491 237.724C215.992 236.025 214.926 234.055 213.946 232.037C212.881 229.845 211.722 227.703 210.366 225.674C208.32 222.611 205.601 220.455 201.978 219.498C200.37 219.075 198.766 218.692 197.12 218.509C196.154 218.399 195.207 218.18 194.249 218.075C192.836 217.926 191.416 217.83 189.998 217.726C188.858 217.64 187.712 217.542 186.567 217.507C185.254 217.471 183.943 217.492 182.63 217.502C181.415 217.516 180.201 217.533 178.986 217.58C177.796 217.63 176.611 217.726 175.422 217.799C173.823 217.899 172.22 218.009 170.624 218.099C169.439 218.164 168.25 218.213 167.065 218.24C166.527 218.254 165.985 218.166 165.447 218.185C164.381 218.23 163.316 218.285 162.257 218.385C160.768 218.525 159.274 218.658 157.801 218.882C155.665 219.206 153.545 219.62 151.419 219.982C149.413 220.324 147.396 220.61 145.395 220.993C141.891 221.666 138.392 222.356 134.902 223.108C133.203 223.472 131.54 223.989 129.863 224.458C129.644 224.517 129.445 224.662 129.257 224.822C130.199 225.095 131.134 225.012 132.069 224.976C133.003 224.941 133.941 224.881 134.99 224.826C134.826 224.95 134.761 225.022 134.681 225.05C132.604 225.926 131.167 227.539 129.782 229.234C127.323 232.246 124.73 235.14 121.782 237.7C119.567 239.623 117.081 241.101 114.305 242.072C113.463 242.364 112.623 242.705 111.75 242.883C110.097 243.226 108.42 243.366 106.733 243.157C104.209 242.847 101.716 242.41 99.3346 241.47C98.05 240.956 96.7106 240.577 95.4355 240.044C93.2113 239.114 91.477 237.574 90.3018 235.482C88.7341 232.698 88.7579 229.855 90.2661 227.042C91.3319 225.05 92.6712 223.232 94.0344 221.435C94.6624 220.615 95.4379 219.896 96.0517 219.061C97.9739 216.457 99.2323 213.537 99.9888 210.401C100.398 208.728 100.496 207.034 100.034 205.352C99.7795 204.431 99.268 203.664 98.4021 203.181C98.2926 203.117 98.1689 203.086 97.9501 203.003C98.6162 204.671 98.5472 206.265 98.1832 207.843C98.0428 208.471 97.705 209.069 97.3767 209.63C97.0675 210.163 96.5608 210.242 96.0469 209.904C94.1795 208.669 92.3786 207.355 90.8894 205.666C89.581 204.176 88.6247 202.508 88.2203 200.552C87.9063 199.034 88.0252 197.525 88.3749 196.035C88.6247 194.969 88.9815 193.925 89.2908 192.868C89.9141 190.726 91.0726 188.889 92.5166 187.207C93.4182 186.155 94.258 185.046 95.2191 184.059C97.1603 182.072 99.6153 181.006 102.263 180.285C104.054 179.802 105.853 179.692 107.666 179.911C109.676 180.156 111.674 180.499 113.575 181.236C115.128 181.838 116.558 182.671 117.857 183.707C118.847 184.494 119.812 185.306 120.804 186.091C122.631 187.554 123.78 189.408 124.171 191.728C124.27 192.316 124.439 192.894 124.58 193.477C124.884 194.722 125.641 195.693 126.511 196.59C127.934 198.058 129.533 199.288 131.46 200.026C132.849 200.554 134.302 200.868 135.77 201.087C140.464 201.78 145.188 201.894 149.918 201.925C153.581 201.949 157.24 201.806 160.884 201.461C163.154 201.251 165.426 201.232 167.695 201.197C171.259 201.142 174.808 200.933 178.348 200.485C181.702 200.057 185.069 199.638 188.42 199.15C190.069 198.912 191.691 198.489 193.34 198.234C195.227 197.934 197.134 197.746 199.03 197.482C200.455 197.287 201.878 197.09 203.291 196.84C205.232 196.497 207.169 196.111 209.105 195.724C209.433 195.659 209.747 195.486 210.052 195.286C208.334 194.843 206.593 194.993 204.849 194.907C204.864 194.843 204.859 194.798 204.88 194.779C206.324 193.475 207.768 192.164 209.217 190.86C211.71 188.604 214.301 186.472 217.177 184.699C219.537 183.25 222.125 182.424 224.773 181.696C226.559 181.208 228.367 180.979 230.194 181.094C232.419 181.234 234.626 181.522 236.77 182.229C239.413 183.1 242.072 183.906 244.587 185.118C246.214 185.905 247.563 187.04 248.624 188.518C249.609 189.886 249.937 191.407 249.813 193.066C249.699 194.546 249.618 196.023 248.902 197.373C248.046 198.996 247.18 200.609 245.959 202.013C244.661 203.517 243.357 205.007 241.896 206.365C241.109 207.098 240.369 207.9 239.746 208.771C238.192 210.948 237.217 213.373 236.958 216.058C236.858 217.055 237.086 217.949 237.664 218.761L237.662 218.751Z" fill="black"/>
<path d="M154.273 160.412C154.273 160.412 120.393 185.908 118.903 198.767C118.394 203.158 117.043 207.75 120.038 212.064C126.897 221.945 144.836 227.227 164.365 202.924L168.516 192.97C168.516 192.97 179.987 215.453 188.884 217.269C193.509 218.213 201.747 221.642 209.143 219.213C215.975 216.971 222.353 209.364 218.399 198.765C210.166 176.691 198.324 172.037 198.324 172.037C198.324 172.037 183.356 157.357 173.4 156.555C163.442 155.751 154.276 160.412 154.276 160.412H154.273Z" fill="#7C665B"/>
<path d="M169.453 189.446C169.453 189.446 186.8 208.745 200.075 206.958C209.383 205.704 214.688 194.029 211.786 187.597C208.884 181.165 217.819 195.014 217.819 195.014C217.819 195.014 222.879 209.016 218.499 212.01C214.117 215.003 202.404 228.17 180.625 212.01L168.999 195.014L169.453 189.446Z" fill="#5B473E"/>
<path d="M210.544 183.464C199.244 177.353 188.668 170.364 177.258 164.857C174.599 163.668 172.17 162.518 169.396 162.154C163.032 161.862 151.478 169.593 145.833 173.131C138.746 177.71 131.778 182.621 124.506 187.34C125.79 185.584 127.175 183.916 128.593 182.281C132.865 177.37 137.504 172.832 142.488 168.615C149.232 163.03 160.927 154.235 170.138 155.08C182.494 156.8 202.325 174.069 210.542 183.464H210.544Z" fill="#A18A7A"/>
<path d="M177.991 170.695C177.991 170.695 178.867 163.596 168.663 163.251C158.46 162.906 160.318 171.24 160.318 171.24C160.318 171.24 165.033 176.627 165.894 176.663C166.756 176.698 176.274 175.166 176.109 173.633C175.945 172.101 177.989 170.697 177.989 170.697L177.991 170.695Z" fill="#5B473E"/>
<path d="M196.247 221.885C196.537 221.79 196.825 221.695 197.113 221.6C196.985 221.58 196.856 221.561 196.725 221.54C196.566 221.657 196.406 221.773 196.247 221.885Z" fill="#481B15"/>
<path d="M141.427 221.573C141.284 221.597 141.142 221.616 140.999 221.635C141.284 221.73 141.57 221.825 141.858 221.918C141.713 221.804 141.57 221.687 141.427 221.573Z" fill="#481B15"/>
<path d="M218.264 128.932C217.878 129.917 216.767 130.403 215.783 130.02C215.585 129.943 196.016 122.326 185.832 121.591C183.893 121.453 182.497 121.903 181.564 122.973C179.354 125.505 179.911 131.033 180.313 132.949C180.529 133.984 179.868 135 178.833 135.219C178.7 135.248 178.567 135.259 178.436 135.259C177.551 135.259 176.756 134.643 176.566 133.744C176.547 133.656 176.109 131.566 176.114 128.965C176.119 125.267 176.98 122.407 178.674 120.461C179.882 119.076 182.152 117.484 186.11 117.772C196.873 118.55 216.356 126.131 217.179 126.453C218.164 126.838 218.652 127.949 218.266 128.934L218.264 128.932Z" fill="#481B15"/>
<path d="M219.097 147.881C219.097 155.82 212.771 162.352 204.656 163.163C205.851 163.522 207.073 163.699 208.301 163.699C211.061 163.699 213.832 162.804 216.282 161.067C220.043 158.404 222.289 154.268 222.289 150.006C222.289 143.331 218.014 137.587 211.924 135.103C216.251 137.861 219.099 142.553 219.099 147.881H219.097Z" fill="white"/>
<path d="M224.842 150.006C224.842 155.094 222.194 160.008 217.757 163.151C214.864 165.2 211.586 166.254 208.308 166.254C206.595 166.254 204.885 165.966 203.227 165.383C202.166 165.01 201.333 164.722 200.662 164.491C200.396 164.398 200.156 164.315 199.934 164.239C199.304 163.672 198.671 163.099 198.034 162.523C199.582 162.994 201.233 163.249 202.946 163.249C203.524 163.249 204.093 163.22 204.654 163.163C205.848 163.522 207.069 163.698 208.296 163.698C211.056 163.698 213.827 162.804 216.278 161.067C220.039 158.404 222.284 154.268 222.284 150.006C222.284 143.331 218.009 137.587 211.919 135.102C209.353 133.468 206.267 132.513 202.946 132.513C194.028 132.513 186.798 139.393 186.798 147.881C186.798 149.654 187.114 151.355 187.695 152.94C186.972 152.25 186.26 151.567 185.563 150.891C185.535 150.599 185.521 150.304 185.521 150.006C185.521 139.655 194.339 131.236 205.18 131.236C216.021 131.236 224.839 139.655 224.839 150.006H224.842Z" fill="#481B15"/>
<path d="M204.062 139.864C208.225 140.385 211.436 143.774 211.436 147.876C211.436 152.341 207.632 155.96 202.941 155.96C198.25 155.96 194.446 152.341 194.446 147.876C194.446 143.867 197.512 140.542 201.535 139.905C201.193 139.828 200.86 139.778 200.536 139.757C196.761 140.806 193.999 144.119 193.999 148.026C193.999 152.778 198.083 156.645 203.101 156.645C208.118 156.645 212.202 152.778 212.202 148.026C212.202 143.707 208.829 140.119 204.445 139.502C204.333 139.64 204.207 139.762 204.064 139.864H204.062Z" fill="#481B15"/>
<path d="M202.948 163.249C203.524 163.249 204.095 163.22 204.656 163.163C212.773 162.352 219.097 155.819 219.097 147.881C219.097 142.553 216.247 137.86 211.922 135.102C209.355 133.468 206.269 132.513 202.948 132.513C194.03 132.513 186.8 139.393 186.8 147.881C186.8 149.654 187.117 151.355 187.697 152.94C191.006 156.096 194.567 159.382 198.036 162.523C199.585 162.994 201.236 163.249 202.948 163.249ZM215.99 145.352C215.871 146.322 215.045 147.034 214.091 147.034C214.041 147.034 213.989 147.032 213.939 147.027C213.972 147.355 213.989 147.688 213.989 148.026C213.989 153.766 209.105 158.432 203.101 158.432C197.096 158.432 192.212 153.763 192.212 148.026C192.212 146.479 192.567 145.009 193.204 143.688C193.204 143.688 193.204 143.688 193.204 143.686C193.081 143.652 192.957 143.61 192.838 143.55C191.891 143.079 191.506 141.93 191.977 140.983C192.07 140.797 192.931 139.129 194.744 137.751C196.485 136.426 199.425 135.133 203.546 136.49C204.157 136.692 204.599 137.173 204.775 137.746C207.404 138.136 209.724 139.426 211.377 141.278L211.969 139.095C213.57 139.531 216.468 141.399 215.985 145.352H215.99Z" fill="#481B15"/>
<path d="M194.448 147.876C194.448 152.341 198.252 155.96 202.944 155.96C207.635 155.96 211.439 152.341 211.439 147.876C211.439 143.774 208.225 140.385 204.064 139.864C203.584 140.207 202.956 140.326 202.351 140.128C202.075 140.038 201.804 139.964 201.538 139.905C197.515 140.542 194.448 143.867 194.448 147.876Z" fill="#351411"/>
<path d="M212.188 144.885C212.302 143.95 211.983 143.515 211.731 143.269C211.374 142.92 210.941 142.784 210.937 142.782L210.968 142.791L211.379 141.278C209.726 139.426 207.406 138.134 204.778 137.746C204.892 138.113 204.897 138.517 204.768 138.908C204.694 139.131 204.583 139.331 204.445 139.503C208.829 140.119 212.202 143.707 212.202 148.026C212.202 152.778 208.12 156.645 203.101 156.645C198.081 156.645 193.999 152.778 193.999 148.026C193.999 144.117 196.763 140.807 200.536 139.757C199.242 139.669 198.093 140.016 197.06 140.802C195.959 141.639 195.412 142.679 195.407 142.689C195.072 143.362 194.396 143.753 193.692 143.753C193.53 143.753 193.368 143.729 193.207 143.688C193.207 143.688 193.207 143.688 193.207 143.691C192.569 145.011 192.215 146.482 192.215 148.029C192.215 153.768 197.101 158.435 203.103 158.435C209.105 158.435 213.991 153.766 213.991 148.029C213.991 147.691 213.975 147.358 213.941 147.029C213.913 147.029 213.887 147.024 213.858 147.022C212.809 146.894 212.062 145.937 212.19 144.888L212.188 144.885Z" fill="#351411"/>
<path d="M210.97 142.791L210.939 142.782C210.939 142.782 211.377 142.92 211.734 143.269C211.984 143.514 212.305 143.948 212.191 144.885C212.062 145.935 212.809 146.891 213.858 147.02C213.887 147.022 213.913 147.024 213.941 147.027C213.991 147.032 214.044 147.034 214.094 147.034C215.048 147.034 215.873 146.322 215.992 145.351C216.475 141.399 213.577 139.531 211.976 139.095L211.384 141.278L210.973 142.791H210.97Z" fill="white"/>
<path d="M195.407 142.689C195.407 142.689 195.959 141.639 197.061 140.802C198.093 140.016 199.242 139.671 200.536 139.757C200.86 139.779 201.193 139.828 201.535 139.905C201.799 139.964 202.071 140.038 202.349 140.128C202.951 140.326 203.581 140.207 204.062 139.864C204.204 139.762 204.331 139.643 204.442 139.502C204.58 139.329 204.692 139.129 204.766 138.908C204.894 138.515 204.89 138.113 204.775 137.746C204.599 137.173 204.157 136.692 203.545 136.49C199.425 135.133 196.485 136.428 194.743 137.751C192.931 139.129 192.07 140.797 191.977 140.983C191.506 141.93 191.891 143.079 192.838 143.55C192.957 143.61 193.081 143.653 193.204 143.686C193.366 143.729 193.528 143.75 193.69 143.75C194.394 143.75 195.072 143.36 195.405 142.686L195.407 142.689Z" fill="white"/>
<path d="M217.515 181.355C217.262 181.65 216.903 181.803 216.544 181.803C216.251 181.803 215.956 181.703 215.716 181.498C215.516 181.329 195.598 164.324 182.461 151.429C178.013 147.063 173.804 145.026 169.222 145.026H169.184C169.123 145.026 169.061 145.018 169.001 145.011C169.617 144.923 170.091 144.395 170.093 143.752C170.093 143.11 169.617 142.577 169.001 142.489C169.061 142.479 169.12 142.475 169.182 142.475H169.222C174.516 142.475 179.29 144.74 184.248 149.606C184.681 150.03 185.121 150.458 185.566 150.891C186.26 151.565 186.974 152.25 187.697 152.94C191.006 156.096 194.57 159.382 198.036 162.523C198.674 163.101 199.306 163.672 199.937 164.239C209.165 172.546 217.246 179.444 217.374 179.554C217.909 180.011 217.974 180.818 217.517 181.355H217.515Z" fill="#481B15"/>
<path d="M207.211 177.988C206.959 178.312 206.583 178.483 206.203 178.483C205.929 178.483 205.653 178.395 205.423 178.214L190.604 166.702C186.334 163.384 182.73 161.288 179.832 159.965C180.739 160.786 181.479 161.735 181.921 162.83C182.868 165.164 182.366 167.718 180.434 170.414C178.258 173.453 176.307 174.695 174.466 174.212C174.328 174.174 174.197 174.128 174.071 174.076C173.876 173.848 173.619 173.705 173.345 173.652C171.425 172.177 170.938 168.681 170.852 167.894C170.776 167.192 171.28 166.561 171.982 166.485C172.679 166.407 173.312 166.913 173.39 167.613C173.59 169.4 174.37 171.547 175.113 171.739C175.203 171.763 175.926 171.877 177.449 170.097C177.458 170.49 177.439 170.902 177.394 171.33C177.356 171.68 177.611 171.996 177.96 172.032C177.984 172.037 178.005 172.037 178.029 172.037C178.35 172.037 178.629 171.794 178.664 171.468C178.776 170.435 178.743 169.486 178.574 168.617C179.804 166.785 180.127 165.202 179.556 163.791C178.343 160.788 173.276 158.937 170.283 158.18C171.078 157.999 171.777 157.866 172.32 157.78C172.926 157.685 173.378 157.169 173.397 156.555C173.416 155.941 172.993 155.401 172.394 155.27C172.332 155.256 172.072 155.203 171.637 155.151C175.198 155.282 182.061 156.833 192.167 164.684L206.985 176.196C207.542 176.629 207.644 177.431 207.211 177.988Z" fill="#481B15"/>
<path d="M178.662 171.47C178.626 171.796 178.35 172.039 178.027 172.039C178.003 172.039 177.982 172.039 177.958 172.034C177.608 171.996 177.353 171.682 177.392 171.332C177.437 170.904 177.456 170.492 177.446 170.1C177.408 168.503 176.923 167.194 175.988 166.202C173.654 163.715 169.256 163.884 169.21 163.886C169.134 163.889 169.063 163.877 168.996 163.855C169.249 163.779 169.439 163.556 169.451 163.277C169.465 162.977 169.27 162.72 168.999 162.637C169.046 162.623 169.099 162.611 169.151 162.609C169.356 162.599 174.17 162.406 176.913 165.319C177.77 166.228 178.319 167.332 178.571 168.615C178.74 169.483 178.771 170.435 178.662 171.466V171.47Z" fill="#481B15"/>
<path d="M238.551 145.233C238.316 143.093 238.045 140.687 237.735 137.979C236.427 126.6 230.487 115.625 225.731 108.422C220.548 100.565 215.607 95.3627 215.557 95.3103C215.071 94.8011 215.088 93.992 215.597 93.5042C216.109 93.0188 216.915 93.0354 217.403 93.5447C217.61 93.7612 222.524 98.9345 227.834 106.971C230.955 111.694 233.556 116.425 235.561 121.029C238.083 126.814 239.667 132.421 240.274 137.689C240.578 140.34 240.845 142.703 241.078 144.816C241.042 144.723 241.021 144.671 241.018 144.666C240.768 144.007 240.031 143.676 239.372 143.928C238.825 144.136 238.506 144.68 238.556 145.235L238.551 145.233Z" fill="#481B15"/>
<path d="M262.9 138.206C260.111 147.865 255.784 160.284 252.772 163.494C252.13 164.179 251.469 164.527 250.808 164.527C250.736 164.527 250.665 164.522 250.596 164.515C249.173 164.355 246.792 163.151 242.565 154.57C242.36 154.156 242.16 153.742 241.965 153.333C240.064 149.326 238.694 145.737 238.63 145.571C238.596 145.478 238.57 145.383 238.558 145.287C238.554 145.268 238.554 145.249 238.551 145.23C238.501 144.676 238.823 144.133 239.367 143.924C240.026 143.672 240.764 144.002 241.013 144.662C241.016 144.666 241.037 144.719 241.073 144.812C241.382 145.611 242.926 149.537 244.858 153.454C248.324 160.481 250.168 161.714 250.717 161.928C251.064 161.64 252.285 160.317 254.583 154.751C256.308 150.575 258.227 144.995 259.993 139.046C263.861 125.993 266.004 114.631 265.326 110.769C265.145 109.736 263.87 107.335 257.366 102.83C253.067 99.8556 247.068 96.3838 240.014 92.7905C226.507 85.911 213.794 80.8734 211.313 80.5616C206.307 79.9334 203.978 81.9061 203.817 82.0513C203.348 82.5129 202.625 82.5224 202.121 82.0989C192.964 74.4055 169.46 75.0861 169.225 75.0956C169.149 75.0956 169.073 75.0909 168.999 75.0813C169.598 74.9933 170.069 74.4888 170.091 73.8606C170.112 73.2038 169.634 72.647 168.999 72.5566C169.044 72.5494 169.092 72.5447 169.142 72.5447C169.391 72.5351 175.346 72.3495 182.59 73.1657C191.855 74.2056 198.707 76.3449 202.979 79.5265C204.328 78.6984 207.173 77.4705 211.631 78.0297C214.781 78.4247 228.084 83.8503 241.173 90.5156C248.326 94.1588 254.428 97.6926 258.82 100.731C264.439 104.622 267.391 107.761 267.841 110.326C268.707 115.254 265.854 127.957 262.897 138.203L262.9 138.206Z" fill="#481B15"/>
<path d="M161.886 128.963C161.888 131.564 161.45 133.653 161.434 133.741C161.243 134.641 160.447 135.257 159.562 135.257C159.431 135.257 159.295 135.245 159.162 135.214C158.127 134.995 157.468 133.979 157.687 132.944C158.087 131.029 158.648 125.501 156.436 122.969C155.501 121.898 154.104 121.446 152.168 121.586C141.984 122.324 122.415 129.939 122.217 130.015C121.232 130.4 120.121 129.915 119.736 128.927C119.351 127.942 119.836 126.831 120.821 126.445C121.646 126.124 141.13 118.54 151.89 117.765C155.85 117.479 158.12 119.069 159.326 120.454C161.022 122.4 161.883 125.26 161.886 128.958V128.963Z" fill="#481B15"/>
<path d="M118.901 147.881C118.901 142.556 121.749 137.861 126.073 135.105C126.073 135.105 126.071 135.105 126.069 135.105C119.981 137.589 115.708 143.331 115.708 150.006C115.708 154.268 117.954 158.404 121.715 161.067C125.257 163.575 129.463 164.327 133.346 163.163H133.348C125.229 162.354 118.899 155.822 118.899 147.879L118.901 147.881Z" fill="white"/>
<path d="M152.477 150.006C152.477 150.304 152.463 150.596 152.434 150.889C151.74 151.565 151.026 152.248 150.303 152.938C150.883 151.353 151.2 149.652 151.2 147.879C151.2 139.391 143.97 132.511 135.052 132.511C131.731 132.511 128.643 133.465 126.076 135.102L126.071 135.105C119.984 137.589 115.711 143.331 115.711 150.006C115.711 154.268 117.957 158.404 121.718 161.067C125.26 163.575 129.466 164.327 133.348 163.163H133.351C133.91 163.218 134.476 163.246 135.052 163.246C136.764 163.246 138.413 162.992 139.964 162.521C139.327 163.099 138.694 163.67 138.063 164.239C137.845 164.315 137.604 164.398 137.338 164.491C136.667 164.722 135.834 165.01 134.773 165.383C133.118 165.966 131.405 166.254 129.694 166.254C126.414 166.254 123.136 165.2 120.243 163.151C115.806 160.008 113.158 155.096 113.158 150.006C113.158 139.655 121.977 131.236 132.818 131.236C143.659 131.236 152.477 139.655 152.477 150.006Z" fill="#481B15"/>
<path d="M143.551 147.876C143.551 152.341 139.748 155.96 135.056 155.96C130.365 155.96 126.561 152.341 126.561 147.876C126.561 143.774 129.775 140.385 133.936 139.864C133.793 139.762 133.667 139.643 133.555 139.502C129.171 140.119 125.798 143.707 125.798 148.026C125.798 152.778 129.88 156.645 134.897 156.645C139.914 156.645 143.999 152.778 143.999 148.026C143.999 144.128 141.249 140.828 137.492 139.764C137.166 139.783 136.826 139.826 136.467 139.905C140.487 140.545 143.551 143.869 143.551 147.876Z" fill="#481B15"/>
<path d="M151.2 147.881C151.2 139.393 143.97 132.513 135.052 132.513C131.731 132.513 128.643 133.468 126.076 135.105C121.751 137.863 118.904 142.555 118.904 147.881C118.904 155.822 125.234 162.356 133.353 163.165C133.912 163.22 134.478 163.251 135.052 163.251C136.765 163.251 138.415 162.996 139.964 162.525C143.433 159.382 146.994 156.098 150.303 152.943C150.883 151.358 151.2 149.656 151.2 147.883V147.881ZM124.009 148.026C124.009 147.688 124.025 147.355 124.059 147.027C124.006 147.032 123.956 147.034 123.906 147.034C122.952 147.034 122.127 146.322 122.008 145.352C121.525 141.399 124.423 139.531 126.024 139.095L126.616 141.278C128.269 139.424 130.591 138.132 133.22 137.744C133.396 137.173 133.838 136.69 134.45 136.49C138.57 135.133 141.51 136.428 143.252 137.751C145.065 139.129 145.926 140.797 146.019 140.983L143.82 142.075C145.057 143.762 145.783 145.816 145.783 148.026C145.783 153.766 140.899 158.432 134.895 158.432C128.89 158.432 124.006 153.763 124.006 148.026H124.009Z" fill="#481B15"/>
<path d="M126.561 147.876C126.561 152.341 130.365 155.96 135.056 155.96C139.748 155.96 143.552 152.341 143.552 147.876C143.552 143.869 140.487 140.545 136.467 139.905C136.203 139.962 135.932 140.036 135.649 140.128C135.047 140.326 134.416 140.207 133.936 139.864C129.773 140.385 126.561 143.774 126.561 147.876Z" fill="#351411"/>
<path d="M145.785 148.026C145.785 145.816 145.06 143.762 143.823 142.075L142.59 142.686L142.598 142.701C142.41 142.337 140.866 139.579 137.492 139.764C141.249 140.828 143.999 144.128 143.999 148.026C143.999 152.778 139.916 156.645 134.897 156.645C129.877 156.645 125.798 152.778 125.798 148.026C125.798 143.707 129.171 140.119 133.555 139.502C133.417 139.329 133.305 139.129 133.232 138.908C133.103 138.515 133.108 138.11 133.222 137.744C130.593 138.134 128.272 139.426 126.618 141.278L127.03 142.791L127.061 142.782C127.061 142.782 126.623 142.92 126.266 143.269C126.016 143.514 125.695 143.948 125.809 144.885C125.938 145.935 125.191 146.891 124.142 147.02C124.116 147.022 124.087 147.024 124.061 147.027C124.028 147.355 124.011 147.688 124.011 148.026C124.011 153.766 128.895 158.432 134.899 158.432C140.904 158.432 145.788 153.764 145.788 148.026H145.785Z" fill="#351411"/>
<path d="M125.81 144.885C125.695 143.95 126.014 143.514 126.266 143.269C126.623 142.92 127.056 142.782 127.061 142.782L127.03 142.791L126.618 141.278L126.026 139.095C124.425 139.531 121.527 141.399 122.01 145.351C122.129 146.322 122.955 147.034 123.909 147.034C123.959 147.034 124.011 147.032 124.061 147.027C124.087 147.027 124.116 147.022 124.142 147.02C125.191 146.891 125.938 145.935 125.81 144.885Z" fill="white"/>
<path d="M133.232 138.908C133.305 139.131 133.417 139.331 133.555 139.502C133.667 139.64 133.793 139.762 133.936 139.864C134.416 140.207 135.044 140.326 135.649 140.128C135.932 140.035 136.203 139.962 136.467 139.905C136.826 139.828 137.169 139.783 137.492 139.764C140.866 139.579 142.41 142.337 142.598 142.701L142.59 142.686L143.823 142.075L146.021 140.983C145.928 140.797 145.067 139.129 143.254 137.751C141.513 136.426 138.572 135.133 134.452 136.49C133.841 136.692 133.401 137.173 133.222 137.744C133.108 138.11 133.103 138.515 133.232 138.908Z" fill="white"/>
<path d="M170.093 143.752C170.091 144.395 169.617 144.923 169.001 145.011C168.942 145.021 168.88 145.026 168.818 145.026H168.78C164.198 145.026 159.99 147.06 155.541 151.429C142.405 164.324 122.486 181.327 122.284 181.498C122.044 181.703 121.749 181.803 121.456 181.803C121.095 181.803 120.735 181.65 120.483 181.355C120.026 180.818 120.091 180.011 120.628 179.554C120.754 179.444 128.833 172.548 138.061 164.241C138.691 163.675 139.324 163.101 139.962 162.523C143.43 159.379 146.991 156.096 150.301 152.94C151.024 152.25 151.737 151.567 152.432 150.891C152.877 150.458 153.317 150.03 153.75 149.606C158.708 144.742 163.482 142.475 168.775 142.475H168.818C168.88 142.475 168.939 142.482 168.999 142.489C169.617 142.579 170.093 143.11 170.091 143.752H170.093Z" fill="#481B15"/>
<path d="M173.395 156.557C173.376 157.171 172.924 157.685 172.317 157.783C171.773 157.868 171.076 158.002 170.281 158.183C166.337 159.08 160.028 161.152 158.658 164.434C158.137 165.678 158.389 167.051 159.428 168.617C159.26 169.486 159.226 170.438 159.338 171.47C159.371 171.796 159.65 172.039 159.971 172.039C159.995 172.039 160.016 172.039 160.04 172.034C160.392 171.996 160.644 171.682 160.606 171.332C160.561 170.909 160.542 170.504 160.549 170.116C161.624 171.416 162.207 171.704 162.39 171.765C162.754 171.325 163.018 169.54 162.942 167.946C162.909 167.242 163.451 166.642 164.155 166.609C164.862 166.575 165.457 167.116 165.492 167.82C165.495 167.87 165.552 169.081 165.392 170.383C165.128 172.539 164.419 173.79 163.228 174.207C162.964 174.3 162.699 174.34 162.44 174.34C160.632 174.34 158.907 172.291 157.563 170.414C155.813 167.97 155.389 165.626 156.3 163.444C156.893 162.028 158.044 160.738 159.742 159.591C156.272 160.9 152.056 163.082 147.396 166.702L132.578 178.214C132.344 178.395 132.069 178.483 131.795 178.483C131.414 178.483 131.038 178.314 130.786 177.988C130.353 177.431 130.453 176.629 131.01 176.196L145.828 164.684C158.891 154.537 168.866 154.822 171.632 155.151C172.068 155.203 172.327 155.256 172.389 155.27C172.988 155.401 173.409 155.941 173.393 156.555L173.395 156.557Z" fill="#481B15"/>
<path d="M169.453 163.28C169.441 163.556 169.251 163.779 168.999 163.858C168.932 163.879 168.861 163.891 168.785 163.889C168.742 163.886 164.343 163.718 162.007 166.204C161.07 167.201 160.582 168.515 160.549 170.119C160.542 170.509 160.558 170.914 160.606 171.335C160.644 171.685 160.39 172.001 160.04 172.037C160.016 172.041 159.995 172.041 159.971 172.041C159.65 172.041 159.371 171.799 159.338 171.473C159.226 170.44 159.257 169.49 159.428 168.62C159.678 167.337 160.228 166.233 161.084 165.326C163.827 162.411 168.644 162.604 168.847 162.616C168.901 162.618 168.951 162.628 169.001 162.644C169.275 162.728 169.467 162.985 169.453 163.284V163.28Z" fill="#481B15"/>
<path d="M99.3703 145.573C99.4036 145.487 99.4274 145.399 99.4393 145.311C99.1395 148.062 98.8969 150.37 98.7042 152.3C97.8739 160.572 97.9215 161.973 97.9239 162.049C97.9239 162.018 97.9191 162.004 97.9191 162.004L95.4665 162.261L95.3808 162.271C95.3665 162.121 95.2999 160.881 96.035 153.333C97.9358 149.325 99.306 145.737 99.3703 145.57V145.573Z" fill="#481B15"/>
<path d="M122.795 94.4252C122.795 94.7417 122.679 95.0605 122.441 95.3056C122.391 95.358 117.45 100.56 112.266 108.417C107.513 115.621 101.573 126.595 100.262 137.975C99.9529 140.671 99.6817 143.069 99.4486 145.202C99.4867 144.657 99.1679 144.128 98.6302 143.924C97.9713 143.674 97.2338 144.002 96.9817 144.661C96.9817 144.666 96.9602 144.721 96.9246 144.811C97.1553 142.698 97.4218 140.335 97.7263 137.684C98.3329 132.416 99.9172 126.81 102.439 121.025C104.444 116.422 107.044 111.692 110.166 106.966C115.475 98.9298 120.39 93.7565 120.597 93.54C121.083 93.0307 121.891 93.0117 122.4 93.4995C122.664 93.7518 122.795 94.0873 122.795 94.4252Z" fill="#481B15"/>
<path d="M170.09 73.8626C170.069 74.4909 169.598 74.9953 168.998 75.0834C168.925 75.0929 168.848 75.0977 168.772 75.0977C168.534 75.0905 145.031 74.41 135.877 82.1009C135.372 82.5245 134.649 82.515 134.18 82.0533C134.016 81.9082 131.69 79.9354 126.682 80.5637C124.201 80.8754 111.49 85.9107 97.9804 92.7926C90.9269 96.3858 84.9273 99.8577 80.6285 102.832C74.1246 107.334 72.8495 109.738 72.6687 110.771C71.9907 114.63 74.1365 125.993 78.0022 139.048C79.7674 144.999 81.6872 150.577 83.4119 154.753C85.7099 160.319 86.9279 161.642 87.2776 161.93C87.8272 161.716 89.6708 160.483 93.1345 153.456C95.0662 149.539 96.6101 145.613 96.9218 144.814C96.9575 144.721 96.9789 144.668 96.9789 144.664C97.231 144.004 97.9661 143.676 98.6275 143.926C99.1651 144.131 99.4839 144.659 99.4458 145.204C99.4434 145.24 99.4387 145.275 99.4339 145.311C99.422 145.399 99.3982 145.487 99.3649 145.573C99.3031 145.739 97.9304 149.328 96.0297 153.335C95.8346 153.744 95.6372 154.158 95.4326 154.572C91.2052 163.151 88.8215 164.355 87.399 164.517C87.3276 164.524 87.2586 164.529 87.1872 164.529C86.5259 164.529 85.8669 164.184 85.2222 163.496C82.2081 160.286 77.8809 147.867 75.0952 138.208C72.1429 127.961 69.2906 115.259 70.1565 110.328C70.6061 107.763 73.5584 104.624 79.1774 100.733C83.5665 97.6922 89.6684 94.1608 96.8242 90.5176C109.913 83.8499 123.216 78.4268 126.366 78.0317C130.824 77.4702 133.669 78.7004 135.018 79.5285C139.29 76.347 146.144 74.2077 155.41 73.1678C162.651 72.3516 168.608 72.5348 168.858 72.5443C168.906 72.5443 168.953 72.5515 169.001 72.5562C169.636 72.649 170.114 73.2059 170.093 73.8603L170.09 73.8626Z" fill="#481B15"/>
<path d="M170.46 193.051C170.464 193.234 170.429 193.408 170.362 193.568C170.345 193.527 170.326 193.487 170.305 193.449C170.293 193.427 170.281 193.406 170.267 193.387C170.248 193.356 170.229 193.327 170.207 193.299C170.188 193.273 170.169 193.249 170.15 193.225C170.129 193.201 170.107 193.177 170.086 193.156C170.065 193.135 170.041 193.113 170.019 193.094C169.996 193.073 169.972 193.054 169.948 193.037C169.9 192.999 169.848 192.966 169.796 192.939C169.772 192.927 169.748 192.913 169.724 192.904C169.715 192.899 169.705 192.894 169.696 192.889C169.646 192.868 169.596 192.849 169.544 192.835C169.517 192.828 169.494 192.82 169.465 192.813C169.437 192.806 169.406 192.801 169.377 192.797C169.368 192.794 169.36 192.794 169.351 192.792C169.349 192.792 169.346 192.792 169.344 192.792C169.32 192.789 169.296 192.787 169.272 192.785C169.244 192.782 169.213 192.78 169.182 192.78H169.18C169.151 192.78 169.12 192.78 169.089 192.785C169.075 192.785 169.058 192.785 169.044 192.789C169.03 192.789 169.016 192.792 168.999 192.794C168.968 192.799 168.939 192.804 168.908 192.811C168.878 192.818 168.849 192.825 168.818 192.835C168.782 192.847 168.747 192.858 168.711 192.873C168.697 192.878 168.682 192.882 168.668 192.889C168.666 192.889 168.661 192.892 168.659 192.894C168.642 192.901 168.625 192.908 168.609 192.918C168.575 192.935 168.542 192.954 168.509 192.973C168.478 192.994 168.445 193.016 168.414 193.037C168.366 193.073 168.318 193.113 168.276 193.156C168.254 193.177 168.233 193.201 168.214 193.223C168.192 193.246 168.173 193.27 168.154 193.296C168.14 193.315 168.126 193.334 168.114 193.356C168.102 193.375 168.088 193.396 168.076 193.415C168.064 193.437 168.052 193.458 168.043 193.48C168.031 193.501 168.021 193.522 168.012 193.546C168.012 193.546 168.012 193.549 168.009 193.553C168.007 193.558 168.004 193.563 168.002 193.568C167.943 193.425 167.907 193.273 167.905 193.108L167.552 177.938C167.721 177.972 167.895 178 168.073 178.019C168.292 178.043 168.514 178.055 168.735 178.055C169.189 178.055 169.646 178.002 170.103 177.9L170.455 193.049L170.46 193.051Z" fill="#481B15"/>
<path d="M173.921 175.884C172.655 176.946 171.38 177.619 170.107 177.902C169.651 178.005 169.194 178.057 168.739 178.057C168.518 178.057 168.297 178.045 168.078 178.021C167.9 178.002 167.726 177.974 167.557 177.94C165.233 177.476 163.891 175.763 163.832 175.685C163.404 175.125 163.508 174.326 164.067 173.895C164.622 173.467 165.421 173.569 165.851 174.124C165.882 174.162 166.846 175.332 168.385 175.487C169.596 175.608 170.907 175.085 172.282 173.931C172.589 173.674 172.981 173.586 173.347 173.657C173.621 173.709 173.878 173.852 174.073 174.081C174.075 174.083 174.08 174.085 174.083 174.09C174.535 174.63 174.466 175.437 173.926 175.889L173.921 175.884Z" fill="#481B15"/>
<path d="M221.649 205.951C221.637 206.87 221.549 207.781 221.375 208.678C221.328 208.926 221.273 209.168 221.211 209.409C220.336 212.873 218.169 215.641 214.764 217.637C209.978 220.443 205.213 221.852 200.527 221.852C199.382 221.852 198.245 221.768 197.113 221.599C196.984 221.58 196.856 221.561 196.725 221.54C196.154 221.447 195.586 221.331 195.017 221.195C194.463 221.062 193.911 220.907 193.359 220.731C193.292 220.712 193.226 220.69 193.159 220.669C192.919 220.591 192.676 220.507 192.434 220.422C189.786 219.47 187.174 218.04 184.643 216.155C184.138 215.779 183.636 215.384 183.137 214.972C182.88 214.76 182.625 214.546 182.371 214.325C182.285 214.251 182.199 214.175 182.114 214.101C182.054 214.051 181.997 213.999 181.938 213.947C181.864 213.882 181.79 213.816 181.719 213.749C181.647 213.685 181.576 213.621 181.507 213.554C181.507 213.554 181.502 213.554 181.502 213.549C181.264 213.333 181.029 213.109 180.793 212.883C178.619 210.796 176.516 208.359 174.525 205.62C172.046 202.21 170.255 199.043 169.184 196.982C169.253 196.851 169.318 196.725 169.379 196.604C169.584 196.204 169.755 195.852 169.896 195.562C169.979 195.39 170.05 195.238 170.112 195.11C170.257 194.8 170.338 194.615 170.355 194.576C170.455 194.346 170.483 194.103 170.448 193.872C170.448 193.867 170.448 193.863 170.445 193.858C170.431 193.76 170.402 193.667 170.364 193.577C170.383 193.617 170.424 193.71 170.49 193.851C170.495 193.86 170.5 193.872 170.505 193.884C170.652 194.2 170.904 194.731 171.261 195.428C171.563 196.026 171.944 196.74 172.393 197.546C173.431 199.402 174.853 201.734 176.626 204.169C177.477 205.337 178.453 206.586 179.545 207.845C179.545 207.845 179.547 207.848 179.547 207.85C180.277 208.692 181.058 209.537 181.888 210.368C182.49 210.972 183.118 211.567 183.774 212.148C183.941 212.295 184.11 212.44 184.279 212.588C187.086 214.989 190.335 217.071 193.958 218.249C194.655 218.475 195.357 218.665 196.061 218.818C196.359 218.884 196.656 218.944 196.956 218.994C197.229 219.041 197.503 219.084 197.777 219.12C198.364 219.198 198.954 219.251 199.547 219.279C201.05 219.351 202.568 219.256 204.093 218.999C207.185 218.48 210.318 217.295 213.47 215.446C215.014 214.542 216.228 213.483 217.127 212.248C217.993 211.065 218.566 209.723 218.863 208.205C218.873 208.159 218.882 208.114 218.89 208.069C220.524 199.16 211.872 187.726 211.784 187.609C211.779 187.602 211.774 187.597 211.769 187.59C212.117 187.473 212.481 187.39 212.857 187.361C212.964 187.352 213.071 187.35 213.178 187.352C213.849 187.354 214.489 187.54 215.117 187.909C217.379 191.312 221.749 198.829 221.647 205.965L221.649 205.951Z" fill="#481B15"/>
<path d="M168.663 192.892C168.682 192.885 168.699 192.878 168.716 192.87C168.701 192.875 168.687 192.88 168.673 192.887C168.67 192.887 168.666 192.889 168.663 192.892Z" fill="#481B15"/>
<path d="M170.355 194.569C170.338 194.607 170.257 194.791 170.112 195.102C170.053 195.231 169.979 195.383 169.896 195.554C169.755 195.845 169.584 196.195 169.379 196.597C169.318 196.718 169.253 196.844 169.184 196.975C168.116 199.036 166.323 202.203 163.844 205.613C162.704 207.184 161.527 208.652 160.318 210.013C160.014 210.358 159.704 210.698 159.395 211.029C159.083 211.362 158.769 211.688 158.455 212.01C157.647 212.828 156.826 213.599 155.998 214.32C155.701 214.577 155.401 214.832 155.101 215.075C152.087 217.545 148.954 219.356 145.766 220.476C145.581 220.541 145.395 220.605 145.21 220.664C145.029 220.724 144.848 220.779 144.667 220.833C144.141 220.993 143.616 221.131 143.088 221.25C142.536 221.378 141.981 221.485 141.425 221.571C141.282 221.595 141.139 221.614 140.997 221.633C139.947 221.778 138.896 221.849 137.84 221.849C133.153 221.849 128.388 220.443 123.602 217.635C120.309 215.705 118.176 213.054 117.245 209.749C117.148 209.399 117.062 209.042 116.991 208.676C116.836 207.879 116.748 207.067 116.724 206.251C116.496 199.181 120.764 191.676 123.095 188.123C123.699 187.711 124.349 187.495 125.051 187.464C125.065 187.464 125.079 187.464 125.096 187.464C125.591 187.447 126.076 187.521 126.537 187.652C126.507 187.692 126.461 187.754 126.399 187.84C126.378 187.868 126.357 187.899 126.333 187.933C126.145 188.192 125.857 188.601 125.503 189.132C125.46 189.199 125.412 189.265 125.367 189.337C125.229 189.548 125.082 189.774 124.927 190.017C124.722 190.341 124.503 190.691 124.277 191.067C124.163 191.255 124.049 191.447 123.933 191.647C123.642 192.144 123.343 192.68 123.04 193.244C122.86 193.582 122.679 193.932 122.498 194.289C122.317 194.648 122.139 195.014 121.965 195.39C121.789 195.766 121.618 196.149 121.451 196.54C121.394 196.671 121.339 196.801 121.285 196.932C121.175 197.196 121.068 197.463 120.966 197.729C120.864 197.996 120.761 198.27 120.664 198.541C120.516 198.95 120.378 199.367 120.252 199.783C120.081 200.34 119.926 200.902 119.793 201.468C119.463 202.881 119.265 204.314 119.265 205.713C119.265 206.553 119.339 207.381 119.496 208.19C119.508 208.247 119.52 208.302 119.532 208.359C119.574 208.564 119.624 208.769 119.677 208.966C119.865 209.666 120.117 210.322 120.435 210.944C120.754 211.565 121.137 212.145 121.589 212.693C122.446 213.73 123.542 214.639 124.889 215.429C127.82 217.147 130.731 218.294 133.608 218.861C134.048 218.949 134.488 219.022 134.926 219.082C135.366 219.141 135.801 219.189 136.239 219.222C136.676 219.256 137.112 219.275 137.545 219.282C137.98 219.289 138.413 219.282 138.846 219.258C139.129 219.246 139.412 219.227 139.693 219.201C139.833 219.189 139.976 219.175 140.116 219.158C140.257 219.141 140.399 219.125 140.54 219.108L141.161 219.018C141.325 218.991 141.489 218.963 141.653 218.932C141.817 218.901 141.981 218.868 142.146 218.834C142.333 218.794 142.524 218.753 142.712 218.708C143.278 218.575 143.842 218.416 144.401 218.232C145.676 217.818 146.903 217.292 148.081 216.678C148.787 216.312 149.477 215.915 150.148 215.489C150.978 214.963 151.78 214.401 152.551 213.809C154.249 212.505 155.808 211.063 157.211 209.592C157.528 209.264 157.832 208.93 158.132 208.6C158.287 208.428 158.439 208.257 158.591 208.086C158.741 207.914 158.891 207.743 159.036 207.572C159.162 207.424 159.286 207.279 159.407 207.131C159.895 206.548 160.359 205.968 160.794 205.401C161.122 204.975 161.434 204.559 161.731 204.15C162.281 203.395 162.795 202.653 163.275 201.93C164.074 200.725 164.781 199.578 165.383 198.541C165.59 198.186 165.785 197.844 165.968 197.518C166.061 197.353 166.149 197.194 166.234 197.037C166.32 196.882 166.403 196.73 166.482 196.58C166.584 196.39 166.682 196.209 166.772 196.033C166.865 195.857 166.951 195.69 167.034 195.531C167.096 195.412 167.153 195.297 167.21 195.188C167.248 195.114 167.284 195.043 167.317 194.974C167.369 194.872 167.419 194.769 167.464 194.676C167.51 194.586 167.55 194.498 167.59 194.419C167.61 194.379 167.629 194.341 167.648 194.303C167.738 194.115 167.812 193.958 167.869 193.836C167.926 193.713 167.964 193.629 167.985 193.582C167.988 193.575 167.99 193.57 167.993 193.563V193.56C167.995 193.556 167.997 193.551 168 193.546C168.002 193.541 168.002 193.541 168.002 193.539C168.012 193.515 168.023 193.494 168.033 193.472C168.042 193.451 168.054 193.429 168.066 193.408C168.078 193.387 168.09 193.368 168.104 193.349C168.116 193.327 168.13 193.308 168.145 193.289C168.164 193.263 168.183 193.239 168.204 193.215C168.223 193.192 168.245 193.17 168.266 193.149C168.309 193.106 168.356 193.065 168.404 193.03C168.435 193.006 168.466 192.984 168.499 192.965C168.533 192.946 168.566 192.927 168.599 192.911C168.616 192.901 168.632 192.894 168.649 192.887C168.668 192.88 168.685 192.873 168.701 192.866C168.737 192.851 168.773 192.839 168.808 192.827C168.837 192.818 168.868 192.811 168.899 192.804C168.927 192.796 168.958 192.792 168.989 192.787C169.004 192.785 169.018 192.782 169.034 192.782C169.049 192.78 169.065 192.78 169.08 192.777C169.108 192.775 169.139 192.773 169.17 192.773H169.172C169.201 192.773 169.232 192.773 169.263 192.777C169.287 192.777 169.31 192.782 169.334 192.785C169.337 192.785 169.339 192.785 169.341 192.785C169.351 192.785 169.358 192.785 169.368 192.789C169.396 192.794 169.427 192.799 169.456 192.806C169.482 192.813 169.508 192.818 169.534 192.827C169.584 192.842 169.636 192.861 169.686 192.882C169.696 192.887 169.708 192.892 169.715 192.896C169.739 192.906 169.762 192.92 169.786 192.932C169.841 192.961 169.891 192.994 169.938 193.03C169.962 193.049 169.986 193.068 170.01 193.087C170.034 193.108 170.055 193.127 170.076 193.149C170.098 193.17 170.119 193.194 170.141 193.218C170.162 193.241 170.181 193.265 170.198 193.291C170.219 193.32 170.238 193.349 170.257 193.38C170.272 193.401 170.283 193.42 170.295 193.441C170.317 193.479 170.336 193.52 170.352 193.56C170.39 193.651 170.417 193.744 170.433 193.841C170.433 193.846 170.436 193.851 170.436 193.855C170.471 194.086 170.445 194.331 170.343 194.56L170.355 194.569Z" fill="#481B15"/>
<path d="M131.821 189.206C131.766 189.306 131.7 189.399 131.619 189.484C131.557 189.548 131.488 189.608 131.417 189.656C131.307 189.729 131.193 189.784 131.069 189.822C130.948 189.86 130.822 189.879 130.696 189.879C130.379 189.879 130.063 189.763 129.816 189.527C129.809 189.52 129.713 189.432 129.544 189.294C129.042 188.882 127.896 188.033 126.54 187.652C126.078 187.521 125.591 187.447 125.098 187.464C125.084 187.464 125.07 187.464 125.053 187.464C124.351 187.495 123.702 187.714 123.098 188.123C122.748 188.359 122.41 188.661 122.084 189.032C121.618 189.56 120.811 189.613 120.283 189.144C119.755 188.678 119.703 187.871 120.171 187.343C121.525 185.805 123.136 184.987 124.955 184.911C128.488 184.761 131.452 187.559 131.576 187.678C131.631 187.728 131.676 187.785 131.721 187.842C131.788 187.935 131.845 188.033 131.885 188.137C132.019 188.482 131.999 188.875 131.821 189.206Z" fill="#481B15"/>
<path d="M217.798 188.437C217.331 188.965 216.522 189.013 215.997 188.544C215.706 188.287 215.414 188.071 215.116 187.895C214.491 187.526 213.849 187.34 213.178 187.338C213.071 187.338 212.964 187.338 212.857 187.347C212.483 187.376 212.119 187.459 211.769 187.576C209.85 188.223 208.398 189.955 208.382 189.974C208.13 190.279 207.763 190.438 207.394 190.438C207.109 190.438 206.824 190.343 206.586 190.148C206.043 189.701 205.962 188.901 206.407 188.356C206.433 188.323 206.614 188.106 206.923 187.792C207.863 186.843 209.99 185.015 212.642 184.801C214.46 184.656 216.156 185.27 217.688 186.631C218.216 187.097 218.264 187.907 217.795 188.435L217.798 188.437Z" fill="#481B15"/>
<path d="M184.845 178.29C184.593 178.595 184.229 178.752 183.862 178.752C183.574 178.752 183.284 178.657 183.046 178.459L181.084 176.827C180.541 176.377 180.468 175.571 180.917 175.028C181.369 174.485 182.173 174.412 182.716 174.861L184.678 176.494C185.221 176.944 185.294 177.748 184.845 178.293V178.29Z" fill="#481B15"/>
<path d="M192.462 184.62C192.21 184.925 191.846 185.082 191.48 185.082C191.192 185.082 190.902 184.984 190.664 184.787L186.855 181.622C186.313 181.172 186.239 180.368 186.688 179.823C187.138 179.28 187.945 179.207 188.487 179.656L192.296 182.821C192.838 183.271 192.912 184.075 192.462 184.62Z" fill="#481B15"/>
<path d="M198.371 189.215C198.333 189.287 198.288 189.353 198.236 189.417C197.984 189.722 197.62 189.879 197.253 189.879C196.965 189.879 196.678 189.781 196.44 189.584L196.392 189.544L194.477 187.952C193.935 187.502 193.859 186.697 194.311 186.153C194.763 185.608 195.567 185.534 196.109 185.986L198.074 187.618C198.552 188.016 198.666 188.689 198.376 189.215H198.371Z" fill="#481B15"/>
<path d="M182.93 187.614C182.678 187.918 182.314 188.075 181.947 188.075C181.659 188.075 181.369 187.98 181.131 187.783L179.169 186.15C178.626 185.7 178.553 184.894 179.002 184.351C179.454 183.809 180.258 183.735 180.801 184.185L182.763 185.817C183.306 186.267 183.379 187.071 182.93 187.616V187.614Z" fill="#481B15"/>
<path d="M190.547 193.943C190.295 194.248 189.931 194.405 189.565 194.405C189.277 194.405 188.987 194.308 188.749 194.11L185.442 191.362L184.942 190.945C184.4 190.495 184.326 189.691 184.776 189.146C185.225 188.604 186.032 188.53 186.574 188.98L188.775 190.807L190.383 192.144C190.925 192.594 190.999 193.399 190.55 193.943H190.547Z" fill="#481B15"/>
<path d="M196.321 198.741C196.069 199.045 195.705 199.203 195.338 199.203C195.05 199.203 194.763 199.105 194.525 198.907L192.562 197.275C192.02 196.825 191.944 196.021 192.396 195.476C192.848 194.931 193.652 194.857 194.194 195.309L196.159 196.942C196.701 197.392 196.775 198.198 196.325 198.741H196.321Z" fill="#481B15"/>
<path d="M154.157 178.485L152.194 180.118C151.956 180.315 151.666 180.41 151.378 180.41C151.012 180.41 150.648 180.253 150.396 179.949C149.946 179.406 150.02 178.602 150.562 178.15L152.527 176.517C153.07 176.068 153.874 176.141 154.326 176.684C154.775 177.227 154.702 178.033 154.159 178.483L154.157 178.485Z" fill="#481B15"/>
<path d="M148.383 183.283L144.574 186.448C144.336 186.645 144.046 186.743 143.758 186.743C143.392 186.743 143.028 186.586 142.776 186.281C142.326 185.739 142.4 184.934 142.942 184.482L146.751 181.317C147.293 180.867 148.098 180.941 148.55 181.484C148.999 182.026 148.925 182.831 148.383 183.283Z" fill="#481B15"/>
<path d="M140.985 189.379C140.923 189.463 140.851 189.544 140.766 189.613L138.803 191.245C138.565 191.443 138.275 191.54 137.987 191.54C137.621 191.54 137.257 191.383 137.005 191.078C136.555 190.536 136.629 189.729 137.171 189.279L137.704 188.834L139.134 187.647C139.676 187.197 140.48 187.271 140.932 187.814C141.313 188.273 141.32 188.918 140.985 189.377V189.379Z" fill="#481B15"/>
<path d="M156.072 187.809L154.109 189.441C153.871 189.639 153.581 189.734 153.293 189.734C152.927 189.734 152.563 189.577 152.311 189.272C151.861 188.73 151.935 187.925 152.477 187.473L154.442 185.841C154.985 185.391 155.789 185.465 156.241 186.007C156.69 186.55 156.617 187.357 156.074 187.806L156.072 187.809Z" fill="#481B15"/>
<path d="M150.298 192.604L146.489 195.769C146.251 195.966 145.961 196.064 145.673 196.064C145.307 196.064 144.943 195.907 144.691 195.602C144.241 195.06 144.315 194.255 144.857 193.803L148.652 190.65L148.666 190.638C149.208 190.189 150.013 190.262 150.465 190.805C150.507 190.857 150.545 190.912 150.579 190.969C150.895 191.5 150.788 192.195 150.298 192.601V192.604Z" fill="#481B15"/>
<path d="M142.681 198.934L140.718 200.566C140.48 200.764 140.19 200.861 139.902 200.861C139.536 200.861 139.172 200.704 138.92 200.4C138.47 199.857 138.544 199.05 139.086 198.601L141.049 196.968C141.591 196.518 142.395 196.592 142.847 197.135C143.297 197.677 143.223 198.482 142.681 198.934Z" fill="#481B15"/>
<path d="M144.974 233.383C143.335 233.383 142 232.048 142 230.409C142 228.769 143.335 227.434 144.974 227.434C146.613 227.434 147.948 228.769 147.948 230.409C147.948 232.048 146.613 233.383 144.974 233.383ZM144.974 228.386C143.858 228.386 142.952 229.293 142.952 230.409C142.952 231.525 143.858 232.432 144.974 232.432C146.09 232.432 146.996 231.525 146.996 230.409C146.996 229.293 146.09 228.386 144.974 228.386Z" fill="#D2AD79"/>
<path d="M198.5 230.766C196.861 230.766 195.526 229.431 195.526 227.791C195.526 226.152 196.861 224.817 198.5 224.817C200.139 224.817 201.473 226.152 201.473 227.791C201.473 229.431 200.139 230.766 198.5 230.766ZM198.5 225.769C197.384 225.769 196.478 226.675 196.478 227.791C196.478 228.907 197.384 229.814 198.5 229.814C199.615 229.814 200.522 228.907 200.522 227.791C200.522 226.675 199.615 225.769 198.5 225.769Z" fill="#D2AD79"/>
</g>
<defs>
<clipPath id="clip0_59_1286">
<rect width="198" height="205" fill="white" transform="translate(70 72.5208)"/>
</clipPath>
</defs>
</svg>
