<?xml version="1.0" encoding="utf-8"?>
<!-- Generator: Adobe Illustrator 26.0.1, SVG Export Plug-In . SVG Version: 6.00 Build 0)  -->
<svg version="1.1" id="Layer_1" xmlns="http://www.w3.org/2000/svg" xmlns:xlink="http://www.w3.org/1999/xlink" x="0px" y="0px"
	 viewBox="0 0 137 139" style="enable-background:new 0 0 137 139;" xml:space="preserve">
<style type="text/css">
	.st0{fill:none;stroke:#A18E7D;}
</style>
<path class="st0" d="M81.7,53l-0.1-0.5c5.7-1.5,10.4-4.7,14.2-8.6c4.3-4.5,7.2-9.1,8.8-13.9c1.2-3.5,1.8-7.1,1-10.8v0
	c-0.8-4.2-3.8-7.3-8.1-7.9c-3.3-0.5-6.4,0.1-9.4,1.5 M81.7,53l-0.1-0.5c-3.3,0.8-6.5,0.8-9.5-0.9 M130.3,108.6
	c-3.8,3.7-8.3,6.1-13.3,7.8l0,0c-5.9,2-11.9,2.6-18,1.5c-3.3-0.6-6.3-1.8-8.7-3.9c-2.9-2.5-4.3-6.4-2.8-10.6c1.1-3.3,3.2-5.8,5.9-8
	c7.4-6,16-8.4,25.5-8c3.9,0.1,7.6,1.1,11,3.3c5,3.2,6.4,9,3.3,14.1c-0.6,0.9-1.2,1.8-1.9,2.7C130.9,107.7,130.6,108.1,130.3,108.6z
	 M72,51.6c-2.7-1.5-4.1-4-4.7-7 M67.4,44.6 M72,51.6 M67.4,44.6c-0.7-4.1,0.1-8,1.7-11.8 M69,32.7 M67.4,44.6 M69,32.7
	c3.9-9.1,10.1-15.9,19.1-20 M41,131.6l0.2,0l-1.2-0.9c-0.9-0.7-1.7-1.6-2.5-2.7c-0.3-0.4-0.6-0.9-1-1.4c-0.1-0.1-0.1-0.2-0.2-0.2
	c-0.4-0.5-0.8-1.1-1.2-1.6h0c-0.7-0.9-1.4-1.8-2.1-2.8c-3.6-4.7-7.2-9.4-10.9-14.1l-0.4,0.3l0.4-0.3c-3.3-4.2-7-8.1-10.9-11.9
	c-3.6-3.5-6.7-7.5-8.5-12.2c-2.1-5.4-2.7-10.7-0.2-16l0,0c1.9-4.2,4.6-7.6,8.6-9.9c4-2.3,8-3.6,12.6-3.1h0c2.3,0.2,4.6,0.7,6.7,1.6
	c7.1,3,14.5,3.5,22,2.7l0-0.5l0,0.5c1.4-0.1,2.8-0.3,4.3-0.5c2.6-0.3,5.2-0.6,7.8-0.8c3.4-0.3,6.7,0.3,9.7,2l0,0
	C78.6,62.3,80.7,66,81,71v0c0.3,4.4-0.6,8.7-1.8,13c-1.8,6.8-3.4,13.7-3.9,20.8c-0.3,3.9-0.3,7.8-0.3,11.6c0,4.6-1.5,8.7-3.8,12.6
	l0.4,0.3l-0.4-0.3c-2.1,3.5-5,6.2-8.8,7.8c-4.9,2-9.7,1.5-14.5-0.7C45.4,135,43.2,133.5,41,131.6z M135.2,58.9
	c-0.9,3.2-2.7,6-5.1,8.4l0,0c-5,5-10.9,8.2-17.8,10l0.1,0.5l-0.1-0.5c-4.3,1.1-8.6,1.5-12.9,0.6h0c-2.8-0.5-5.2-1.5-7.3-3.5
	c-1.5-1.4-2.4-3-2.7-4.6c-0.4-1.7-0.3-3.5,0.3-5.4v0c1-3.6,3.1-6.5,5.8-9c5.2-5,11.4-8.1,18.3-9.6l0,0c4.2-0.9,8.5-1.2,12.7-0.1h0
	c2.6,0.7,5,1.8,6.8,3.8v0C135.7,52.3,136.2,55.4,135.2,58.9L135.2,58.9z M30.8,27.1L30.8,27.1c1-6,3.4-11.4,7-16.3
	C40.6,7,44,3.9,48.3,2c3-1.3,6.1-1.6,9.1-0.2c2.5,1.2,4,3.2,5.1,5.7c1.6,3.7,1.6,7.5,1.2,11.5c-0.6,6.2-3,11.7-6.4,16.9l0,0
	c-0.7,1.1-1.6,2.2-2.4,3.2c-0.4,0.5-0.8,1-1.2,1.5c-2.7,2.6-5.6,4.8-9.1,5.9l0.1,0.5c-6.1,1.9-11.2-0.6-13.5-6.6l0.5-0.2l0,0
	C30,36,30,31.6,30.8,27.1z"/>
</svg>
