<?xml version="1.0" encoding="utf-8"?>
<!-- Generator: Adobe Illustrator 26.0.1, SVG Export Plug-In . SVG Version: 6.00 Build 0)  -->
<svg version="1.1" id="Layer_1" xmlns="http://www.w3.org/2000/svg" xmlns:xlink="http://www.w3.org/1999/xlink" x="0px" y="0px"
	 viewBox="0 0 227 359" style="enable-background:new 0 0 227 359;" xml:space="preserve">
<style type="text/css">
	.st0{fill:none;stroke:#A18E7D;}
</style>
<path class="st0" d="M109.7,194.3l0.4-0.2c7.2,13.8,18.5,23.7,30.8,31.1c14.1,8.2,27.7,12.8,40.8,14 M109.7,194.3l0.4-0.2
	c-4.2-8-6.1-16.4-3.6-25.3c2.3-8.1,7.9-13.2,15.5-16.6c10.1-4.4,20.7-4.8,31.4-3c25.5,4.3,46.7,16.1,62.6,36.7
	c5.3,6.8,8.8,14.5,9.5,23.2c1,11.5-5.1,21.3-15.5,26.1l0.2,0.5 M181.7,239.2c9.8,0.9,19.3,0.3,28.3-3.9l0.2,0.5 M181.7,239.2
	l28.5-3.5 M-113.8,136.5l0.1,0.2l0.6-1.3c1.3-2.9,3.2-5.5,5.4-8.1c0.9-1.1,1.9-2.2,2.9-3.3c0.2-0.2,0.3-0.4,0.5-0.6
	c1.2-1.3,2.3-2.6,3.4-3.9l-0.4-0.3l0.4,0.3c1.9-2.3,3.8-4.7,5.7-7c9.8-11.9,19.6-23.9,29.2-36c8.7-11,16.3-22.6,23.5-34.7
	c6.8-11.4,15.1-21.6,26.1-29.3C-4,3.8,9.4-0.9,24.6,2.2l0.1-0.5l-0.1,0.5c11.8,2.4,22.3,7.1,30.8,16.1c8.3,8.7,14.1,18.4,15.7,30.4
	v0c0.8,6.1,1,12.3-0.1,18.3c-3.3,19.6-0.1,38.5,6.3,56.9c1.2,3.5,2.5,7,3.7,10.5c2.3,6.4,4.5,12.8,6.6,19.2
	c2.8,8.6,3.3,17.4,0.7,26.3l0.5,0.1l-0.5-0.1c-3.6,12.6-11.9,20.4-24.5,24.2l0.1,0.5l-0.1-0.5c-11.2,3.4-22.6,3.6-34.2,3.4
	c-18.3-0.5-36.7-0.2-54.8,2.7c-10,1.6-19.8,3.8-29.7,6.1c-11.8,2.8-23.3,1.5-34.7-2.1c-10.4-3.3-19.1-9.1-25.4-18
	c-8.2-11.4-9.9-24.1-7.1-37.7C-120.6,150.9-117.8,143.7-113.8,136.5z M126.9,334.9l0-0.5c-8.9-0.4-17.1-3.4-24.8-7.9l-0.2-0.1
	c-15.8-9.7-27.7-22.9-36.3-39.3c-5.4-10.3-9-21-9.5-32.7l-0.5,0l0.5,0c-0.3-7.4,0.7-14.4,4.5-20.9c2.8-4.8,6.3-8,10.4-10.1
	c4.1-2,8.9-2.8,14.2-2.7h0c9.8,0.3,18.6,4.1,26.8,9.4c15.8,10.2,27.5,24.1,35.6,40.9l0.4-0.2l-0.4,0.2c5,10.2,8.2,21,7.9,32.5l0,0
	c-0.1,7.2-1.4,14-5.7,20l0,0c-5.6,7.9-13.5,11.2-23,10.8L126.9,334.9z M102.9,97l-0.4,0.3L102.9,97c-4.2-7.1-5.4-14.2-4-20.6
	c1.4-6.4,5.6-12.3,12.4-17c9.9-6.9,21.3-9.5,33.1-10.2l0-0.5l0,0.5c15.9-1,31.2,1.7,45.9,8c11.4,4.9,21.5,11.5,28.9,21.5
	c5.2,7,7.9,14.8,6,23.5c-1.5,7.2-6,12.5-11.8,16.9c-8.5,6.3-18.4,8.8-28.7,10.2c-16.2,2.1-31.8-0.5-47-6l0,0
	c-3.3-1.2-6.5-2.7-9.8-4.3c-1.5-0.7-2.9-1.4-4.4-2.1C115.3,111.5,107.9,105.5,102.9,97z M1.5,353.3c-1.3-0.5-2.5-1.1-3.8-1.6
	c-11.7-7.6-20.7-17.6-28-29.3l-0.4,0.3l0.4-0.3c-8.6-13.8-13.8-28.7-14.7-45c-0.5-8.7,0.7-17.1,4.7-24.9c4.6-9,14-15.2,25.9-14
	c9.1,0.9,17,4.8,24.2,10.3l0.3-0.4l-0.3,0.4c19.8,15.3,31.2,35.9,36,60.2c2,10.1,1.8,20.3-1.6,30.2c-5.2,15.1-19.4,22.3-34.6,17.4
	C6.9,355.6,4.2,354.4,1.5,353.3z"/>
</svg>
