<svg width="408" height="329" viewBox="0 0 408 329" fill="none" xmlns="http://www.w3.org/2000/svg">
<path d="M236.591 307.232C236.546 307.621 236.499 308.005 236.441 308.38C236.141 310.429 235.66 312.331 235.002 314.08C235.475 313.975 235.946 313.867 236.417 313.76H236.42C236.42 313.76 236.422 313.76 236.425 313.757C242.767 311.401 248.744 308.412 254.197 304.866C254.06 304.826 253.92 304.782 253.784 304.737C253.286 304.574 252.787 304.406 252.289 304.227C246.831 302.268 241.452 299.329 236.233 295.449C236.841 299.481 237.014 303.471 236.591 307.232Z" fill="#EFD5A2"/>
<path d="M402.494 78.6817C402.12 76.5594 399.493 71.616 386.093 62.3545C377.236 56.2343 364.873 49.0925 350.337 41.7011C322.501 27.5487 296.304 17.1891 291.193 16.5482C280.879 15.2559 276.081 19.3141 275.747 19.6109C274.779 20.5618 273.293 20.5801 272.251 19.7081C253.385 3.88512 204.953 5.2825 204.466 5.30089C204.308 5.30351 204.151 5.29301 204.001 5.27199C203.848 5.29301 203.693 5.30351 203.535 5.30089C203.046 5.28513 154.613 3.88512 135.748 19.7081C134.709 20.5801 133.22 20.5591 132.254 19.6109C131.918 19.3141 127.12 15.2533 116.805 16.5482C111.694 17.1891 85.5002 27.5487 57.6618 41.7011C43.1258 49.0925 30.7625 56.2343 21.9083 62.3545C8.50606 71.616 5.87821 76.5594 5.50468 78.6817C4.1079 86.6221 8.5271 109.997 16.4975 136.846C20.1328 149.087 24.0916 160.562 27.6454 169.154C32.3803 180.604 34.8924 183.325 35.6105 183.919C36.7416 183.477 40.5427 180.943 47.6818 166.486C51.6617 158.427 54.8446 150.353 55.4838 148.708C55.9599 144.361 56.5097 139.499 57.1357 134.046C58.3852 123.209 61.6522 111.678 66.8448 99.779C70.9773 90.3099 76.333 80.5808 82.7645 70.8622C93.7046 54.33 103.835 43.6894 104.261 43.2429C105.263 42.1949 106.928 42.1581 107.978 43.1589C108.519 43.6763 108.793 44.3671 108.793 45.0606C108.793 45.712 108.551 46.366 108.064 46.873C107.962 46.9806 97.7819 57.6816 87.0969 73.8434C77.3036 88.6604 65.0613 111.236 62.3625 134.645C61.7233 140.193 61.1682 145.123 60.6842 149.509C60.6816 149.583 60.6737 149.657 60.6606 149.73C60.0424 155.391 59.5452 160.134 59.1454 164.108C62.4256 158.753 65.6348 156.588 65.9294 156.399C67.1473 155.609 68.7782 155.955 69.5674 157.174C70.3591 158.39 70.0119 160.016 68.794 160.807C68.7782 160.817 65.3823 163.15 62.2941 169.27C59.4006 174.996 56.1993 185.279 57.3593 201.759C59.4663 231.7 72.6661 256.322 96.2878 275.09C95.8169 260.546 104.611 245.107 109.416 237.799C108.696 238.285 108.001 238.908 107.331 239.667C106.37 240.754 104.708 240.859 103.619 239.898C102.53 238.939 102.425 237.279 103.387 236.192C106.178 233.032 109.495 231.348 113.246 231.191C120.525 230.883 126.633 236.638 126.891 236.883C127.001 236.988 127.099 237.101 127.188 237.219C127.327 237.408 127.441 237.613 127.525 237.826C127.801 238.535 127.759 239.341 127.391 240.024C127.28 240.229 127.141 240.421 126.972 240.597C126.843 240.731 126.701 240.849 126.554 240.951C126.33 241.104 126.091 241.217 125.839 241.293C125.589 241.369 125.331 241.408 125.07 241.408C124.418 241.408 123.766 241.167 123.258 240.683C123.242 240.67 123.045 240.486 122.7 240.203C121.667 239.354 119.302 237.607 116.511 236.825C116.448 236.909 116.353 237.038 116.227 237.211C116.185 237.269 116.137 237.332 116.09 237.4C115.701 237.936 115.109 238.776 114.378 239.869C114.288 240.006 114.193 240.145 114.099 240.289C113.815 240.723 113.51 241.19 113.191 241.689C112.768 242.354 112.321 243.074 111.855 243.846C111.621 244.232 111.384 244.631 111.145 245.041C110.545 246.065 109.927 247.166 109.306 248.324C108.932 249.02 108.559 249.74 108.188 250.475C107.817 251.214 107.449 251.97 107.089 252.742C106.728 253.515 106.373 254.305 106.028 255.109C105.913 255.377 105.8 255.647 105.686 255.918C105.463 256.459 105.242 257.008 105.029 257.56C104.816 258.111 104.608 258.671 104.408 259.23C104.106 260.073 103.821 260.927 103.558 261.786C103.206 262.931 102.888 264.087 102.614 265.25C101.933 268.158 101.525 271.103 101.528 273.984C101.528 275.712 101.678 277.417 102.004 279.08C102.027 279.195 102.051 279.311 102.077 279.426C102.167 279.849 102.267 280.267 102.377 280.677C102.764 282.114 103.285 283.469 103.942 284.745C104.6 286.022 105.389 287.22 106.32 288.344C108.083 290.479 110.345 292.347 113.12 293.973C119.157 297.508 125.157 299.864 131.086 301.033C131.994 301.215 132.899 301.364 133.804 301.49C134.709 301.614 135.608 301.711 136.51 301.779C137.41 301.848 138.307 301.887 139.204 301.9C140.101 301.913 140.995 301.897 141.887 301.853C142.471 301.827 143.052 301.787 143.634 301.737C143.923 301.711 144.215 301.682 144.504 301.651C144.794 301.619 145.086 301.582 145.375 301.546L146.654 301.362C146.993 301.306 147.33 301.249 147.669 301.186C148.008 301.123 148.345 301.054 148.682 300.983C149.071 300.902 149.46 300.815 149.85 300.723C151.015 300.448 152.178 300.119 153.332 299.746C155.958 298.895 158.488 297.813 160.916 296.552C162.373 295.798 163.794 294.979 165.177 294.107C166.887 293.027 168.539 291.869 170.131 290.65C173.632 287.968 176.844 285.003 179.734 281.977C180.384 281.299 181.015 280.616 181.631 279.936C181.952 279.581 182.265 279.229 182.575 278.877C182.886 278.523 183.194 278.171 183.493 277.819C183.751 277.517 184.006 277.217 184.259 276.915C185.264 275.715 186.219 274.522 187.118 273.356C187.794 272.482 188.439 271.623 189.052 270.782C190.183 269.232 191.243 267.701 192.234 266.214C193.884 263.737 195.336 261.376 196.577 259.243C197.004 258.513 197.406 257.809 197.782 257.137C197.972 256.798 198.153 256.47 198.329 256.149C198.506 255.829 198.677 255.516 198.84 255.211C199.05 254.82 199.25 254.447 199.439 254.085C199.629 253.725 199.808 253.381 199.979 253.052C200.105 252.805 200.223 252.572 200.339 252.346C200.415 252.196 200.489 252.049 200.557 251.907C200.665 251.694 200.768 251.487 200.862 251.295C200.955 251.109 201.041 250.93 201.123 250.764C201.162 250.68 201.202 250.602 201.239 250.523C201.425 250.134 201.578 249.811 201.694 249.561C201.812 249.309 201.891 249.133 201.933 249.039C201.938 249.023 201.944 249.012 201.949 249.002C201.949 249.002 201.949 248.997 201.951 248.997C201.83 248.705 201.757 248.387 201.749 248.054L201.026 216.849C196.235 215.893 193.473 212.371 193.35 212.21C192.466 211.06 192.682 209.413 193.834 208.528C194.978 207.648 196.622 207.858 197.509 208.995C197.572 209.072 199.558 211.483 202.727 211.801C205.221 212.05 207.925 210.973 210.758 208.599C211.392 208.068 212.2 207.887 212.952 208.034C208.999 205 207.994 197.808 207.815 196.188C207.657 194.746 208.699 193.448 210.143 193.291C211.579 193.13 212.884 194.17 213.044 195.613C213.457 199.29 215.064 203.703 216.595 204.102C216.779 204.149 218.274 204.386 221.409 200.724C221.333 197.441 220.331 194.748 218.405 192.705C213.597 187.591 204.532 187.937 204.44 187.943C204.285 187.948 204.137 187.922 203.998 187.88C203.861 187.922 203.714 187.948 203.559 187.943C203.469 187.937 194.405 187.591 189.593 192.705C187.663 194.756 186.658 197.459 186.589 200.756C188.807 203.427 190.004 204.02 190.385 204.149C191.138 203.246 191.679 199.571 191.524 196.293C191.453 194.843 192.574 193.611 194.023 193.543C195.48 193.474 196.706 194.586 196.777 196.035C196.783 196.141 196.901 198.631 196.572 201.307C196.028 205.744 194.568 208.315 192.111 209.171C191.566 209.36 191.024 209.447 190.488 209.447C186.76 209.447 183.209 205.234 180.439 201.37C176.83 196.343 175.957 191.52 177.838 187.034C179.058 184.121 181.431 181.471 184.93 179.109C177.777 181.802 169.092 186.288 159.488 193.734L128.95 217.414C128.469 217.784 127.903 217.965 127.338 217.965C126.554 217.965 125.778 217.616 125.26 216.949C124.368 215.804 124.576 214.154 125.723 213.264L156.26 189.584C183.178 168.713 203.73 169.299 209.433 169.976C216.769 170.244 230.916 173.438 251.739 189.584L282.276 213.264C283.425 214.154 283.633 215.804 282.741 216.949C282.223 217.616 281.447 217.965 280.661 217.965C280.098 217.965 279.53 217.784 279.051 217.414L248.514 193.734C239.712 186.91 232.286 182.597 226.318 179.876C228.185 181.565 229.711 183.519 230.624 185.77C232.573 190.575 231.542 195.823 227.562 201.37C223.077 207.622 219.055 210.175 215.262 209.184C214.978 209.108 214.709 209.011 214.446 208.903C214.452 208.909 214.459 208.914 214.465 208.922C215.398 210.033 215.254 211.69 214.141 212.623C211.534 214.808 208.906 216.192 206.284 216.773L207.01 247.933C207.018 248.308 206.944 248.668 206.81 248.997C206.847 249.078 206.934 249.27 207.068 249.559C207.078 249.58 207.089 249.603 207.099 249.627C207.402 250.276 207.923 251.369 208.657 252.803C209.28 254.029 210.061 255.498 210.99 257.158C213.128 260.974 216.056 265.773 219.71 270.782C221.464 273.186 223.474 275.754 225.723 278.347C225.726 278.35 225.728 278.352 225.728 278.355C227.233 280.086 228.84 281.825 230.553 283.535H230.555C231.794 284.78 233.091 286.004 234.441 287.196C234.785 287.498 235.132 287.8 235.482 288.1C241.267 293.038 247.961 297.322 255.429 299.746C256.865 300.211 258.309 300.603 259.762 300.915H259.764C260.377 301.052 260.99 301.173 261.605 301.275C262.168 301.375 262.731 301.461 263.297 301.532C264.51 301.695 265.725 301.803 266.945 301.858C270.044 302.003 273.169 301.811 276.315 301.283C282.686 300.216 289.141 297.779 295.641 293.973C298.821 292.113 301.323 289.933 303.178 287.396C304.961 284.963 306.145 282.2 306.758 279.08C306.776 278.985 306.794 278.893 306.81 278.799C310.18 260.47 292.35 236.953 292.169 236.714C292.158 236.701 292.148 236.688 292.14 236.675C288.184 238.004 285.196 241.569 285.159 241.611C284.638 242.238 283.886 242.564 283.125 242.564C282.539 242.564 281.947 242.37 281.458 241.968C280.34 241.048 280.171 239.401 281.089 238.28C281.145 238.212 281.516 237.765 282.152 237.122C284.088 235.17 288.473 231.409 293.937 230.97C297.68 230.671 301.176 231.937 304.335 234.734C305.421 235.695 305.521 237.358 304.556 238.443C303.593 239.528 301.931 239.627 300.844 238.663C300.245 238.133 299.642 237.689 299.032 237.329C303.696 244.329 312.7 259.79 312.489 274.47C335.624 255.781 348.553 231.369 350.639 201.759C351.802 185.279 348.598 174.996 345.707 169.27C342.616 163.15 339.22 160.817 339.186 160.794C337.968 160.003 337.632 158.382 338.423 157.166C339.212 155.95 340.851 155.611 342.069 156.399C342.364 156.588 345.576 158.753 348.853 164.106C348.453 160.121 347.954 155.364 347.333 149.685C347.325 149.646 347.322 149.607 347.32 149.567C346.836 145.168 346.278 140.216 345.636 134.645C342.94 111.236 330.698 88.6604 320.902 73.8434C310.219 57.6816 300.039 46.9806 299.937 46.873C298.935 45.8249 298.971 44.1622 300.021 43.1589C301.073 42.1581 302.736 42.1949 303.74 43.2429C304.167 43.6894 314.297 54.33 325.234 70.8622C331.666 80.5808 337.024 90.3099 341.154 99.779C346.349 111.678 349.613 123.209 350.863 134.046C351.492 139.499 352.039 144.361 352.517 148.706C353.154 150.353 356.337 158.427 360.317 166.486C367.459 180.943 371.26 183.477 372.391 183.919C373.106 183.325 375.621 180.604 380.356 169.154C383.91 160.562 387.866 149.087 391.501 136.846C399.474 109.997 403.891 86.6221 402.494 78.6817ZM177.701 233.447C178.63 234.563 178.477 236.221 177.359 237.148L173.313 240.505C172.822 240.912 172.224 241.109 171.633 241.109C170.878 241.109 170.128 240.786 169.607 240.161C168.679 239.044 168.834 237.389 169.949 236.462L173.997 233.105C175.115 232.178 176.773 232.333 177.701 233.447ZM166.003 217.288L170.052 213.931C171.17 213.004 172.827 213.159 173.755 214.272C174.684 215.389 174.531 217.046 173.413 217.973L169.368 221.33C168.876 221.737 168.279 221.934 167.687 221.934C166.932 221.934 166.182 221.611 165.661 220.986C164.733 219.87 164.888 218.215 166.003 217.288ZM165.806 243.315C165.896 243.423 165.974 243.536 166.043 243.654C166.695 244.744 166.474 246.176 165.464 247.014L157.617 253.522C157.125 253.93 156.528 254.129 155.937 254.129C155.182 254.129 154.432 253.806 153.911 253.181C152.982 252.065 153.138 250.41 154.256 249.483L162.073 242.997L162.102 242.974C163.22 242.047 164.878 242.199 165.806 243.315ZM150.31 230.308L158.157 223.799C159.275 222.872 160.932 223.024 161.86 224.141C162.789 225.257 162.636 226.912 161.518 227.839L153.672 234.348C153.18 234.755 152.583 234.955 151.991 234.955C151.236 234.955 150.486 234.632 149.965 234.006C149.037 232.89 149.192 231.235 150.31 230.308ZM150.11 256.336C151.039 257.452 150.886 259.107 149.768 260.034L145.722 263.391C145.23 263.798 144.633 263.998 144.041 263.998C143.287 263.998 142.537 263.674 142.016 263.049C141.09 261.933 141.243 260.276 142.361 259.348L146.406 255.991C147.524 255.067 149.181 255.219 150.11 256.336ZM138.415 240.174L139.514 239.26L142.461 236.817C143.579 235.892 145.236 236.045 146.164 237.161C146.948 238.104 146.961 239.43 146.272 240.379C146.146 240.552 145.996 240.715 145.822 240.859L141.777 244.216C141.285 244.623 140.688 244.823 140.096 244.823C139.341 244.823 138.591 244.5 138.07 243.875C137.144 242.758 137.297 241.101 138.415 240.174ZM232.707 236.746C232.186 237.371 231.439 237.694 230.684 237.694C230.09 237.694 229.495 237.497 229.003 237.09L224.958 233.733C223.84 232.806 223.687 231.149 224.613 230.032C225.544 228.919 227.201 228.764 228.319 229.691L232.365 233.048C233.483 233.975 233.636 235.63 232.707 236.746ZM234.63 218.52C234.035 218.52 233.441 218.323 232.949 217.915L228.903 214.559C227.785 213.631 227.633 211.974 228.559 210.858C229.49 209.744 231.147 209.589 232.265 210.516L236.311 213.873C237.429 214.8 237.581 216.455 236.653 217.571C236.132 218.197 235.385 218.52 234.63 218.52ZM248.403 249.766C247.885 250.391 247.135 250.715 246.38 250.715C245.786 250.715 245.191 250.515 244.699 250.108L237.884 244.455L236.853 243.599C235.735 242.672 235.582 241.017 236.508 239.901C237.437 238.784 239.096 238.632 240.214 239.559L244.747 243.318L248.061 246.068C249.179 246.995 249.332 248.65 248.403 249.766ZM248.645 230.933L240.798 224.424C239.68 223.497 239.528 221.842 240.454 220.726C241.382 219.61 243.042 219.457 244.16 220.385L252.007 226.893C253.125 227.821 253.277 229.475 252.349 230.592C251.831 231.217 251.081 231.54 250.326 231.54C249.731 231.54 249.137 231.34 248.645 230.933ZM260.298 259.635C259.777 260.26 259.028 260.583 258.273 260.583C257.681 260.583 257.086 260.383 256.594 259.976L252.549 256.619C251.431 255.692 251.276 254.037 252.204 252.921C253.133 251.805 254.793 251.65 255.908 252.577L259.956 255.934C261.074 256.861 261.227 258.518 260.298 259.635ZM264.525 240.042C264.449 240.187 264.354 240.329 264.244 240.46C263.723 241.085 262.973 241.408 262.218 241.408C261.627 241.408 261.032 241.209 260.54 240.802L260.44 240.72L256.494 237.445C255.377 236.517 255.221 234.863 256.15 233.746C257.078 232.63 258.738 232.475 259.854 233.402L263.902 236.759C264.888 237.576 265.122 238.96 264.525 240.042ZM104.724 110.937C106.423 110.275 146.572 94.6781 168.744 93.0784C176.904 92.4901 181.581 95.7629 184.067 98.6102C187.56 102.613 189.336 108.497 189.344 116.104C189.349 121.452 188.447 125.751 188.41 125.933C188.015 127.784 186.376 129.053 184.553 129.053C184.283 129.053 184.006 129.027 183.73 128.966C181.599 128.515 180.239 126.426 180.689 124.299C181.515 120.356 182.667 108.985 178.111 103.779C176.186 101.578 173.308 100.648 169.315 100.937C148.332 102.453 108.004 118.118 107.599 118.276C105.568 119.069 103.28 118.068 102.488 116.041C101.693 114.016 102.696 111.73 104.724 110.937ZM319.068 159.391C319.068 169.858 313.61 179.966 304.469 186.43C298.508 190.646 291.753 192.815 284.998 192.815C281.471 192.815 277.943 192.224 274.529 191.024C272.343 190.257 270.625 189.663 269.247 189.188C268.7 188.999 268.203 188.828 267.748 188.668C286.763 205.757 303.417 219.946 303.677 220.169C304.782 221.109 304.914 222.767 303.972 223.873C303.451 224.482 302.712 224.795 301.97 224.795C301.365 224.795 300.76 224.59 300.263 224.167C299.853 223.818 258.804 188.841 231.736 162.317C222.569 153.334 213.896 149.147 204.458 149.147H204.379C204.251 149.147 204.124 149.134 204.001 149.116C203.877 149.134 203.751 149.147 203.622 149.147H203.543C194.102 149.147 185.432 153.334 176.265 162.317C149.197 188.841 108.149 223.818 107.736 224.167C107.241 224.587 106.633 224.795 106.031 224.795C105.287 224.795 104.547 224.482 104.027 223.873C103.085 222.767 103.219 221.109 104.324 220.169C104.584 219.946 121.233 205.759 140.248 188.67C139.796 188.828 139.301 188.999 138.754 189.188C137.373 189.663 135.656 190.257 133.47 191.024C130.058 192.224 126.528 192.815 123.003 192.815C116.245 192.815 109.49 190.648 103.529 186.43C94.3886 179.966 88.9329 169.858 88.9329 159.391C88.9329 138.099 107.104 120.779 129.442 120.779C151.78 120.779 169.952 138.099 169.952 159.391C169.952 160.003 169.923 160.607 169.865 161.209C170.783 160.321 171.69 159.438 172.58 158.566C182.794 148.559 192.634 143.894 203.54 143.894H203.627C203.753 143.894 203.877 143.907 204.001 143.925C204.122 143.907 204.245 143.894 204.374 143.894H204.458C215.367 143.894 225.205 148.556 235.419 158.566C236.311 159.438 237.218 160.321 238.136 161.211C238.078 160.61 238.05 160.003 238.05 159.391C238.05 138.099 256.221 120.779 278.559 120.779C300.897 120.779 319.068 138.099 319.068 159.391ZM303.275 110.937C305.306 111.73 306.308 114.016 305.513 116.041C304.719 118.068 302.43 119.067 300.402 118.276C299.997 118.118 259.669 102.453 238.686 100.937C234.693 100.651 231.815 101.578 229.89 103.779C225.334 108.985 226.483 120.356 227.312 124.299C227.759 126.426 226.394 128.517 224.263 128.966C223.99 129.024 223.716 129.05 223.445 129.05C221.622 129.05 219.986 127.784 219.591 125.933C219.552 125.751 218.652 121.452 218.658 116.104C218.666 108.497 220.441 102.613 223.932 98.6102C226.42 95.7629 231.1 92.4874 239.254 93.0784C261.429 94.6781 301.578 110.275 303.275 110.937Z" fill="#EFD5A2"/>
<path d="M175.361 293.235C169.15 298.315 162.695 302.042 156.124 304.348C155.74 304.482 155.359 304.613 154.975 304.737C154.604 304.858 154.23 304.973 153.859 305.083C155.951 306.586 158.126 307.981 160.38 309.26C160.943 309.58 161.514 309.893 162.088 310.2C163.808 311.12 165.573 311.976 167.375 312.766C176.563 316.806 186.785 319.173 197.604 319.709C197.007 319.052 196.434 318.366 195.884 317.655C194.653 316.06 193.545 314.329 192.598 312.501C191.53 310.45 190.662 308.272 190.036 306.024C188.847 301.75 186.977 297.03 184.883 292.423C184.041 290.561 183.16 288.717 182.271 286.931C180.603 288.617 178.915 290.201 177.208 291.682C176.595 292.213 175.979 292.733 175.361 293.235Z" fill="#EFD5A2"/>
<path d="M182.686 189.065C181.613 191.626 182.131 194.447 184.272 197.673C184.788 195.033 185.924 192.764 187.684 190.893C193.334 184.899 203.262 185.296 203.68 185.317C203.79 185.322 203.896 185.346 203.998 185.375C204.101 185.343 204.206 185.322 204.317 185.317C204.735 185.296 214.662 184.902 220.313 190.893C222.075 192.761 223.211 195.033 223.724 197.673C226.26 193.903 226.926 190.649 225.747 187.747C223.246 181.571 212.805 177.763 206.639 176.205C198.511 178.052 185.514 182.312 182.686 189.065Z" fill="#EFD5A2"/>
<path d="M173.652 180.796C173.652 180.796 103.837 233.237 100.767 259.693C99.7174 268.726 96.9344 278.174 103.103 287.047C117.236 307.372 154.203 318.238 194.441 268.248L202.995 247.77C202.995 247.77 226.63 294.015 244.965 297.756C254.495 299.699 271.467 306.752 286.71 301.756C300.791 297.143 313.93 281.494 305.784 259.693C288.815 214.288 264.417 204.712 264.417 204.712C264.417 204.712 233.575 174.515 213.057 172.863C192.539 171.211 173.652 180.796 173.652 180.796Z" fill="#7C665B"/>
<path d="M226.312 151.001C226.312 151.001 229.582 123.08 244.6 116.414C259.617 109.747 306.442 109.369 319.068 128.733C331.695 148.096 324.066 190.911 324.066 190.911C319.068 210.611 304.503 229.659 271.417 195.008C238.628 160.667 226.312 151.001 226.312 151.001Z" fill="#7C665B"/>
<path d="M183.776 151.001C183.776 151.001 180.506 123.08 165.489 116.414C150.472 109.747 103.646 109.369 91.0201 128.733C78.3938 148.096 86.0222 190.911 86.0222 190.911C91.0201 210.611 105.585 229.659 138.671 195.008C171.46 160.667 183.776 151.001 183.776 151.001Z" fill="#7C665B"/>
<path d="M274.271 16.6236C274.271 16.6236 282.504 12.8228 286.45 13.3482C290.396 13.8735 340.638 35.6747 359.314 43.292C377.991 50.9093 399.561 66.9319 403.77 75.5999C407.978 84.2679 394.994 134.166 394.994 134.166L380.358 175.675L373.032 186.629L365.628 182.505L352.517 158.143L349.861 136.943L341.427 105.018L320.383 67.1946L300.942 45.7953L270.404 14.3988" fill="#7C665B"/>
<path d="M135.591 16.6236C135.591 16.6236 127.358 12.8228 123.412 13.3482C119.466 13.8735 69.224 35.6747 50.5476 43.292C31.8712 50.9093 10.3013 66.9319 6.09249 75.5999C1.88372 84.2679 14.8678 134.166 14.8678 134.166L29.5037 175.675L36.8296 186.629L44.2344 182.505L57.3447 158.143L60.0015 136.943L68.4348 105.018L89.4787 67.1946L108.921 45.7953L139.458 14.3988" fill="#7C665B"/>
<path d="M262.22 304.102C262.22 304.102 214.966 328.64 189.384 321.193C163.803 313.747 143.372 303.321 143.372 303.321L204.933 240.518L262.22 304.102Z" fill="#7C665B"/>
<path d="M338.423 157.166C338.423 157.166 354.609 214.939 296.709 236.352C289.607 238.978 303.777 257.67 295.657 268.134C277.183 291.947 239.849 316.052 239.849 316.052C239.849 316.052 326.31 274.365 333.87 256.277C341.43 238.19 361.108 223.523 352.478 187.496C343.847 151.469 338.426 157.166 338.426 157.166H338.423Z" fill="#D2AD79"/>
<path d="M70.0707 158.48C70.0707 158.48 53.8853 216.253 111.785 237.666C118.887 240.292 104.717 258.983 112.837 269.448C131.311 293.261 168.645 317.366 168.645 317.366C168.645 317.366 82.184 275.679 74.624 257.591C67.064 239.504 47.3854 224.837 56.016 188.81C64.6493 152.783 70.068 158.48 70.068 158.48H70.0707Z" fill="#D2AD79"/>
<path d="M179.715 99.9657C179.715 99.9657 180.704 124.194 193.067 133.125C201.984 139.565 207.371 140.161 217.53 127.871C227.297 116.054 224.007 105.952 224.007 105.952L240.678 95.9995C240.678 95.9995 219.543 90.4284 206.745 101.079C206.745 101.079 185.765 88.5556 169.95 95.9995L179.715 99.9631V99.9657Z" fill="#D2AD79"/>
<path d="M204.932 240.519C204.932 240.519 240.675 280.218 268.032 276.54C287.214 273.961 298.146 249.948 292.164 236.715C286.182 223.482 304.596 251.971 304.596 251.971C304.596 251.971 315.023 280.775 305.995 286.932C296.967 293.088 272.83 320.174 227.949 286.932L203.993 251.971L204.932 240.519Z" fill="#5B473E"/>
<path d="M202.732 240.519C202.732 240.519 166.989 280.218 139.632 276.54C120.451 273.961 109.519 249.948 115.5 236.715C121.482 223.482 103.069 251.971 103.069 251.971C103.069 251.971 92.6416 280.775 101.669 286.932C110.697 293.088 134.834 320.174 179.716 286.932L203.671 251.971L202.732 240.519Z" fill="#5B473E"/>
<path d="M169.951 293.431C169.951 293.431 198.381 315.934 236.234 295.449C274.086 274.963 258.435 304.101 258.435 304.101C258.435 304.101 235.479 320.415 227.953 321.198C220.427 321.981 181.02 322.427 175.733 319.709C170.446 316.99 150.606 305.942 150.606 305.942L169.951 293.431Z" fill="#5B473E"/>
<path d="M184.213 284.917L192.807 307.314L186.115 315.076L179.718 286.931L184.213 284.917Z" fill="#5B473E"/>
<path d="M289.608 228.21C273.168 217.509 256.449 206.272 239.598 196.359C231.009 191.408 211.972 180.187 202.532 180.959C181.598 182.548 140.797 214.717 122.828 228.136L112.319 236.184C118.156 229.533 124.433 223.293 130.864 217.217C147.136 202.003 180.43 173.888 203.01 173.084C225.054 172.498 273.402 212.297 289.608 228.21Z" fill="#A18A7A"/>
<path d="M222.53 201.943C222.53 201.943 224.335 187.339 203.309 186.63C182.284 185.921 186.114 203.06 186.114 203.06C186.114 203.06 195.831 214.141 197.606 214.215C199.382 214.288 218.995 211.137 218.658 207.985C218.321 204.833 222.53 201.943 222.53 201.943Z" fill="#5B473E"/>
<path d="M297.76 42.5038C297.76 42.5038 299.339 31.4718 331.431 72.4476C342.063 86.0248 358.817 126.294 368.665 143.893C378.514 161.491 393.455 138.524 393.455 138.524C393.455 138.524 382.901 177.485 375.709 182.62C368.518 187.755 368.518 182.528 349.052 149.682C349.052 149.682 350.065 124.539 335.092 93.6342C320.12 62.729 297.758 42.5011 297.758 42.5011L297.76 42.5038Z" fill="#5B473E"/>
<path d="M274.875 19.9155C274.875 19.9155 300.159 24.6882 311.586 30.7085C323.013 36.7288 384.04 65.3567 390.09 73.762C396.14 82.1673 402.748 95.9703 402.748 95.9703L403.768 75.6006C403.768 75.6006 385.618 58.002 369.309 49.3341C353 40.6661 292.762 11.4498 289.606 12.398C286.449 13.3463 273.036 17.105 273.036 17.105L275.401 19.1249L274.875 19.9129V19.9155Z" fill="#A18E7D"/>
<path d="M111.525 43.2918C111.525 43.2918 109.947 32.2599 77.8551 73.2357C67.2227 86.8129 50.4692 127.082 40.6207 144.681C30.7695 162.279 15.8311 139.312 15.8311 139.312C15.8311 139.312 26.3845 178.273 33.5763 183.408C40.768 188.543 40.768 183.316 60.2335 150.47C60.2335 150.47 59.2208 125.328 74.1935 94.4223C89.1688 63.5145 111.528 43.2892 111.528 43.2892L111.525 43.2918Z" fill="#5B473E"/>
<path d="M134.413 20.7031C134.413 20.7031 109.129 25.4758 97.702 31.4961C86.2752 37.5137 25.2481 66.1443 19.198 74.5496C13.1479 82.9549 6.54016 96.7579 6.54016 96.7579L5.51953 76.3882C5.51953 76.3882 23.6698 58.7896 39.9788 50.1217C56.2878 41.4537 116.526 12.2374 119.682 13.1856C122.839 14.1339 136.252 17.8926 136.252 17.8926L133.887 19.9125L134.413 20.7005V20.7031Z" fill="#A18E7D"/>
<path d="M133.885 19.9151C133.885 19.9151 162.581 11.0134 185.966 9.67116C208.851 8.35784 242.1 11.7331 248.834 13.0858C255.568 14.4385 273.034 20.1778 273.034 20.1778L251.833 6.42987L205.315 0.666992L165.035 5.26101L141.663 12.374L133.729 18.7673" fill="#F9EBCE"/>
<path d="M186.114 282.826C187.587 285.726 189.074 288.817 190.444 291.948C192.32 296.23 193.985 300.582 195.108 304.619C196.831 310.805 200.824 316.445 205.559 319.775C207.032 320.81 208.576 321.622 210.146 322.157C210.223 322.184 210.299 322.21 210.375 322.234C214.786 323.663 219.171 322.998 223.441 320.256C224.085 319.843 224.724 319.384 225.364 318.877C226.229 318.189 227.005 317.406 227.692 316.531C227.957 316.192 228.21 315.838 228.447 315.47C229.536 313.799 230.34 311.845 230.859 309.615C231.08 308.675 231.248 307.685 231.364 306.647C231.937 301.543 231.23 295.791 229.764 290.086C229.275 289.639 228.788 289.182 228.302 288.715H228.299C223.82 284.42 219.487 279.411 215.384 273.775C210.278 266.761 206.585 260.247 204.38 256.008C202.179 260.247 198.485 266.761 193.377 273.775C191.028 277.005 188.603 280.026 186.114 282.826Z" fill="#EDA2A2"/>
<path d="M260.147 307.243C260.745 307.048 261.339 306.851 261.931 306.654C261.665 306.617 261.4 306.575 261.134 306.531C260.808 306.772 260.479 307.011 260.147 307.243Z" fill="#481B15"/>
<path d="M355.888 202.128C355.31 210.336 353.55 235.316 333.753 260.272C327.587 268.044 320.172 275.168 311.586 281.582C311.71 281.088 311.823 280.586 311.923 280.079C312.283 278.235 312.462 276.36 312.488 274.471C335.623 255.783 348.552 231.371 350.638 201.76C351.801 185.281 348.597 174.997 345.706 169.271C342.615 163.151 339.219 160.819 339.185 160.795C337.967 160.004 337.63 158.384 338.422 157.168C339.211 155.952 340.85 155.613 342.068 156.401C342.363 156.59 345.574 158.754 348.852 164.107C350.564 181.125 350.467 184.009 350.459 184.164C350.464 184.099 350.467 184.073 350.467 184.073L355.525 184.603C356.159 189.607 356.362 195.417 355.888 202.128Z" fill="#481B15"/>
<path d="M97.3621 282.285C88.3738 275.69 80.6402 268.327 74.2481 260.271C54.4485 235.315 52.6913 210.336 52.1126 202.128C51.6391 195.416 51.8391 189.606 52.4756 184.6L57.5314 184.072C57.5314 184.072 57.5367 184.098 57.5393 184.164C57.5314 184.009 57.4367 181.125 59.1465 164.109C62.4267 158.754 65.6359 156.589 65.9305 156.4C67.1484 155.61 68.7793 155.956 69.5685 157.175C70.3603 158.391 70.013 160.017 68.7951 160.808C68.7793 160.818 65.3834 163.151 62.2952 169.271C59.4017 174.997 56.2004 185.28 57.3604 201.76C59.4674 231.701 72.6672 256.323 96.2889 275.091C96.3389 276.769 96.5177 278.437 96.8387 280.079C96.986 280.83 97.1596 281.566 97.3621 282.285Z" fill="#481B15"/>
<path d="M147.181 306.602C146.886 306.649 146.594 306.691 146.3 306.731C146.886 306.928 147.476 307.122 148.067 307.314C147.77 307.08 147.476 306.841 147.181 306.602Z" fill="#481B15"/>
<path d="M234.918 314.3C235.42 314.124 235.92 313.943 236.417 313.759C235.946 313.867 235.476 313.975 235.002 314.08C234.976 314.153 234.95 314.227 234.918 314.3Z" fill="white"/>
<path d="M257.616 305.819C256.474 305.543 255.335 305.228 254.199 304.866C248.746 308.412 242.769 311.401 236.427 313.757C236.427 313.757 236.425 313.758 236.422 313.76H236.419C235.922 313.943 235.422 314.125 234.92 314.301C234.462 315.488 233.923 316.604 233.297 317.647C232.526 318.945 231.626 320.129 230.601 321.198C237.616 319.228 244.358 316.528 250.616 313.163C253.957 311.369 257.139 309.389 260.146 307.245H260.149C260.48 307.014 260.809 306.775 261.135 306.534C259.959 306.342 258.786 306.103 257.616 305.822V305.819Z" fill="#481B15"/>
<path d="M197.604 319.708C186.785 319.172 176.563 316.806 167.375 312.766C165.573 311.975 163.808 311.119 162.088 310.2C161.514 309.892 160.946 309.58 160.38 309.259C158.126 307.978 155.948 306.585 153.859 305.083C152.778 305.409 151.692 305.695 150.606 305.942C149.467 306.207 148.325 306.425 147.181 306.601C147.475 306.84 147.77 307.079 148.067 307.313C154.835 312.65 162.569 316.861 171.189 319.884C180.953 323.309 191.683 325.069 202.61 325.069C203.086 325.069 203.562 325.067 204.038 325.059C202.781 324.3 201.566 323.417 200.406 322.424C199.427 321.594 198.491 320.683 197.604 319.708Z" fill="#481B15"/>
<path d="M234.919 314.301C234.95 314.227 234.977 314.154 235.003 314.08C235.661 312.331 236.142 310.429 236.442 308.38C236.5 308.005 236.547 307.621 236.592 307.233C237.015 303.471 236.842 299.481 236.234 295.449C235.192 294.675 234.159 293.866 233.13 293.014C232.601 292.581 232.075 292.137 231.552 291.683C231.376 291.53 231.199 291.375 231.023 291.22C230.902 291.115 230.784 291.008 230.663 290.9C230.513 290.766 230.36 290.629 230.21 290.493C230.066 290.362 229.918 290.23 229.774 290.094C229.771 290.094 229.766 290.091 229.763 290.086C231.228 295.791 231.936 301.543 231.362 306.647C231.247 307.684 231.078 308.675 230.857 309.615C230.339 311.845 229.534 313.799 228.445 315.47C228.209 315.837 227.956 316.192 227.69 316.531C227.004 317.406 226.228 318.188 225.362 318.877C224.723 319.383 224.084 319.843 223.439 320.256C219.17 322.998 214.785 323.662 210.374 322.233C210.298 322.21 210.221 322.183 210.145 322.157C208.575 321.621 207.031 320.81 205.557 319.775C200.823 316.444 196.83 310.805 195.107 304.619C193.983 300.582 192.318 296.229 190.443 291.948C189.072 288.817 187.586 285.726 186.113 282.826C185.484 283.538 184.848 284.236 184.211 284.916C183.567 285.602 182.922 286.274 182.272 286.931C183.162 288.717 184.043 290.561 184.885 292.423C186.978 297.031 188.849 301.751 190.038 306.024C190.664 308.273 191.532 310.45 192.6 312.502C193.547 314.33 194.654 316.061 195.885 317.655C196.435 318.367 197.008 319.053 197.606 319.709C198.492 320.684 199.428 321.595 200.407 322.425C201.567 323.418 202.782 324.301 204.04 325.06C205.56 325.976 207.138 326.709 208.751 327.232C210.482 327.791 212.56 328.214 214.885 328.214C218.897 328.214 223.645 326.959 228.64 322.985C229.337 322.43 229.992 321.834 230.6 321.198C231.626 320.129 232.525 318.945 233.296 317.647C233.922 316.604 234.461 315.488 234.919 314.301Z" fill="#481B15"/>
<path d="M305.514 116.04C304.72 118.068 302.431 119.066 300.403 118.275C299.998 118.118 259.67 102.452 238.687 100.937C234.694 100.65 231.816 101.577 229.89 103.779C225.334 108.985 226.484 120.355 227.313 124.298C227.76 126.426 226.394 128.516 224.264 128.966C223.99 129.023 223.717 129.05 223.446 129.05C221.623 129.05 219.987 127.784 219.592 125.932C219.553 125.751 218.653 121.451 218.658 116.103C218.666 108.496 220.442 102.612 223.932 98.6094C226.421 95.7621 231.1 92.4866 239.255 93.0776C261.43 94.6772 301.579 110.274 303.275 110.936C305.306 111.729 306.308 114.015 305.514 116.04Z" fill="#481B15"/>
<path d="M307.23 155.017C307.23 171.347 294.196 184.783 277.474 186.453C279.936 187.191 282.453 187.556 284.981 187.556C290.668 187.556 296.376 185.718 301.429 182.143C309.179 176.664 313.806 168.156 313.806 159.391C313.806 145.661 304.996 133.844 292.446 128.732H292.444C301.358 134.403 307.23 144.059 307.23 155.017Z" fill="white"/>
<path d="M319.07 159.392C319.07 169.859 313.611 179.966 304.47 186.43C298.51 190.646 291.755 192.816 285 192.816C281.472 192.816 277.945 192.225 274.53 191.024C272.344 190.257 270.627 189.664 269.248 189.188C268.701 188.999 268.204 188.829 267.749 188.668C266.452 187.505 265.147 186.325 263.832 185.138C267.026 186.107 270.427 186.63 273.957 186.63C275.146 186.63 276.319 186.57 277.476 186.454C279.936 187.192 282.453 187.557 284.984 187.557C290.671 187.557 296.379 185.719 301.432 182.144C309.182 176.664 313.809 168.157 313.809 159.392C313.809 145.662 304.999 133.845 292.449 128.733H292.446C287.159 125.369 280.799 123.406 273.957 123.406C255.58 123.406 240.681 137.559 240.681 155.018C240.681 158.664 241.334 162.165 242.528 165.425C241.039 164.007 239.571 162.599 238.138 161.212C238.08 160.61 238.051 160.004 238.051 159.392C238.051 138.1 256.222 120.78 278.56 120.78C300.898 120.78 319.07 138.1 319.07 159.392Z" fill="#481B15"/>
<path d="M276.249 138.525C284.824 139.599 291.445 146.565 291.445 155.004C291.445 164.187 283.609 171.634 273.942 171.634C264.275 171.634 256.439 164.19 256.439 155.004C256.439 146.759 262.757 139.917 271.046 138.606C270.341 138.451 269.654 138.349 268.989 138.304C261.211 140.466 255.516 147.274 255.516 155.314C255.516 165.091 263.931 173.044 274.271 173.044C284.611 173.044 293.026 165.091 293.026 155.314C293.026 146.431 286.077 139.05 277.041 137.781H277.038C277.038 137.781 277.038 137.781 277.036 137.781C276.807 138.065 276.544 138.314 276.252 138.525H276.249Z" fill="#481B15"/>
<path d="M273.954 186.63C275.143 186.63 276.316 186.569 277.474 186.454C294.198 184.783 307.23 171.348 307.23 155.018C307.23 144.06 301.359 134.404 292.444 128.733C287.157 125.368 280.796 123.406 273.954 123.406C255.578 123.406 240.679 137.559 240.679 155.018C240.679 158.664 241.331 162.165 242.525 165.425C249.344 171.915 256.683 178.674 263.83 185.138C267.023 186.105 270.424 186.63 273.954 186.63ZM300.83 149.812C300.585 151.808 298.883 153.274 296.918 153.274C296.813 153.274 296.708 153.269 296.603 153.261C296.674 153.938 296.708 154.624 296.708 155.317C296.708 167.122 286.644 176.725 274.27 176.725C261.896 176.725 251.832 167.122 251.832 155.317C251.832 152.134 252.563 149.111 253.878 146.392C253.878 146.392 253.878 146.389 253.878 146.387C253.623 146.319 253.371 146.229 253.124 146.108C251.172 145.139 250.377 142.775 251.348 140.826C251.537 140.445 253.313 137.015 257.046 134.181C260.634 131.457 266.694 128.794 275.185 131.583C276.448 131.998 277.355 132.988 277.721 134.165H277.724C283.143 134.966 287.922 137.622 291.329 141.43L292.552 136.941C295.85 137.837 301.822 141.68 300.825 149.809L300.83 149.812Z" fill="#481B15"/>
<path d="M256.44 155.008C256.44 164.191 264.277 171.638 273.944 171.638C283.611 171.638 291.447 164.194 291.447 155.008C291.447 146.569 284.826 139.6 276.251 138.529C275.261 139.235 273.965 139.48 272.723 139.073C272.152 138.886 271.595 138.734 271.047 138.613C262.759 139.926 256.44 146.766 256.44 155.011V155.008Z" fill="#351411"/>
<path d="M292.997 148.855C293.233 146.93 292.573 146.037 292.058 145.532C291.324 144.815 290.432 144.532 290.421 144.529L290.485 144.547L291.332 141.435C287.925 137.626 283.146 134.971 277.727 134.169H277.724C277.958 134.923 277.971 135.753 277.703 136.56C277.551 137.019 277.322 137.429 277.035 137.786C277.035 137.786 277.035 137.786 277.038 137.786H277.04C286.076 139.055 293.026 146.436 293.026 155.319C293.026 165.096 284.613 173.049 274.27 173.049C263.927 173.049 255.515 165.096 255.515 155.319C255.515 147.279 261.21 140.468 268.988 138.309C266.318 138.13 263.954 138.84 261.826 140.455C259.555 142.178 258.427 144.316 258.416 144.337C257.727 145.721 256.33 146.523 254.881 146.523C254.547 146.523 254.213 146.475 253.881 146.389C253.881 146.389 253.881 146.391 253.881 146.394C252.566 149.112 251.835 152.136 251.835 155.319C251.835 167.123 261.902 176.726 274.273 176.726C286.644 176.726 296.711 167.123 296.711 155.319C296.711 154.626 296.677 153.94 296.606 153.263C296.548 153.257 296.493 153.255 296.435 153.247C294.272 152.982 292.734 151.017 292.997 148.858V148.855Z" fill="#351411"/>
<path d="M290.484 144.549L290.421 144.53C290.421 144.53 291.321 144.816 292.057 145.534C292.573 146.038 293.233 146.931 292.996 148.856C292.73 151.015 294.269 152.983 296.434 153.245C296.492 153.253 296.547 153.256 296.605 153.261C296.71 153.269 296.816 153.274 296.921 153.274C298.886 153.274 300.588 151.809 300.832 149.812C301.829 141.68 295.855 137.837 292.559 136.944L291.336 141.433L290.489 144.546L290.484 144.549Z" fill="white"/>
<path d="M258.418 144.336C258.428 144.315 259.557 142.179 261.827 140.453C263.955 138.838 266.32 138.126 268.989 138.308C269.655 138.352 270.342 138.455 271.047 138.61C271.594 138.73 272.151 138.883 272.722 139.069C273.964 139.476 275.263 139.232 276.25 138.526C276.542 138.318 276.805 138.068 277.034 137.782C277.32 137.425 277.552 137.015 277.702 136.556C277.967 135.749 277.954 134.919 277.723 134.165C277.357 132.989 276.45 131.996 275.187 131.583C266.698 128.794 260.638 131.455 257.047 134.181C253.314 137.015 251.539 140.446 251.35 140.826C250.379 142.775 251.173 145.139 253.125 146.109C253.372 146.232 253.625 146.319 253.88 146.387C254.211 146.474 254.546 146.521 254.88 146.521C256.329 146.521 257.726 145.72 258.415 144.336H258.418Z" fill="white"/>
<path d="M303.971 223.874C303.45 224.483 302.711 224.796 301.97 224.796C301.365 224.796 300.76 224.591 300.262 224.168C299.852 223.819 258.803 188.842 231.736 162.318C222.569 153.335 213.896 149.148 204.458 149.148H204.379C204.25 149.148 204.124 149.135 204 149.117C205.271 148.936 206.246 147.848 206.252 146.527C206.254 145.203 205.273 144.11 204 143.927C204.121 143.908 204.245 143.895 204.374 143.895H204.458C215.366 143.895 225.204 148.557 235.418 158.568C236.31 159.44 237.218 160.322 238.136 161.213C239.569 162.599 241.037 164.007 242.526 165.426C249.347 171.916 256.686 178.675 263.83 185.139C265.145 186.326 266.45 187.505 267.747 188.669C286.763 205.758 303.416 219.947 303.677 220.17C304.782 221.111 304.913 222.768 303.971 223.874Z" fill="#481B15"/>
<path d="M282.739 216.95C282.221 217.618 281.445 217.967 280.659 217.967C280.096 217.967 279.528 217.786 279.049 217.415L248.512 193.736C239.71 186.912 232.284 182.599 226.316 179.878C228.183 181.567 229.709 183.521 230.622 185.772C232.571 190.576 231.54 195.824 227.56 201.372C223.075 207.623 219.053 210.176 215.26 209.186C214.976 209.11 214.707 209.013 214.444 208.905C214.044 208.438 213.513 208.143 212.95 208.036C208.997 205.002 207.992 197.81 207.813 196.189C207.655 194.747 208.697 193.45 210.141 193.292C211.577 193.132 212.882 194.172 213.042 195.614C213.455 199.291 215.062 203.704 216.593 204.104C216.778 204.151 218.272 204.387 221.407 200.726C221.426 201.535 221.389 202.378 221.294 203.26C221.215 203.98 221.739 204.629 222.459 204.705C222.507 204.713 222.554 204.713 222.601 204.713C223.264 204.713 223.835 204.214 223.909 203.541C224.138 201.419 224.072 199.462 223.725 197.676C226.26 193.907 226.923 190.652 225.747 187.75C223.246 181.575 212.805 177.766 206.64 176.206C208.278 175.835 209.717 175.56 210.838 175.384C212.087 175.187 213.019 174.128 213.058 172.865C213.095 171.604 212.224 170.493 210.99 170.222C210.862 170.193 210.328 170.086 209.431 169.978C216.767 170.246 230.914 173.44 251.737 189.586L282.274 213.265C283.423 214.156 283.631 215.805 282.739 216.95Z" fill="#481B15"/>
<path d="M223.91 203.54C223.836 204.213 223.265 204.712 222.602 204.712C222.555 204.712 222.508 204.712 222.46 204.704C221.74 204.628 221.216 203.979 221.295 203.259C221.39 202.377 221.427 201.533 221.408 200.724C221.332 197.441 220.33 194.749 218.404 192.705C213.596 187.591 204.531 187.938 204.439 187.943C204.284 187.948 204.136 187.922 203.997 187.88C204.518 187.722 204.907 187.263 204.934 186.693C204.962 186.078 204.563 185.548 204 185.377C204.1 185.345 204.205 185.324 204.315 185.319C204.736 185.298 214.661 184.901 220.311 190.895C222.074 192.763 223.21 195.035 223.726 197.675C224.073 199.461 224.139 201.418 223.91 203.54Z" fill="#481B15"/>
<path d="M347.32 149.567C346.836 145.168 346.278 140.217 345.636 134.645C342.94 111.237 330.698 88.6606 320.902 73.8436C310.22 57.6818 300.04 46.9808 299.937 46.8732C298.935 45.8251 298.972 44.1624 300.021 43.1591C301.073 42.1583 302.736 42.1951 303.741 43.2431C304.167 43.6897 314.297 54.3302 325.234 70.8624C331.666 80.581 337.024 90.3101 341.154 99.7792C346.349 111.678 349.614 123.209 350.863 134.047C351.492 139.5 352.039 144.361 352.518 148.706C352.444 148.517 352.402 148.409 352.397 148.399C351.881 147.043 350.361 146.363 349.003 146.88C347.877 147.309 347.217 148.425 347.32 149.567Z" fill="#481B15"/>
<path d="M355.7 184.619L355.526 184.603L350.468 184.073C350.468 184.073 350.465 184.099 350.46 184.164C350.468 184.01 350.565 181.125 348.852 164.11C348.453 160.123 347.953 155.366 347.332 149.687C347.358 149.884 347.408 150.078 347.479 150.27C347.611 150.612 350.433 157.992 354.35 166.235C355.871 181.761 355.734 184.309 355.7 184.619Z" fill="#481B15"/>
<path d="M397.49 135.115C391.745 154.983 382.83 180.53 376.62 187.133C375.294 188.544 373.934 189.256 372.572 189.256C372.427 189.256 372.28 189.248 372.135 189.232C369.202 188.904 364.296 186.427 355.584 168.778C355.163 167.925 354.75 167.073 354.35 166.233C350.433 157.99 347.611 150.61 347.479 150.268C347.408 150.076 347.358 149.882 347.332 149.685C347.324 149.646 347.322 149.606 347.319 149.567C347.216 148.424 347.877 147.308 349.003 146.88C350.36 146.362 351.88 147.043 352.396 148.398C352.401 148.408 352.443 148.516 352.517 148.705C353.153 150.352 356.336 158.427 360.316 166.485C367.458 180.942 371.259 183.477 372.39 183.918C373.106 183.325 375.62 180.603 380.355 169.154C383.909 160.562 387.865 149.086 391.501 136.846C399.473 109.996 403.89 86.6217 402.493 78.6813C402.12 76.5589 399.492 71.6156 386.092 62.354C377.235 56.2339 364.872 49.092 350.336 41.7006C322.5 27.5482 296.303 17.1887 291.192 16.5478C280.878 15.2555 276.08 19.3136 275.746 19.6104C274.778 20.5613 273.292 20.5797 272.25 19.7076C253.385 3.88466 204.952 5.28204 204.466 5.30043C204.308 5.30306 204.15 5.29255 204 5.27154C205.236 5.0903 206.207 4.05277 206.249 2.76045C206.294 1.41035 205.307 0.265132 204 0.0760131C204.095 0.0628798 204.192 0.0523732 204.292 0.0497465C204.808 0.0313599 217.079 -0.349505 232.004 1.3263C251.099 3.46702 265.216 7.86667 274.021 14.4123C276.801 12.7102 282.662 10.1834 291.85 11.3339C298.339 12.1481 325.752 23.3061 352.725 37.0199C367.466 44.5164 380.04 51.7817 389.086 58.0358C400.665 66.0392 406.747 72.4955 407.675 77.7725C409.459 87.9113 403.582 114.041 397.49 135.115Z" fill="#481B15"/>
<path d="M189.344 116.104C189.349 121.452 188.447 125.752 188.41 125.933C188.016 127.785 186.377 129.054 184.554 129.054C184.283 129.054 184.007 129.027 183.731 128.967C181.6 128.515 180.24 126.427 180.69 124.299C181.516 120.357 182.668 108.986 178.112 103.78C176.186 101.579 173.309 100.649 169.316 100.938C148.332 102.454 108.004 118.119 107.599 118.277C105.569 119.07 103.28 118.069 102.488 116.041C101.694 114.016 102.696 111.731 104.724 110.938C106.423 110.276 146.572 94.6787 168.745 93.079C176.904 92.4907 181.581 95.7635 184.067 98.6108C187.561 102.614 189.336 108.498 189.344 116.104Z" fill="#481B15"/>
<path d="M100.769 155.018C100.769 144.062 106.637 134.407 115.549 128.736C115.544 128.736 115.541 128.736 115.539 128.741C102.997 133.853 94.1924 145.665 94.1924 159.392C94.1924 168.157 98.8194 176.664 106.569 182.144C113.868 187.305 122.533 188.849 130.535 186.457H130.54C113.808 184.794 100.766 171.353 100.766 155.018H100.769Z" fill="white"/>
<path d="M169.951 159.392C169.951 160.004 169.922 160.608 169.865 161.209C168.431 162.599 166.963 164.007 165.472 165.425C166.669 162.165 167.321 158.664 167.321 155.018C167.321 137.559 152.422 123.406 134.045 123.406C127.201 123.406 120.838 125.371 115.55 128.736C115.548 128.739 115.543 128.741 115.54 128.741C102.998 133.853 94.1936 145.665 94.1936 159.392C94.1936 168.157 98.8206 176.664 106.57 182.144C113.87 187.305 122.534 188.85 130.536 186.457H130.542C131.694 186.57 132.862 186.63 134.045 186.63C137.575 186.63 140.974 186.107 144.167 185.138C142.855 186.328 141.547 187.505 140.251 188.671H140.248C139.796 188.829 139.301 188.999 138.754 189.188C137.373 189.664 135.655 190.257 133.469 191.024C130.058 192.225 126.527 192.816 123.003 192.816C116.245 192.816 109.49 190.649 103.529 186.43C94.3882 179.966 88.9326 169.859 88.9326 159.392C88.9326 138.1 107.104 120.78 129.442 120.78C151.78 120.78 169.951 138.1 169.951 159.392Z" fill="#481B15"/>
<path d="M151.559 155.008C151.559 164.19 143.722 171.637 134.055 171.637C124.388 171.637 116.552 164.193 116.552 155.008C116.552 146.568 123.173 139.6 131.748 138.528C131.457 138.321 131.193 138.071 130.965 137.785H130.962C121.929 139.051 114.977 146.432 114.977 155.318C114.977 165.094 123.389 173.048 133.729 173.048C144.07 173.048 152.485 165.094 152.485 155.318C152.485 147.298 146.819 140.511 139.08 138.323C138.411 138.36 137.707 138.452 136.967 138.612C145.251 139.928 151.564 146.765 151.564 155.008H151.559Z" fill="#481B15"/>
<path d="M167.32 155.018C167.32 137.559 152.421 123.406 134.044 123.406C127.2 123.406 120.839 125.371 115.549 128.736C106.637 134.407 100.769 144.062 100.769 155.018C100.769 171.353 113.81 184.794 130.543 186.456C131.695 186.572 132.863 186.63 134.044 186.63C137.574 186.63 140.975 186.105 144.169 185.138C151.316 178.674 158.655 171.915 165.473 165.425C166.67 162.165 167.32 158.664 167.32 155.018ZM111.29 155.317C111.29 154.624 111.325 153.938 111.396 153.261C111.29 153.269 111.185 153.274 111.08 153.274C109.115 153.274 107.413 151.808 107.169 149.812C106.172 141.68 112.145 137.837 115.441 136.944L116.665 141.436C120.074 137.624 124.856 134.966 130.275 134.165C130.64 132.988 131.548 131.998 132.808 131.583C141.299 128.794 147.357 131.454 150.945 134.181C154.678 137.015 156.453 140.445 156.643 140.826L152.116 143.075C154.664 146.544 156.161 150.768 156.161 155.317C156.161 167.122 146.097 176.725 133.723 176.725C121.349 176.725 111.288 167.122 111.288 155.317H111.29Z" fill="#481B15"/>
<path d="M116.551 155.008C116.551 164.191 124.388 171.638 134.055 171.638C143.722 171.638 151.558 164.194 151.558 155.008C151.558 146.766 145.245 139.929 136.961 138.613C136.419 138.728 135.857 138.881 135.275 139.073C134.034 139.482 132.734 139.235 131.745 138.529C123.17 139.603 116.549 146.569 116.549 155.008H116.551Z" fill="#351411"/>
<path d="M156.164 155.317C156.164 150.768 154.667 146.544 152.118 143.074L149.58 144.335L149.593 144.361C149.204 143.613 146.026 137.939 139.074 138.32C146.815 140.508 152.478 147.295 152.478 155.315C152.478 165.091 144.066 173.044 133.723 173.044C123.38 173.044 114.97 165.091 114.97 155.315C114.97 146.429 121.923 139.048 130.956 137.782H130.959C130.672 137.424 130.44 137.015 130.29 136.555C130.025 135.746 130.038 134.916 130.272 134.162C124.853 134.963 120.071 137.621 116.662 141.433L117.509 144.545L117.572 144.527C117.572 144.527 116.67 144.813 115.936 145.53C115.42 146.035 114.76 146.928 114.997 148.853C115.262 151.012 113.724 152.979 111.559 153.242C111.503 153.25 111.446 153.253 111.39 153.258C111.319 153.936 111.285 154.621 111.285 155.315C111.285 167.119 121.349 176.722 133.721 176.722C146.092 176.722 156.158 167.119 156.158 155.315L156.164 155.317Z" fill="#351411"/>
<path d="M115.001 148.856C114.765 146.931 115.425 146.038 115.94 145.534C116.674 144.816 117.569 144.533 117.577 144.53L117.513 144.549L116.666 141.436L115.443 136.944C112.145 137.84 106.173 141.683 107.17 149.812C107.415 151.809 109.117 153.274 111.082 153.274C111.187 153.274 111.292 153.269 111.398 153.261C111.453 153.256 111.511 153.253 111.566 153.245C113.728 152.98 115.267 151.015 115.004 148.856H115.001Z" fill="white"/>
<path d="M130.294 136.557C130.446 137.017 130.678 137.426 130.962 137.784C131.191 138.067 131.454 138.317 131.746 138.527C132.735 139.234 134.032 139.478 135.276 139.071C135.857 138.879 136.42 138.729 136.962 138.611C137.701 138.453 138.406 138.359 139.074 138.322C146.027 137.941 149.204 143.612 149.593 144.363L149.58 144.337L152.119 143.076L156.646 140.828C156.456 140.447 154.681 137.017 150.948 134.183C147.36 131.459 141.3 128.795 132.811 131.585C131.551 132 130.643 132.99 130.278 134.167C130.044 134.921 130.031 135.753 130.296 136.56L130.294 136.557Z" fill="white"/>
<path d="M206.253 146.527C206.248 147.848 205.272 148.936 204.002 149.117C203.878 149.135 203.752 149.148 203.623 149.148H203.544C194.103 149.148 185.433 153.335 176.266 162.318C149.198 188.842 108.15 223.819 107.737 224.168C107.242 224.588 106.635 224.796 106.032 224.796C105.288 224.796 104.549 224.483 104.028 223.874C103.086 222.768 103.22 221.111 104.325 220.17C104.585 219.947 121.234 205.761 140.249 188.672H140.252C141.549 187.505 142.856 186.329 144.169 185.139C151.316 178.675 158.655 171.916 165.473 165.426C166.965 164.007 168.432 162.599 169.866 161.213C170.784 160.322 171.692 159.44 172.581 158.568C182.795 148.56 192.635 143.895 203.541 143.895H203.628C203.754 143.895 203.878 143.908 204.002 143.927C205.275 144.11 206.256 145.203 206.253 146.527Z" fill="#481B15"/>
<path d="M213.062 172.864C213.022 174.127 212.091 175.186 210.842 175.383C209.721 175.559 208.282 175.834 206.643 176.205C198.515 178.051 185.518 182.312 182.69 189.065C181.617 191.626 182.135 194.45 184.276 197.672C183.927 199.461 183.861 201.418 184.092 203.54C184.163 204.213 184.734 204.712 185.397 204.712C185.444 204.712 185.492 204.712 185.539 204.704C186.262 204.628 186.783 203.979 186.707 203.259C186.612 202.39 186.575 201.557 186.591 200.756C188.809 203.427 190.006 204.021 190.387 204.15C191.139 203.246 191.681 199.572 191.526 196.293C191.455 194.844 192.576 193.612 194.025 193.543C195.482 193.475 196.708 194.586 196.779 196.036C196.784 196.141 196.903 198.631 196.574 201.308C196.029 205.744 194.569 208.316 192.113 209.172C191.568 209.361 191.026 209.448 190.49 209.448C186.762 209.448 183.211 205.235 180.441 201.371C176.832 196.343 175.959 191.521 177.84 187.034C179.06 184.122 181.433 181.471 184.931 179.11C177.779 181.802 169.093 186.289 159.489 193.735L128.952 217.414C128.471 217.785 127.905 217.966 127.34 217.966C126.556 217.966 125.78 217.617 125.262 216.949C124.37 215.804 124.578 214.155 125.725 213.264L156.262 189.585C183.179 168.714 203.731 169.299 209.434 169.977C210.331 170.085 210.865 170.192 210.994 170.221C212.228 170.492 213.099 171.603 213.062 172.864Z" fill="#481B15"/>
<path d="M204.934 186.693C204.908 187.263 204.518 187.722 203.998 187.88C203.861 187.922 203.713 187.948 203.558 187.943C203.469 187.938 194.404 187.591 189.593 192.705C187.662 194.757 186.657 197.459 186.589 200.756C186.573 201.557 186.61 202.39 186.705 203.259C186.781 203.979 186.26 204.628 185.537 204.704C185.49 204.712 185.442 204.712 185.395 204.712C184.732 204.712 184.161 204.213 184.09 203.54C183.859 201.418 183.924 199.461 184.274 197.672C184.787 195.032 185.924 192.763 187.686 190.895C193.336 184.901 203.264 185.298 203.682 185.319C203.792 185.324 203.898 185.345 204 185.377C204.563 185.548 204.963 186.078 204.934 186.693Z" fill="#481B15"/>
<path d="M60.5171 150.269C60.5855 150.093 60.6328 149.912 60.6591 149.73C60.0409 155.391 59.5438 160.135 59.144 164.109C57.4341 181.124 57.5288 184.008 57.5367 184.163C57.5341 184.098 57.5288 184.071 57.5288 184.071L52.4731 184.599L52.2968 184.618C52.2653 184.308 52.1285 181.76 53.6462 166.234C57.563 157.991 60.3882 150.61 60.5171 150.269Z" fill="#481B15"/>
<path d="M108.795 45.0608C108.795 45.7122 108.553 46.3662 108.066 46.8732C107.963 46.9808 97.7834 57.6818 87.0984 73.8437C77.3052 88.6606 65.0629 111.237 62.3641 134.645C61.7248 140.193 61.1698 145.123 60.6858 149.51C60.7647 148.388 60.1071 147.301 58.9997 146.88C57.6397 146.366 56.1219 147.043 55.6037 148.399C55.6037 148.409 55.559 148.519 55.4854 148.709C55.9615 144.361 56.5112 139.5 57.1373 134.047C58.3868 123.209 61.6538 111.678 66.8464 99.7792C70.9789 90.3101 76.3345 80.581 82.7661 70.8624C93.7062 54.3302 103.836 43.6897 104.262 43.2431C105.265 42.1951 106.93 42.1583 107.979 43.1591C108.521 43.6765 108.795 44.3673 108.795 45.0608Z" fill="#481B15"/>
<path d="M206.25 2.76045C206.207 4.05277 205.237 5.0903 204.001 5.27154C203.848 5.29255 203.693 5.30306 203.535 5.30043C203.046 5.28467 154.613 3.88466 135.747 19.7076C134.708 20.5797 133.22 20.5587 132.254 19.6104C131.917 19.3136 127.119 15.2528 116.805 16.5478C111.694 17.1887 85.5001 27.5482 57.6617 41.7006C43.1257 49.092 30.7624 56.2339 21.9082 62.354C8.50595 71.6156 5.8781 76.5589 5.50457 78.6813C4.10779 86.6217 8.52699 109.996 16.4973 136.846C20.1327 149.086 24.0915 160.562 27.6453 169.154C32.3802 180.603 34.8923 183.325 35.6104 183.918C36.7415 183.477 40.5426 180.942 47.6817 166.485C51.6616 158.427 54.8445 150.352 55.4837 148.708C55.5573 148.519 55.5994 148.408 55.602 148.398C56.1202 147.043 57.638 146.365 58.998 146.88C60.1054 147.3 60.763 148.387 60.6841 149.509C60.6789 149.583 60.671 149.656 60.6605 149.73C60.6341 149.911 60.5868 150.092 60.5184 150.268C60.3895 150.61 57.5644 157.99 53.6476 166.233C53.2478 167.073 52.8374 167.925 52.4165 168.778C43.7044 186.427 38.7959 188.904 35.8629 189.232C35.7183 189.248 35.5736 189.256 35.4289 189.256C34.0663 189.256 32.7064 188.544 31.3806 187.133C25.1674 180.53 16.2553 154.983 10.5104 135.115C4.41556 114.041 -1.46093 87.9113 0.325161 77.7725C1.25372 72.4955 7.33276 66.0392 18.9148 58.0358C27.9583 51.7817 40.532 44.5164 55.2759 37.0199C82.2462 23.3061 109.661 12.1481 116.15 11.3339C125.336 10.1808 131.199 12.7102 133.977 14.4123C142.781 7.86667 156.902 3.46702 175.996 1.3263C190.922 -0.349505 203.193 0.0313599 203.709 0.0497465C203.806 0.0523732 203.903 0.0628798 204.001 0.0760131C205.308 0.265132 206.294 1.41035 206.25 2.76045Z" fill="#481B15"/>
<path d="M207.01 247.932C207.018 248.308 206.944 248.668 206.81 248.996C206.776 248.912 206.736 248.831 206.691 248.752C206.668 248.707 206.644 248.665 206.615 248.623C206.578 248.56 206.539 248.5 206.494 248.442C206.457 248.389 206.418 248.34 206.376 248.292C206.334 248.242 206.289 248.195 206.244 248.15C206.2 248.106 206.152 248.064 206.105 248.022C206.058 247.98 206.008 247.94 205.958 247.904C205.858 247.827 205.752 247.759 205.642 247.701C205.592 247.675 205.545 247.649 205.495 247.628C205.476 247.617 205.455 247.607 205.434 247.599C205.331 247.554 205.226 247.515 205.121 247.486C205.068 247.47 205.016 247.457 204.961 247.444C204.9 247.431 204.84 247.418 204.779 247.41C204.761 247.404 204.745 247.405 204.726 247.402C204.721 247.399 204.716 247.399 204.711 247.399C204.663 247.394 204.613 247.389 204.566 247.386C204.506 247.381 204.442 247.378 204.382 247.378H204.377C204.316 247.378 204.253 247.381 204.192 247.386C204.161 247.389 204.129 247.389 204.098 247.394C204.066 247.397 204.037 247.399 204.006 247.405C203.943 247.415 203.882 247.426 203.822 247.439C203.758 247.452 203.698 247.468 203.637 247.486C203.564 247.51 203.49 247.533 203.417 247.562C203.385 247.57 203.356 247.583 203.327 247.596C203.322 247.599 203.314 247.601 203.309 247.607C203.274 247.623 203.238 247.638 203.203 247.657C203.135 247.691 203.067 247.73 202.998 247.77C202.932 247.812 202.867 247.856 202.804 247.904C202.704 247.977 202.606 248.061 202.517 248.15C202.472 248.195 202.427 248.242 202.388 248.29C202.346 248.34 202.306 248.389 202.267 248.442C202.238 248.481 202.209 248.521 202.183 248.563C202.157 248.602 202.13 248.644 202.107 248.686C202.08 248.731 202.057 248.773 202.036 248.818C202.012 248.862 201.991 248.907 201.97 248.954C201.97 248.957 201.967 248.959 201.964 248.967C201.962 248.975 201.957 248.986 201.951 248.996C201.83 248.705 201.757 248.387 201.749 248.053L201.025 216.849C201.373 216.92 201.73 216.977 202.099 217.017C202.551 217.067 203.006 217.09 203.464 217.09C204.4 217.09 205.342 216.983 206.284 216.772L207.01 247.932Z" fill="#481B15"/>
<path d="M214.143 212.624C211.536 214.809 208.908 216.193 206.286 216.774C205.344 216.984 204.402 217.092 203.466 217.092C203.008 217.092 202.553 217.068 202.101 217.018C201.732 216.979 201.375 216.921 201.027 216.85C196.237 215.894 193.475 212.372 193.352 212.211C192.468 211.061 192.683 209.414 193.836 208.529C194.98 207.649 196.624 207.859 197.51 208.996C197.573 209.073 199.559 211.484 202.729 211.802C205.223 212.051 207.927 210.974 210.76 208.6C211.394 208.069 212.202 207.888 212.954 208.035C213.517 208.143 214.048 208.437 214.448 208.904C214.453 208.91 214.461 208.915 214.466 208.923C215.4 210.034 215.256 211.691 214.143 212.624Z" fill="#481B15"/>
<path d="M312.491 274.469C312.465 276.358 312.286 278.233 311.925 280.077C311.825 280.584 311.712 281.086 311.589 281.58C309.784 288.708 305.32 294.398 298.305 298.506C288.44 304.279 278.621 307.174 268.967 307.174C266.61 307.174 264.266 307.003 261.933 306.654C261.667 306.617 261.402 306.575 261.136 306.53C259.96 306.339 258.787 306.1 257.616 305.819C256.475 305.543 255.336 305.228 254.2 304.865C254.063 304.826 253.923 304.781 253.787 304.736C253.289 304.573 252.79 304.405 252.292 304.227C246.834 302.267 241.455 299.328 236.236 295.448C235.194 294.674 234.161 293.865 233.132 293.014C232.603 292.58 232.077 292.136 231.554 291.682C231.377 291.529 231.201 291.375 231.025 291.22C230.904 291.114 230.786 291.007 230.665 290.899C230.515 290.765 230.362 290.629 230.212 290.492C230.067 290.361 229.92 290.229 229.776 290.093C229.773 290.093 229.768 290.09 229.765 290.085C229.276 289.638 228.789 289.181 228.302 288.714H228.3C223.82 284.419 219.488 279.41 215.384 273.773C210.278 266.76 206.585 260.246 204.381 256.007C204.523 255.736 204.654 255.476 204.783 255.226C205.204 254.402 205.559 253.682 205.849 253.083C206.02 252.729 206.17 252.416 206.293 252.151C206.593 251.512 206.759 251.132 206.793 251.055C207.001 250.583 207.056 250.081 206.982 249.605C206.982 249.595 206.98 249.584 206.977 249.574C206.946 249.374 206.888 249.18 206.811 248.996C206.848 249.078 206.935 249.269 207.069 249.558C207.08 249.579 207.09 249.603 207.101 249.626C207.403 250.275 207.924 251.368 208.658 252.802C209.281 254.029 210.063 255.497 210.991 257.157C213.13 260.974 216.058 265.773 219.711 270.782C221.466 273.185 223.476 275.754 225.725 278.346C225.727 278.349 225.73 278.352 225.73 278.354C227.234 280.085 228.842 281.824 230.554 283.534H230.557C231.796 284.779 233.093 286.003 234.442 287.196C234.787 287.498 235.134 287.8 235.484 288.099C241.268 293.037 247.963 297.321 255.431 299.746C256.867 300.211 258.311 300.602 259.763 300.915H259.766C260.379 301.051 260.991 301.172 261.607 301.274C262.17 301.374 262.733 301.461 263.298 301.532C264.511 301.695 265.726 301.802 266.947 301.857C270.046 302.002 273.171 301.81 276.317 301.282C282.688 300.216 289.143 297.778 295.643 293.972C298.823 292.113 301.325 289.933 303.179 287.395C304.962 284.963 306.146 282.2 306.759 279.079C306.778 278.985 306.796 278.893 306.812 278.798C310.181 260.469 292.352 236.953 292.17 236.714C292.16 236.701 292.149 236.688 292.142 236.674C292.86 236.433 293.609 236.265 294.38 236.204C294.601 236.186 294.822 236.181 295.04 236.183C296.421 236.189 297.742 236.569 299.033 237.328C303.697 244.329 312.701 259.789 312.491 274.469Z" fill="#481B15"/>
<path d="M203.31 247.607C203.346 247.591 203.383 247.575 203.417 247.562C203.386 247.57 203.357 247.583 203.328 247.596C203.323 247.599 203.315 247.601 203.31 247.607Z" fill="#481B15"/>
<path d="M206.791 251.055C206.756 251.131 206.591 251.512 206.291 252.15C206.167 252.416 206.017 252.728 205.846 253.083C205.557 253.682 205.202 254.402 204.781 255.226C204.652 255.476 204.52 255.736 204.378 256.006C202.177 260.246 198.483 266.76 193.375 273.773C191.026 277.004 188.601 280.025 186.112 282.825C185.484 283.536 184.847 284.235 184.21 284.915C183.566 285.601 182.922 286.273 182.272 286.93C180.604 288.616 178.915 290.2 177.208 291.682C176.595 292.212 175.98 292.732 175.362 293.234C169.151 298.314 162.696 302.041 156.125 304.347C155.741 304.481 155.359 304.613 154.975 304.736C154.604 304.857 154.231 304.973 153.86 305.083C152.779 305.409 151.692 305.695 150.606 305.942C149.467 306.207 148.325 306.425 147.181 306.601C146.887 306.648 146.595 306.69 146.3 306.73C144.14 307.027 141.973 307.174 139.795 307.174C130.138 307.174 120.321 304.279 110.457 298.506C103.673 294.534 99.275 289.084 97.36 282.283C97.1574 281.564 96.9838 280.828 96.8365 280.077C96.5156 278.435 96.3367 276.768 96.2867 275.089C95.8159 260.545 104.61 245.106 109.415 237.798C110.662 236.953 111.999 236.506 113.445 236.44C113.477 236.44 113.506 236.438 113.537 236.438C114.555 236.404 115.558 236.556 116.51 236.824C116.447 236.908 116.352 237.037 116.226 237.21C116.184 237.268 116.136 237.331 116.089 237.399C115.7 237.935 115.108 238.776 114.377 239.868C114.287 240.005 114.192 240.144 114.098 240.289C113.814 240.722 113.508 241.189 113.19 241.689C112.767 242.353 112.32 243.073 111.854 243.845C111.62 244.231 111.383 244.63 111.144 245.04C110.544 246.065 109.926 247.165 109.305 248.323C108.931 249.02 108.558 249.739 108.187 250.475C107.816 251.213 107.448 251.969 107.087 252.741C106.727 253.514 106.372 254.304 106.027 255.108C105.912 255.376 105.799 255.647 105.685 255.917C105.462 256.458 105.241 257.007 105.028 257.559C104.815 258.11 104.607 258.67 104.407 259.229C104.105 260.072 103.82 260.926 103.557 261.785C103.205 262.93 102.887 264.086 102.613 265.25C101.932 268.157 101.524 271.102 101.527 273.983C101.527 275.712 101.677 277.416 102.003 279.079C102.026 279.195 102.05 279.31 102.076 279.426C102.166 279.849 102.266 280.266 102.376 280.676C102.763 282.113 103.284 283.468 103.941 284.745C104.599 286.021 105.388 287.219 106.319 288.343C108.082 290.479 110.344 292.346 113.119 293.972C119.156 297.508 125.156 299.864 131.085 301.033C131.993 301.214 132.898 301.364 133.803 301.49C134.708 301.613 135.607 301.71 136.509 301.779C137.409 301.847 138.306 301.886 139.203 301.899C140.1 301.912 140.994 301.897 141.886 301.852C142.47 301.826 143.051 301.786 143.633 301.736C143.922 301.71 144.214 301.681 144.503 301.65C144.793 301.618 145.085 301.582 145.374 301.545L146.653 301.361C146.992 301.306 147.329 301.248 147.668 301.185C148.007 301.122 148.344 301.054 148.681 300.983C149.07 300.901 149.459 300.815 149.849 300.723C151.014 300.447 152.177 300.118 153.331 299.745C155.957 298.894 158.487 297.812 160.915 296.551C162.372 295.798 163.793 294.978 165.176 294.106C166.886 293.026 168.538 291.868 170.13 290.649C173.631 287.968 176.843 285.002 179.733 281.976C180.383 281.298 181.014 280.616 181.63 279.935C181.951 279.581 182.264 279.229 182.574 278.877C182.885 278.522 183.192 278.17 183.492 277.818C183.75 277.516 184.005 277.217 184.258 276.915C185.263 275.714 186.218 274.522 187.117 273.355C187.793 272.481 188.438 271.622 189.051 270.781C190.182 269.232 191.242 267.7 192.233 266.214C193.883 263.737 195.335 261.375 196.576 259.242C197.003 258.512 197.405 257.808 197.781 257.136C197.971 256.797 198.152 256.469 198.328 256.148C198.504 255.828 198.675 255.515 198.839 255.211C199.049 254.819 199.249 254.446 199.438 254.084C199.628 253.724 199.807 253.38 199.978 253.051C200.104 252.805 200.222 252.571 200.338 252.345C200.414 252.195 200.488 252.048 200.556 251.906C200.664 251.693 200.767 251.486 200.861 251.294C200.953 251.108 201.04 250.929 201.122 250.764C201.161 250.68 201.201 250.601 201.238 250.522C201.424 250.133 201.577 249.81 201.693 249.561C201.811 249.308 201.89 249.132 201.932 249.038C201.937 249.022 201.943 249.012 201.948 249.001C201.948 249.001 201.948 248.996 201.95 248.996C201.956 248.985 201.961 248.975 201.964 248.967C201.966 248.959 201.969 248.956 201.969 248.954C201.99 248.907 202.011 248.862 202.035 248.817C202.056 248.773 202.079 248.731 202.106 248.686C202.129 248.644 202.156 248.602 202.182 248.562C202.208 248.52 202.237 248.481 202.266 248.442C202.306 248.389 202.345 248.339 202.387 248.289C202.427 248.242 202.471 248.195 202.516 248.15C202.605 248.061 202.703 247.977 202.803 247.903C202.866 247.856 202.932 247.811 202.997 247.769C203.066 247.73 203.134 247.69 203.203 247.656C203.237 247.638 203.274 247.622 203.308 247.606C203.345 247.591 203.381 247.575 203.416 247.562C203.489 247.533 203.563 247.509 203.637 247.486C203.697 247.467 203.758 247.451 203.821 247.438C203.881 247.425 203.942 247.415 204.005 247.404C204.036 247.399 204.065 247.396 204.097 247.394C204.128 247.388 204.16 247.388 204.192 247.386C204.252 247.38 204.315 247.378 204.376 247.378H204.381C204.441 247.378 204.505 247.38 204.565 247.386C204.612 247.388 204.662 247.394 204.71 247.399C204.715 247.399 204.72 247.399 204.726 247.402C204.744 247.402 204.76 247.401 204.778 247.409C204.839 247.417 204.899 247.43 204.96 247.444C205.015 247.457 205.068 247.47 205.12 247.486C205.225 247.514 205.331 247.554 205.433 247.599C205.454 247.606 205.475 247.617 205.494 247.627C205.544 247.648 205.591 247.675 205.641 247.701C205.751 247.759 205.857 247.827 205.957 247.903C206.007 247.94 206.057 247.979 206.104 248.021C206.151 248.063 206.199 248.105 206.243 248.15C206.288 248.195 206.333 248.242 206.375 248.292C206.417 248.339 206.456 248.389 206.493 248.442C206.538 248.499 206.577 248.56 206.614 248.623C206.643 248.665 206.667 248.707 206.691 248.752C206.735 248.83 206.775 248.912 206.809 248.996C206.885 249.18 206.943 249.374 206.975 249.574C206.977 249.584 206.98 249.595 206.98 249.605C207.054 250.081 206.998 250.582 206.791 251.055Z" fill="#481B15"/>
<path d="M127.39 240.024C127.279 240.228 127.14 240.42 126.971 240.596C126.842 240.73 126.7 240.848 126.553 240.951C126.329 241.103 126.09 241.216 125.838 241.292C125.588 241.368 125.33 241.408 125.069 241.408C124.417 241.408 123.765 241.166 123.257 240.683C123.241 240.67 123.044 240.486 122.699 240.202C121.666 239.354 119.301 237.607 116.51 236.824C115.558 236.556 114.555 236.404 113.537 236.438C113.506 236.438 113.477 236.441 113.445 236.441C111.999 236.506 110.662 236.953 109.415 237.799C108.695 238.285 108 238.907 107.329 239.666C106.369 240.754 104.707 240.859 103.618 239.897C102.529 238.939 102.424 237.279 103.386 236.191C106.177 233.031 109.494 231.348 113.245 231.19C120.524 230.883 126.632 236.638 126.89 236.882C127 236.987 127.098 237.1 127.187 237.218C127.326 237.407 127.439 237.612 127.524 237.825C127.8 238.534 127.758 239.341 127.39 240.024Z" fill="#481B15"/>
<path d="M304.556 238.444C303.593 239.529 301.931 239.629 300.845 238.665C300.245 238.134 299.642 237.69 299.032 237.33C297.741 236.571 296.42 236.19 295.039 236.185C294.821 236.182 294.6 236.188 294.379 236.206C293.608 236.267 292.858 236.435 292.14 236.676C288.184 238.005 285.196 241.57 285.159 241.612C284.638 242.24 283.886 242.565 283.126 242.565C282.539 242.565 281.947 242.371 281.458 241.969C280.34 241.05 280.172 239.403 281.09 238.281C281.145 238.213 281.516 237.766 282.152 237.123C284.088 235.171 288.473 231.41 293.937 230.971C297.68 230.672 301.176 231.938 304.335 234.735C305.422 235.697 305.522 237.359 304.556 238.444Z" fill="#481B15"/>
<path d="M236.654 217.571C236.133 218.196 235.386 218.519 234.631 218.519C234.036 218.519 233.442 218.322 232.95 217.915L228.904 214.558C227.786 213.631 227.634 211.973 228.56 210.857C229.491 209.743 231.148 209.588 232.266 210.516L236.312 213.872C237.43 214.8 237.582 216.454 236.654 217.571Z" fill="#481B15"/>
<path d="M252.349 230.593C251.831 231.218 251.081 231.541 250.326 231.541C249.732 231.541 249.137 231.342 248.645 230.935L240.799 224.426C239.681 223.499 239.528 221.844 240.454 220.728C241.383 219.611 243.043 219.459 244.16 220.386L252.007 226.895C253.125 227.822 253.278 229.477 252.349 230.593Z" fill="#481B15"/>
<path d="M264.524 240.042C264.448 240.186 264.353 240.328 264.243 240.459C263.722 241.085 262.972 241.408 262.217 241.408C261.625 241.408 261.031 241.208 260.539 240.801L260.439 240.719L256.493 237.444C255.375 236.517 255.22 234.862 256.149 233.746C257.077 232.629 258.737 232.474 259.852 233.402L263.901 236.758C264.887 237.575 265.121 238.96 264.524 240.042Z" fill="#481B15"/>
<path d="M232.706 236.747C232.185 237.372 231.438 237.695 230.683 237.695C230.089 237.695 229.494 237.498 229.003 237.091L224.957 233.734C223.839 232.807 223.686 231.15 224.612 230.033C225.543 228.92 227.201 228.765 228.319 229.692L232.364 233.049C233.482 233.976 233.635 235.631 232.706 236.747Z" fill="#481B15"/>
<path d="M248.402 249.768C247.884 250.393 247.134 250.716 246.379 250.716C245.785 250.716 245.19 250.516 244.698 250.109L237.883 244.456L236.851 243.6C235.733 242.673 235.581 241.018 236.507 239.902C237.435 238.786 239.095 238.633 240.213 239.56L244.745 243.319L248.06 246.069C249.178 246.996 249.33 248.651 248.402 249.768Z" fill="#481B15"/>
<path d="M260.298 259.634C259.777 260.259 259.028 260.582 258.273 260.582C257.681 260.582 257.086 260.382 256.594 259.975L252.549 256.618C251.431 255.691 251.276 254.036 252.204 252.92C253.133 251.804 254.793 251.649 255.908 252.576L259.956 255.933C261.074 256.86 261.227 258.517 260.298 259.634Z" fill="#481B15"/>
<path d="M173.414 217.974L169.369 221.331C168.877 221.738 168.28 221.935 167.688 221.935C166.933 221.935 166.183 221.612 165.662 220.987C164.734 219.87 164.889 218.216 166.004 217.288L170.053 213.932C171.171 213.004 172.828 213.159 173.756 214.273C174.685 215.389 174.532 217.047 173.414 217.974Z" fill="#481B15"/>
<path d="M161.519 227.84L153.672 234.349C153.18 234.756 152.583 234.956 151.991 234.956C151.236 234.956 150.487 234.632 149.966 234.007C149.037 232.891 149.193 231.236 150.311 230.309L158.157 223.8C159.275 222.873 160.932 223.025 161.861 224.142C162.79 225.258 162.637 226.913 161.519 227.84Z" fill="#481B15"/>
<path d="M146.272 240.378C146.146 240.552 145.996 240.714 145.822 240.859L141.777 244.216C141.285 244.623 140.688 244.823 140.096 244.823C139.341 244.823 138.591 244.499 138.07 243.874C137.144 242.758 137.297 241.101 138.415 240.173L139.514 239.259L142.461 236.817C143.579 235.892 145.236 236.044 146.164 237.161C146.948 238.104 146.961 239.43 146.272 240.378Z" fill="#481B15"/>
<path d="M177.359 237.148L173.313 240.505C172.821 240.912 172.224 241.109 171.632 241.109C170.877 241.109 170.128 240.786 169.607 240.161C168.678 239.045 168.833 237.39 169.949 236.463L173.997 233.106C175.115 232.179 176.772 232.334 177.701 233.447C178.629 234.564 178.477 236.221 177.359 237.148Z" fill="#481B15"/>
<path d="M165.463 247.014L157.617 253.523C157.125 253.93 156.528 254.13 155.936 254.13C155.181 254.13 154.431 253.807 153.91 253.182C152.982 252.065 153.137 250.41 154.255 249.483L162.073 242.998L162.102 242.974C163.22 242.047 164.877 242.2 165.805 243.316C165.895 243.424 165.974 243.537 166.042 243.655C166.694 244.745 166.473 246.176 165.463 247.014Z" fill="#481B15"/>
<path d="M149.767 260.033L145.721 263.39C145.229 263.797 144.632 263.997 144.04 263.997C143.285 263.997 142.535 263.674 142.015 263.049C141.089 261.932 141.241 260.275 142.359 259.348L146.405 255.991C147.523 255.066 149.18 255.219 150.109 256.335C151.037 257.451 150.885 259.106 149.767 260.033Z" fill="#481B15"/>
<path d="M204.443 255.16C209.543 270.673 214.257 286.37 216.614 302.55C216.932 304.856 217.219 307.167 217.343 309.487C216.627 304.906 215.457 300.414 214.194 295.959C211.653 287.058 208.425 278.398 204.951 269.827C203.212 265.548 201.407 261.272 199.545 257.077L204.443 255.16Z" fill="#481B15"/>
</svg>
