<svg width="109" height="88" viewBox="0 0 109 88" fill="none" xmlns="http://www.w3.org/2000/svg">
<path d="M63.2072 82.0791C63.1952 82.183 63.1826 82.2854 63.1671 82.3858C63.087 82.9331 62.9584 83.4411 62.7827 83.9085C62.9092 83.8804 63.035 83.8517 63.1608 83.8229H63.1615C63.1615 83.8229 63.1622 83.8229 63.1629 83.8222C64.8572 83.1927 66.4539 82.3942 67.9107 81.4468C67.8741 81.4363 67.8369 81.4244 67.8003 81.4125C67.6675 81.369 67.534 81.324 67.4012 81.2763C65.943 80.7528 64.5059 79.9676 63.1116 78.9312C63.2739 80.0083 63.3203 81.0742 63.2072 82.0791Z" fill="#EFD5A2"/>
<path d="M107.529 21.0203C107.429 20.4533 106.727 19.1326 103.147 16.6583C100.781 15.0233 97.4781 13.1153 93.5947 11.1406C86.1582 7.35973 79.1595 4.59211 77.7941 4.42089C75.0386 4.07564 73.7568 5.15981 73.6676 5.23911C73.409 5.49313 73.0119 5.49804 72.7336 5.26507C67.6935 1.03786 54.7545 1.41118 54.6245 1.4161C54.5823 1.4168 54.5401 1.41399 54.5001 1.40838C54.4593 1.41399 54.4179 1.4168 54.3757 1.4161C54.245 1.41188 41.306 1.03786 36.2659 5.26507C35.9883 5.49804 35.5905 5.49243 35.3326 5.23911C35.2427 5.15981 33.9608 4.07494 31.2054 4.42089C29.8399 4.59211 22.8419 7.35973 15.4048 11.1406C11.5214 13.1153 8.21844 15.0233 5.85299 16.6583C2.27248 19.1326 1.57043 20.4533 1.47064 21.0203C1.09748 23.1416 2.2781 29.3862 4.40743 36.5593C5.37863 39.8294 6.43627 42.8952 7.38568 45.1906C8.65063 48.2494 9.32176 48.9764 9.51361 49.135C9.81579 49.0171 10.8313 48.3399 12.7385 44.4776C13.8018 42.3247 14.6521 40.1676 14.8229 39.7283C14.9501 38.567 15.0969 37.2681 15.2642 35.8113C15.598 32.9159 16.4708 29.8354 17.858 26.6565C18.9621 24.1268 20.3929 21.5276 22.1111 18.9312C25.0338 14.5145 27.7401 11.6718 27.8539 11.5525C28.1217 11.2726 28.5665 11.2627 28.8469 11.5301C28.9917 11.6683 29.0648 11.8529 29.0648 12.0381C29.0648 12.2122 29.0001 12.3869 28.8701 12.5223C28.8427 12.5511 26.1231 15.4099 23.2685 19.7277C20.6522 23.6861 17.3816 29.7175 16.6606 35.9713C16.4898 37.4533 16.3415 38.7705 16.2122 39.9423C16.2115 39.962 16.2094 39.9816 16.2059 40.0013C16.0407 41.5135 15.9079 42.7808 15.8011 43.8425C16.6774 42.4117 17.5348 41.8335 17.6135 41.783C17.9389 41.5717 18.3746 41.6644 18.5854 41.99C18.7969 42.3149 18.7042 42.7492 18.3788 42.9605C18.3746 42.9633 17.4673 43.5864 16.6423 45.2214C15.8693 46.7512 15.014 49.4985 15.3239 53.9011C15.8868 61.9001 19.4132 68.4781 25.7239 73.4919C25.5981 69.6065 27.9474 65.4817 29.2313 63.5295C29.0388 63.6593 28.8533 63.8256 28.6741 64.0284C28.4176 64.3189 27.9734 64.347 27.6825 64.0902C27.3915 63.834 27.3634 63.3906 27.6206 63.1C28.3663 62.2559 29.2524 61.8061 30.2545 61.764C32.199 61.6819 33.8308 63.2193 33.8997 63.2846C33.9292 63.3127 33.9552 63.3428 33.9791 63.3744C34.0164 63.4249 34.0466 63.4797 34.0691 63.5365C34.1428 63.726 34.1316 63.9414 34.0332 64.1239C34.0037 64.1786 33.9665 64.2298 33.9215 64.2768C33.8871 64.3126 33.8491 64.3442 33.8097 64.3716C33.75 64.4123 33.6861 64.4424 33.6186 64.4628C33.5518 64.4831 33.483 64.4937 33.4134 64.4937C33.2391 64.4937 33.0648 64.4291 32.9292 64.3C32.925 64.2965 32.8723 64.2474 32.7802 64.1716C32.504 63.9449 31.8723 63.4783 31.1266 63.2692C31.1098 63.2916 31.0845 63.326 31.0508 63.3723C31.0395 63.3878 31.0269 63.4046 31.0142 63.4228C30.9102 63.566 30.7521 63.7905 30.5567 64.0825C30.5328 64.119 30.5075 64.1561 30.4822 64.1947C30.4063 64.3105 30.3248 64.4354 30.2398 64.5688C30.1266 64.7463 30.0072 64.9386 29.8828 65.1449C29.8202 65.248 29.757 65.3547 29.693 65.4642C29.5328 65.7378 29.3677 66.0319 29.2018 66.3413C29.102 66.5273 29.0022 66.7196 28.9032 66.916C28.8041 67.1132 28.7057 67.3153 28.6094 67.5216C28.5131 67.7279 28.4183 67.9392 28.3262 68.1539C28.2953 68.2255 28.2651 68.2977 28.2348 68.37C28.1751 68.5146 28.1161 68.6612 28.0592 68.8086C28.0022 68.956 27.9467 69.1054 27.8933 69.2549C27.8125 69.4801 27.7366 69.7082 27.6663 69.9377C27.5721 70.2436 27.4871 70.5524 27.414 70.8633C27.232 71.6401 27.1231 72.4267 27.1238 73.1965C27.1238 73.6582 27.1638 74.1137 27.251 74.5578C27.2573 74.5887 27.2636 74.6196 27.2707 74.6505C27.2946 74.7635 27.3213 74.875 27.3508 74.9845C27.4541 75.3683 27.5932 75.7304 27.7689 76.0715C27.9446 76.4125 28.1554 76.7325 28.4042 77.0328C28.875 77.6033 29.4794 78.1023 30.2208 78.5366C31.8336 79.4812 33.4366 80.1106 35.0206 80.4229C35.263 80.4713 35.5048 80.5113 35.7465 80.545C35.9883 80.578 36.2286 80.6039 36.4697 80.6222C36.71 80.6404 36.9496 80.6509 37.1893 80.6545C37.4289 80.658 37.6678 80.6537 37.9061 80.6418C38.0621 80.6348 38.2174 80.6243 38.3727 80.6109C38.45 80.6039 38.528 80.5962 38.6053 80.5878C38.6826 80.5794 38.7606 80.5695 38.8379 80.5597L39.1795 80.5106C39.2701 80.4959 39.3601 80.4804 39.4507 80.4636C39.5414 80.4467 39.6313 80.4285 39.7213 80.4096C39.8253 80.3878 39.9293 80.3646 40.0333 80.3401C40.3446 80.2664 40.6552 80.1787 40.9637 80.079C41.6651 79.8517 42.3411 79.5626 42.9898 79.2257C43.3791 79.0243 43.7586 78.8054 44.1282 78.5724C44.585 78.284 45.0263 77.9746 45.4515 77.649C46.3868 76.9325 47.2449 76.1402 48.0172 75.3319C48.1908 75.1508 48.3595 74.9684 48.5239 74.7866C48.6096 74.6919 48.6933 74.5978 48.7762 74.5038C48.8591 74.4091 48.9413 74.315 49.0215 74.221C49.0903 74.1403 49.1585 74.0603 49.226 73.9796C49.4944 73.6589 49.7495 73.3403 49.9898 73.0288C50.1704 72.7951 50.3426 72.5656 50.5064 72.3411C50.8085 71.9271 51.0918 71.518 51.3567 71.1208C51.7973 70.4591 52.1852 69.8282 52.5169 69.2584C52.6308 69.0633 52.7383 68.8753 52.8388 68.6956C52.8894 68.6051 52.9379 68.5174 52.985 68.4318C53.032 68.3462 53.0777 68.2626 53.1213 68.1813C53.1775 68.0767 53.2309 67.9771 53.2815 67.8802C53.3321 67.7841 53.3799 67.6921 53.4256 67.6044C53.4593 67.5385 53.4909 67.476 53.5219 67.4157C53.5422 67.3757 53.5619 67.3364 53.5802 67.2985C53.609 67.2416 53.6364 67.1862 53.6617 67.135C53.6863 67.0852 53.7095 67.0374 53.7313 66.9932C53.7418 66.9708 53.7524 66.9497 53.7622 66.9287C53.8121 66.8248 53.8529 66.7385 53.8838 66.6718C53.9154 66.6045 53.9365 66.5575 53.9477 66.5322C53.9491 66.528 53.9505 66.5252 53.9519 66.5224C53.9519 66.5224 53.9519 66.521 53.9526 66.521C53.9203 66.4431 53.9006 66.3582 53.8985 66.269L53.7053 57.9325C52.4256 57.6771 51.6877 56.7361 51.6547 56.6933C51.4185 56.3859 51.4762 55.9459 51.784 55.7094C52.0897 55.4744 52.5289 55.5305 52.7657 55.8344C52.7826 55.8547 53.3131 56.4989 54.16 56.5838C54.8262 56.6505 55.5486 56.3628 56.3054 55.7284C56.4748 55.5866 56.6906 55.5382 56.8915 55.5775C55.8353 54.767 55.5669 52.8457 55.5191 52.4127C55.4769 52.0275 55.7552 51.6808 56.141 51.6387C56.5247 51.5959 56.8733 51.8738 56.9161 52.2591C57.0265 53.2415 57.4558 54.4204 57.8648 54.527C57.914 54.5397 58.3132 54.6028 59.1509 53.6246C59.1305 52.7475 58.8627 52.0282 58.3483 51.4822C57.0637 50.116 54.642 50.2086 54.6174 50.21C54.576 50.2114 54.5366 50.2044 54.4994 50.1932C54.4628 50.2044 54.4235 50.2114 54.382 50.21C54.3581 50.2086 51.9365 50.116 50.6511 51.4822C50.1353 52.0303 49.8669 52.7524 49.8486 53.633C50.441 54.3467 50.7608 54.5053 50.8627 54.5397C51.0636 54.2983 51.2084 53.3166 51.1669 52.4408C51.148 52.0534 51.4473 51.7243 51.8346 51.7061C52.2239 51.6879 52.5514 51.9847 52.5703 52.372C52.5717 52.4001 52.6034 53.0653 52.5155 53.7804C52.37 54.9656 51.98 55.6526 51.3237 55.8814C51.1782 55.9319 51.0334 55.9551 50.8901 55.9551C49.8943 55.9551 48.9456 54.8295 48.2056 53.7972C47.2414 52.4541 47.0081 51.1658 47.5105 49.9672C47.8366 49.189 48.4705 48.481 49.4052 47.8501C47.4944 48.5694 45.1739 49.7679 42.6082 51.7573L34.45 58.0834C34.3213 58.1823 34.1703 58.2308 34.0192 58.2308C33.8097 58.2308 33.6024 58.1374 33.464 57.9592C33.2258 57.6532 33.2813 57.2125 33.5877 56.9747L41.7459 50.6486C48.9371 45.0727 54.4277 45.2291 55.9513 45.4102C57.9112 45.4818 61.6906 46.3351 67.2536 50.6486L75.4118 56.9747C75.7189 57.2125 75.7744 57.6532 75.5362 57.9592C75.3977 58.1374 75.1904 58.2308 74.9803 58.2308C74.8299 58.2308 74.6781 58.1823 74.5502 58.0834L66.392 51.7573C64.0406 49.9342 62.0567 48.782 60.4622 48.055C60.9612 48.5062 61.3688 49.0283 61.6126 49.6297C62.1333 50.9131 61.8579 52.3152 60.7946 53.7972C59.5964 55.4674 58.5219 56.1494 57.5086 55.8849C57.4327 55.8645 57.361 55.8386 57.2907 55.8098C57.2921 55.8112 57.2942 55.8126 57.2956 55.8147C57.5451 56.1115 57.5064 56.5543 57.2092 56.8034C56.5128 57.3873 55.8107 57.7571 55.1101 57.9122L55.304 66.2368C55.3061 66.3371 55.2865 66.4333 55.2506 66.521C55.2605 66.5427 55.2836 66.5939 55.3195 66.6711C55.3223 66.6767 55.3251 66.6831 55.3279 66.6894C55.4087 66.8627 55.5479 67.1546 55.7439 67.5378C55.9105 67.8655 56.1192 68.2577 56.3673 68.7012C56.9386 69.7208 57.7208 71.0029 58.6969 72.3411C59.1656 72.9832 59.7025 73.6695 60.3034 74.3621C60.3041 74.3628 60.3048 74.3635 60.3048 74.3642C60.7068 74.8266 61.1361 75.2912 61.5936 75.748H61.5943C61.9253 76.0806 62.2718 76.4076 62.6323 76.7262C62.7244 76.8069 62.8171 76.8876 62.9106 76.9676C64.4559 78.2868 66.2444 79.4314 68.2395 80.079C68.6232 80.2032 69.009 80.3078 69.397 80.3913H69.3977C69.5614 80.4278 69.7251 80.4601 69.8896 80.4874C70.04 80.5141 70.1904 80.5373 70.3415 80.5562C70.6654 80.5997 70.9901 80.6285 71.3162 80.6432C72.144 80.6818 72.9789 80.6306 73.8193 80.4895C75.5214 80.2047 77.246 79.5534 78.9825 78.5366C79.8321 78.0398 80.5004 77.4574 80.9958 76.7795C81.4723 76.1297 81.7885 75.3915 81.9523 74.5578C81.9572 74.5326 81.9621 74.508 81.9663 74.4828C82.8665 69.5861 78.1033 63.3035 78.0548 63.2397C78.052 63.2362 78.0492 63.2327 78.0471 63.2292C76.9902 63.5842 76.1918 64.5365 76.182 64.5477C76.0429 64.7154 75.8419 64.8024 75.6388 64.8024C75.4821 64.8024 75.3239 64.7505 75.1932 64.6431C74.8946 64.3975 74.8496 63.9576 75.0948 63.6579C75.1096 63.6397 75.2087 63.5204 75.3788 63.3485C75.896 62.8271 77.0675 61.8222 78.5271 61.705C79.5271 61.625 80.461 61.9632 81.305 62.7106C81.5953 62.9674 81.622 63.4116 81.3641 63.7014C81.1069 63.9912 80.6627 64.0179 80.3725 63.7604C80.2123 63.6186 80.0513 63.5 79.8883 63.4039C81.1343 65.274 83.5398 69.4044 83.4836 73.3263C89.6642 68.3335 93.1182 61.8117 93.6755 53.9011C93.9861 49.4985 93.1302 46.7512 92.3579 45.2214C91.5321 43.5864 90.6249 42.9633 90.6158 42.957C90.2904 42.7457 90.2004 42.3128 90.412 41.9879C90.6228 41.663 91.0606 41.5724 91.386 41.783C91.4647 41.8335 92.3227 42.4117 93.1984 43.8418C93.0915 42.7773 92.958 41.5065 92.7922 39.9894C92.7901 39.9788 92.7894 39.9683 92.7887 39.9578C92.6593 38.7824 92.5104 37.4596 92.3389 35.9713C91.6186 29.7175 88.348 23.6861 85.7309 19.7277C82.8771 15.4099 80.1574 12.5511 80.13 12.5223C79.8623 12.2423 79.8721 11.7982 80.1525 11.5301C80.4336 11.2627 80.8778 11.2726 81.1462 11.5525C81.2601 11.6718 83.9663 14.5145 86.8884 18.9312C88.6066 21.5276 90.0381 24.1268 91.1414 26.6565C92.5293 29.8354 93.4015 32.9159 93.7353 35.8113C93.9032 37.2681 94.0494 38.567 94.1773 39.7276C94.3474 40.1676 95.1977 42.3247 96.2609 44.4776C98.1689 48.3399 99.1844 49.0171 99.4866 49.135C99.6777 48.9764 100.35 48.2494 101.614 45.1906C102.564 42.8952 103.621 39.8294 104.592 36.5593C106.722 29.3862 107.902 23.1416 107.529 21.0203ZM47.474 62.3667C47.7221 62.665 47.6813 63.1078 47.3826 63.3555L46.3018 64.2523C46.1704 64.361 46.0109 64.4137 45.8528 64.4137C45.6511 64.4137 45.4508 64.3274 45.3116 64.1604C45.0636 63.8621 45.105 63.42 45.403 63.1723L46.4845 62.2755C46.7832 62.0278 47.2259 62.0692 47.474 62.3667ZM44.3489 58.0497L45.4304 57.1529C45.7291 56.9052 46.1718 56.9466 46.4199 57.2441C46.6679 57.5424 46.6272 57.9851 46.3285 58.2329L45.2477 59.1297C45.1163 59.2384 44.9568 59.2911 44.7986 59.2911C44.5969 59.2911 44.3967 59.2048 44.2575 59.0377C44.0094 58.7395 44.0509 58.2974 44.3489 58.0497ZM44.2962 65.0031C44.3201 65.0319 44.3411 65.0621 44.3594 65.0937C44.5337 65.3849 44.4747 65.7673 44.2048 65.9912L42.1085 67.73C41.9771 67.8388 41.8176 67.8921 41.6595 67.8921C41.4578 67.8921 41.2575 67.8058 41.1183 67.6388C40.8703 67.3406 40.9117 66.8985 41.2104 66.6508L43.299 64.9182L43.3067 64.9119C43.6054 64.6642 44.0481 64.7049 44.2962 65.0031ZM40.1563 61.5282L42.2526 59.7893C42.5512 59.5416 42.994 59.5823 43.242 59.8805C43.4901 60.1788 43.4494 60.6208 43.1507 60.8685L41.0544 62.6074C40.923 62.7162 40.7635 62.7695 40.6053 62.7695C40.4036 62.7695 40.2034 62.6832 40.0642 62.5162C39.8161 62.218 39.8576 61.7759 40.1563 61.5282ZM40.1029 68.4816C40.3509 68.7798 40.3102 69.2219 40.0115 69.4696L38.9307 70.3664C38.7993 70.4752 38.6397 70.5285 38.4816 70.5285C38.2799 70.5285 38.0797 70.4422 37.9405 70.2752C37.6931 69.977 37.7339 69.5342 38.0326 69.2865L39.1134 68.3897C39.4121 68.1427 39.8548 68.1834 40.1029 68.4816ZM36.9784 64.1639L37.2722 63.9197L38.0593 63.2671C38.3579 63.02 38.8007 63.0607 39.0487 63.359C39.2582 63.6109 39.2617 63.9653 39.0776 64.2186C39.0438 64.2649 39.0038 64.3084 38.9574 64.347L37.8766 65.2438C37.7451 65.3526 37.5856 65.4059 37.4275 65.4059C37.2258 65.4059 37.0255 65.3196 36.8864 65.1526C36.639 64.8544 36.6798 64.4116 36.9784 64.1639ZM62.1692 63.2481C62.03 63.4151 61.8305 63.5014 61.6288 63.5014C61.4699 63.5014 61.3111 63.4488 61.1797 63.34L60.0989 62.4432C59.8002 62.1955 59.7595 61.7527 60.0068 61.4545C60.2556 61.157 60.6983 61.1156 60.997 61.3633L62.0778 62.2601C62.3765 62.5078 62.4173 62.9499 62.1692 63.2481ZM62.6829 58.3788C62.5241 58.3788 62.3652 58.3262 62.2338 58.2174L61.153 57.3206C60.8543 57.0729 60.8136 56.6301 61.0609 56.3319C61.3097 56.0344 61.7525 55.993 62.0511 56.2407L63.1319 57.1375C63.4306 57.3852 63.4714 57.8273 63.2233 58.1255C63.0842 58.2925 62.8846 58.3788 62.6829 58.3788ZM66.3625 66.7266C66.224 66.8936 66.0238 66.9799 65.8221 66.9799C65.6633 66.9799 65.5044 66.9266 65.373 66.8178L63.5522 65.3077L63.2767 65.0789C62.978 64.8312 62.9373 64.3891 63.1847 64.0909C63.4327 63.7926 63.8762 63.7519 64.1748 63.9997L65.3857 65.0038L66.2711 65.7385C66.5698 65.9862 66.6106 66.4283 66.3625 66.7266ZM66.4271 61.6952L64.3308 59.9563C64.0322 59.7086 63.9914 59.2665 64.2388 58.9683C64.4868 58.67 64.9303 58.6293 65.229 58.877L67.3253 60.6159C67.6239 60.8636 67.6647 61.3057 67.4166 61.604C67.2782 61.771 67.0779 61.8573 66.8762 61.8573C66.7174 61.8573 66.5586 61.804 66.4271 61.6952ZM69.5403 69.363C69.4012 69.53 69.2009 69.6163 68.9992 69.6163C68.8411 69.6163 68.6823 69.563 68.5508 69.4542L67.47 68.5574C67.1713 68.3097 67.1299 67.8676 67.378 67.5693C67.626 67.2711 68.0695 67.2297 68.3674 67.4774L69.449 68.3742C69.7476 68.6219 69.7884 69.0647 69.5403 69.363ZM70.6696 64.1288C70.6493 64.1674 70.624 64.2053 70.5944 64.2404C70.4553 64.4074 70.255 64.4937 70.0533 64.4937C69.8952 64.4937 69.7364 64.4403 69.605 64.3316L69.5783 64.3098L68.5241 63.4348C68.2255 63.1871 68.184 62.745 68.4321 62.4467C68.6802 62.1485 69.1236 62.1071 69.4216 62.3548L70.5031 63.2516C70.7666 63.4699 70.8292 63.8397 70.6696 64.1288ZM27.9776 29.6375C28.4316 29.4606 39.1577 25.2938 45.0811 24.8664C47.2611 24.7092 48.5106 25.5836 49.1747 26.3443C50.1079 27.4137 50.5823 28.9856 50.5844 31.0178C50.5858 32.4465 50.3447 33.5952 50.3349 33.6436C50.2295 34.1383 49.7917 34.4773 49.3047 34.4773C49.2323 34.4773 49.1585 34.4703 49.0847 34.4541C48.5155 34.3334 48.1521 33.7756 48.2723 33.2072C48.493 32.1539 48.8008 29.1161 47.5836 27.7253C47.0692 27.1372 46.3004 26.8888 45.2336 26.966C39.6278 27.3709 28.854 31.556 28.7457 31.5981C28.2032 31.81 27.5918 31.5427 27.3803 31.0009C27.1681 30.4599 27.4358 29.8494 27.9776 29.6375ZM85.2411 42.5822C85.2411 45.3786 83.7829 48.0789 81.3409 49.8058C79.7484 50.9321 77.9438 51.5117 76.1391 51.5117C75.1967 51.5117 74.2544 51.3538 73.3422 51.0331C72.7582 50.8282 72.2993 50.6696 71.9311 50.5426C71.7849 50.4921 71.6521 50.4465 71.5305 50.4037C76.6107 54.9691 81.0598 58.7599 81.1293 58.8195C81.4245 59.0707 81.4596 59.5135 81.2081 59.8089C81.0689 59.9717 80.8714 60.0552 80.6733 60.0552C80.5116 60.0552 80.35 60.0005 80.2172 59.8875C80.1075 59.7942 69.1412 50.45 61.9099 43.364C59.4608 40.9641 57.1438 39.8455 54.6224 39.8455H54.6013C54.5668 39.8455 54.5331 39.842 54.5001 39.8371C54.4671 39.842 54.4333 39.8455 54.3989 39.8455H54.3778C51.8556 39.8455 49.5394 40.9641 47.0903 43.364C39.859 50.45 28.8926 59.7942 28.7823 59.8875C28.6502 59.9998 28.4878 60.0552 28.3269 60.0552C28.128 60.0552 27.9305 59.9717 27.7914 59.8089C27.5398 59.5135 27.5757 59.0707 27.8708 58.8195C27.9404 58.7599 32.3881 54.9698 37.4683 50.4044C37.3474 50.4465 37.2153 50.4921 37.0691 50.5426C36.7002 50.6696 36.2413 50.8282 35.6573 51.0331C34.7458 51.3538 33.8027 51.5117 32.861 51.5117C31.0557 51.5117 29.251 50.9328 27.6586 49.8058C25.2165 48.0789 23.759 45.3786 23.759 42.5822C23.759 36.894 28.6136 32.2668 34.5814 32.2668C40.5491 32.2668 45.4037 36.894 45.4037 42.5822C45.4037 42.7457 45.396 42.9071 45.3805 43.0678C45.6258 42.8306 45.8682 42.5949 46.1057 42.3619C48.8345 39.6883 51.4635 38.442 54.3771 38.442H54.4003C54.434 38.442 54.4671 38.4456 54.5001 38.4505C54.5324 38.4456 54.5654 38.442 54.5999 38.442H54.6224C57.5367 38.442 60.1649 39.6876 62.8937 42.3619C63.1319 42.5949 63.3744 42.8306 63.6197 43.0685C63.6042 42.9078 63.5965 42.7457 63.5965 42.5822C63.5965 36.894 68.451 32.2668 74.4188 32.2668C80.3865 32.2668 85.2411 36.894 85.2411 42.5822ZM81.0218 29.6375C81.5644 29.8494 81.8321 30.4599 81.6199 31.0009C81.4076 31.5427 80.7962 31.8093 80.2544 31.5981C80.1462 31.556 69.3724 27.3709 63.7665 26.966C62.6998 26.8895 61.931 27.1372 61.4165 27.7253C60.1994 29.1161 60.5065 32.1539 60.7278 33.2072C60.8473 33.7756 60.4826 34.3341 59.9134 34.4541C59.8403 34.4696 59.7672 34.4766 59.6948 34.4766C59.2078 34.4766 58.7707 34.1383 58.6653 33.6436C58.6547 33.5952 58.4144 32.4465 58.4158 31.0178C58.4179 28.9856 58.8923 27.4137 59.8248 26.3443C60.4896 25.5836 61.7398 24.7085 63.9183 24.8664C69.8425 25.2938 80.5686 29.4606 81.0218 29.6375Z" fill="#EFD5A2"/>
<path d="M46.8492 78.3394C45.1901 79.6966 43.4655 80.6923 41.7101 81.3084C41.6074 81.3442 41.5055 81.3793 41.4029 81.4123C41.3039 81.4446 41.2041 81.4754 41.105 81.5049C41.6637 81.9063 42.2448 82.2789 42.8471 82.6207C42.9975 82.7063 43.15 82.7898 43.3032 82.8719C43.7628 83.1175 44.2343 83.3462 44.7157 83.5575C47.1704 84.6367 49.9013 85.269 52.7917 85.4121C52.6322 85.2367 52.479 85.0535 52.3321 84.8634C52.0032 84.4374 51.7074 83.975 51.4544 83.4866C51.1691 82.9385 50.9371 82.3568 50.7699 81.7561C50.4522 80.6144 49.9526 79.3534 49.3932 78.1226C49.1683 77.6251 48.9329 77.1324 48.6954 76.6553C48.2498 77.1058 47.7987 77.5289 47.3426 77.9247C47.1788 78.0664 47.0144 78.2054 46.8492 78.3394Z" fill="#EFD5A2"/>
<path d="M48.8063 50.5099C48.5196 51.1941 48.658 51.9477 49.2301 52.8094C49.3678 52.1042 49.6714 51.4979 50.1415 50.9983C51.651 49.3969 54.3032 49.5029 54.415 49.5085C54.4445 49.5099 54.4726 49.5162 54.5 49.5239C54.5274 49.5155 54.5555 49.5099 54.585 49.5085C54.6968 49.5029 57.3489 49.3976 58.8584 50.9983C59.3293 51.4972 59.6329 52.1042 59.7699 52.8094C60.4474 51.8025 60.6252 50.933 60.3103 50.1576C59.642 48.5078 56.8528 47.4903 55.2056 47.0742C53.0341 47.5675 49.5618 48.7057 48.8063 50.5099Z" fill="#EFD5A2"/>
<path d="M46.3923 48.3007C46.3923 48.3007 27.7407 62.3107 26.9206 69.3785C26.6402 71.7918 25.8967 74.3159 27.5446 76.6863C31.3205 82.1163 41.1962 85.0193 51.9462 71.664L54.2315 66.1934C54.2315 66.1934 60.5457 78.548 65.4439 79.5472C67.9899 80.0665 72.5241 81.9507 76.5965 80.616C80.3583 79.3837 83.8685 75.2029 81.6921 69.3785C77.1587 57.2485 70.6407 54.69 70.6407 54.69C70.6407 54.69 62.401 46.6229 56.9195 46.1815C51.4381 45.7401 46.3923 48.3007 46.3923 48.3007Z" fill="#7C665B"/>
<path d="M60.4604 40.3409C60.4604 40.3409 61.334 32.8815 65.346 31.1005C69.358 29.3195 81.8676 29.2185 85.2408 34.3916C88.614 39.5648 86.576 51.0029 86.576 51.0029C85.2408 56.2659 81.3497 61.3548 72.5105 52.0976C63.7507 42.9232 60.4604 40.3409 60.4604 40.3409Z" fill="#7C665B"/>
<path d="M49.0973 40.3409C49.0973 40.3409 48.2238 32.8815 44.2118 31.1005C40.1998 29.3195 27.6902 29.2185 24.317 34.3916C20.9438 39.5648 22.9817 51.0029 22.9817 51.0029C24.317 56.2659 28.2081 61.3548 37.0473 52.0976C45.807 42.9232 49.0973 40.3409 49.0973 40.3409Z" fill="#7C665B"/>
<path d="M73.2733 4.4411C73.2733 4.4411 75.4729 3.4257 76.527 3.56605C77.5811 3.70639 91.0036 9.53073 95.9931 11.5657C100.983 13.6008 106.745 17.8813 107.87 20.197C108.994 22.5127 105.525 35.8434 105.525 35.8434L101.615 46.9328L99.658 49.859L97.6797 48.7573L94.1772 42.2488L93.4675 36.5851L91.2145 28.0563L85.5925 17.9515L80.3985 12.2345L72.2402 3.84674" fill="#7C665B"/>
<path d="M36.2235 4.4411C36.2235 4.4411 34.0239 3.4257 32.9697 3.56605C31.9156 3.70639 18.4931 9.53073 13.5036 11.5657C8.51407 13.6008 2.75152 17.8813 1.62713 20.197C0.502728 22.5127 3.9715 35.8434 3.9715 35.8434L7.88159 46.9328L9.83875 49.859L11.817 48.7573L15.3195 42.2488L16.0293 36.5851L18.2823 28.0563L23.9043 17.9515L29.0983 12.2345L37.2565 3.84674" fill="#7C665B"/>
<path d="M70.0541 81.2426C70.0541 81.2426 57.4299 87.7981 50.5957 85.8087C43.7615 83.8193 38.3032 81.0342 38.3032 81.0342L54.7497 64.2559L70.0541 81.2426Z" fill="#7C665B"/>
<path d="M90.412 41.9878C90.412 41.9878 94.736 57.4223 79.2678 63.1428C77.3703 63.8445 81.1561 68.838 78.9867 71.6337C74.0513 77.9955 64.0771 84.4353 64.0771 84.4353C64.0771 84.4353 87.1758 73.2982 89.1955 68.4661C91.2152 63.634 96.4725 59.7155 94.1667 50.0906C91.861 40.4657 90.4127 41.9878 90.4127 41.9878H90.412Z" fill="#D2AD79"/>
<path d="M18.7204 42.3389C18.7204 42.3389 14.3964 57.7733 29.8646 63.4938C31.762 64.1956 27.9763 69.189 30.1457 71.9847C35.0811 78.3466 45.0552 84.7863 45.0552 84.7863C45.0552 84.7863 21.9566 73.6492 19.9369 68.8171C17.9172 63.985 12.6599 60.0666 14.9656 50.4417C17.2721 40.8168 18.7197 42.3389 18.7197 42.3389H18.7204Z" fill="#D2AD79"/>
<path d="M48.0124 26.7065C48.0124 26.7065 48.2766 33.1792 51.5796 35.5651C53.9619 37.2857 55.4011 37.445 58.1151 34.1616C60.7244 31.0045 59.8453 28.3057 59.8453 28.3057L64.2993 25.6469C64.2993 25.6469 58.6527 24.1585 55.2339 27.004C55.2339 27.004 49.6287 23.6582 45.4038 25.6469L48.0124 26.7058V26.7065Z" fill="#D2AD79"/>
<path d="M54.7494 64.256C54.7494 64.256 64.2984 74.8619 71.607 73.8795C76.7314 73.1904 79.652 66.7752 78.054 63.2399C76.4559 59.7046 81.3752 67.3155 81.3752 67.3155C81.3752 67.3155 84.1609 75.0107 81.749 76.6555C79.3372 78.3004 72.8888 85.5366 60.8985 76.6555L54.4985 67.3155L54.7494 64.256Z" fill="#5B473E"/>
<path d="M54.1612 64.256C54.1612 64.256 44.6123 74.8619 37.3037 73.8795C32.1792 73.1904 29.2586 66.7752 30.8567 63.2399C32.4547 59.7046 27.5355 67.3155 27.5355 67.3155C27.5355 67.3155 24.7498 75.0107 27.1616 76.6555C29.5734 78.3004 36.0219 85.5366 48.0122 76.6555L54.4121 67.3155L54.1612 64.256Z" fill="#5B473E"/>
<path d="M45.4034 78.3921C45.4034 78.3921 52.9987 84.4038 63.1112 78.931C73.2238 73.4582 69.0424 81.2425 69.0424 81.2425C69.0424 81.2425 62.9095 85.6009 60.899 85.81C58.8884 86.0192 48.3605 86.1385 46.948 85.4122C45.5355 84.6859 40.2354 81.7344 40.2354 81.7344L45.4034 78.3921Z" fill="#5B473E"/>
<path d="M49.2132 76.1172L51.5091 82.1008L49.7213 84.1744L48.0122 76.6554L49.2132 76.1172Z" fill="#5B473E"/>
<path d="M77.3702 60.9676C72.978 58.1088 68.5114 55.1068 64.0096 52.4585C61.7151 51.1357 56.6293 48.1379 54.1071 48.3443C48.5146 48.7688 37.6143 57.3629 32.8138 60.948L30.0063 63.0981C31.5657 61.3213 33.2425 59.654 34.9607 58.0309C39.3079 53.9665 48.2026 46.4552 54.235 46.2405C60.1241 46.084 73.0406 56.7166 77.3702 60.9676Z" fill="#A18A7A"/>
<path d="M59.4503 53.9503C59.4503 53.9503 59.9323 50.0487 54.3153 49.8592C48.6982 49.6698 49.7214 54.2485 49.7214 54.2485C49.7214 54.2485 52.3173 57.2091 52.7917 57.2288C53.2661 57.2484 58.5058 56.4064 58.4158 55.5643C58.3259 54.7222 59.4503 53.9503 59.4503 53.9503Z" fill="#5B473E"/>
<path d="M79.549 11.3552C79.549 11.3552 79.9707 8.40792 88.5442 19.3549C91.3847 22.9821 95.8606 33.7403 98.4916 38.4419C101.123 43.1434 105.114 37.0075 105.114 37.0075C105.114 37.0075 102.295 47.4162 100.374 48.7881C98.4523 50.16 98.4523 48.7636 93.2519 39.9885C93.2519 39.9885 93.5225 33.2715 89.5225 25.015C85.5224 16.7585 79.5483 11.3545 79.5483 11.3545L79.549 11.3552Z" fill="#5B473E"/>
<path d="M73.4346 5.32052C73.4346 5.32052 80.1894 6.59556 83.2421 8.20392C86.2949 9.81228 102.599 17.4604 104.215 19.7059C105.831 21.9515 107.597 25.639 107.597 25.639L107.869 20.1971C107.869 20.1971 103.02 15.4956 98.6633 13.1799C94.3062 10.8642 78.2133 3.05885 77.37 3.31218C76.5267 3.5655 72.9434 4.56967 72.9434 4.56967L73.5751 5.1093L73.4346 5.31982V5.32052Z" fill="#A18E7D"/>
<path d="M29.7948 11.5656C29.7948 11.5656 29.3731 8.61837 20.7996 19.5653C17.9591 23.1925 13.4833 33.9507 10.8522 38.6523C8.2204 43.3539 4.22949 37.218 4.22949 37.218C4.22949 37.218 7.04892 47.6267 8.97024 48.9986C10.8916 50.3704 10.8916 48.974 16.0919 40.1989C16.0919 40.1989 15.8213 33.482 19.8214 25.2255C23.8221 16.9682 29.7955 11.5649 29.7955 11.5649L29.7948 11.5656Z" fill="#5B473E"/>
<path d="M35.9088 5.53097C35.9088 5.53097 29.154 6.80601 26.1013 8.41437C23.0485 10.022 6.74474 17.6709 5.12842 19.9164C3.51209 22.1619 1.74679 25.8495 1.74679 25.8495L1.47412 20.4076C1.47412 20.4076 6.32309 15.706 10.6801 13.3903C15.0372 11.0746 31.1301 3.2693 31.9734 3.52263C32.8167 3.77595 36.4 4.78012 36.4 4.78012L35.7683 5.31975L35.9088 5.53027V5.53097Z" fill="#A18E7D"/>
<path d="M35.768 5.32048C35.768 5.32048 43.4343 2.94233 49.6817 2.58374C55.7957 2.23288 64.6784 3.1346 66.4774 3.49599C68.2765 3.85738 72.9427 5.39065 72.9427 5.39065L67.2786 1.71781L54.8512 0.178223L44.09 1.40554L37.8461 3.30582L35.7266 5.01383" fill="#F9EBCE"/>
<path d="M49.7212 75.5587C50.1147 76.3334 50.5118 77.1593 50.8779 77.9958C51.379 79.1396 51.8238 80.3024 52.1239 81.3809C52.5842 83.0335 53.651 84.5401 54.9159 85.4299C55.3095 85.7064 55.722 85.9232 56.1415 86.0663C56.1619 86.0734 56.1823 86.0804 56.2026 86.0867C57.3812 86.4684 58.5526 86.2909 59.6932 85.5583C59.8654 85.4481 60.0361 85.3253 60.2069 85.1899C60.4381 85.006 60.6454 84.7969 60.8288 84.5632C60.8998 84.4727 60.9673 84.378 61.0305 84.2797C61.3215 83.8335 61.5365 83.3114 61.6749 82.7156C61.734 82.4644 61.779 82.1998 61.8099 81.9226C61.9631 80.5592 61.774 79.0224 61.3826 77.4983C61.2519 77.379 61.1219 77.2569 60.9919 77.132H60.9912C59.7944 75.9846 58.637 74.6464 57.5407 73.1405C56.1766 71.2669 55.19 69.5266 54.6011 68.394C54.0129 69.5266 53.0262 71.2669 51.6615 73.1405C51.0339 74.0037 50.386 74.8106 49.7212 75.5587Z" fill="#EDA2A2"/>
<path d="M69.5 82.0818C69.6595 82.0298 69.8183 81.9772 69.9765 81.9246C69.9055 81.9148 69.8345 81.9035 69.7635 81.8916C69.6764 81.9562 69.5885 82.02 69.5 82.0818Z" fill="#481B15"/>
<path d="M95.0784 53.9997C94.9238 56.1926 94.4536 62.8661 89.1647 69.5332C87.5175 71.6096 85.5364 73.5127 83.2427 75.2263C83.2757 75.0944 83.3059 74.9603 83.3326 74.8249C83.4289 74.3323 83.4767 73.8313 83.4837 73.3267C89.6644 68.3339 93.1184 61.8121 93.6757 53.9015C93.9863 49.4989 93.1304 46.7516 92.358 45.2218C91.5323 43.5868 90.625 42.9637 90.6159 42.9574C90.2905 42.7461 90.2006 42.3132 90.4121 41.9883C90.6229 41.6634 91.0608 41.5728 91.3861 41.7834C91.4648 41.8339 92.3229 42.4121 93.1985 43.8422C93.656 48.3887 93.63 49.1592 93.6279 49.2006C93.6293 49.1831 93.63 49.1761 93.63 49.1761L94.9814 49.3178C95.1508 50.6546 95.2049 52.2068 95.0784 53.9997Z" fill="#481B15"/>
<path d="M26.0105 75.4142C23.6092 73.6522 21.5431 71.6852 19.8354 69.533C14.5458 62.8659 14.0764 56.1925 13.9218 53.9996C13.7953 52.2067 13.8487 50.6545 14.0188 49.317L15.3695 49.1759C15.3695 49.1759 15.3709 49.1829 15.3716 49.2005C15.3695 49.1591 15.3442 48.3886 15.8009 43.8428C16.6773 42.412 17.5346 41.8337 17.6133 41.7832C17.9387 41.572 18.3744 41.6646 18.5852 41.9902C18.7968 42.3151 18.704 42.7495 18.3786 42.9607C18.3744 42.9635 17.4672 43.5867 16.6421 45.2217C15.8691 46.7514 15.0139 49.4987 15.3238 53.9013C15.8867 61.9003 19.4131 68.4783 25.7238 73.4922C25.7371 73.9406 25.7849 74.3862 25.8706 74.8248C25.91 75.0255 25.9564 75.2219 26.0105 75.4142Z" fill="#481B15"/>
<path d="M39.3209 81.9106C39.2422 81.9233 39.1642 81.9345 39.0854 81.945C39.2422 81.9977 39.3996 82.0496 39.5577 82.1008C39.4783 82.0384 39.3996 81.9745 39.3209 81.9106Z" fill="#481B15"/>
<path d="M62.7603 83.9673C62.8945 83.9203 63.028 83.8719 63.1608 83.8228C63.035 83.8515 62.9092 83.8803 62.7827 83.9084C62.7757 83.928 62.7687 83.9477 62.7603 83.9673Z" fill="white"/>
<path d="M68.8237 81.7015C68.5187 81.6278 68.2144 81.5436 67.9108 81.4468C66.454 82.3941 64.8574 83.1927 63.163 83.8221C63.163 83.8221 63.1626 83.8224 63.1616 83.8228H63.1609C63.0281 83.8719 62.8946 83.9204 62.7604 83.9674C62.6381 84.2846 62.494 84.5828 62.3268 84.8614C62.1209 85.208 61.8805 85.5245 61.6064 85.8101C63.4807 85.2838 65.2818 84.5624 66.9537 83.6635C67.8462 83.1843 68.6965 82.6551 69.4997 82.0825H69.5004C69.589 82.0208 69.6768 81.9569 69.764 81.8924C69.4498 81.8411 69.1364 81.7773 68.8237 81.7022V81.7015Z" fill="#481B15"/>
<path d="M52.7918 85.4121C49.9014 85.269 47.1705 84.6367 44.7158 83.5574C44.2344 83.3462 43.7629 83.1175 43.3033 82.8718C43.1501 82.7897 42.9983 82.7062 42.8472 82.6206C42.2449 82.2782 41.6631 81.9063 41.1051 81.5049C40.8162 81.5919 40.526 81.6684 40.2358 81.7343C39.9315 81.8052 39.6265 81.8635 39.3208 81.9105C39.3995 81.9743 39.4782 82.0382 39.5576 82.1006C41.3658 83.5266 43.4319 84.6514 45.7348 85.4591C48.3434 86.3742 51.2099 86.8443 54.1291 86.8443C54.2563 86.8443 54.3835 86.8436 54.5107 86.8415C54.1748 86.6387 53.8501 86.4029 53.5402 86.1377C53.2788 85.9159 53.0286 85.6724 52.7918 85.4121Z" fill="#481B15"/>
<path d="M62.7601 83.9674C62.7686 83.9477 62.7756 83.9281 62.7826 83.9084C62.9583 83.4411 63.0869 82.9331 63.167 82.3857C63.1825 82.2854 63.1951 82.1829 63.2071 82.079C63.3202 81.0742 63.2738 80.0083 63.1115 78.9311C62.8332 78.7241 62.557 78.508 62.2823 78.2806C62.141 78.1648 62.0005 78.0462 61.8606 77.9248C61.8135 77.8841 61.7664 77.8427 61.7194 77.8013C61.687 77.7732 61.6554 77.7445 61.6231 77.7157C61.583 77.6799 61.5423 77.6434 61.5022 77.6069C61.4636 77.5718 61.4242 77.5368 61.3856 77.5003C61.3849 77.5003 61.3834 77.4996 61.3827 77.4982C61.7742 79.0223 61.9632 80.5591 61.81 81.9226C61.7791 82.1997 61.7341 82.4643 61.6751 82.7155C61.5366 83.3113 61.3216 83.8334 61.0307 84.2797C60.9674 84.3779 60.9 84.4726 60.829 84.5632C60.6456 84.7968 60.4382 85.0059 60.207 85.1898C60.0363 85.3252 59.8655 85.448 59.6933 85.5582C58.5528 86.2908 57.3813 86.4684 56.2028 86.0866C56.1824 86.0803 56.162 86.0733 56.1416 86.0663C55.7221 85.9231 55.3096 85.7063 54.916 85.4298C53.6511 84.54 52.5843 83.0334 52.124 81.3808C51.8239 80.3023 51.3791 79.1395 50.8781 77.9957C50.5119 77.1592 50.1149 76.3333 49.7213 75.5586C49.5534 75.7488 49.3833 75.9354 49.2132 76.1172C49.0411 76.3003 48.8689 76.48 48.6953 76.6554C48.9328 77.1326 49.1683 77.6252 49.3931 78.1227C49.9525 79.3535 50.4522 80.6145 50.7698 81.7562C50.9371 82.3569 51.169 82.9387 51.4543 83.4867C51.7073 83.9751 52.0032 84.4375 52.332 84.8635C52.4789 85.0537 52.6321 85.2368 52.7916 85.4123C53.0285 85.6726 53.2786 85.9161 53.5401 86.1378C53.85 86.4031 54.1746 86.6389 54.5106 86.8417C54.9167 87.0866 55.3384 87.2824 55.7692 87.422C56.2316 87.5715 56.7868 87.6844 57.408 87.6844C58.4797 87.6844 59.7481 87.349 61.0827 86.2873C61.2689 86.1392 61.4439 85.9799 61.6062 85.8101C61.8803 85.5245 62.1206 85.208 62.3265 84.8614C62.4938 84.5828 62.6379 84.2846 62.7601 83.9674Z" fill="#481B15"/>
<path d="M81.6196 31.0008C81.4074 31.5425 80.796 31.8092 80.2542 31.598C80.1459 31.5559 69.3721 27.3708 63.7663 26.9659C62.6995 26.8894 61.9307 27.1371 61.4163 27.7251C60.1991 29.116 60.5062 32.1537 60.7276 33.207C60.847 33.7754 60.4823 34.334 59.9131 34.454C59.84 34.4694 59.7669 34.4765 59.6945 34.4765C59.2075 34.4765 58.7704 34.1382 58.665 33.6435C58.6545 33.5951 58.4141 32.4464 58.4155 31.0176C58.4176 28.9854 58.892 27.4136 59.8245 26.3441C60.4893 25.5835 61.7395 24.7084 63.9181 24.8663C69.8422 25.2937 80.5683 29.4605 81.0216 29.6374C81.5641 29.8493 81.8318 30.4598 81.6196 31.0008Z" fill="#481B15"/>
<path d="M82.0784 41.4138C82.0784 45.7764 78.5963 49.3658 74.1289 49.8121C74.7867 50.0092 75.4592 50.1068 76.1346 50.1068C77.6539 50.1068 79.1789 49.6156 80.5288 48.6605C82.5991 47.1967 83.8353 44.9238 83.8353 42.5822C83.8353 38.9142 81.4818 35.7572 78.129 34.3916H78.1283C80.5099 35.9066 82.0784 38.4862 82.0784 41.4138Z" fill="white"/>
<path d="M85.2409 42.5825C85.2409 45.3789 83.7827 48.0791 81.3406 49.8061C79.7482 50.9323 77.9435 51.512 76.1389 51.512C75.1965 51.512 74.2541 51.3541 73.3419 51.0334C72.7579 50.8285 72.299 50.6699 71.9308 50.5429C71.7846 50.4924 71.6518 50.4467 71.5302 50.4039C71.1838 50.0931 70.8352 49.778 70.4838 49.4608C71.337 49.7198 72.2456 49.8594 73.1887 49.8594C73.5064 49.8594 73.8198 49.8433 74.129 49.8124C74.7861 50.0096 75.4586 50.1071 76.1346 50.1071C77.654 50.1071 79.179 49.6159 80.5289 48.6608C82.5992 47.197 83.8354 44.9241 83.8354 42.5825C83.8354 38.9146 81.4819 35.7575 78.129 34.3919H78.1283C76.7158 33.493 75.0166 32.9688 73.1887 32.9688C68.2793 32.9688 64.2989 36.7497 64.2989 41.4141C64.2989 42.3881 64.4732 43.3235 64.7923 44.1943C64.3945 43.8154 64.0024 43.4393 63.6194 43.0688C63.6039 42.9081 63.5962 42.746 63.5962 42.5825C63.5962 36.8943 68.4508 32.2671 74.4185 32.2671C80.3863 32.2671 85.2409 36.8943 85.2409 42.5825Z" fill="#481B15"/>
<path d="M73.8018 37.0077C76.0927 37.2947 77.8615 39.1557 77.8615 41.4103C77.8615 43.8635 75.7681 45.8529 73.1855 45.8529C70.6029 45.8529 68.5094 43.8643 68.5094 41.4103C68.5094 39.2076 70.1974 37.3796 72.4117 37.0294C72.2234 36.988 72.04 36.9607 71.8622 36.9487C69.7841 37.5262 68.2627 39.3451 68.2627 41.4931C68.2627 44.1049 70.5108 46.2298 73.2733 46.2298C76.0358 46.2298 78.2839 44.1049 78.2839 41.4931C78.2839 39.1199 76.4272 37.148 74.0133 36.8091H74.0126C74.0126 36.8091 74.0126 36.8091 74.0119 36.8091C73.9507 36.8849 73.8805 36.9515 73.8025 37.0077H73.8018Z" fill="#481B15"/>
<path d="M73.1886 49.8593C73.5062 49.8593 73.8197 49.8432 74.1289 49.8123C78.597 49.366 82.0784 45.7767 82.0784 41.414C82.0784 38.4864 80.5098 35.9069 78.1282 34.3919C76.7157 33.4929 75.0165 32.9688 73.1886 32.9688C68.2792 32.9688 64.2988 36.7497 64.2988 41.414C64.2988 42.388 64.4731 43.3234 64.7922 44.1943C66.6137 45.9283 68.5744 47.7338 70.4837 49.4607C71.3369 49.719 72.2455 49.8593 73.1886 49.8593ZM80.3686 40.0232C80.3032 40.5565 79.8486 40.9481 79.3236 40.9481C79.2955 40.9481 79.2674 40.9467 79.2393 40.9446C79.2582 41.1256 79.2674 41.3088 79.2674 41.494C79.2674 44.6476 76.5787 47.2131 73.2729 47.2131C69.9672 47.2131 67.2785 44.6476 67.2785 41.494C67.2785 40.6435 67.4739 39.8359 67.8252 39.1096C67.8252 39.1096 67.8252 39.1089 67.8252 39.1082C67.7571 39.0899 67.6896 39.0661 67.6235 39.0338C67.1021 38.7748 66.8899 38.1433 67.1492 37.6226C67.1998 37.5209 67.6741 36.6044 68.6713 35.8472C69.6299 35.1195 71.249 34.408 73.5175 35.1532C73.8548 35.2641 74.0973 35.5287 74.1949 35.843H74.1956C75.6433 36.0571 76.9202 36.7665 77.8303 37.784L78.157 36.5847C79.0383 36.824 80.6335 37.8507 80.3672 40.0225L80.3686 40.0232Z" fill="#481B15"/>
<path d="M68.5093 41.4114C68.5093 43.8647 70.6028 45.8541 73.1854 45.8541C75.768 45.8541 77.8615 43.8654 77.8615 41.4114C77.8615 39.1568 76.0926 37.2951 73.8017 37.0088C73.5374 37.1976 73.191 37.2628 72.8593 37.154C72.7068 37.1042 72.5578 37.0635 72.4116 37.0312C70.1973 37.3821 68.5093 39.2094 68.5093 41.4121V41.4114Z" fill="#351411"/>
<path d="M78.2754 39.7676C78.3387 39.2532 78.1623 39.0146 78.0245 38.8799C77.8285 38.6883 77.5902 38.6126 77.5874 38.6119L77.6043 38.6168L77.8306 37.7852C76.9205 36.7677 75.6436 36.0583 74.196 35.8442H74.1953C74.2578 36.0456 74.2613 36.2674 74.1896 36.4828C74.1489 36.6056 74.0877 36.7151 74.0111 36.8105C74.0111 36.8105 74.0111 36.8105 74.0119 36.8105H74.0125C76.4265 37.1495 78.2832 39.1213 78.2832 41.4945C78.2832 44.1064 76.0358 46.2312 73.2726 46.2312C70.5093 46.2312 68.262 44.1064 68.262 41.4945C68.262 39.3466 69.7834 37.527 71.8614 36.9502C71.1481 36.9024 70.5164 37.0919 69.9478 37.5235C69.3414 37.9838 69.0399 38.555 69.0371 38.5606C68.853 38.9304 68.4798 39.1445 68.0926 39.1445C68.0033 39.1445 67.9141 39.1318 67.8255 39.1087C67.8255 39.1087 67.8255 39.1094 67.8255 39.1101C67.4742 39.8364 67.2788 40.6441 67.2788 41.4945C67.2788 44.6481 69.9682 47.2136 73.2733 47.2136C76.5783 47.2136 79.2677 44.6481 79.2677 41.4945C79.2677 41.3093 79.2586 41.1261 79.2396 40.9451C79.2241 40.9437 79.2094 40.943 79.1939 40.9409C78.6163 40.87 78.2051 40.3451 78.2754 39.7683V39.7676Z" fill="#351411"/>
<path d="M77.6053 38.617L77.5884 38.612C77.5884 38.612 77.8287 38.6885 78.0255 38.8801C78.1632 39.0148 78.3396 39.2534 78.2764 39.7678C78.2054 40.3446 78.6165 40.8702 79.1949 40.9404C79.2103 40.9425 79.2251 40.9432 79.2405 40.9446C79.2687 40.9467 79.2968 40.9481 79.3249 40.9481C79.8498 40.9481 80.3045 40.5565 80.3699 40.0232C80.6362 37.8507 79.0403 36.824 78.1597 36.5854L77.8329 37.7847L77.6067 38.6162L77.6053 38.617Z" fill="white"/>
<path d="M69.0379 38.5602C69.0408 38.5546 69.3422 37.9841 69.9487 37.5231C70.5172 37.0915 71.149 36.9013 71.8623 36.9497C72.0401 36.9617 72.2235 36.989 72.4118 37.0304C72.558 37.0627 72.707 37.1034 72.8595 37.1532C73.1912 37.262 73.5383 37.1968 73.8019 37.008C73.8799 36.9526 73.9502 36.8859 74.0113 36.8094C74.0879 36.714 74.1497 36.6045 74.1898 36.4817C74.2608 36.2663 74.2573 36.0445 74.1954 35.8431C74.0977 35.5287 73.8553 35.2635 73.518 35.1533C71.2502 34.4081 69.6311 35.1189 68.6718 35.8473C67.6746 36.6045 67.2003 37.521 67.1497 37.6227C66.8903 38.1434 67.1026 38.7749 67.624 39.0339C67.6901 39.0669 67.7575 39.09 67.8257 39.1083C67.9142 39.1314 68.0035 39.144 68.0927 39.144C68.48 39.144 68.8531 38.93 69.0372 38.5602H69.0379Z" fill="white"/>
<path d="M81.208 59.8093C81.0688 59.9721 80.8714 60.0556 80.6732 60.0556C80.5115 60.0556 80.3499 60.0008 80.2171 59.8879C80.1075 59.7945 69.1411 50.4503 61.9098 43.3643C59.4607 40.9644 57.1437 39.8458 54.6223 39.8458H54.6012C54.5668 39.8458 54.533 39.8423 54.5 39.8374C54.8394 39.789 55.1001 39.4985 55.1016 39.1455C55.1023 38.7918 54.8401 38.4999 54.5 38.4508C54.5323 38.4459 54.5654 38.4424 54.5998 38.4424H54.6223C57.5366 38.4424 60.1649 39.6879 62.8936 42.3622C63.1319 42.5952 63.3743 42.831 63.6196 43.0689C64.0026 43.4394 64.3947 43.8155 64.7925 44.1944C66.6147 45.9284 68.5754 47.734 70.484 49.4609C70.8354 49.7781 71.184 50.0932 71.5304 50.404C76.6106 54.9695 81.0597 58.7602 81.1293 58.8198C81.4244 59.0711 81.4596 59.5139 81.208 59.8093Z" fill="#481B15"/>
<path d="M75.5361 57.9596C75.3977 58.1379 75.1903 58.2312 74.9802 58.2312C74.8298 58.2312 74.678 58.1828 74.5501 58.0838L66.3919 51.7578C64.0405 49.9347 62.0567 48.7824 60.4621 48.0555C60.9611 48.5067 61.3687 49.0288 61.6125 49.6301C62.1333 50.9136 61.8578 52.3156 60.7945 53.7977C59.5963 55.4678 58.5218 56.1499 57.5085 55.8853C57.4326 55.865 57.3609 55.839 57.2906 55.8102C57.1838 55.6853 57.0418 55.6067 56.8915 55.578C55.8352 54.7675 55.5668 52.8461 55.519 52.4132C55.4768 52.0279 55.7551 51.6813 56.1409 51.6392C56.5246 51.5964 56.8732 51.8743 56.9161 52.2595C57.0264 53.2419 57.4558 54.4208 57.8648 54.5275C57.914 54.5401 58.3131 54.6033 59.1508 53.6251C59.1557 53.8412 59.1459 54.0665 59.1206 54.3022C59.0995 54.4945 59.2393 54.6678 59.4319 54.6882C59.4445 54.6903 59.4572 54.6903 59.4698 54.6903C59.6469 54.6903 59.7994 54.557 59.8191 54.3773C59.8802 53.8103 59.8627 53.2875 59.7699 52.8104C60.4474 51.8034 60.6245 50.9339 60.3103 50.1585C59.642 48.5088 56.8528 47.4913 55.2056 47.0744C55.6434 46.9755 56.0278 46.9018 56.3272 46.8548C56.661 46.8022 56.9097 46.5194 56.9203 46.1818C56.9301 45.845 56.6975 45.5482 56.3679 45.4759C56.3335 45.4682 56.1908 45.4394 55.9512 45.4106C57.9111 45.4822 61.6905 46.3355 67.2535 50.649L75.4117 56.9751C75.7188 57.213 75.7743 57.6537 75.5361 57.9596Z" fill="#481B15"/>
<path d="M59.8188 54.3771C59.7992 54.5567 59.6467 54.69 59.4696 54.69C59.4569 54.69 59.4443 54.69 59.4316 54.6879C59.2391 54.6676 59.0992 54.4942 59.1203 54.302C59.1456 54.0662 59.1554 53.8409 59.1505 53.6248C59.1301 52.7476 58.8624 52.0284 58.348 51.4824C57.0634 50.1162 54.6417 50.2088 54.6171 50.2102C54.5756 50.2116 54.5363 50.2046 54.499 50.1934C54.6382 50.1513 54.7422 50.0284 54.7492 49.8762C54.7569 49.712 54.6501 49.5702 54.4997 49.5246C54.5264 49.5162 54.5545 49.5106 54.5841 49.5092C54.6965 49.5036 57.348 49.3976 58.8575 50.9989C59.3283 51.4979 59.6319 52.1049 59.7696 52.8101C59.8624 53.2873 59.88 53.8101 59.8188 54.3771Z" fill="#481B15"/>
<path d="M92.7887 39.9578C92.6593 38.7824 92.5104 37.4597 92.3389 35.9713C91.6186 29.7175 88.348 23.6862 85.7309 19.7277C82.8771 15.41 80.1574 12.5512 80.13 12.5224C79.8623 12.2424 79.8721 11.7982 80.1525 11.5301C80.4336 11.2628 80.8778 11.2726 81.1462 11.5526C81.2601 11.6719 83.9663 14.5146 86.8884 18.9313C88.6066 21.5277 90.0381 24.1269 91.1414 26.6566C92.5293 29.8354 93.4014 32.916 93.7353 35.8113C93.9032 37.2681 94.0494 38.567 94.1773 39.7277C94.1576 39.6771 94.1464 39.6484 94.145 39.6456C94.0072 39.2835 93.601 39.1017 93.2384 39.24C92.9376 39.3543 92.7612 39.6526 92.7887 39.9578Z" fill="#481B15"/>
<path d="M95.0274 49.322L94.981 49.3178L93.6297 49.1761C93.6297 49.1761 93.629 49.1831 93.6276 49.2006C93.6297 49.1592 93.6557 48.3887 93.1982 43.8429C93.0914 42.7777 92.9578 41.5069 92.792 39.9897C92.799 40.0424 92.8124 40.0943 92.8313 40.1455C92.8665 40.2368 93.6205 42.2086 94.6669 44.4106C95.0731 48.5585 95.0366 49.2392 95.0274 49.322Z" fill="#481B15"/>
<path d="M106.192 36.0968C104.657 41.4047 102.276 48.2297 100.616 49.9938C100.262 50.3706 99.899 50.5608 99.535 50.5608C99.4963 50.5608 99.457 50.5587 99.4183 50.5545C98.6347 50.4668 97.3241 49.8051 94.9966 45.0901C94.8842 44.8621 94.7738 44.6347 94.667 44.4102C93.6206 42.2082 92.8666 40.2363 92.8314 40.1451C92.8125 40.0939 92.7991 40.0419 92.7921 39.9893C92.79 39.9788 92.7893 39.9682 92.7886 39.9577C92.7612 39.6525 92.9376 39.3542 93.2383 39.2398C93.601 39.1016 94.0071 39.2834 94.1449 39.6454C94.1463 39.6483 94.1575 39.677 94.1772 39.7276C94.3473 40.1675 95.1976 42.3246 96.2609 44.4775C98.1688 48.3399 99.1843 49.017 99.4865 49.1349C99.6776 48.9763 100.349 48.2493 101.614 45.1905C102.564 42.8951 103.621 39.8293 104.592 36.5592C106.722 29.3862 107.902 23.1415 107.529 21.0202C107.429 20.4532 106.727 19.1326 103.147 16.6583C100.781 15.0232 97.478 13.1152 93.5946 11.1406C86.1581 7.35967 79.1595 4.59206 77.794 4.42084C75.0385 4.07559 73.7567 5.15976 73.6675 5.23905C73.4089 5.49308 73.0118 5.49799 72.7335 5.26502C67.6934 1.03781 54.7544 1.41113 54.6244 1.41604C54.5822 1.41674 54.5401 1.41394 54.5 1.40832C54.8303 1.3599 55.0896 1.08272 55.1008 0.737473C55.1128 0.376785 54.8493 0.0708317 54.5 0.0203074C54.5253 0.0167987 54.5513 0.0139918 54.578 0.0132901C54.7157 0.008378 57.9941 -0.0933725 61.9815 0.35433C67.0827 0.926237 70.8544 2.10163 73.2065 3.85034C73.9493 3.39562 75.515 2.72055 77.9697 3.02791C79.7034 3.24545 87.0267 6.22638 94.2327 9.8901C98.1709 11.8928 101.53 13.8338 103.947 15.5046C107.04 17.6428 108.665 19.3676 108.913 20.7774C109.39 23.4861 107.82 30.4669 106.192 36.0968Z" fill="#481B15"/>
<path d="M50.5845 31.018C50.5859 32.4467 50.3448 33.5954 50.335 33.6439C50.2296 34.1386 49.7918 34.4775 49.3048 34.4775C49.2324 34.4775 49.1586 34.4705 49.0848 34.4544C48.5156 34.3337 48.1523 33.7758 48.2724 33.2074C48.4931 32.1541 48.8009 29.1163 47.5837 27.7255C47.0693 27.1374 46.3005 26.889 45.2337 26.9662C39.6279 27.3711 28.8541 31.5562 28.7458 31.5983C28.2033 31.8102 27.5919 31.5429 27.3804 31.0012C27.1682 30.4601 27.4359 29.8496 27.9777 29.6377C28.4317 29.4609 39.1578 25.294 45.0812 24.8667C47.2612 24.7095 48.5107 25.5838 49.1748 26.3445C50.108 27.4139 50.5824 28.9858 50.5845 31.018Z" fill="#481B15"/>
<path d="M26.9204 41.4141C26.9204 38.4872 28.4883 35.9076 30.8692 34.3926C30.8678 34.3926 30.8671 34.3926 30.8664 34.394C27.5157 35.7595 25.1636 38.9152 25.1636 42.5824C25.1636 44.9241 26.3997 47.197 28.47 48.6608C30.4201 50.0397 32.735 50.4523 34.8728 49.813H34.8742C30.404 49.3688 26.9197 45.7781 26.9197 41.4141H26.9204Z" fill="white"/>
<path d="M45.4039 42.5825C45.4039 42.746 45.3962 42.9074 45.3808 43.0681C44.9978 43.4393 44.6056 43.8154 44.2072 44.1943C44.5269 43.3235 44.7012 42.3881 44.7012 41.4141C44.7012 36.7497 40.7208 32.9688 35.8114 32.9688C33.9829 32.9688 32.2829 33.4937 30.8704 34.3926C30.8697 34.3933 30.8683 34.394 30.8676 34.394C27.5169 35.7596 25.1648 38.9153 25.1648 42.5825C25.1648 44.9241 26.4009 47.197 28.4712 48.6608C30.4213 50.0397 32.7362 50.4524 34.874 49.8131H34.8754C35.1832 49.8433 35.4952 49.8594 35.8114 49.8594C36.7545 49.8594 37.6625 49.7198 38.5156 49.4608C38.1649 49.7787 37.8157 50.0931 37.4692 50.4046H37.4685C37.3476 50.4467 37.2155 50.4924 37.0693 50.5429C36.7004 50.6699 36.2415 50.8285 35.6575 51.0334C34.7461 51.3541 33.803 51.512 32.8613 51.512C31.0559 51.512 29.2513 50.933 27.6588 49.8061C25.2168 48.0791 23.7593 45.3789 23.7593 42.5825C23.7593 36.8943 28.6139 32.2671 34.5816 32.2671C40.5494 32.2671 45.4039 36.8943 45.4039 42.5825Z" fill="#481B15"/>
<path d="M40.4899 41.4113C40.4899 43.8645 38.3964 45.8539 35.8138 45.8539C33.2312 45.8539 31.1377 43.8652 31.1377 41.4113C31.1377 39.1566 32.9066 37.295 35.1975 37.0086C35.1195 36.9532 35.0492 36.8865 34.9881 36.8101H34.9874C32.5742 37.1483 30.7168 39.1201 30.7168 41.4941C30.7168 44.1059 32.9642 46.2307 35.7267 46.2307C38.4892 46.2307 40.7373 44.1059 40.7373 41.4941C40.7373 39.3517 39.2236 37.5385 37.1561 36.9539C36.9776 36.9637 36.7893 36.9883 36.5918 37.0311C38.8047 37.3827 40.4913 39.2093 40.4913 41.4113H40.4899Z" fill="#481B15"/>
<path d="M44.7004 41.414C44.7004 36.7497 40.7201 32.9688 35.8107 32.9688C33.9821 32.9688 32.2829 33.4936 30.8696 34.3926C28.4887 35.9076 26.9209 38.4871 26.9209 41.414C26.9209 45.7781 30.4051 49.3688 34.8753 49.813C35.1831 49.8439 35.4951 49.8593 35.8107 49.8593C36.7538 49.8593 37.6624 49.719 38.5156 49.4607C40.4249 47.7338 42.3856 45.9283 44.2071 44.1943C44.5269 43.3234 44.7004 42.388 44.7004 41.414ZM29.7319 41.494C29.7319 41.3088 29.741 41.1256 29.76 40.9446C29.7319 40.9467 29.7038 40.9481 29.6757 40.9481C29.1507 40.9481 28.696 40.5565 28.6307 40.0232C28.3643 37.8507 29.9603 36.824 30.8408 36.5855L31.1676 37.7854C32.0784 36.7672 33.356 36.0571 34.8036 35.843C34.9013 35.5287 35.1438 35.2641 35.4804 35.1532C37.7489 34.408 39.3673 35.1188 40.3258 35.8472C41.323 36.6044 41.7974 37.5209 41.848 37.6226L40.6386 38.2233C41.3195 39.1503 41.7194 40.2786 41.7194 41.494C41.7194 44.6476 39.0307 47.2131 35.7249 47.2131C32.4192 47.2131 29.7312 44.6476 29.7312 41.494H29.7319Z" fill="#481B15"/>
<path d="M31.1369 41.4114C31.1369 43.8647 33.2304 45.8541 35.813 45.8541C38.3956 45.8541 40.4891 43.8654 40.4891 41.4114C40.4891 39.2094 38.8025 37.3828 36.5896 37.0312C36.4448 37.0621 36.2944 37.1028 36.1391 37.154C35.8074 37.2635 35.4602 37.1976 35.196 37.0088C32.905 37.2958 31.1362 39.1568 31.1362 41.4114H31.1369Z" fill="#351411"/>
<path d="M41.7206 41.494C41.7206 40.2786 41.3207 39.1502 40.6397 38.2232L39.9616 38.5601L39.9651 38.5671C39.8611 38.3671 39.0122 36.8514 37.1548 36.9531C39.223 37.5377 40.736 39.3509 40.736 41.4933C40.736 44.1051 38.4886 46.23 35.7254 46.23C32.9622 46.23 30.7155 44.1051 30.7155 41.4933C30.7155 39.1194 32.5729 37.1475 34.9861 36.8093H34.9868C34.9102 36.7138 34.8484 36.6044 34.8083 36.4816C34.7373 36.2654 34.7409 36.0437 34.8034 35.8423C33.3557 36.0563 32.0781 36.7665 31.1674 37.7847L31.3937 38.6162L31.4105 38.6113C31.4105 38.6113 31.1695 38.6878 30.9734 38.8794C30.8357 39.0141 30.6593 39.2527 30.7225 39.767C30.7935 40.3439 30.3824 40.8695 29.804 40.9396C29.7893 40.9417 29.7738 40.9424 29.7591 40.9438C29.7401 41.1249 29.731 41.308 29.731 41.4933C29.731 44.6469 32.4197 47.2124 35.7247 47.2124C39.0297 47.2124 41.7191 44.6469 41.7191 41.4933L41.7206 41.494Z" fill="#351411"/>
<path d="M30.7232 39.7678C30.66 39.2534 30.8364 39.0148 30.9741 38.8801C31.1702 38.6885 31.4091 38.6127 31.4112 38.612L31.3944 38.617L31.1681 37.7854L30.8413 36.5854C29.9601 36.8247 28.3648 37.8514 28.6312 40.0232C28.6965 40.5565 29.1512 40.9481 29.6762 40.9481C29.7043 40.9481 29.7324 40.9467 29.7605 40.9446C29.7752 40.9432 29.7907 40.9425 29.8055 40.9404C30.3831 40.8695 30.7942 40.3446 30.7239 39.7678H30.7232Z" fill="white"/>
<path d="M34.8092 36.4821C34.8499 36.6049 34.9118 36.7143 34.9877 36.8098C35.0488 36.8855 35.1191 36.9522 35.1971 37.0083C35.4613 37.1971 35.8078 37.2624 36.1402 37.1536C36.2955 37.1024 36.4459 37.0624 36.5906 37.0308C36.7881 36.9887 36.9764 36.9634 37.1549 36.9536C39.0123 36.8519 39.8612 38.3669 39.9652 38.5676L39.9617 38.5606L40.6399 38.2237L41.8493 37.6231C41.7987 37.5213 41.3243 36.6049 40.3271 35.8477C39.3686 35.12 37.7495 34.4084 35.4817 35.1537C35.1451 35.2646 34.9026 35.5291 34.8049 35.8435C34.7424 36.0449 34.7389 36.2673 34.8099 36.4828L34.8092 36.4821Z" fill="white"/>
<path d="M55.1014 39.1455C55.1 39.4985 54.8392 39.789 54.4998 39.8374C54.4668 39.8423 54.433 39.8458 54.3986 39.8458H54.3775C51.8554 39.8458 49.5391 40.9644 47.09 43.3643C39.8587 50.4503 28.8923 59.7945 28.782 59.8879C28.6499 60.0001 28.4876 60.0556 28.3266 60.0556C28.1277 60.0556 27.9303 59.9721 27.7911 59.8093C27.5395 59.5139 27.5754 59.0711 27.8705 58.8198C27.9401 58.7602 32.3878 54.9702 37.468 50.4047H37.4687C37.8151 50.0932 38.1644 49.7788 38.5151 49.4609C40.4244 47.734 42.3851 45.9284 44.2066 44.1944C44.6051 43.8155 44.9972 43.4394 45.3802 43.0689C45.6255 42.831 45.8679 42.5952 46.1055 42.3622C48.8342 39.6886 51.4632 38.4424 54.3768 38.4424H54.4C54.4337 38.4424 54.4668 38.4459 54.4998 38.4508C54.8399 38.4999 55.1021 38.7918 55.1014 39.1455Z" fill="#481B15"/>
<path d="M56.9202 46.1815C56.9096 46.5191 56.6609 46.8019 56.3271 46.8545C56.0277 46.9015 55.6433 46.9752 55.2055 47.0741C53.034 47.5675 49.5617 48.7057 48.8062 50.5098C48.5195 51.194 48.658 51.9483 49.23 52.8094C49.1365 53.2872 49.119 53.81 49.1808 54.377C49.1998 54.5567 49.3523 54.69 49.5294 54.69C49.542 54.69 49.5547 54.69 49.5673 54.6879C49.7606 54.6675 49.8997 54.4942 49.8793 54.3019C49.854 54.0697 49.8442 53.8472 49.8484 53.6332C50.4408 54.3468 50.7606 54.5054 50.8625 54.5398C51.0635 54.2984 51.2082 53.3167 51.1668 52.441C51.1478 52.0536 51.4472 51.7245 51.8344 51.7063C52.2237 51.688 52.5512 51.9848 52.5702 52.3722C52.5716 52.4003 52.6032 53.0655 52.5153 53.7806C52.3699 54.9658 51.9798 55.6528 51.3235 55.8815C51.178 55.9321 51.0332 55.9552 50.8899 55.9552C49.8941 55.9552 48.9454 54.8296 48.2054 53.7974C47.2412 52.4543 47.0079 51.1659 47.5104 49.9674C47.8364 49.1892 48.4703 48.4811 49.405 47.8503C47.4942 48.5695 45.1737 49.7681 42.608 51.7575L34.4498 58.0835C34.3212 58.1825 34.1701 58.2309 34.019 58.2309C33.8096 58.2309 33.6023 58.1376 33.4638 57.9593C33.2256 57.6534 33.2811 57.2127 33.5875 56.9748L41.7457 50.6487C48.9369 45.0728 54.4275 45.2293 55.9511 45.4104C56.1907 45.4391 56.3334 45.4679 56.3678 45.4756C56.6974 45.5479 56.93 45.8447 56.9202 46.1815Z" fill="#481B15"/>
<path d="M54.7494 49.8762C54.7424 50.0284 54.6384 50.1513 54.4993 50.1934C54.4627 50.2046 54.4234 50.2116 54.3819 50.2102C54.358 50.2088 51.9363 50.1162 50.651 51.4824C50.1352 52.0305 49.8667 52.7526 49.8485 53.6332C49.8443 53.8472 49.8541 54.0697 49.8794 54.302C49.8998 54.4942 49.7606 54.6676 49.5674 54.6879C49.5547 54.69 49.5421 54.69 49.5294 54.69C49.3523 54.69 49.1998 54.5567 49.1809 54.3771C49.119 53.8101 49.1366 53.2873 49.2301 52.8094C49.3671 52.1042 49.6707 51.4979 50.1415 50.9989C51.651 49.3976 54.3032 49.5036 54.4149 49.5092C54.4445 49.5106 54.4726 49.5162 54.5 49.5246C54.6504 49.5702 54.7572 49.712 54.7494 49.8762Z" fill="#481B15"/>
<path d="M16.1676 40.1453C16.1858 40.0983 16.1985 40.0499 16.2055 40.0015C16.0404 41.5137 15.9076 42.781 15.8007 43.8427C15.3439 48.3885 15.3692 49.159 15.3714 49.2004C15.3707 49.1829 15.3692 49.1759 15.3692 49.1759L14.0186 49.3169L13.9715 49.3218C13.963 49.239 13.9265 48.5583 14.332 44.4104C15.3784 42.2084 16.1331 40.2365 16.1676 40.1453Z" fill="#481B15"/>
<path d="M29.0647 12.0382C29.0647 12.2122 29 12.387 28.87 12.5224C28.8426 12.5512 26.123 15.41 23.2684 19.7277C20.6521 23.6862 17.3815 29.7175 16.6604 35.9713C16.4897 37.4534 16.3414 38.7705 16.2121 39.9424C16.2332 39.6427 16.0575 39.3522 15.7616 39.24C15.3983 39.1024 14.9928 39.2835 14.8544 39.6456C14.8544 39.6484 14.8424 39.6778 14.8228 39.7284C14.95 38.567 15.0968 37.2681 15.2641 35.8113C15.5979 32.916 16.4707 29.8354 17.8579 26.6566C18.9619 24.1269 20.3927 21.5277 22.111 18.9313C25.0337 14.5146 27.74 11.6719 27.8538 11.5526C28.1216 11.2726 28.5664 11.2628 28.8468 11.5301C28.9916 11.6684 29.0647 11.8529 29.0647 12.0382Z" fill="#481B15"/>
<path d="M55.1009 0.737473C55.0896 1.08272 54.8303 1.3599 54.5 1.40832C54.4593 1.41394 54.4178 1.41674 54.3756 1.41604C54.2449 1.41183 41.3059 1.03781 36.2658 5.26502C35.9882 5.49799 35.5905 5.49238 35.3325 5.23905C35.2426 5.15976 33.9608 4.07489 31.2053 4.42084C29.8399 4.59206 22.8419 7.35967 15.4047 11.1406C11.5213 13.1152 8.21838 15.0232 5.85292 16.6583C2.27242 19.1326 1.57037 20.4532 1.47058 21.0202C1.09742 23.1415 2.27804 29.3862 4.40737 36.5592C5.37857 39.8293 6.43621 42.8951 7.38562 45.1905C8.65057 48.2493 9.32169 48.9763 9.51354 49.1349C9.81573 49.017 10.8312 48.3399 12.7385 44.4775C13.8017 42.3246 14.652 40.1675 14.8228 39.7283C14.8425 39.6777 14.8537 39.6483 14.8544 39.6454C14.9929 39.2834 15.3984 39.1023 15.7617 39.2398C16.0575 39.3521 16.2332 39.6426 16.2121 39.9423C16.2107 39.9619 16.2086 39.9816 16.2058 40.0012C16.1988 40.0496 16.1861 40.0981 16.1679 40.1451C16.1334 40.2363 15.3787 42.2082 14.3323 44.4102C14.2255 44.6347 14.1158 44.8621 14.0034 45.0901C11.6759 49.8051 10.3646 50.4668 9.58101 50.5545C9.54236 50.5587 9.50371 50.5608 9.46505 50.5608C9.10103 50.5608 8.73771 50.3706 8.38352 49.9938C6.72363 48.2297 4.34272 41.4047 2.80791 36.0968C1.17964 30.4669 -0.390298 23.4861 0.0868688 20.7774C0.334939 19.3676 1.95899 17.6428 5.0532 15.5046C7.46925 13.8338 10.8284 11.8928 14.7673 9.8901C21.9726 6.22638 29.2966 3.24545 31.0303 3.02791C33.4843 2.71985 35.0507 3.39562 35.7928 3.85034C38.1449 2.10163 41.9173 0.926237 47.0186 0.35433C51.006 -0.0933725 54.2843 0.008378 54.422 0.0132901C54.448 0.0139918 54.474 0.0167987 54.5 0.0203074C54.8493 0.0708317 55.1128 0.376785 55.1009 0.737473Z" fill="#481B15"/>
<path d="M55.3038 66.2367C55.3059 66.337 55.2863 66.4332 55.2504 66.5209C55.2413 66.4984 55.2307 66.4767 55.2188 66.4556C55.2125 66.4437 55.2061 66.4325 55.1984 66.4213C55.1886 66.4044 55.178 66.3883 55.1661 66.3728C55.1563 66.3588 55.1457 66.3455 55.1345 66.3328C55.1232 66.3195 55.1113 66.3069 55.0993 66.2949C55.0874 66.283 55.0747 66.2718 55.0621 66.2606C55.0494 66.2493 55.0361 66.2388 55.0227 66.229C54.996 66.2086 54.9679 66.1904 54.9384 66.1749C54.9251 66.1679 54.9124 66.1609 54.8991 66.1553C54.8941 66.1525 54.8885 66.1497 54.8829 66.1476C54.8555 66.1357 54.8274 66.1251 54.7993 66.1174C54.7852 66.1132 54.7711 66.1097 54.7564 66.1062C54.7402 66.1027 54.7241 66.0992 54.7079 66.0971C54.703 66.0957 54.6988 66.0957 54.6938 66.095C54.6924 66.0942 54.691 66.0942 54.6896 66.0942C54.677 66.0928 54.6636 66.0914 54.651 66.0907C54.6348 66.0893 54.6179 66.0886 54.6018 66.0886H54.6004C54.5842 66.0886 54.5674 66.0893 54.5512 66.0907C54.5428 66.0914 54.5343 66.0914 54.5259 66.0928C54.5175 66.0935 54.5097 66.0943 54.5013 66.0957C54.4844 66.0985 54.4683 66.1013 54.4521 66.1048C54.4352 66.1083 54.4191 66.1125 54.4029 66.1174C54.3832 66.1237 54.3636 66.13 54.3439 66.1378C54.3354 66.1399 54.3277 66.1434 54.32 66.1469C54.3186 66.1476 54.3165 66.1483 54.3151 66.1497C54.3059 66.1539 54.2961 66.1581 54.287 66.163C54.2687 66.1721 54.2504 66.1827 54.2321 66.1932C54.2146 66.2044 54.197 66.2163 54.1801 66.229C54.1534 66.2486 54.1274 66.2711 54.1035 66.2949C54.0916 66.3069 54.0796 66.3195 54.0691 66.3321C54.0579 66.3455 54.0473 66.3588 54.0368 66.3728C54.029 66.3834 54.0213 66.3939 54.0143 66.4051C54.0073 66.4156 54.0002 66.4269 53.9939 66.4381C53.9869 66.45 53.9806 66.4613 53.9749 66.4732C53.9686 66.4851 53.963 66.497 53.9574 66.5097C53.9574 66.5104 53.9567 66.5111 53.956 66.5132C53.9553 66.5153 53.9539 66.5181 53.9524 66.5209C53.9201 66.443 53.9004 66.3581 53.8983 66.269L53.7051 57.9325C53.7978 57.9514 53.8934 57.9668 53.9918 57.9774C54.1127 57.9907 54.2342 57.997 54.3565 57.997C54.6067 57.997 54.8583 57.9682 55.1099 57.9121L55.3038 66.2367Z" fill="#481B15"/>
<path d="M57.2091 56.8038C56.5127 57.3876 55.8107 57.7574 55.11 57.9125C54.8584 57.9686 54.6068 57.9974 54.3567 57.9974C54.2344 57.9974 54.1128 57.9911 53.9919 57.9778C53.8936 57.9672 53.798 57.9518 53.7052 57.9328C52.4255 57.6774 51.6876 56.7364 51.6546 56.6936C51.4185 56.3862 51.4761 55.9463 51.7839 55.7098C52.0896 55.4747 52.5288 55.5308 52.7656 55.8347C52.7825 55.855 53.3131 56.4992 54.1599 56.5841C54.8261 56.6508 55.5485 56.3631 56.3054 55.7287C56.4747 55.587 56.6905 55.5386 56.8915 55.5778C57.0419 55.6066 57.1838 55.6852 57.2906 55.8101C57.292 55.8115 57.2942 55.8129 57.2956 55.815C57.545 56.1119 57.5064 56.5547 57.2091 56.8038Z" fill="#481B15"/>
<path d="M83.4834 73.3262C83.4763 73.8307 83.4285 74.3318 83.3323 74.8244C83.3056 74.9598 83.2753 75.0939 83.2423 75.2258C82.7602 77.1303 81.5677 78.6502 79.6934 79.7477C77.0581 81.2901 74.4348 82.0634 71.8557 82.0634C71.226 82.0634 70.5999 82.0178 69.9765 81.9245C69.9055 81.9146 69.8346 81.9034 69.7636 81.8915C69.4495 81.8403 69.136 81.7764 68.8233 81.7013C68.5183 81.6276 68.214 81.5434 67.9104 81.4466C67.8739 81.4361 67.8366 81.4241 67.8001 81.4122C67.6673 81.3687 67.5338 81.3238 67.4009 81.2761C65.9427 80.7526 64.5056 79.9674 63.1114 78.9309C62.8331 78.7239 62.5569 78.5078 62.2821 78.2804C62.1409 78.1646 62.0003 78.046 61.8605 77.9246C61.8134 77.8839 61.7663 77.8425 61.7192 77.8011C61.6869 77.773 61.6553 77.7443 61.6229 77.7155C61.5829 77.6797 61.5421 77.6432 61.5021 77.6067C61.4634 77.5717 61.4241 77.5366 61.3854 77.5001C61.3847 77.5001 61.3833 77.4994 61.3826 77.498C61.2519 77.3787 61.1219 77.2566 60.9919 77.1317H60.9912C59.7944 75.9844 58.637 74.6462 57.5407 73.1403C56.1766 71.2666 55.19 69.5264 54.6011 68.3938C54.639 68.3215 54.6742 68.252 54.7086 68.1853C54.821 67.965 54.9159 67.7727 54.9932 67.6127C55.0389 67.518 55.0789 67.4345 55.112 67.3636C55.1921 67.1931 55.2364 67.0914 55.2455 67.071C55.301 66.9447 55.3158 66.8107 55.2961 66.6837C55.2961 66.6808 55.2954 66.678 55.2947 66.6752C55.2863 66.6219 55.2708 66.57 55.2504 66.5209C55.2603 66.5426 55.2834 66.5938 55.3193 66.671C55.3221 66.6766 55.3249 66.683 55.3277 66.6893C55.4085 66.8626 55.5477 67.1545 55.7437 67.5377C55.9103 67.8654 56.119 68.2576 56.3671 68.7011C56.9384 69.7207 57.7206 71.0028 58.6967 72.341C59.1654 72.9831 59.7023 73.6693 60.3032 74.362C60.3039 74.3627 60.3046 74.3634 60.3046 74.3641C60.7066 74.8265 61.1359 75.291 61.5934 75.7479H61.5941C61.9251 76.0805 62.2716 76.4075 62.6321 76.7261C62.7242 76.8068 62.8169 76.8875 62.9104 76.9675C64.4557 78.2867 66.2442 79.4312 68.2393 80.0789C68.623 80.2031 69.0088 80.3077 69.3968 80.3912H69.3975C69.5612 80.4277 69.7249 80.46 69.8894 80.4873C70.0398 80.514 70.1902 80.5372 70.3412 80.5561C70.6652 80.5996 70.9899 80.6284 71.316 80.6431C72.1438 80.6817 72.9787 80.6305 73.8191 80.4894C75.5212 80.2045 77.2458 79.5533 78.9823 78.5365C79.8319 78.0397 80.5002 77.4573 80.9956 76.7794C81.4721 76.1296 81.7883 75.3914 81.9521 74.5577C81.957 74.5325 81.9619 74.5079 81.9661 74.4827C82.8663 69.586 78.1031 63.3034 78.0546 63.2396C78.0518 63.2361 78.049 63.2326 78.0469 63.229C78.2387 63.1645 78.439 63.1196 78.6449 63.1034C78.704 63.0985 78.763 63.0971 78.8213 63.0978C79.1903 63.0992 79.543 63.201 79.8881 63.4038C81.1341 65.2739 83.5396 69.4042 83.4834 73.3262Z" fill="#481B15"/>
<path d="M54.3154 66.1496C54.3253 66.1454 54.3351 66.1412 54.3442 66.1377C54.3358 66.1398 54.3281 66.1433 54.3203 66.1468C54.3189 66.1475 54.3168 66.1482 54.3154 66.1496Z" fill="#481B15"/>
<path d="M55.2459 67.0709C55.2367 67.0913 55.1925 67.193 55.1124 67.3635C55.0793 67.4344 55.0393 67.5179 54.9936 67.6127C54.9163 67.7727 54.8214 67.9649 54.709 68.1853C54.6745 68.2519 54.6394 68.3214 54.6014 68.3937C54.0132 69.5263 53.0266 71.2666 51.6619 73.1402C51.0343 74.0033 50.3864 74.8103 49.7216 75.5583C49.5536 75.7485 49.3835 75.9351 49.2135 76.1169C49.0413 76.3 48.8691 76.4797 48.6955 76.6551C48.25 77.1056 47.7988 77.5288 47.3428 77.9245C47.179 78.0663 47.0146 78.2052 46.8494 78.3393C45.1902 79.6964 43.4657 80.6922 41.7102 81.3083C41.6076 81.3441 41.5057 81.3792 41.4031 81.4121C41.304 81.4444 41.2042 81.4753 41.1052 81.5048C40.8163 81.5918 40.5261 81.6683 40.2359 81.7342C39.9316 81.8051 39.6266 81.8633 39.3209 81.9104C39.2422 81.923 39.1642 81.9342 39.0855 81.9447C38.5085 82.024 37.9294 82.0633 37.3476 82.0633C34.7678 82.0633 32.1451 81.29 29.5098 79.7476C27.6974 78.6866 26.5224 77.2305 26.0108 75.4138C25.9567 75.2215 25.9103 75.025 25.871 74.8243C25.7852 74.3857 25.7374 73.9401 25.7241 73.4917C25.5983 69.6063 27.9476 65.4815 29.2315 63.5293C29.5646 63.3034 29.9216 63.1841 30.3081 63.1665C30.3166 63.1665 30.3243 63.1658 30.3327 63.1658C30.6047 63.1567 30.8724 63.1974 31.1268 63.269C31.11 63.2914 31.0847 63.3258 31.0509 63.3721C31.0397 63.3876 31.027 63.4044 31.0144 63.4226C30.9104 63.5658 30.7523 63.7904 30.5569 64.0823C30.533 64.1188 30.5077 64.156 30.4824 64.1945C30.4065 64.3103 30.325 64.4352 30.24 64.5686C30.1268 64.7461 30.0073 64.9384 29.883 65.1447C29.8204 65.2478 29.7572 65.3545 29.6932 65.464C29.533 65.7376 29.3678 66.0317 29.202 66.3411C29.1022 66.5271 29.0024 66.7194 28.9033 66.9158C28.8042 67.113 28.7059 67.3151 28.6096 67.5214C28.5133 67.7277 28.4184 67.939 28.3264 68.1537C28.2955 68.2253 28.2652 68.2975 28.235 68.3698C28.1753 68.5144 28.1163 68.661 28.0593 68.8084C28.0024 68.9558 27.9469 69.1052 27.8935 69.2547C27.8127 69.48 27.7368 69.708 27.6665 69.9375C27.5723 70.2434 27.4873 70.5522 27.4142 70.8631C27.2322 71.6399 27.1233 72.4265 27.124 73.1963C27.124 73.658 27.164 74.1135 27.2512 74.5577C27.2575 74.5885 27.2638 74.6194 27.2708 74.6503C27.2947 74.7633 27.3214 74.8748 27.351 74.9843C27.4543 75.3681 27.5934 75.7302 27.7691 76.0713C27.9448 76.4123 28.1556 76.7323 28.4044 77.0327C28.8752 77.6032 29.4796 78.1021 30.221 78.5364C31.8338 79.481 33.4368 80.1104 35.0208 80.4227C35.2632 80.4711 35.505 80.5111 35.7467 80.5448C35.9884 80.5778 36.2288 80.6037 36.4698 80.622C36.7102 80.6402 36.9498 80.6508 37.1894 80.6543C37.4291 80.6578 37.668 80.6536 37.9062 80.6416C38.0623 80.6346 38.2176 80.6241 38.3729 80.6108C38.4502 80.6037 38.5282 80.596 38.6055 80.5876C38.6828 80.5792 38.7608 80.5694 38.8381 80.5595L39.1796 80.5104C39.2703 80.4957 39.3602 80.4802 39.4509 80.4634C39.5415 80.4466 39.6315 80.4283 39.7214 80.4094C39.8255 80.3876 39.9295 80.3645 40.0335 80.3399C40.3448 80.2662 40.6554 80.1785 40.9639 80.0789C41.6652 79.8515 42.3413 79.5624 42.9899 79.2255C43.3793 79.0242 43.7587 78.8052 44.1284 78.5722C44.5852 78.2838 45.0265 77.9744 45.4517 77.6488C46.387 76.9323 47.2451 76.1401 48.0174 75.3317C48.191 75.1506 48.3596 74.9682 48.5241 74.7864C48.6098 74.6917 48.6934 74.5977 48.7764 74.5036C48.8593 74.4089 48.9415 74.3149 49.0216 74.2208C49.0905 74.1401 49.1587 74.0601 49.2261 73.9794C49.4946 73.6587 49.7497 73.3402 49.99 73.0286C50.1706 72.7949 50.3428 72.5655 50.5065 72.3409C50.8087 71.9269 51.0919 71.5178 51.3569 71.1206C51.7975 70.4589 52.1854 69.828 52.5171 69.2582C52.6309 69.0631 52.7385 68.8751 52.839 68.6954C52.8896 68.6049 52.938 68.5172 52.9851 68.4316C53.0322 68.346 53.0779 68.2625 53.1215 68.1811C53.1777 68.0765 53.2311 67.9769 53.2817 67.88C53.3323 67.7839 53.3801 67.692 53.4258 67.6042C53.4595 67.5383 53.4911 67.4758 53.522 67.4155C53.5424 67.3755 53.5621 67.3362 53.5804 67.2983C53.6092 67.2414 53.6366 67.186 53.6619 67.1348C53.6865 67.085 53.7097 67.0372 53.7315 66.993C53.742 66.9706 53.7525 66.9495 53.7624 66.9285C53.8123 66.8246 53.853 66.7383 53.8839 66.6716C53.9156 66.6043 53.9367 66.5573 53.9479 66.532C53.9493 66.5278 53.9507 66.525 53.9521 66.5222C53.9521 66.5222 53.9521 66.5208 53.9528 66.5208C53.9542 66.518 53.9556 66.5152 53.9563 66.5131C53.957 66.5109 53.9577 66.5102 53.9577 66.5095C53.9634 66.4969 53.969 66.485 53.9753 66.4731C53.9809 66.4611 53.9873 66.4499 53.9943 66.438C54.0006 66.4267 54.0076 66.4155 54.0147 66.405C54.0217 66.3938 54.0294 66.3832 54.0371 66.3727C54.0477 66.3587 54.0582 66.3453 54.0695 66.332C54.08 66.3194 54.092 66.3067 54.1039 66.2948C54.1278 66.271 54.1538 66.2485 54.1805 66.2289C54.1974 66.2162 54.2149 66.2043 54.2325 66.1931C54.2508 66.1825 54.2691 66.172 54.2873 66.1629C54.2965 66.158 54.3063 66.1538 54.3154 66.1496C54.3253 66.1453 54.3351 66.1411 54.3442 66.1376C54.3639 66.1299 54.3836 66.1236 54.4033 66.1173C54.4194 66.1124 54.4356 66.1082 54.4525 66.1047C54.4686 66.1011 54.4848 66.0983 54.5017 66.0955C54.5101 66.0941 54.5178 66.0934 54.5263 66.0927C54.5347 66.0913 54.5431 66.0913 54.5516 66.0906C54.5677 66.0892 54.5846 66.0885 54.6008 66.0885H54.6022C54.6183 66.0885 54.6352 66.0892 54.6513 66.0906C54.664 66.0913 54.6773 66.0927 54.69 66.0941C54.6914 66.0941 54.6928 66.0941 54.6942 66.0948C54.6991 66.0948 54.7034 66.0948 54.7083 66.0969C54.7244 66.099 54.7406 66.1025 54.7568 66.1061C54.7715 66.1096 54.7856 66.1131 54.7996 66.1173C54.8277 66.125 54.8558 66.1355 54.8833 66.1475C54.8889 66.1496 54.8945 66.1524 54.8994 66.1552C54.9128 66.1608 54.9254 66.1678 54.9388 66.1748C54.9683 66.1903 54.9964 66.2085 55.0231 66.2289C55.0365 66.2387 55.0498 66.2492 55.0625 66.2604C55.0751 66.2717 55.0878 66.2829 55.0997 66.2948C55.1116 66.3067 55.1236 66.3194 55.1348 66.3327C55.1461 66.3453 55.1566 66.3587 55.1665 66.3727C55.1784 66.3881 55.1889 66.4043 55.1988 66.4211C55.2065 66.4324 55.2128 66.4436 55.2192 66.4555C55.2311 66.4766 55.2417 66.4983 55.2508 66.5208C55.2712 66.5699 55.2866 66.6218 55.2951 66.6752C55.2958 66.678 55.2965 66.6808 55.2965 66.6836C55.3161 66.8106 55.3014 66.9446 55.2459 67.0709Z" fill="#481B15"/>
<path d="M34.0329 64.1238C34.0034 64.1786 33.9662 64.2298 33.9212 64.2768C33.8868 64.3126 33.8488 64.3442 33.8095 64.3715C33.7497 64.4122 33.6858 64.4424 33.6183 64.4628C33.5516 64.4831 33.4827 64.4936 33.4131 64.4936C33.2388 64.4936 33.0645 64.4291 32.9289 64.3C32.9247 64.2965 32.872 64.2473 32.7799 64.1715C32.5038 63.9449 31.872 63.4782 31.1264 63.2691C30.872 63.1975 30.6042 63.1568 30.3323 63.166C30.3238 63.166 30.3161 63.1667 30.3077 63.1667C29.9212 63.1842 29.5642 63.3035 29.2311 63.5295C29.0385 63.6593 28.853 63.8256 28.6738 64.0284C28.4173 64.3189 27.9731 64.347 27.6822 64.0901C27.3913 63.834 27.3631 63.3905 27.6204 63.1C28.366 62.2558 29.2521 61.806 30.2543 61.7639C32.1988 61.6818 33.8305 63.2193 33.8994 63.2846C33.9289 63.3126 33.9549 63.3428 33.9788 63.3744C34.0161 63.4249 34.0463 63.4796 34.0688 63.5365C34.1426 63.7259 34.1313 63.9414 34.0329 64.1238Z" fill="#481B15"/>
<path d="M81.3641 63.7017C81.1069 63.9916 80.6627 64.0182 80.3725 63.7607C80.2123 63.6189 80.0513 63.5003 79.8883 63.4042C79.5432 63.2014 79.1905 63.0997 78.8215 63.0983C78.7632 63.0976 78.7042 63.099 78.6451 63.1039C78.4392 63.12 78.2389 63.1649 78.0471 63.2295C76.9901 63.5846 76.1918 64.5368 76.182 64.548C76.0429 64.7157 75.8419 64.8028 75.6388 64.8028C75.482 64.8028 75.3239 64.7508 75.1932 64.6435C74.8946 64.3979 74.8496 63.9579 75.0948 63.6582C75.1096 63.64 75.2087 63.5207 75.3787 63.3488C75.896 62.8274 77.0675 61.8225 78.5271 61.7053C79.5271 61.6253 80.461 61.9636 81.305 62.7109C81.5953 62.9677 81.622 63.4119 81.3641 63.7017Z" fill="#481B15"/>
<path d="M63.2235 58.1253C63.0844 58.2923 62.8848 58.3786 62.6831 58.3786C62.5243 58.3786 62.3655 58.326 62.2341 58.2172L61.1532 57.3204C60.8546 57.0727 60.8138 56.6299 61.0612 56.3317C61.3099 56.0342 61.7527 55.9928 62.0513 56.2405L63.1322 57.1373C63.4308 57.385 63.4716 57.8271 63.2235 58.1253Z" fill="#481B15"/>
<path d="M67.4167 61.6043C67.2783 61.7714 67.078 61.8577 66.8763 61.8577C66.7175 61.8577 66.5587 61.8043 66.4273 61.6956L64.331 59.9567C64.0323 59.709 63.9915 59.2669 64.2389 58.9687C64.487 58.6704 64.9304 58.6297 65.2291 58.8774L67.3254 60.6163C67.624 60.864 67.6648 61.3061 67.4167 61.6043Z" fill="#481B15"/>
<path d="M70.6696 64.1286C70.6492 64.1672 70.6239 64.2051 70.5944 64.2402C70.4553 64.4072 70.255 64.4935 70.0533 64.4935C69.8952 64.4935 69.7364 64.4402 69.605 64.3314L69.5782 64.3097L68.5241 63.4346C68.2255 63.1869 68.184 62.7448 68.4321 62.4466C68.6801 62.1484 69.1236 62.107 69.4215 62.3547L70.5031 63.2515C70.7666 63.4697 70.8291 63.8395 70.6696 64.1286Z" fill="#481B15"/>
<path d="M62.1688 63.2484C62.0297 63.4154 61.8301 63.5017 61.6284 63.5017C61.4696 63.5017 61.3108 63.4491 61.1794 63.3403L60.0985 62.4435C59.7999 62.1958 59.7591 61.753 60.0065 61.4548C60.2553 61.1572 60.698 61.1158 60.9967 61.3635L62.0775 62.2603C62.3761 62.508 62.4169 62.9501 62.1688 63.2484Z" fill="#481B15"/>
<path d="M66.3625 66.7269C66.2241 66.8939 66.0238 66.9802 65.8221 66.9802C65.6633 66.9802 65.5045 66.9269 65.3731 66.8181L63.5522 65.308L63.2768 65.0792C62.9781 64.8315 62.9373 64.3894 63.1847 64.0912C63.4328 63.793 63.8762 63.7523 64.1749 64L65.3857 65.0042L66.2712 65.7389C66.5698 65.9866 66.6106 66.4287 66.3625 66.7269Z" fill="#481B15"/>
<path d="M69.5402 69.3628C69.4011 69.5298 69.2008 69.6161 68.9991 69.6161C68.841 69.6161 68.6822 69.5628 68.5508 69.454L67.4699 68.5572C67.1713 68.3095 67.1298 67.8674 67.3779 67.5692C67.6259 67.2709 68.0694 67.2295 68.3673 67.4772L69.4489 68.374C69.7475 68.6218 69.7883 69.0645 69.5402 69.3628Z" fill="#481B15"/>
<path d="M46.3283 58.233L45.2475 59.1298C45.1161 59.2386 44.9566 59.2912 44.7984 59.2912C44.5967 59.2912 44.3965 59.2049 44.2573 59.0379C44.0093 58.7397 44.0507 58.2976 44.3487 58.0499L45.4302 57.1531C45.7289 56.9054 46.1716 56.9468 46.4197 57.2443C46.6677 57.5425 46.627 57.9853 46.3283 58.233Z" fill="#481B15"/>
<path d="M43.1504 60.8688L41.0541 62.6077C40.9227 62.7164 40.7631 62.7698 40.605 62.7698C40.4033 62.7698 40.203 62.6835 40.0639 62.5165C39.8158 62.2182 39.8573 61.7761 40.156 61.5284L42.2523 59.7895C42.5509 59.5418 42.9937 59.5825 43.2417 59.8808C43.4898 60.179 43.449 60.6211 43.1504 60.8688Z" fill="#481B15"/>
<path d="M39.0775 64.2185C39.0438 64.2648 39.0037 64.3083 38.9574 64.3469L37.8765 65.2438C37.7451 65.3525 37.5856 65.4059 37.4275 65.4059C37.2258 65.4059 37.0255 65.3195 36.8864 65.1525C36.639 64.8543 36.6798 64.4115 36.9784 64.1638L37.2722 63.9196L38.0593 63.267C38.3579 63.02 38.8007 63.0607 39.0487 63.3589C39.2581 63.6108 39.2617 63.9652 39.0775 64.2185Z" fill="#481B15"/>
<path d="M47.3825 63.3556L46.3017 64.2524C46.1703 64.3612 46.0108 64.4138 45.8526 64.4138C45.6509 64.4138 45.4507 64.3275 45.3115 64.1605C45.0635 63.8622 45.1049 63.4202 45.4029 63.1724L46.4844 62.2756C46.7831 62.0279 47.2258 62.0693 47.4739 62.3669C47.7219 62.6651 47.6812 63.1079 47.3825 63.3556Z" fill="#481B15"/>
<path d="M44.2046 65.9914L42.1083 67.7302C41.9769 67.839 41.8173 67.8923 41.6592 67.8923C41.4575 67.8923 41.2572 67.806 41.1181 67.639C40.87 67.3408 40.9115 66.8987 41.2102 66.651L43.2987 64.9184L43.3065 64.9121C43.6051 64.6644 44.0479 64.7051 44.2959 65.0033C44.3198 65.0321 44.3409 65.0623 44.3592 65.0938C44.5335 65.3851 44.4744 65.7675 44.2046 65.9914Z" fill="#481B15"/>
<path d="M40.0116 69.4695L38.9307 70.3663C38.7993 70.4751 38.6398 70.5284 38.4817 70.5284C38.28 70.5284 38.0797 70.4421 37.9406 70.2751C37.6932 69.9769 37.734 69.5341 38.0326 69.2864L39.1135 68.3895C39.4121 68.1425 39.8548 68.1832 40.1029 68.4815C40.351 68.7797 40.3102 69.2218 40.0116 69.4695Z" fill="#481B15"/>
<path d="M54.6181 68.1675C55.9807 72.3119 57.24 76.5054 57.8697 80.828C57.9547 81.4442 58.0313 82.0617 58.0644 82.6813C57.8732 81.4575 57.5605 80.2575 57.2232 79.0674C56.5443 76.6893 55.6821 74.3757 54.7537 72.0859C54.2892 70.9428 53.8071 69.8004 53.3096 68.6797L54.6181 68.1675Z" fill="#481B15"/>
</svg>
